<svg width="48" height="35" viewBox="0 0 48 35" fill="none" xmlns="http://www.w3.org/2000/svg">
<g clip-path="url(#clip0)">
<path fill-rule="evenodd" clip-rule="evenodd" d="M47.7722 33.2811H45.5516V33.822H48V34.6192H44.2989V31.1459H47.9431V31.943H45.5516V32.5124H47.7722V33.2811ZM33.0534 31.2313C32.7117 31.0889 32.2847 31.032 31.7722 31.032C30.8612 31.0604 30.2064 31.3167 29.8363 31.8291C29.637 32.1138 29.5231 32.4839 29.5231 32.911C29.5231 33.3096 29.637 33.6512 29.8648 33.9359C30.2349 34.4768 30.8612 34.733 31.8007 34.733C32.5409 34.733 33.0818 34.5907 33.452 34.2775L33.8505 33.822C34.0214 33.5658 34.1068 33.2241 34.1068 32.8825C34.1352 32.0569 33.7936 31.516 33.0534 31.2313ZM32.8541 32.8825C32.8541 33.3665 32.6833 33.6797 32.3132 33.8505C32.1708 33.9359 32.0285 33.9644 31.8292 33.9644C31.4875 33.9644 31.2028 33.8505 31.032 33.6227C30.8612 33.4234 30.7758 33.1672 30.7758 32.8825C30.7758 32.5978 30.8327 32.3416 31.0036 32.1423C31.2028 31.8861 31.4591 31.7722 31.8292 31.7722C32.1993 31.8007 32.484 31.943 32.6548 32.1708C32.7971 32.3985 32.8541 32.6263 32.8541 32.8825ZM28.8683 33.3665H26.9039V34.6192H25.6797V31.1459H29.0676V31.943H26.9324V32.5978H28.8968V33.3665H28.8683ZM40.9395 32.0569C40.7117 32.2562 40.6263 32.5124 40.6263 32.8825C40.6263 33.1672 40.7117 33.4234 40.8541 33.5943C41.0249 33.822 41.3096 33.9359 41.6512 33.9359C41.9075 33.9359 42.1352 33.879 42.363 33.7081C42.4769 33.6227 42.5623 33.5088 42.6192 33.3665L43.7865 33.4804L43.5872 33.9074C43.2456 34.4483 42.5907 34.733 41.6228 34.733L40.6263 34.5907C39.7722 34.3345 39.3452 33.7651 39.3452 32.8825C39.3452 32.427 39.4875 32.0284 39.7438 31.6868C40.1423 31.2313 40.7687 31.0035 41.6512 31.0035C42.7616 31.0035 43.4733 31.3736 43.7011 32.0854L42.5623 32.2846C42.5053 32.1423 42.4199 32.0284 42.2776 31.9145C42.1068 31.8007 41.9075 31.7437 41.6797 31.7437C41.395 31.7722 41.1388 31.8861 40.9395 32.0569ZM38.7473 32.2562C38.7473 31.8576 38.605 31.5729 38.3488 31.3736C38.1495 31.2313 37.8078 31.1459 37.3808 31.1459H34.847V34.6192H36.0712V33.3665H36.7544L37.4662 34.6192H38.8327L37.9786 33.2241C38.2349 33.1387 38.4342 33.0249 38.548 32.8825C38.6619 32.7117 38.7473 32.5124 38.7473 32.2562ZM37.4947 32.2562C37.4947 32.4839 37.3238 32.5693 36.9822 32.5693H36.0427V31.943H37.0961C37.2384 31.943 37.3238 31.943 37.4092 31.9999L37.4947 32.2562ZM9.53737 32.6548C9.93594 32.7971 10.1352 33.0533 10.1352 33.4804C10.1352 33.7081 10.0783 33.9074 9.96441 34.0782C9.70819 34.4768 9.08185 34.7046 8.14235 34.7046C7.45907 34.7046 7.00356 34.5622 6.71886 34.306C6.51957 34.1352 6.40569 33.9074 6.34875 33.5658L7.57295 33.5088C7.60142 33.7651 7.85765 33.9074 8.34164 33.9074L8.76868 33.822C8.88256 33.7366 8.9395 33.6797 8.9395 33.5658C8.9395 33.4234 8.88256 33.3665 8.68327 33.3096L7.20285 32.9679C6.74733 32.7971 6.51957 32.5124 6.51957 32.0854C6.51957 31.8291 6.60498 31.6298 6.7758 31.4021C7.0605 31.1174 7.57295 30.975 8.22776 30.975L9.28114 31.1174C9.67971 31.2597 9.93594 31.5444 10.0498 31.9999L8.85409 32.0569C8.79715 31.8576 8.59786 31.7437 8.25623 31.7437C7.88612 31.7437 7.7153 31.8291 7.7153 31.9999L7.77224 32.1138C7.82918 32.1992 8.02847 32.2562 8.39858 32.3416L9.53737 32.6548ZM10.363 33.7081H11.5018V34.6192H10.363V33.7081ZM4.09964 32.9679C4.09964 33.5088 4.01423 33.9074 3.90036 34.1067C3.61566 34.5338 3.01779 34.7615 2.04982 34.7615C1.36655 34.7615 0.882562 34.6761 0.597865 34.5053C0.199288 34.306 0 33.9359 0 33.395V31.1743H1.2242V33.1672C1.2242 33.395 1.25267 33.5658 1.30961 33.6797C1.45196 33.9074 1.70818 34.0213 2.04982 34.0213C2.30605 34.0213 2.50534 33.9359 2.64769 33.822C2.79004 33.6797 2.84698 33.4804 2.84698 33.1672V31.2028H4.09964V32.9679ZM4.3274 33.7081H5.43772V34.6192H4.3274V33.7081ZM22.3203 31.1459H19.7865V34.6192H21.0391V33.3665H21.6939L22.4342 34.6192H23.8007L22.9181 33.2241C23.1744 33.1672 23.3737 33.0533 23.516 32.8825C23.6584 32.7117 23.7153 32.4839 23.7153 32.2277C23.7153 31.8291 23.573 31.5444 23.3167 31.3451C23.0605 31.2313 22.7758 31.1459 22.3203 31.1459ZM21.9502 32.5693H21.0107V31.943H22.0356C22.1779 31.943 22.2918 31.943 22.3488 31.9999C22.4057 32.0569 22.4342 32.1423 22.4342 32.2277C22.4626 32.4839 22.2918 32.5693 21.9502 32.5693ZM17.6228 31.1459H18.8754V34.6192H17.6228V31.1459ZM14.9466 32.1138L15.3452 33.2811H14.548L14.9466 32.1138ZM14.2349 31.1459L12.726 34.6192H14.0925L14.2633 34.0498H15.6014L15.8007 34.6192H17.1388L15.6584 31.1459H14.2349Z" fill="#fff"/>
<path fill-rule="evenodd" clip-rule="evenodd" d="M37.7787 0L33.8784 8.11388L39.6862 3.92883L37.7787 0ZM40.0563 4.55516L24.0563 16.1708L25.0243 19.0747L37.3802 10.1068L40.0563 4.55516ZM36.7254 11.5018L25.252 19.8149H30.2343L34.0207 17.0534L36.7254 11.5018ZM25.4798 21.9502C25.4798 22.4057 25.309 22.8327 24.9674 23.1459C24.6257 23.4875 24.2271 23.6584 23.7432 23.6584C23.2592 23.6584 22.8606 23.4875 22.519 23.1459C22.1773 22.8043 22.0065 22.4057 22.0065 21.9502C22.0065 21.4662 22.1773 21.0391 22.519 20.726C22.8606 20.3843 23.2592 20.2135 23.7432 20.2135C24.2271 20.2135 24.6542 20.3843 24.9674 20.726C25.2805 21.0676 25.4798 21.4662 25.4798 21.9502ZM26.22 22.7473L27.4158 26.4199L31.2022 23.6584L28.0706 21.3808L26.22 22.7473ZM7.77162 3.92883L13.551 8.11388L9.6791 0L7.77162 3.92883ZM10.0492 10.1068L22.4335 19.0747L23.4015 16.1708L7.37305 4.55516L10.0492 10.1068ZM13.4086 17.0818L17.1951 19.8434H22.1773L10.7325 11.5018L13.4086 17.0818ZM19.3588 21.4092L16.2271 23.6868L20.0421 26.4484L21.2378 22.7758L19.3588 21.4092ZM23.7147 29.1246L26.8464 26.8754L23.7147 24.5979L20.583 26.8754L23.7147 29.1246Z" fill="#fff"/>
</g>
<defs>
<clipPath id="clip0">
<rect width="48" height="34.7331" fill="white"/>
</clipPath>
</defs>
</svg>
