<svg width="123" height="50" viewBox="0 0 123 50" fill="none" xmlns="http://www.w3.org/2000/svg">
<path fill-rule="evenodd" clip-rule="evenodd" d="M0 0H17.6767C23.2322 0 27.8786 3.38382 29.5958 8.68682C31.313 13.9393 29.5453 19.4443 25.0504 22.7271L24.3938 23.2322L19.3433 19.5454L21.01 18.2827C24.5958 15.6565 24.4443 12.4747 23.8383 10.5555C23.1312 8.4343 21.1615 6.11108 17.6767 6.11108H0V0ZM25.0504 27.2728L21.9191 25.0001L16.7171 21.2123L4.84846 12.6264C3.93937 11.9699 2.67675 11.8689 1.66666 12.3739C0.656562 12.879 0 13.9396 0 15.1012V34.9496C0 36.1112 0.656562 37.1213 1.66666 37.6768C2.67675 38.2324 3.93937 38.0809 4.84846 37.4243L14.2423 30.6061L9.04036 26.8183L6.11108 28.9395V21.0607L11.5656 25.0001L16.7171 28.788L21.4645 32.2223C24.2423 34.2425 24.4948 37.2728 23.8383 39.4445C23.1312 41.6162 21.1615 43.8889 17.6767 43.8889H0V50H17.6767C23.2322 50 27.9291 46.6162 29.6463 41.3132C31.313 36.0607 29.4948 30.5556 25.0504 27.2728ZM52.0192 20.6056C49.8475 20.6056 47.9788 21.3127 46.6657 22.7773V12.5249H42.8273V37.1712H46.6151V35.7066C47.9788 36.9187 49.7464 37.5247 51.7666 37.5247C56.2616 37.5247 59.8979 33.9389 59.8979 29.0904C59.8979 24.04 56.3626 20.6056 52.0192 20.6056ZM51.0091 34.3429C49.0394 34.3429 47.5242 33.4843 46.6657 32.1207V25.9591C47.5747 24.6965 49.0899 23.8884 50.9586 23.8884C53.8878 23.8884 56.009 26.0601 56.009 29.0904C56.009 32.1207 53.9888 34.3429 51.0091 34.3429ZM66.3137 12.5249H62.4754V37.1712H66.3137V12.5249ZM68.8369 29.0401C68.8369 24.0401 72.6247 20.6058 76.8671 20.6058C81.8671 20.6058 84.6954 24.1916 84.6449 29.0906V29.8986H72.6247C73.0288 32.5754 74.8974 34.2925 78.1803 34.2925C80.3015 34.2925 82.7257 33.4845 84.1903 32.3229V35.6057C82.8267 36.6663 80.453 37.4743 77.9277 37.4743C72.6247 37.4743 68.8369 34.0905 68.8369 29.0401ZM76.8671 23.737C74.8974 23.737 73.3823 24.9492 72.8267 27.1209H80.857C80.4025 25.1512 78.9883 23.737 76.8671 23.737ZM96.3146 20.6058C94.1429 20.6058 92.3753 21.4643 91.2137 22.7775V21.0098H87.4258V37.2218H91.2642V25.8077C92.1227 24.6966 93.4359 23.9391 95.2541 23.9391C97.4258 23.9391 98.6884 25.4542 98.6884 27.5754V37.1713H102.527V27.1209C102.577 23.232 100.305 20.6058 96.3146 20.6058ZM118.232 22.4238V12.5249H122.121V37.2722H118.333V35.4035C117.02 36.8177 115.151 37.5752 113.03 37.5752C108.636 37.5752 105.05 34.1409 105.05 29.1914C105.05 24.2925 108.687 20.6561 113.181 20.6561C115.151 20.6561 116.919 21.2117 118.232 22.4238ZM113.939 34.2924C115.808 34.2924 117.323 33.4843 118.232 32.2217V26.0096C117.373 24.646 115.858 23.7874 113.889 23.7874C110.959 23.7874 108.889 26.0096 108.889 29.0399C108.889 32.1207 111.01 34.2924 113.939 34.2924Z" fill="white"/>
</svg>
