<svg width="48" height="23" viewBox="0 0 48 23" fill="none" xmlns="http://www.w3.org/2000/svg">
<path d="M5.14286 1.60714V8.03571C5.14286 8.03571 7.39286 8.03571 8.57143 7.92857C9.53571 7.71429 9.75 7.71429 9.85714 6.75L10.1786 5.35714H11.25L11.1429 8.46429L11.25 11.5714H10.1786L9.96429 10.2857C9.64286 9.42857 9.32143 9.32143 8.57143 9.21428C7.71429 9.10714 5.14286 9.10714 5.14286 9.10714V14.4643C5.14286 15.5357 5.67857 15.9643 6.85714 15.9643H10.5C11.6786 15.9643 12.75 15.8571 13.5 14.25L14.4643 12.1071H15.3214C15.2143 12.5357 14.7857 16.3929 14.6786 17.25C14.6786 17.25 11.3571 17.1429 9.96429 17.1429H3.75L0 17.25V16.2857L1.17857 16.0714C2.14286 15.8571 2.35714 15.6429 2.35714 14.8929C2.35714 14.8929 2.46429 12.5357 2.46429 8.57143C2.46429 4.71429 2.35714 2.35714 2.35714 2.35714C2.35714 1.60714 2.14286 1.39286 1.17857 1.17857L0 1.07143V0.107143L3.64286 0.214286H10.6071C12 0.214286 14.3571 0 14.3571 0C14.3571 0 14.25 1.5 14.1429 4.92857H13.1786L12.8571 3.64286C12.5357 2.03571 12 1.28571 11.0357 1.28571H5.57143C5.14286 1.28571 5.14286 1.39286 5.14286 1.60714ZM19.1786 2.35714H20.25V6L23.7857 5.78571L23.5714 7.39286L20.1429 7.17857V13.6071C20.1429 15.4286 20.7857 16.1786 21.75 16.1786C22.7143 16.1786 23.3571 15.6429 23.6786 15.2143L24.2143 15.8571C23.6786 17.0357 22.1786 17.6786 20.7857 17.6786C19.0714 17.6786 17.6786 16.6071 17.6786 14.6786V7.28571H15.6429V6.42857C17.3571 6.21429 18.75 5.14286 19.1786 2.35714ZM26.6786 13.5L27.3214 15.1071C27.5357 15.75 28.1786 16.5 29.5714 16.5C31.0714 16.5 31.7143 15.75 31.7143 14.7857C31.7143 11.7857 25.9286 12.6429 25.9286 8.67857C25.9286 6.42857 27.75 5.35714 30.1071 5.35714C31.1786 5.35714 32.6786 5.57143 33.5357 5.89286C33.3214 6.85714 33.2143 7.92857 33.2143 8.89286L32.3571 9L31.7143 7.28571C31.5 6.85714 30.8571 6.53571 30 6.53571C28.9286 6.53571 27.8571 6.96429 27.8571 8.14286C27.8571 10.8214 33.8571 10.2857 33.8571 14.25C33.8571 16.5 31.8214 17.6786 29.4643 17.6786C27.6429 17.6786 25.8214 16.9286 25.8214 16.9286C26.0357 15.8571 25.9286 14.7857 25.8214 13.6071C25.8214 13.5 26.6786 13.5 26.6786 13.5ZM33.5357 21.8571C33.75 20.8929 33.9643 19.7143 34.1786 18.5357L35.1429 18.4286L35.4643 20.25C35.5714 20.6786 35.7857 21 36.5357 21C37.7143 21 39.1071 20.3571 40.5 17.8929C39.8571 16.3929 38.0357 11.6786 36.4286 7.92857C36 6.96429 35.8929 6.85714 35.3571 6.75L34.9286 6.53571V5.78571L37.5 5.89286L40.7143 5.67857V6.53571L39.9643 6.75C39.3214 6.85714 39.1071 7.17857 39.1071 7.5C39.1071 7.60714 39.1071 7.71429 39.2143 7.82143C39.4286 8.35714 40.8214 12.2143 41.7857 14.8929C42.6429 13.0714 44.3571 9 44.5714 8.25C44.6786 7.92857 44.7857 7.82143 44.7857 7.60714C44.7857 7.17857 44.5714 6.85714 43.9286 6.75L43.2857 6.53571V5.67857L45.75 5.78571L48 5.67857V6.53571L47.5714 6.85714C46.6071 7.28571 46.5 7.39286 46.0714 8.03571L42.3214 17.0357C40.0714 22.1786 37.7143 22.6071 36 22.6071C34.9286 22.6071 34.1786 22.2857 33.5357 21.8571Z" fill="#fff"/>
</svg>
