<svg width="80" height="18" viewBox="0 0 80 18" fill="none" xmlns="http://www.w3.org/2000/svg">
<path d="M8.96484 11.1594V0.0303955H12.596V10.7036C12.596 11.4557 12.7632 11.638 13.5304 11.638H13.8419L14.2673 14.5855C13.9938 14.6235 12.8695 14.6995 12.1934 14.6995C10.1955 14.6995 8.96484 14.0006 8.96484 11.1594Z" fill="#fff"/>
<path d="M36.7598 4.36791L39.5857 4.14761L39.8592 4.99083C40.4289 4.45907 41.4165 3.92731 43.5435 3.92731C47.2127 3.92731 48.0483 6.51016 48.0483 9.38928C48.0483 12.2836 47.114 14.8361 43.3232 14.8361C41.6368 14.8361 40.8467 14.4486 40.391 14.0308V17.6848H36.7598V4.36791V4.36791ZM44.364 9.53361C44.364 8.30296 44.1437 7.22424 42.5712 7.22424C40.8847 7.22424 40.391 8.08266 40.391 9.53361C40.391 10.9846 40.7556 11.767 42.5712 11.767C44.1057 11.767 44.364 10.7567 44.364 9.53361Z" fill="#fff"/>
<path d="M60.9941 4.3681L63.8201 4.1478L64.1847 5.24931C64.6405 4.62638 65.9092 4.09462 67.4133 4.04144V7.53589C64.9976 7.55108 64.6253 8.27276 64.6253 9.70852V14.6767H60.9941V4.3681Z" fill="#fff"/>
<path d="M68.4219 4.04163H70.2906L70.8756 1.90698L73.6787 1.29926V4.03404H75.9729V7.52848H73.6787V10.5595C73.6787 11.2736 73.7927 11.6383 74.9246 11.6383H75.9729V14.6617C75.426 14.6997 74.8182 14.7149 74.1421 14.7149C71.0807 14.7149 70.0703 13.7425 70.0703 11.1065V7.52848H68.4219V4.04163V4.04163Z" fill="#fff"/>
<path d="M80 11.6378H76.9766V14.6613H80V11.6378Z" fill="#fff"/>
<path d="M0 4.16295H1.98272V3.95784C1.98272 1.32181 2.97028 0 6.38116 0C7.27756 0 7.44469 0.0151932 7.88529 0.0531763V3.00066H6.86734C5.82661 3.00066 5.60631 3.25895 5.60631 3.93505V4.16295H7.87769V7.23958H5.60631V14.6615H1.97512V7.23958H0V4.16295Z" fill="#fff"/>
<path d="M22.1665 11.5317C21.5664 11.8812 21.2549 11.9647 20.0623 11.9647C18.6417 11.9647 18.0947 11.4634 17.9124 10.6049H24.8861C25.0153 6.90539 24.7038 3.91992 20.0623 3.91992C15.3979 3.91992 14.418 6.48758 14.418 9.35151C14.418 12.2838 15.3979 14.8667 20.0623 14.8667C21.9006 14.8667 23.0629 14.5248 24.2936 13.7272L22.1665 11.5317ZM19.9483 6.8978C21.4448 6.8978 21.5512 7.61188 21.6044 8.4627H17.8668C18.0188 7.45995 18.4898 6.8978 19.9483 6.8978Z" fill="#fff"/>
<path d="M32.0806 14.6689L30.303 12.124L28.5253 14.6689H24.4688L28.2671 9.25249L24.8182 4.36786H28.9128L30.3181 6.35817L31.7235 4.36786H35.8713L32.354 9.2297L36.1675 14.6689H32.0806Z" fill="#fff"/>
<path d="M48.8008 9.38189C48.8008 5.90264 50.3961 3.91992 54.4982 3.91992C58.6004 3.91992 60.1805 5.90264 60.1805 9.38189C60.1805 12.8611 58.608 14.8591 54.4982 14.8591C50.3961 14.8667 48.8008 12.8687 48.8008 9.38189ZM56.5341 9.49584C56.5341 8.17403 56.2075 7.22445 54.4982 7.22445C52.7966 7.22445 52.4623 8.17403 52.4623 9.49584C52.4623 10.7949 52.789 11.7672 54.4982 11.7672C56.2075 11.7672 56.5341 10.7949 56.5341 9.49584Z" fill="#fff"/>
</svg>
