<svg width="36" height="36" viewBox="0 0 36 36" fill="none" xmlns="http://www.w3.org/2000/svg">
<path d="M28.9895 24.3789H16.2322L16.2316 24.3783V26.7158L16.2951 26.6526H28.9895L28.9901 26.6526L28.9895 26.652V24.3789Z" fill="#fff"/>
<path d="M16.2947 21.7263L16.3579 21.664V9.28421H26.5914C26.6313 9.28652 26.671 9.28962 26.7104 9.2935C27.1713 9.33034 27.6018 9.47537 27.9765 9.70322C28.2008 9.83281 28.3943 9.98194 28.5467 10.1356C28.9617 10.5537 29.3552 11.316 29.3665 11.9829L29.3667 12.0769C29.3678 12.1103 29.3684 12.1438 29.3684 12.1775V13.5206C29.3688 14.239 29.3687 14.9574 29.3684 15.6758V21.3674L29.369 21.7263L29.3684 21.7257V21.7895H26.7663V12.4832C26.7663 12.0172 26.4031 11.6368 25.9462 11.6122H24.1642V21.7895H21.5621V21.7263L21.5368 21.7263L21.5621 21.7014V21.7L21.5368 21.7263V11.6318L21.5568 11.6109H21.5439L21.5337 11.6211H18.96V21.7895H16.3579V21.7263L16.2947 21.7263Z" fill="#fff"/>
<path fill-rule="evenodd" clip-rule="evenodd" d="M14.5263 22.3579V22.2132L14.5264 22.1919L14.5264 22.1763L14.5263 22.1488L14.5263 9.28421H9.59115C8.05441 9.28421 6.79739 10.4807 6.70127 11.993C6.69694 12.0579 6.69474 12.1234 6.69474 12.1895V18.8716C6.69474 18.9041 6.69527 18.9365 6.69633 18.9688C6.73648 20.5336 8.01731 21.7895 9.59178 21.7895H11.8821C11.8892 21.9533 11.8882 21.9846 11.8813 22.2017L11.8794 22.2644C11.8699 23.9293 10.3579 24.2722 9.76231 24.3291H8.08421V26.6526L8.14547 26.5917V26.7158H9.59558C12.3183 26.7158 14.5263 24.7648 14.5263 22.3579ZM9.30505 12.48C9.30505 11.9987 9.69474 11.6084 10.1754 11.6084H11.8876V11.6101L11.8737 11.6242V19.3863L11.8876 19.4004V19.4526H10.1754C9.69474 19.4526 9.30505 19.0623 9.30505 18.5811V12.48Z" fill="#fff"/>
<path fill-rule="evenodd" clip-rule="evenodd" d="M31.4394 0H4.56063C2.04189 0 0 2.04189 0 4.56063V31.4394C0 33.9581 2.04189 36 4.56063 36H31.4394C33.9581 36 36 33.9581 36 31.4394V31.4178C36.0004 31.392 36.0006 31.3661 36.0006 31.3402V4.65916C36.0006 4.63325 36.0004 4.6074 36 4.5816V4.56063C36 2.04189 33.9581 0 31.4394 0ZM4.46275 2.32558C3.55942 2.3957 2.80121 2.98184 2.48328 3.78886C2.39871 4.02482 2.35263 4.27913 2.35263 4.54421V31.4552C2.35263 31.5824 2.36326 31.7072 2.38366 31.8287C2.59684 32.7407 3.34919 33.4459 4.28709 33.5909C4.3806 33.6027 4.4759 33.6088 4.57263 33.6088H31.3377C32.58 33.6088 33.5874 32.6027 33.5874 31.361V4.57074C33.5874 3.32905 32.58 2.32295 31.3377 2.32295H4.57263C4.53579 2.32295 4.49916 2.32383 4.46275 2.32558Z" fill="#fff"/>
</svg>
