<svg width="111" height="22" viewBox="0 0 111 22" fill="none" xmlns="http://www.w3.org/2000/svg">
<path fill-rule="evenodd" clip-rule="evenodd" d="M13.1994 8.83776C14.5264 10.1647 15.588 12.2879 14.9687 13.5264C13.3763 16.9766 1.16806 22.9038 0.106476 21.8422C-0.866646 20.8691 5.06055 8.66083 8.51071 7.06845C9.74922 6.44919 11.8724 7.51078 13.1994 8.83776Z" fill="#fff"/>
<path fill-rule="evenodd" clip-rule="evenodd" d="M19.655 7.42234C19.478 6.62615 18.8588 5.82996 18.0626 5.74149C16.5587 5.56456 14.2586 8.21853 14.4355 8.83778C14.6124 9.45704 17.8857 10.5186 19.1242 9.63398C19.7434 9.19165 19.8319 8.13006 19.655 7.42234ZM15.0548 0.168158C16.1163 0.433555 17.2664 1.22975 17.3549 2.3798C17.6203 4.41451 13.9047 7.68773 13.02 7.5108C12.1354 7.2454 10.6315 2.64519 11.87 0.964349C12.5777 -0.00877273 13.9932 -0.185704 15.0548 0.168158Z" fill="#fff"/>
<path fill-rule="evenodd" clip-rule="evenodd" d="M47.8105 12.4356L46.7489 12.2587C45.6873 12.0817 45.068 11.7279 45.068 11.1971C45.068 10.4894 45.8642 10.047 47.0143 10.047C47.8105 10.047 48.5182 10.3124 49.1374 10.6663L49.2259 10.7548C49.4028 10.8432 49.4913 10.8432 49.6682 10.8432C50.0221 10.8432 50.376 10.6663 50.5529 10.3124L50.7298 10.1355C50.9068 9.8701 50.9068 9.6047 50.8183 9.3393C50.7298 9.07391 50.5529 8.80851 50.2875 8.72004C49.4028 8.27772 48.3413 7.83539 47.0143 7.83539C44.2718 7.83539 42.4141 9.16237 42.4141 11.2855C42.4141 13.0549 43.6526 14.2049 46.1296 14.4703L47.1912 14.6472C48.3413 14.8242 48.9605 15.178 48.9605 15.7088C48.9605 16.2396 48.6951 16.8589 46.9258 16.8589C45.9527 16.8589 44.8911 16.5935 44.0949 16.0627C43.918 15.9742 43.741 15.8858 43.5641 15.8858C43.2103 15.8858 42.8564 16.0627 42.6795 16.4165L42.591 16.505C42.4141 16.7704 42.4141 17.0358 42.5025 17.3012C42.591 17.5666 42.7679 17.832 43.0333 17.9205C44.4488 18.7167 46.1296 18.9821 46.9258 18.9821C49.8452 18.9821 51.6145 17.7435 51.6145 15.5319C51.6145 13.7626 50.376 12.7895 47.8105 12.4356Z" fill="#fff"/>
<path fill-rule="evenodd" clip-rule="evenodd" d="M81.4266 16.3281C81.2497 16.0627 80.8958 15.9742 80.6304 15.9742C80.4535 15.9742 80.1881 16.0627 80.0112 16.1511C79.3919 16.505 78.7727 16.6819 78.1534 16.6819C76.3841 16.6819 75.1456 15.355 75.1456 13.4087C75.1456 11.4625 76.3841 10.1355 78.1534 10.1355C78.8611 10.1355 79.3919 10.3124 80.0112 10.6663C80.4535 10.9317 81.0728 10.8432 81.4266 10.4893L81.5151 10.4009C81.7805 10.1355 81.869 9.78162 81.869 9.42776C81.869 9.0739 81.6036 8.8085 81.3382 8.5431C80.4535 8.01231 79.3919 7.65845 78.2419 7.65845C74.8802 7.65845 72.5801 9.95855 72.5801 13.3202C72.5801 16.6819 74.8802 18.982 78.2419 18.982C79.3919 18.982 80.4535 18.7166 81.3382 18.0974C81.6036 17.9205 81.7805 17.5666 81.869 17.2127C81.869 16.8589 81.7805 16.505 81.6036 16.2396L81.4266 16.3281Z" fill="#fff"/>
<path fill-rule="evenodd" clip-rule="evenodd" d="M27.5514 3.94287C26.6667 3.94287 25.959 4.6506 25.959 5.53525C25.959 6.41991 26.6667 7.03917 27.4629 7.03917C28.3476 7.03917 29.0553 6.33144 29.0553 5.53525C29.0553 4.6506 28.436 3.94287 27.5514 3.94287Z" fill="#fff"/>
<path fill-rule="evenodd" clip-rule="evenodd" d="M27.9933 7.83539H27.1087C26.6664 7.83539 26.3125 8.18925 26.3125 8.63158V17.9205C26.3125 18.3628 26.6664 18.7167 27.1087 18.7167H27.9933C28.4357 18.7167 28.7895 18.3628 28.7895 17.9205V8.63158C28.7895 8.18925 28.4357 7.83539 27.9933 7.83539Z" fill="#fff"/>
<path fill-rule="evenodd" clip-rule="evenodd" d="M57.8943 16.5935C56.8327 16.5935 55.6827 15.7973 55.6827 14.3818V10.224H57.8943C58.3367 10.224 58.6905 9.8701 58.6905 9.42778V8.63159C58.6905 8.18926 58.3367 7.8354 57.8943 7.8354H55.6827V5.44682C55.6827 5.0045 55.3288 4.65063 54.8865 4.65063H53.9134C53.471 4.65063 53.1172 5.0045 53.1172 5.44682V14.2934C53.1172 16.8589 55.0634 19.0705 57.7174 19.0705C57.9828 19.0705 58.2482 18.9821 58.4251 18.8051C58.6021 18.6282 58.6905 18.3628 58.6905 18.0974V17.4781C58.779 17.0358 58.4251 16.5935 57.8943 16.5935Z" fill="#fff"/>
<path fill-rule="evenodd" clip-rule="evenodd" d="M35.8668 7.74689C32.5935 7.74689 30.8242 10.3124 30.8242 12.524V17.9204C30.8242 18.3628 31.1781 18.7166 31.6204 18.7166H32.5051C32.9474 18.7166 33.3013 18.3628 33.3013 17.9204V12.8779C33.3013 11.197 34.3628 10.047 35.7783 10.047C37.1937 10.047 38.3438 11.2855 38.3438 12.9664V18.0089C38.3438 18.4512 38.6977 18.8051 39.14 18.8051H40.0246C40.467 18.8051 40.8208 18.4512 40.8208 18.0089V12.6125C40.9093 10.3124 39.0515 7.74689 35.8668 7.74689Z" fill="#fff"/>
<path fill-rule="evenodd" clip-rule="evenodd" d="M102.483 7.83535C102.129 7.74689 101.244 7.74689 100.802 7.74689H100.713C98.2362 7.74689 95.8477 9.7816 95.8477 12.6125V12.701V18.0089C95.8477 18.4512 96.2015 18.8051 96.6438 18.8051H97.5285C97.9708 18.8051 98.3247 18.4512 98.3247 18.0089V12.701C98.3247 11.197 99.3863 10.1355 100.802 10.1355C101.067 10.1355 101.333 10.1355 101.598 10.2239C101.686 10.2239 101.775 10.2239 101.775 10.2239C102.306 10.2239 102.748 9.87006 102.836 9.33927C102.925 9.16234 102.925 8.98541 103.013 8.80847C103.102 8.63154 103.013 8.45461 102.925 8.27768C102.836 8.01228 102.66 7.92382 102.483 7.83535Z" fill="#fff"/>
<path fill-rule="evenodd" clip-rule="evenodd" d="M109.205 10.224C109.647 10.224 110.001 9.8701 110.001 9.42778V8.63159C110.001 8.18926 109.647 7.8354 109.205 7.8354H106.993V5.44682C106.993 5.0045 106.639 4.65063 106.197 4.65063H105.224C104.782 4.65063 104.428 5.0045 104.428 5.44682V14.2934C104.428 16.8589 106.374 19.0705 109.028 19.0705C109.293 19.0705 109.559 18.9821 109.736 18.8051C109.913 18.6282 110.001 18.3628 110.001 18.0974V17.4781C110.001 17.0358 109.647 16.682 109.205 16.682C108.143 16.682 106.993 15.8858 106.993 14.4703V10.224H109.205Z" fill="#fff"/>
<path fill-rule="evenodd" clip-rule="evenodd" d="M91.6005 8.63154C90.7158 8.10075 89.6542 7.74689 88.5042 7.74689C88.5042 7.74689 88.5042 7.74689 88.4157 7.74689C88.4157 7.74689 88.4157 7.74689 88.3272 7.74689C87.1772 7.74689 86.1156 8.01228 85.2309 8.63154C83.727 9.60466 82.7539 11.2855 82.7539 13.4087C82.7539 15.6203 83.8155 17.3896 85.4079 18.3628C86.2041 18.8051 87.0887 19.0705 88.0618 19.0705C89.9196 19.0705 90.9812 18.0089 91.3351 17.5666V17.9204C91.3351 18.3628 91.6889 18.7166 92.1313 18.7166H93.0159C93.4582 18.7166 93.8121 18.3628 93.8121 17.9204V13.3202C94.0775 11.2855 93.1044 9.60466 91.6005 8.63154ZM89.4773 16.505C89.2119 16.5934 88.858 16.6819 88.5926 16.6819C88.5926 16.6819 88.5926 16.6819 88.5042 16.6819C88.5042 16.6819 88.5042 16.6819 88.4157 16.6819C88.4157 16.6819 88.4157 16.6819 88.3272 16.6819C88.3272 16.6819 88.3272 16.6819 88.2388 16.6819C87.9734 16.6819 87.6195 16.5934 87.3541 16.505C86.2041 16.0627 85.4079 14.9126 85.4079 13.4087C85.4079 11.6394 86.4695 10.3124 88.0618 10.1355H88.1503C88.1503 10.1355 88.1503 10.1355 88.2388 10.1355H88.3272H88.4157C88.4157 10.1355 88.4157 10.1355 88.5042 10.1355H88.5926C90.185 10.3124 91.2466 11.6394 91.2466 13.4087C91.512 14.9126 90.7158 16.0627 89.4773 16.505Z" fill="#fff"/>
<path fill-rule="evenodd" clip-rule="evenodd" d="M68.5985 8.63154C67.7139 8.10075 66.6523 7.74689 65.5022 7.74689C65.5022 7.74689 65.5022 7.74689 65.4137 7.74689C65.4137 7.74689 65.4137 7.74689 65.3253 7.74689C64.1752 7.74689 63.1136 8.01228 62.229 8.63154C60.7251 9.60466 59.752 11.2855 59.752 13.4087C59.752 15.6203 60.8135 17.3896 62.4059 18.3628C63.2021 18.8051 64.0868 19.0705 65.0599 19.0705C66.9177 19.0705 67.9793 18.0089 68.3331 17.5666V17.9204C68.3331 18.3628 68.687 18.7166 69.1293 18.7166H70.014C70.4563 18.7166 70.8102 18.3628 70.8102 17.9204V13.3202C71.0755 11.2855 70.1024 9.60466 68.5985 8.63154ZM66.4753 16.505C66.2099 16.5934 65.8561 16.6819 65.5907 16.6819C65.5907 16.6819 65.5907 16.6819 65.5022 16.6819C65.5022 16.6819 65.5022 16.6819 65.4137 16.6819C65.4137 16.6819 65.4137 16.6819 65.3253 16.6819C65.3253 16.6819 65.3253 16.6819 65.2368 16.6819C64.9714 16.6819 64.6176 16.5934 64.3522 16.505C63.2021 16.0627 62.4059 14.9126 62.4059 13.4087C62.4059 11.6394 63.4675 10.3124 65.0599 10.1355H65.1484C65.1484 10.1355 65.1484 10.1355 65.2368 10.1355H65.3253H65.4137C65.4137 10.1355 65.4138 10.1355 65.5022 10.1355H65.5907C67.1831 10.3124 68.2446 11.6394 68.2446 13.4087C68.4216 14.9126 67.6254 16.0627 66.4753 16.505Z" fill="#fff"/>
</svg>
