<svg width="140" height="30" viewBox="0 0 140 30" fill="none" xmlns="http://www.w3.org/2000/svg">
<path d="M0 0H14.2221C14.2221 4.74069 14.2221 9.48138 14.2221 14.2221C9.48138 14.2221 4.74069 14.2221 0 14.2221V0Z" fill="#FAFAFA"/>
<path d="M15.6743 0H29.8964C29.8964 4.74069 29.8964 9.48138 29.8964 14.2221C25.1557 14.2221 20.415 14.2221 15.6743 14.2221C15.6743 9.48138 15.6743 4.74069 15.6743 0Z" fill="#FAFAFA"/>
<path d="M62.3979 5.5949C63.0214 5.50094 63.6877 5.71448 64.0977 6.20136C64.5761 6.73095 64.67 7.57659 64.3113 8.20014C63.9183 8.90057 63.03 9.22515 62.2612 9.05432C61.4668 8.90911 60.8006 8.16597 60.8348 7.33742C60.8091 6.4747 61.5437 5.6974 62.3979 5.5949Z" fill="#FAFAFA"/>
<path d="M38.8223 5.97921C40.3171 5.97921 41.8033 5.97921 43.2982 5.97921C44.6905 9.51551 46.0913 13.0433 47.4836 16.5796C47.8424 17.4679 48.1755 18.3562 48.5428 19.2361C50.3366 14.82 52.1474 10.4124 53.9327 5.98775C55.3677 5.96213 56.8027 5.97921 58.2377 5.97921C58.2377 11.9585 58.2377 17.9377 58.2377 23.9169C57.2042 23.9169 56.1706 23.9255 55.1371 23.9084C55.1456 19.5008 55.1371 15.0847 55.1456 10.6686C55.1456 10.4722 55.1371 10.2757 55.1285 10.0707C55.0687 10.1647 55.0175 10.2586 54.9662 10.3611C53.1895 14.8797 51.3787 19.3813 49.6105 23.8999C48.8759 23.9255 48.1413 23.8999 47.3982 23.9169C45.5617 19.3983 43.7509 14.8712 41.9315 10.3526C41.8802 10.2586 41.829 10.1647 41.7777 10.0793C41.7436 12.0097 41.7692 13.9487 41.7606 15.8791C41.7606 18.5527 41.7606 21.2348 41.7606 23.9084C40.7869 23.9084 39.8046 23.9084 38.8308 23.9084C38.8223 17.9377 38.8223 11.9585 38.8223 5.97921Z" fill="#FAFAFA"/>
<path d="M70.8625 11.0446C72.3488 10.6175 73.9461 10.6346 75.4324 11.0617C75.7399 11.1471 76.0303 11.2667 76.3122 11.4289C76.2951 12.4113 76.3122 13.3936 76.3036 14.3673C75.3128 13.6071 74.0571 13.1288 72.793 13.2911C71.7936 13.385 70.8369 13.8975 70.239 14.709C69.4702 15.7084 69.2908 17.0409 69.4275 18.2709C69.53 19.2276 69.9229 20.1928 70.666 20.8249C71.4433 21.5168 72.5282 21.756 73.5446 21.6791C74.544 21.5595 75.4922 21.141 76.3036 20.543C76.3122 21.4741 76.3036 22.3966 76.3122 23.3276C75.0565 24.0793 73.5446 24.2672 72.1096 24.1989C70.6404 24.122 69.1712 23.5668 68.1035 22.5247C66.9418 21.4057 66.3183 19.817 66.2414 18.2197C66.1645 16.5626 66.5062 14.8286 67.4543 13.4448C68.2487 12.2746 69.4958 11.4375 70.8625 11.0446Z" fill="#FAFAFA"/>
<path d="M104.457 10.8565C105.875 10.6088 107.37 10.7882 108.711 11.3007C108.711 12.2403 108.711 13.1884 108.711 14.128C107.772 13.4788 106.618 13.1372 105.482 13.1713C104.91 13.1969 104.278 13.4361 104.013 13.9828C103.808 14.5209 103.945 15.2299 104.457 15.5545C105.329 16.1353 106.371 16.383 107.276 16.9126C107.985 17.3141 108.677 17.8351 109.036 18.5868C109.711 19.9962 109.429 21.8669 108.233 22.9175C107.097 23.9767 105.457 24.2756 103.953 24.2158C102.886 24.1475 101.809 23.934 100.827 23.4983C100.836 22.5075 100.819 21.5166 100.836 20.5258C101.664 21.1237 102.612 21.5594 103.629 21.7302C104.329 21.8412 105.098 21.8498 105.756 21.5337C106.379 21.2262 106.499 20.3293 106.123 19.7827C105.773 19.3641 105.26 19.1335 104.782 18.9029C103.877 18.4929 102.92 18.1512 102.125 17.5447C101.562 17.1091 101.143 16.4941 100.972 15.8022C100.725 14.7772 100.802 13.624 101.399 12.7357C102.074 11.6936 103.253 11.07 104.457 10.8565Z" fill="#FAFAFA"/>
<path d="M83.1799 11.2581C84.0256 10.7456 85.1104 10.7029 86.0329 11.0189C86.0244 12.0439 86.0329 13.0689 86.0329 14.0939C85.4264 13.701 84.6662 13.5302 83.9572 13.6071C83.086 13.7096 82.3941 14.3758 82.0353 15.1446C81.6424 15.9561 81.5741 16.8786 81.5997 17.7669C81.5997 19.8169 81.5997 21.867 81.5997 23.917C80.5918 23.917 79.5753 23.917 78.5674 23.917C78.5674 19.6376 78.5674 15.3496 78.5674 11.0702C79.5753 11.0531 80.5918 11.0616 81.5997 11.0702C81.5912 11.8048 81.5997 12.5393 81.5997 13.2739C81.9243 12.471 82.4112 11.6937 83.1799 11.2581Z" fill="#FAFAFA"/>
<path d="M61.1165 11.0616C62.1329 11.0616 63.1579 11.0445 64.1744 11.0702C64.1659 15.3496 64.1744 19.6376 64.1659 23.917C63.1494 23.917 62.1329 23.917 61.1165 23.917C61.1165 19.629 61.1165 15.3496 61.1165 11.0616Z" fill="#FAFAFA"/>
<path fill-rule="evenodd" clip-rule="evenodd" d="M96.0947 11.352C94.728 10.7285 93.1734 10.6431 91.6957 10.831C90.1496 11.0189 88.6377 11.7535 87.6554 13.0006C86.7585 14.1025 86.3229 15.5204 86.2375 16.9298C86.1179 18.5869 86.3912 20.3465 87.365 21.7303C88.1935 22.9261 89.5004 23.7461 90.9184 24.0451C92.1057 24.2928 93.3442 24.2928 94.523 24.0451C95.8982 23.7632 97.1966 22.9945 98.0508 21.867C98.8879 20.8078 99.3064 19.4667 99.4004 18.1257C99.4943 16.7504 99.3577 15.3325 98.7854 14.0683C98.2472 12.881 97.282 11.8902 96.0947 11.352ZM95.1894 14.1366C94.5231 13.4704 93.5408 13.2056 92.6183 13.2653C91.8837 13.3081 91.1406 13.5558 90.5768 14.0683C89.8251 14.7516 89.4835 15.7595 89.3895 16.7504C89.287 17.8352 89.3639 18.9798 89.8593 19.9706C90.2437 20.7394 90.9526 21.3373 91.7897 21.5594C92.6098 21.773 93.5066 21.7559 94.301 21.4484C94.9844 21.1836 95.5225 20.6198 95.8129 19.9621C96.2571 18.9798 96.2998 17.8779 96.2486 16.8187C96.1717 15.8535 95.8983 14.837 95.1894 14.1366Z" fill="#FAFAFA"/>
<path fill-rule="evenodd" clip-rule="evenodd" d="M120.78 11.446C119.379 10.7371 117.756 10.6346 116.219 10.8225C114.98 10.9848 113.759 11.4546 112.811 12.2831C111.649 13.274 110.974 14.7346 110.778 16.2294C110.59 17.7242 110.658 19.2959 111.265 20.6968C111.854 22.072 113.007 23.1824 114.391 23.7291C115.758 24.2672 117.278 24.327 118.722 24.0964C120.199 23.8487 121.592 23.0799 122.506 21.8841C123.479 20.6455 123.898 19.0568 123.898 17.5021C123.915 16.4686 123.787 15.4094 123.42 14.4356C122.95 13.1629 122.002 12.0525 120.78 11.446ZM119.508 14.0001C118.841 13.4107 117.919 13.2142 117.048 13.274C116.194 13.3167 115.348 13.684 114.793 14.3503C114.186 15.0592 113.93 15.9988 113.862 16.9128C113.793 17.8524 113.862 18.8347 114.229 19.7145C114.536 20.4576 115.109 21.0983 115.852 21.4143C116.544 21.7133 117.321 21.7645 118.056 21.6535C118.739 21.551 119.405 21.2264 119.849 20.6883C120.294 20.1501 120.524 19.4753 120.644 18.8005C120.789 17.8866 120.798 16.9555 120.618 16.0501C120.464 15.2728 120.123 14.5126 119.508 14.0001Z" fill="#FAFAFA"/>
<path fill-rule="evenodd" clip-rule="evenodd" d="M132.731 4.88594C131.254 4.48447 129.562 4.56135 128.247 5.41553C127.41 5.9622 126.795 6.82492 126.522 7.76452C126.296 8.50676 126.306 9.27376 126.315 10.0397C126.319 10.3756 126.324 10.7113 126.308 11.0446C126.128 11.0446 125.949 11.044 125.77 11.0435C125.235 11.0419 124.704 11.0403 124.173 11.0531C124.178 11.6058 124.176 12.1547 124.175 12.7023C124.174 12.9756 124.173 13.2487 124.173 13.5217C124.48 13.5253 124.788 13.5243 125.095 13.5232C125.504 13.5218 125.912 13.5205 126.317 13.5302C126.311 15.8305 126.313 18.1346 126.315 20.4399C126.316 21.593 126.317 22.7465 126.317 23.8999H129.392V13.5217H133.893C133.893 14.2563 133.892 14.9909 133.891 15.7255C133.889 17.1946 133.887 18.6638 133.893 20.133C133.91 21.1666 134.081 22.2599 134.764 23.0714C135.354 23.7889 136.285 24.1135 137.19 24.1818C138.138 24.2502 139.121 24.1391 140.001 23.7547V21.2522C139.326 21.7047 138.395 21.884 137.66 21.4741C137.225 21.2349 137.054 20.7138 136.994 20.2441C136.963 19.978 136.948 19.712 136.943 19.446C136.937 19.178 136.94 18.9091 136.943 18.6401C136.945 18.3979 136.948 18.1558 136.944 17.9144C136.944 17.8966 136.943 17.8787 136.943 17.8609C136.943 17.8598 136.943 17.8587 136.943 17.8576C136.943 17.853 136.943 17.8484 136.943 17.8438C136.943 17.3655 136.944 16.8871 136.944 16.4088C136.946 15.4521 136.948 14.4954 136.943 13.5388C137.309 13.5418 137.674 13.5394 138.039 13.537C138.694 13.5327 139.347 13.5284 140.001 13.5558V11.0616C139.569 11.0653 139.135 11.0643 138.701 11.0632C138.122 11.0618 137.541 11.0604 136.96 11.0702C136.95 10.333 136.951 9.59862 136.953 8.86543C136.954 8.31579 136.955 7.76681 136.951 7.21784C136.652 7.30919 136.352 7.40205 136.051 7.49507C135.339 7.71518 134.625 7.93621 133.91 8.14036C133.894 8.74894 133.895 9.35752 133.896 9.9661C133.896 10.3313 133.896 10.6965 133.893 11.0616H129.392C129.401 10.7903 129.397 10.5179 129.393 10.2455C129.386 9.74629 129.38 9.24725 129.451 8.75536C129.545 8.15744 129.887 7.55097 130.476 7.32034C131.211 7.01284 132.04 7.21784 132.74 7.52535C132.736 7.08545 132.736 6.64554 132.736 6.20564C132.736 5.76574 132.736 5.32584 132.731 4.88594Z" fill="#FAFAFA"/>
<path d="M0 15.6742C4.74069 15.6742 9.48138 15.6742 14.2221 15.6742C14.2221 20.4149 14.2221 25.1556 14.2221 29.8963H0V15.6742Z" fill="#FAFAFA"/>
<path d="M15.6743 15.6742C20.415 15.6742 25.1557 15.6742 29.8964 15.6742C29.8964 20.4149 29.8964 25.1556 29.8964 29.8963H15.6743C15.6743 25.1556 15.6743 20.4149 15.6743 15.6742Z" fill="#FAFAFA"/>
</svg>
