<svg width="60" height="30" viewBox="0 0 60 30" fill="none" xmlns="http://www.w3.org/2000/svg">
<path fill-rule="evenodd" clip-rule="evenodd" d="M0 29.6789V0H60L30.3211 29.6789H0ZM34.6517 14.1992H35.9522C37.6884 14.1992 39.0704 13.6245 39.0704 11.7907C39.0704 10.015 37.6884 9.44298 35.9522 9.44298H34.6517V14.1992ZM20.0628 17.264C20.6208 17.4738 21.2664 17.5995 21.9548 17.5995H21.9568C22.6291 17.5995 23.2579 17.4779 23.8106 17.28L21.9761 11.3563H21.936L20.0628 17.264ZM29.7016 5.57891H35.6073L35.6066 5.58492C41.2524 5.58492 43.9042 7.59581 43.9042 11.9798C43.9042 15.9187 41.1735 18.2658 36.5623 18.2658H34.653V23.9396H25.9024L25.0363 21.2263C24.1107 21.5311 23.0648 21.6981 21.9561 21.6981C20.82 21.6981 19.7467 21.519 18.8044 21.2003L17.9036 23.9396H12.5405L13.1313 22.3517L12.9148 22.5408C11.5775 23.6155 9.9041 24.2069 7.83239 24.247H7.52431C5.14318 24.247 2.81017 23.5907 0.839374 22.4687L2.66314 18.8445C4.63996 20.0127 5.88098 20.2733 7.55438 20.2399C8.42249 20.2205 9.05002 20.0635 9.45835 19.6391C9.70628 19.3852 9.83393 19.0637 9.84729 18.7209C9.86266 17.7793 8.52341 17.3375 6.88275 16.8316C5.55284 16.4146 4.04718 15.8579 2.86697 14.9931C1.47225 13.966 0.805959 12.6815 0.839374 10.8718C0.861427 9.55057 1.34995 8.36368 2.25281 7.4254C3.55197 6.08414 5.6464 5.26481 8.15985 5.26481H8.17322C10.3278 5.26949 12.9615 5.87897 14.8622 6.85L12.8105 10.424C10.7274 9.41691 9.67822 9.32068 8.48865 9.26053C6.72369 9.1663 5.82885 9.79717 5.81548 10.4775C5.80011 11.3095 7.49089 12.0607 9.07943 12.5719C11.4893 13.3358 14.5547 14.3603 15.0205 17.3195L19.4286 5.57891H24.5424L29.7016 19.6217V5.57891Z" fill="#fff"/>
</svg>
