<svg width="90" height="23" viewBox="0 0 90 23" fill="none" xmlns="http://www.w3.org/2000/svg">
<path fill-rule="evenodd" clip-rule="evenodd" d="M18.8228 0H3.80571C1.64571 0 0 1.64571 0 3.80571V18.8228C0 20.9828 1.74857 22.6286 3.80571 22.6286H18.8228C20.9828 22.6286 22.6286 20.88 22.6286 18.8228V3.80571C22.6286 2.77714 22.2171 1.85143 21.4971 1.13143C20.7771 0.411428 19.8514 0 18.8228 0ZM18.5143 17.28C18.5143 18 17.8971 18.5143 17.28 18.5143H5.34857C4.62857 18.5143 4.11428 18 4.11428 17.3828V5.34857C4.11428 5.04 4.21714 4.73143 4.42286 4.42286C4.73143 4.21714 5.04 4.11428 5.34857 4.11428H17.28C18 4.11428 18.5143 4.62857 18.5143 5.24571V17.28ZM8.22857 8.94854V13.68C8.22857 14.0914 8.53714 14.4 8.94857 14.4L13.68 14.5028C13.8857 14.5028 14.0914 14.4 14.1943 14.2971C14.2218 14.242 14.2494 14.1943 14.275 14.1499C14.3449 14.0289 14.4 13.9334 14.4 13.7828V8.94854C14.4 8.82804 14.3647 8.70753 14.3355 8.6077L14.3355 8.60769C14.3148 8.5371 14.2971 8.47686 14.2971 8.43425C14.242 8.40671 14.1943 8.37916 14.15 8.3536L14.15 8.35356L14.15 8.35355C14.0289 8.28366 13.9334 8.22854 13.7828 8.22854H8.94857C8.74285 8.22854 8.53714 8.3314 8.43428 8.43425C8.40672 8.48938 8.37916 8.53711 8.35358 8.58142C8.28369 8.70247 8.22857 8.79795 8.22857 8.94854ZM34.1486 10.2856C33.4286 10.0799 32.8114 9.87418 32.2971 9.66847C31.2686 9.25704 30.8571 8.6399 30.8571 7.81704C30.8571 6.27418 32.4 5.55418 33.9429 5.55418C35.3829 5.55418 36.6171 6.17133 37.5429 7.1999L37.6457 7.30275L38.88 6.37704L38.7771 6.27418C37.6457 4.83418 36 4.01133 34.0457 4.01133C32.8114 4.01133 31.5771 4.3199 30.7543 4.93704C29.8286 5.65704 29.3143 6.68561 29.3143 7.81704C29.3143 10.5942 31.9886 11.3142 34.0457 11.8285C36.2057 12.4456 37.5429 12.857 37.5429 14.5028C37.5429 16.1485 36.2057 17.177 34.2514 17.177C33.2229 17.177 31.3714 16.8685 30.24 15.1199L30.1371 15.017L28.8 16.0456V16.1485C29.9314 17.7942 31.7829 18.7199 34.0457 18.7199C37.0286 18.7199 39.0857 17.0742 39.0857 14.5028C39.0857 11.6922 36.441 10.9388 34.3059 10.3305L34.1486 10.2856ZM48.8571 8.22867V9.77152C48.0342 8.6401 46.7999 7.9201 45.3599 8.02295C42.6857 8.02295 40.7314 10.183 40.7314 13.3715C40.7314 16.5601 42.5828 18.7201 45.3599 18.7201C46.7999 18.7201 48.0342 18.1029 48.8571 16.9715V22.6287H50.2971V8.22867H48.8571ZM45.5657 17.3829C43.9199 17.3829 42.2742 16.3544 42.2742 13.3715C42.2742 11.4172 43.0971 9.3601 45.5657 9.3601C47.6228 9.3601 48.9599 10.903 48.9599 13.3715C48.9599 15.8401 47.6228 17.3829 45.5657 17.3829ZM59.8629 8.22854V13.8857C59.8629 15.84 58.5257 17.28 56.5715 17.28C55.0286 17.28 54.2057 16.3543 54.2057 14.4V8.22854H52.7657V14.8114C52.7657 17.28 54.1029 18.72 56.3657 18.72C57.8057 18.72 58.9372 18.1028 59.76 17.0743V18.5142H61.2V8.22854H59.8629ZM68.0915 7.92004C66.5486 7.92004 65.1086 8.43433 64.08 9.25719L64.8 10.4915V10.2858C65.7257 9.56576 67.0629 9.25719 67.9886 9.25719C68.5029 9.25719 70.2515 9.36004 70.2515 10.6972C70.2515 11.9315 68.9143 12.1372 67.4743 12.3429C67.3715 12.3429 67.2943 12.3686 67.2172 12.3943C67.14 12.42 67.0629 12.4458 66.96 12.4458C66.9049 12.4568 66.8459 12.4681 66.7837 12.48C65.6847 12.691 63.5657 13.0978 63.5657 15.5315C63.5657 17.4858 64.9029 18.72 67.1657 18.72C68.6057 18.72 69.6343 18.3086 70.3543 17.3829V18.5143H71.7943V11.0058C71.7943 9.05147 70.3543 7.92004 68.0915 7.92004ZM67.2686 17.3829C66.5486 17.3829 65.0057 17.1772 65.0057 15.5315C65.0057 14.4 65.7257 13.9886 67.2686 13.8858L67.68 13.7829C67.8036 13.752 67.9318 13.7211 68.0629 13.6895L68.0634 13.6894C68.8052 13.5107 69.6397 13.3096 70.2515 12.96V14.4C70.2515 16.56 68.7086 17.3829 67.2686 17.3829ZM80.1257 8.4343C79.8172 8.22859 79.2 8.02288 78.6857 8.02288C77.5543 8.02288 76.4229 8.64002 75.8057 9.56573V8.22859H74.3657V18.5143H75.8057V12.96C75.8057 10.4914 77.1429 9.46287 78.5829 9.46287C78.9943 9.46287 79.4057 9.56573 79.7143 9.66859L79.8172 9.77145L80.1257 8.4343ZM85.3714 7.92004C82.4914 7.92004 80.5371 10.1829 80.5371 13.3715C80.5371 16.56 82.4914 18.72 85.4743 18.72C87.5314 18.72 88.7657 17.6915 89.4857 16.8686L89.5886 16.7658L88.56 15.84L88.4571 15.9429C87.84 16.7658 86.8114 17.28 85.5771 17.28C83.52 17.28 82.08 15.84 82.08 13.5772H90V13.4743V12.7543C90 9.87433 88.1486 7.92004 85.3714 7.92004ZM82.08 12.3429C82.2857 10.4915 83.52 9.36004 85.2686 9.36004C87.4286 9.36004 88.3543 10.9029 88.4571 12.3429H82.08Z" fill="#fff"/>
</svg>
