<svg width="76" height="25" viewBox="0 0 76 25" fill="none" xmlns="http://www.w3.org/2000/svg">
<path fill-rule="evenodd" clip-rule="evenodd" d="M12.7248 19.9565C12.2883 19.4439 11.5605 19.3596 10.9302 19.3874C10.373 19.4262 9.81022 19.5882 9.48232 20.0764C9.26962 20.3915 9.21756 20.913 9.36711 21.2591C9.58202 21.6719 10.0451 21.8572 10.4682 21.9759C10.6242 22.0212 10.7938 22.0527 10.9658 22.0847C11.2862 22.1442 11.6145 22.2052 11.8762 22.3598C12.1864 22.5462 12.1011 23.0565 11.7688 23.1631C11.2515 23.3184 10.6388 23.3084 10.2489 22.8824C10.2445 22.7825 10.2412 22.6826 10.2378 22.5817C9.86783 22.5772 9.49893 22.5772 9.12893 22.585L9.1397 22.6551C9.18982 22.9837 9.23556 23.2836 9.47456 23.5447C9.90217 24.0307 10.6499 24.1483 11.2625 24.1317C11.9073 24.1106 12.5897 23.9419 12.9552 23.3617C13.2111 22.9312 13.2599 22.1956 12.8168 21.8649C12.3858 21.5268 11.9142 21.4372 11.4288 21.345C11.2292 21.3071 11.0273 21.2688 10.825 21.2125C10.5436 21.1382 10.2256 20.8686 10.4118 20.5568C10.4627 20.3959 10.6654 20.3393 10.8094 20.2994C11.1152 20.2384 11.463 20.2528 11.7489 20.3859C11.8346 20.4655 11.8773 20.5904 11.9179 20.7089C11.9345 20.7573 11.9507 20.8047 11.9693 20.8475C12.3238 20.8497 12.6794 20.8486 13.0339 20.8342L13.0306 20.8107C12.9866 20.4948 12.9464 20.2067 12.7248 19.9565ZM32.8545 20.9529C32.6063 20.4747 32.3493 20.0375 31.8708 19.7568C30.8494 19.0822 29.3882 19.354 28.6803 20.3504C27.9492 21.3367 28.1165 22.7791 29.0525 23.5724C29.8812 24.2781 31.1263 24.3169 32.0015 23.6723C32.4136 23.3894 32.6329 22.9922 32.8523 22.5583C32.4789 22.5428 32.1056 22.5461 31.7312 22.5539C31.7098 22.5811 31.6888 22.6084 31.6678 22.6356L31.6676 22.6359C31.5488 22.7903 31.4329 22.941 31.2681 23.0532C30.7275 23.406 29.9343 23.2629 29.5776 22.7148C29.2231 22.1755 29.2231 21.4133 29.5422 20.8574C29.8612 20.2871 30.65 20.103 31.2061 20.4269C31.4109 20.5516 31.5456 20.7264 31.6878 20.9108L31.6878 20.9108C31.7025 20.9299 31.7173 20.9491 31.7323 20.9684C32.1067 20.9717 32.48 20.9695 32.8545 20.9529ZM34.6147 19.5116C34.628 20.0986 34.6291 20.6855 34.617 21.2713C35.2562 21.2824 35.8953 21.2802 36.5345 21.2713C36.5106 20.8484 36.5205 20.4273 36.5305 20.0054V20.0052V20.005V20.0048V20.0046C36.5343 19.84 36.5382 19.6754 36.5401 19.5105C36.8635 19.5172 37.1881 19.5183 37.5116 19.5116C37.5427 20.4043 37.5386 21.2982 37.5346 22.1921C37.5318 22.7947 37.5291 23.3974 37.5371 23.9996C37.2047 23.9996 36.8724 24.0019 36.5412 24.0107C36.5104 23.5451 36.5215 23.0821 36.5327 22.6177V22.6176V22.6176V22.6175V22.6175V22.6173V22.6172V22.6171V22.617C36.5364 22.4641 36.5401 22.3111 36.5423 22.1578C35.9513 22.1476 35.3603 22.1487 34.7693 22.1498L34.6214 22.1501L34.6221 22.2744C34.6252 22.8519 34.6284 23.4286 34.6181 24.0063C34.2769 23.9985 33.9357 23.9996 33.5956 24.0041C33.5989 22.5073 33.5978 21.0106 33.5945 19.5138C33.9346 19.5194 34.2747 19.5194 34.6147 19.5116ZM6.71549 19.5182C6.07875 19.5192 5.442 19.5203 4.80526 19.5127C4.80329 20.1778 4.80395 20.8429 4.8046 21.508V21.5084C4.80543 22.3399 4.80625 23.1714 4.80194 24.0029C5.3948 23.9991 5.98792 23.9998 6.58118 24.0005H6.58124H6.5813H6.58136H6.58143C7.20968 24.0012 7.83809 24.0019 8.4665 23.9974C8.46539 23.7111 8.4665 23.4249 8.47093 23.1386C7.58863 23.1375 6.70634 23.1375 5.82405 23.1375H5.81556C5.81409 22.9181 5.81359 22.6986 5.8131 22.4795V22.4793C5.81286 22.3695 5.81261 22.2597 5.81224 22.15C6.04412 22.1497 6.2759 22.1497 6.50761 22.1498H6.50823H6.50827H6.50831H6.50835C7.02911 22.15 7.54951 22.1502 8.06991 22.1456C8.0688 21.8571 8.06991 21.5675 8.07323 21.2779C7.6558 21.2785 7.23837 21.2775 6.82094 21.2764L6.81963 21.2764C6.48531 21.2755 6.15099 21.2746 5.81667 21.2746C5.81446 20.9772 5.81335 20.6799 5.81335 20.3825C6.16034 20.3834 6.50732 20.3829 6.85431 20.3824C7.37472 20.3816 7.89513 20.3808 8.41554 20.3848L8.41612 20.2122C8.41682 19.982 8.41754 19.7514 8.42108 19.5216C7.85255 19.5163 7.28402 19.5173 6.71549 19.5182ZM14.0121 19.5138L14.1052 19.5149L14.4982 19.5161H14.4983H14.4983H14.4984C15.546 19.5193 16.5935 19.5224 17.6401 19.5116C17.6423 19.8012 17.6434 20.0908 17.6434 20.3804C16.7805 20.3837 15.9164 20.3859 15.0523 20.3781V20.3785V20.3788V20.3792V20.3796C15.0501 20.6776 15.0479 20.9755 15.0501 21.2735C15.5058 21.2782 15.962 21.2772 16.4183 21.2762H16.4183H16.4184H16.4185C16.7119 21.2755 17.0054 21.2749 17.2989 21.2757L17.2989 21.2777C17.2967 21.5688 17.2945 21.8589 17.2945 22.15C16.7343 22.1475 16.1748 22.1488 15.6149 22.15H15.6146H15.6143H15.6132C15.4263 22.1505 15.2393 22.1509 15.0523 22.1511C15.0501 22.4807 15.049 22.8102 15.0501 23.1408C15.6394 23.1364 16.2292 23.1369 16.8188 23.1374H16.8189H16.8189H16.819C17.1138 23.1376 17.4086 23.1379 17.7033 23.1375C17.701 23.426 17.701 23.7145 17.7044 24.0029C16.6506 23.9991 15.596 24.0002 14.5413 24.0013H14.5413H14.5412H14.5411L14.0132 24.0018C14.0165 22.5062 14.0188 21.0095 14.0121 19.5138ZM0.00412357 19.5116C0.444484 19.5199 0.884844 19.5186 1.3252 19.5173H1.32566C1.64731 19.5164 1.96895 19.5154 2.2906 19.5183C2.72153 19.5371 3.15467 19.5859 3.4715 19.9099C3.83928 20.2406 3.85036 20.8685 3.74955 21.3157C3.65207 21.7229 3.35518 21.9226 3.00623 22.1057C3.01066 22.1456 3.01509 22.1855 3.01952 22.2266C3.39174 22.8058 3.74955 23.4027 4.09297 23.9996C3.97611 23.9996 3.85885 24.0016 3.74147 24.0036H3.7414H3.74133H3.74126H3.74124H3.74123H3.74122C3.46477 24.0082 3.18761 24.0129 2.91317 23.9919C2.6619 23.6765 2.45752 23.3224 2.25303 22.9681C2.09781 22.6991 1.94252 22.4301 1.76661 22.1778C1.51736 22.1811 1.26811 22.1822 1.01886 22.1811C1.01649 22.5048 1.01665 22.8288 1.01681 23.1529C1.01695 23.4366 1.01708 23.7203 1.01553 24.0041C0.678766 23.9996 0.343106 24.0007 0.00744679 24.0052C0.000325328 22.9353 0.00168184 21.8654 0.00303835 20.7955C0.00358096 20.3675 0.00412357 19.9396 0.00412357 19.5116ZM1.01331 20.3837C1.18031 20.386 1.34788 20.3838 1.51556 20.3815C1.82058 20.3774 2.12597 20.3733 2.42906 20.397C2.5424 20.4215 2.63293 20.5259 2.71568 20.6214L2.71571 20.6214C2.74537 20.6556 2.77403 20.6887 2.80239 20.7165C2.78688 20.8497 2.77248 20.9828 2.75918 21.117C2.44393 21.3741 1.99674 21.3556 1.56502 21.3378H1.56496H1.56494H1.56492C1.3762 21.33 1.19044 21.3223 1.01995 21.3378C1.01829 21.179 1.01746 21.02 1.01663 20.8608C1.0158 20.7018 1.01497 20.5427 1.01331 20.3837ZM25.174 19.517H25.1736C24.6933 19.5177 24.2129 19.5183 23.7329 19.5127C23.7307 20.2605 23.7313 21.0086 23.7318 21.7567C23.7324 22.5048 23.7329 23.2529 23.7307 24.0007C23.8416 24.0011 23.9526 24.0016 24.0637 24.002L24.0646 24.0021L24.0656 24.0021C24.2902 24.003 24.515 24.004 24.7399 24.004C24.7476 23.3971 24.7476 22.7902 24.741 22.1844L24.8918 22.1838H24.8921C25.0924 22.1831 25.2932 22.1824 25.4932 22.1789C25.6909 22.4784 25.8757 22.7861 26.0604 23.0937C26.2451 23.4013 26.4298 23.7089 26.6276 24.0085C26.9067 24.0031 27.1858 24.0025 27.465 24.0019C27.5891 24.0017 27.7132 24.0014 27.8373 24.0007C27.4529 23.376 27.0707 22.7492 26.6996 22.1167C27.0474 21.947 27.3476 21.7661 27.4617 21.37C27.5825 20.9051 27.5692 20.2394 27.187 19.8888C26.8702 19.5959 26.4116 19.5249 25.9972 19.5171C25.7229 19.5163 25.4485 19.5167 25.174 19.517ZM25.1021 20.3812C24.9825 20.3804 24.8629 20.3795 24.7432 20.3792C24.7432 20.6977 24.7421 21.015 24.7399 21.3323C24.8802 21.3316 25.0207 21.3334 25.1613 21.3353H25.1613C25.4426 21.339 25.724 21.3427 26.0039 21.3257C26.1787 21.3231 26.2892 21.2356 26.4097 21.1401C26.445 21.1121 26.4812 21.0835 26.5201 21.0561C26.5161 21.0187 26.5127 20.9809 26.5093 20.943C26.4997 20.8359 26.4901 20.7277 26.4647 20.6245C26.3932 20.5483 26.3104 20.4812 26.2287 20.4151L26.2286 20.415C26.2115 20.4012 26.1946 20.3875 26.1778 20.3737C25.819 20.3862 25.4607 20.3837 25.1022 20.3812H25.1022H25.1021ZM20.8264 19.5044H20.8265C20.9788 19.5058 21.131 19.5071 21.2825 19.5039C21.526 20.1166 21.7745 20.7275 22.0231 21.3385C22.3839 22.2254 22.7447 23.1124 23.0904 24.0052C22.7149 24.0019 22.3404 24.0008 21.966 24.0019C21.8419 23.6746 21.7201 23.3461 21.6037 23.0155C20.9723 23.0111 20.3409 23.0099 19.7094 23.0155C19.6675 23.1317 19.6249 23.2476 19.5822 23.3636C19.5043 23.5753 19.4265 23.7871 19.3527 24.0008H18.2195C18.3459 23.6851 18.4723 23.3685 18.5989 23.0515L18.5992 23.0509C19.0699 21.8718 19.5429 20.6871 20.0318 19.5216C20.295 19.4998 20.5609 19.5021 20.8264 19.5044ZM20.6633 20.4802C20.866 21.0527 21.0687 21.6241 21.3047 22.1833C20.8861 22.2256 20.4674 22.2234 20.0467 22.2212L20.0163 22.2211C20.2224 21.6363 20.4428 21.0583 20.6633 20.4802Z" fill="#fff"/>
<path fill-rule="evenodd" clip-rule="evenodd" d="M48.7012 19.4384C49.3836 19.3174 50.1968 19.3607 50.7551 19.8167C51.014 20.0229 51.0884 20.314 51.1646 20.6127L51.1646 20.6127C51.1823 20.682 51.2001 20.7517 51.2204 20.8208C50.8625 20.8474 50.5047 20.8552 50.1458 20.8508C50.127 20.8114 50.1096 20.77 50.0919 20.7282L50.0919 20.7281L50.0919 20.7281L50.0919 20.7281C50.0459 20.6192 49.9987 20.5073 49.9242 20.4192C49.655 20.2261 49.2352 20.2394 48.9272 20.3127C48.73 20.367 48.4897 20.5257 48.5229 20.7609C48.5007 21.0327 48.822 21.157 49.0336 21.2225C49.2121 21.2705 49.3954 21.306 49.5785 21.3415C50.0852 21.4397 50.5914 21.5377 50.9966 21.9004C51.5084 22.3153 51.3333 23.1342 50.9678 23.5857C50.5357 24.0151 49.8467 24.1472 49.2596 24.1316C48.6913 24.1228 48.0687 24.0151 47.6577 23.588C47.4241 23.3492 47.3669 23.0464 47.3082 22.7353L47.3082 22.7353L47.3082 22.7353L47.3082 22.7353L47.3082 22.7353L47.3082 22.7353L47.3082 22.7353L47.3082 22.7353C47.2987 22.6849 47.2892 22.6344 47.2788 22.5838C47.6322 22.5772 47.9856 22.575 48.3379 22.5783C48.3614 22.6282 48.3814 22.6785 48.401 22.7276L48.401 22.7276L48.401 22.7276C48.4736 22.9098 48.54 23.0764 48.7555 23.1541C49.1388 23.2817 49.6872 23.3172 50.0417 23.0953C50.2286 22.9558 50.2141 22.7688 50.1987 22.572C50.1945 22.5169 50.1901 22.461 50.1901 22.4052C49.8359 22.2312 49.4646 22.1553 49.1035 22.0815C48.6244 21.9835 48.1631 21.8892 47.7829 21.5742C47.3653 21.2524 47.3808 20.701 47.5447 20.2472C47.7452 19.7923 48.2249 19.5138 48.7012 19.4384ZM40.4316 19.5216L40.4407 19.5214C40.7778 19.5159 41.1159 19.5104 41.453 19.5027C41.4696 21.005 41.4818 22.5128 41.4464 24.014C41.1085 24.0063 40.7706 23.9996 40.4316 23.993C40.4427 22.5029 40.4427 21.0117 40.4316 19.5216ZM43.5179 19.516C43.1845 19.5182 42.8521 19.5171 42.5187 19.5127C42.4984 19.9925 42.5033 20.4715 42.5082 20.9507C42.5113 21.2571 42.5144 21.5636 42.5109 21.8704C42.5122 22.0735 42.5107 22.2759 42.5092 22.478V22.478V22.478V22.478V22.478V22.478V22.478C42.5055 22.9923 42.5017 23.5045 42.5431 24.0206C42.6341 24.0075 42.7475 24.0108 42.8663 24.0144C43.1072 24.0216 43.3703 24.0294 43.5135 23.9008C43.5254 23.533 43.5224 23.165 43.5194 22.797C43.5153 22.3079 43.5113 21.8188 43.5423 21.3301C43.8114 21.7442 44.0989 22.1455 44.3863 22.5468L44.3863 22.5468L44.3863 22.5468C44.6324 22.8905 44.8786 23.2341 45.1131 23.5857C45.137 23.6161 45.1608 23.6493 45.1853 23.6833C45.2687 23.7992 45.359 23.9248 45.4798 23.984C45.7322 24.0177 45.9924 24.0096 46.249 24.0016C46.3134 23.9996 46.3776 23.9976 46.4414 23.9962C46.437 22.505 46.437 21.0127 46.4414 19.5215C46.0991 19.5171 45.7568 19.5182 45.4156 19.5204C45.4178 20.3936 45.4189 21.2668 45.4089 22.1389C44.9347 21.5238 44.486 20.8868 44.0376 20.2503L44.0376 20.2503C43.8648 20.005 43.692 19.7598 43.5179 19.516ZM51.9371 19.5182L52.896 19.5192L52.8961 19.5192C53.8537 19.5202 54.8113 19.5213 55.769 19.5204C55.7673 19.6642 55.7659 19.8081 55.7645 19.952C55.7632 20.0946 55.7618 20.2373 55.7601 20.3803C55.2937 20.3836 54.8285 20.3836 54.3621 20.3759C54.3564 20.823 54.3603 21.2711 54.3643 21.7194V21.7195V21.7196V21.7197V21.7198V21.7199C54.371 22.4838 54.3778 23.2482 54.3366 24.0095C54.001 24.0029 53.6653 24.0007 53.3285 23.9996C53.3472 23.0279 53.3423 22.0556 53.3373 21.0831V21.083C53.3361 20.8473 53.3349 20.6116 53.3341 20.3759L53.3335 20.3759C52.864 20.3792 52.3945 20.3825 51.925 20.3836C51.9305 20.0953 51.9338 19.8069 51.9371 19.5186V19.5186V19.5186V19.5186V19.5186V19.5186L51.9371 19.5182ZM56.7227 19.5074C56.6612 19.5075 56.5999 19.5075 56.5389 19.5071C56.5466 20.4572 56.5459 21.4077 56.5451 22.3581V22.3581V22.3581V22.3582V22.3582C56.5447 22.9083 56.5443 23.4585 56.5455 24.0084C56.8934 24.004 57.2412 24.0018 57.5901 24.0018C57.5715 23.3469 57.5761 22.6892 57.5806 22.0315V22.0315V22.0314V22.0314V22.0314V22.0313C57.5864 21.2014 57.5921 20.3715 57.5514 19.5471C57.2794 19.5071 56.9994 19.5073 56.7227 19.5074ZM58.3656 19.5116C59.6418 19.5249 60.919 19.526 62.1941 19.5127C62.1941 19.8023 62.193 20.0907 62.1908 20.3792C61.7222 20.3803 61.2525 20.3825 60.7839 20.3848C60.795 21.5886 60.8016 22.7935 60.7828 23.9974L60.7798 23.9974C60.4573 24.0018 60.1337 24.0063 59.8101 24.0162C59.7415 23.2724 59.7511 22.5205 59.7607 21.7692C59.7666 21.3079 59.7725 20.8469 59.7603 20.3881C59.2939 20.3803 58.8275 20.377 58.3612 20.3848C58.3612 20.093 58.3623 19.8023 58.3656 19.5116ZM63.9788 19.5127C63.6442 19.516 63.3108 19.5182 62.9773 19.5171C62.9792 19.9484 62.9781 20.3801 62.9769 20.8118V20.8118V20.8119C62.9754 21.3874 62.9738 21.9629 62.9795 22.5372C62.9707 23.0975 63.3063 23.5879 63.7871 23.852C64.444 24.2071 65.2782 24.2248 65.9606 23.9308C66.5167 23.6834 66.9144 23.1608 66.9089 22.5372C66.9149 22.0809 66.9129 21.6244 66.911 21.1677V21.1676V21.1675C66.9086 20.6194 66.9062 20.071 66.9177 19.5227C66.5854 19.5171 66.2531 19.5105 65.9218 19.5005C65.8948 19.9887 65.8977 20.4772 65.9006 20.9654V20.9655V20.9655C65.903 21.3795 65.9055 21.7933 65.8897 22.2066C65.8878 22.2275 65.8859 22.2489 65.8841 22.2708C65.863 22.5154 65.8372 22.8156 65.6593 22.9877C65.3868 23.2873 64.9137 23.2928 64.5504 23.1985C64.2358 23.1031 64.0541 22.8324 64.0242 22.5106C63.9614 21.9569 63.9736 21.393 63.9859 20.8293V20.8292V20.8292C63.9954 20.3887 64.005 19.9482 63.9788 19.5127ZM67.7032 19.5071C68.9649 19.5282 70.2344 19.5293 71.4962 19.5071C71.5154 19.6978 71.5316 19.8884 71.5479 20.079L71.5479 20.0797C71.556 20.1751 71.5642 20.2705 71.5727 20.3659C71.0908 20.3881 70.61 20.387 70.127 20.3714C70.1209 20.9767 70.1223 21.5816 70.1237 22.1866C70.1251 22.7916 70.1264 23.3965 70.1203 24.0018C69.7902 24.0051 69.4601 24.0106 69.13 24.0195C69.0916 23.1791 69.099 22.3365 69.1064 21.4947C69.1097 21.123 69.1129 20.7514 69.1123 20.3803C68.6381 20.3836 68.1629 20.3836 67.6888 20.3781C67.6932 20.0874 67.6976 19.7967 67.7032 19.5071ZM73.5286 19.5196C73.1246 19.5181 72.7205 19.5165 72.316 19.5193C72.3182 21.0105 72.3171 22.5029 72.3149 23.9941C72.9342 24.0036 73.5532 24.0026 74.1723 24.0016C74.7746 24.0007 75.3769 23.9997 75.9794 24.0085L75.9797 23.9971C75.9863 23.7135 75.9928 23.4289 76.0005 23.1453C75.4381 23.1319 74.8757 23.1333 74.3133 23.1346C73.9894 23.1354 73.6656 23.1362 73.3418 23.1342C73.3418 22.8058 73.3418 22.4773 73.3429 22.1489C74.0884 22.1456 74.834 22.1445 75.5795 22.1511C75.584 21.8627 75.5884 21.5742 75.5939 21.2857C75.0204 21.2704 74.4462 21.272 73.8723 21.2736C73.6958 21.2741 73.5193 21.2746 73.3429 21.2746C73.3429 20.9762 73.344 20.6777 73.3473 20.3792C74.207 20.3826 75.0677 20.3837 75.9274 20.3826C75.9275 20.3406 75.9279 20.2985 75.9282 20.2563C75.93 20.0227 75.9318 19.786 75.9074 19.5549C75.694 19.5115 75.466 19.513 75.2474 19.5145C75.2254 19.5147 75.2036 19.5148 75.1818 19.5149C74.6303 19.5239 74.0795 19.5218 73.5286 19.5196Z" fill="#fff"/>
<path fill-rule="evenodd" clip-rule="evenodd" d="M48.4139 6.74525C48.4139 9.02945 46.6725 10.9886 44.606 10.9886C42.4291 10.9886 40.798 9.02945 40.798 6.74525C40.798 4.3522 42.4291 2.50189 44.606 2.50189C46.6725 2.50189 48.4139 4.3522 48.4139 6.74525ZM44.606 0C40.798 0 37.7519 3.0461 37.7519 6.74525C37.7519 10.4444 40.798 13.3816 44.606 13.3816C48.3051 13.3816 51.3512 10.4444 51.3512 6.74525C51.3512 3.0461 48.3051 0 44.606 0ZM58.5304 13.164V2.8284H62.5561V0.435353H51.6763V2.8284H55.702V13.164H58.5304ZM68.6482 8.1587H70.4985L68.7571 3.48145H68.6482L66.9082 8.1587H68.6482ZM66.0375 10.2267V10.3355L64.9491 13.164H61.5765L66.9082 0.435353H70.4985L75.8288 13.164H72.4562L71.2604 10.3355V10.2267H66.0375ZM6.85409 13.164V2.8284H10.8798V0.435353H0V2.8284H4.02567V13.164H6.85409ZM18.1692 10.9886C20.2357 10.9886 21.9757 9.02945 21.9757 6.74525C21.9757 4.3522 20.2357 2.50189 18.1692 2.50189C15.9924 2.50189 14.3612 4.3522 14.3612 6.74525C14.3612 9.02945 15.9924 10.9886 18.1692 10.9886ZM11.3151 6.74525C11.3151 3.0461 14.3612 0 18.1692 0C21.8669 0 24.913 3.0461 24.913 6.74525C24.913 10.4444 21.8669 13.3816 18.1692 13.3816C14.3612 13.3816 11.3151 10.4444 11.3151 6.74525ZM32.7467 13.164H31.3332H29.8094V8.26755L24.8041 0.435353H28.1782L31.3332 5.76566L34.3793 0.435353H37.7519L32.7467 8.26755V13.164Z" fill="#fff"/>
</svg>
