<svg width="28" height="36" viewBox="0 0 28 36" fill="none" xmlns="http://www.w3.org/2000/svg">
<path d="M27.6297 26.2578C27.6297 26.1049 27.5275 26.0454 27.3487 26.0454H27.0721V26.7719H27.2168V26.4618H27.3062L27.4722 26.7719H27.6339L27.4552 26.4575C27.4594 26.4575 27.4637 26.4575 27.4679 26.4575C27.5658 26.449 27.6382 26.3598 27.6297 26.2578ZM27.3402 26.3513H27.2168V26.1601H27.336C27.4381 26.1601 27.485 26.1813 27.485 26.2536C27.485 26.3258 27.4466 26.3513 27.3402 26.3513ZM27.3317 25.7607C26.9827 25.7607 26.6677 26.0156 26.6677 26.4108C26.6677 26.8059 26.9784 27.0566 27.3317 27.0566C27.685 27.0566 28 26.8059 28 26.4108C28 26.0156 27.685 25.7607 27.3317 25.7607ZM27.3317 26.9206C27.055 26.9206 26.8379 26.7124 26.8379 26.4108C26.8379 26.1091 27.055 25.8967 27.3317 25.8967C27.6084 25.8967 27.8297 26.1134 27.8297 26.4108C27.8297 26.7082 27.6084 26.9206 27.3317 26.9206ZM15.5579 29.266H15.9793V30.2432H15.5579V29.266ZM24.4159 27.3073H2.19641C1.75798 27.3073 1.40468 27.6642 1.40468 28.1018V33.1452C1.40468 33.5828 1.76224 33.9355 2.19641 33.9397H24.4159C24.8544 33.9397 25.2077 33.5828 25.2077 33.1452V28.1018C25.2077 27.6642 24.8544 27.3115 24.4159 27.3073ZM5.46549 32.1679L4.81423 32.801H3.69048L3.0222 32.1679V28.446H4.02676V31.981H4.46519V28.446H5.46975V32.1679H5.46549ZM6.81058 32.801H5.80602V31.9598H6.81058V32.801ZM9.65825 29.8481H8.6537V29.266H8.2408V30.154L8.97294 30.2135L9.65825 30.8423V32.1679L8.99848 32.801H7.8875L7.23624 32.1679V31.4032H8.2408V31.981H8.6537V31.0675L7.93433 31.0165L7.23624 30.3834V29.079L7.89176 28.446H8.95166L9.65825 29.079V29.8481ZM10.003 32.801V31.9598H11.0076V32.801H10.003ZM13.1657 32.801L13.0806 31.998H12.4974L12.4123 32.801H11.4333L12.0462 28.446H13.502L14.1532 32.801H13.1657ZM16.9498 30.2177L16.4433 30.6384L16.9498 31.0632V32.801H15.9751V31.0632H15.5537V32.801H14.5491V28.446H16.2688L16.9456 29.079V30.2177H16.9498ZM20.5935 32.801H19.6741V30.0393H19.6315L19.2101 32.801H18.8398L18.4184 30.0393H18.3758V32.801H17.4564V28.446H18.644L18.9973 30.5534H19.0867L19.4144 28.446H20.5935V32.801ZM22.8708 30.9783V32.801H21.8662V30.9783L21.0021 28.446H22.0067L22.3642 30.018H22.377L22.7346 28.446H23.7391L22.8708 30.9783ZM12.8209 29.368L13.0082 31.178H12.5698L12.723 29.368H12.8209ZM24.4159 25.9094H2.19641C0.983278 25.9137 0 26.8909 0 28.1018V33.1452C0 34.3561 0.983278 35.3333 2.19641 35.3376H24.4159C25.6291 35.3376 26.6081 34.3561 26.6123 33.1452V28.1018C26.6081 26.8909 25.6248 25.9137 24.4159 25.9094ZM25.91 33.1452C25.91 33.9695 25.2417 34.6365 24.4159 34.6365H2.19641C1.37063 34.6365 0.702341 33.9695 0.702341 33.1452V28.1018C0.702341 27.2775 1.37063 26.6105 2.19641 26.6105H24.4159C25.2417 26.6105 25.91 27.2775 25.91 28.1018V33.1452ZM15.145 11.0852L13.3062 5.43001L11.4673 11.0852H5.51231L10.3308 14.5735L8.48769 20.2245L13.3019 16.7319L18.1161 20.2245L16.2773 14.5735L21.0958 11.0852H15.145ZM16.7881 18.3975L13.3062 15.8694L9.82426 18.3975L11.1566 14.3101L7.67042 11.7863H11.9781L13.3062 7.69889L14.6342 11.7863H18.9419L15.46 14.3101L16.7881 18.3975ZM24.4159 1.39787H2.19641C1.75798 1.40212 1.40468 1.75477 1.40043 2.1924V23.0499C1.40043 23.4876 1.75798 23.8402 2.19216 23.8445H24.4117C24.8501 23.8445 25.2034 23.4876 25.2034 23.0499V2.1924C25.2077 1.75477 24.8501 1.40212 24.4159 1.39787ZM19.5038 22.1322L13.3062 17.6327L7.10429 22.1322L9.47522 14.8539L3.26908 10.3587H10.9395L13.3062 3.08041L15.6729 10.3587H23.339L17.1329 14.8539L19.5038 22.1322ZM24.4159 0H2.19641C0.983278 0 0 0.981481 0 2.1924V23.0499C0.00425661 24.2566 0.983278 25.2381 2.19641 25.2381H24.4159C25.6291 25.2381 26.6081 24.2566 26.6123 23.0457V2.1924C26.6081 0.981481 25.6248 0 24.4159 0ZM25.91 23.0499C25.91 23.8742 25.2417 24.5413 24.4159 24.5413H2.19641C1.37063 24.5413 0.702341 23.8742 0.702341 23.0499V2.1924C0.702341 1.36813 1.37063 0.701058 2.19641 0.701058H24.4159C25.2417 0.701058 25.91 1.36813 25.91 2.1924V23.0499Z" fill="#fff"/>
</svg>
