<svg width="127" height="36" viewBox="0 0 127 36" fill="none" xmlns="http://www.w3.org/2000/svg">
<path d="M17.2792 0.0153809C14.1412 0.0153809 11.6757 1.17684 9.43427 3.41824V0.850813H0V35.1443H9.43427V14.9717C9.43427 11.6707 12.1036 9.00137 15.3842 9.00137C18.6648 9.00137 21.3341 11.6707 21.3341 14.9717V35.1443H30.7684V15.1754C30.7887 6.10792 25.3482 0.0153809 17.2792 0.0153809Z" fill="white"/>
<path d="M57.6447 0.850672V21.0233C57.5836 24.3243 54.8735 26.9325 51.5726 26.8713C48.3735 26.8102 45.7857 24.2224 45.7245 21.0233V0.850672H36.2903V20.6362C36.2903 29.9685 42.3013 36 51.5929 36C60.7216 36 67.079 29.6833 67.079 20.6362V0.850672H57.6447Z" fill="white"/>
<path d="M120.873 5.27239C113.843 -1.75746 102.453 -1.75746 95.4227 5.27239C88.3928 12.3023 88.3928 23.6927 95.4227 30.7225C102.453 37.7524 113.843 37.7524 120.873 30.7225C127.903 23.6927 127.903 12.3023 120.873 5.27239ZM115.371 19.1895L109.319 25.2413C106.956 27.5234 103.186 27.4623 100.884 25.0986C98.6422 22.7961 98.6422 19.1283 100.884 16.8054L106.935 10.7536C109.218 8.38998 112.987 8.32885 115.371 10.611C117.735 12.8932 117.796 16.6628 115.514 19.0468C115.453 19.108 115.412 19.1487 115.371 19.1895Z" fill="white"/>
<path d="M88.4949 0.0153809H88.067C78.9384 0.0153809 72.581 6.33206 72.581 15.3792V35.1647H82.0152V14.992C82.0152 11.6911 84.7864 9.02175 88.067 9.02175H88.4949V0.0153809Z" fill="white"/>
</svg>
