<svg width="100" height="27" viewBox="0 0 100 27" fill="none" xmlns="http://www.w3.org/2000/svg">
<g clip-path="url(#clip0)">
<path d="M85.061 20.2691V9.8105C85.061 9.60923 85.2275 9.44489 85.4315 9.44489H87.2165C87.4205 9.44489 87.587 9.60923 87.587 9.8105V20.2691C87.587 20.4703 87.4205 20.6347 87.2165 20.6347H85.4315C85.2275 20.6347 85.061 20.4703 85.061 20.2691Z" fill="white"/>
<path d="M86.324 7.73872C87.1249 7.73872 87.7741 7.09802 87.7741 6.30768C87.7741 5.51734 87.1249 4.87665 86.324 4.87665C85.5231 4.87665 84.8739 5.51734 84.8739 6.30768C84.8739 7.09802 85.5231 7.73872 86.324 7.73872Z" fill="white"/>
<path d="M40.2571 7.88826C40.2571 6.90961 41.0317 6.31319 42.3378 6.31319H47.4609C47.6256 6.31319 47.7584 6.18209 47.7584 6.0196V4.21741C47.7584 4.05492 47.6256 3.92382 47.4609 3.92382H42.3378C39.7014 3.92382 37.8396 5.54689 37.8396 7.88641C37.8396 12.4214 45.8218 13.1379 45.8218 16.432C45.8218 17.4827 44.9517 18.2471 43.7168 18.2471H42.0964C40.9513 18.2471 40.0157 17.3239 40.0157 16.1938V15.6048C40.0157 15.4035 39.8492 15.2392 39.6452 15.2392H37.9687C37.7648 15.2392 37.5982 15.4035 37.5982 15.6048V16.1938C37.5982 18.646 39.6134 20.6346 42.0983 20.6346H43.7187C46.2821 20.6346 48.2412 18.8195 48.2412 16.4339C48.2393 11.3966 40.2571 10.418 40.2571 7.88826Z" fill="white"/>
<path d="M80.7125 4.29127V9.44485H76.8431C74.448 9.44485 72.489 11.3541 72.489 13.7417V16.3397C72.489 18.7032 74.448 20.6365 76.8431 20.6365H82.7614C82.9654 20.6365 83.1319 20.4721 83.1319 20.2709V4.29127C83.1319 4.09 82.9654 3.92566 82.7614 3.92566H81.0849C80.8791 3.92566 80.7125 4.09 80.7125 4.29127ZM80.7125 18.2471H76.8431C75.7784 18.2471 74.9083 17.3885 74.9083 16.3378V13.7417C74.9083 12.691 75.7784 11.8324 76.8431 11.8324H80.7125V18.2471Z" fill="white"/>
<path d="M68.1405 9.8105V18.2472H65.2459C64.1569 18.2232 63.3111 17.4347 63.3111 16.3619V9.8105C63.3111 9.60923 63.1446 9.44489 62.9407 9.44489H61.2641C61.0602 9.44489 60.8937 9.60923 60.8937 9.8105V16.3619C60.8937 18.7217 62.8321 20.6347 65.2234 20.6347H68.1405V22.3168C68.1405 23.3915 67.0814 24.1781 65.9924 24.2021H63.6872C63.4833 24.2021 63.3167 24.3665 63.3167 24.5677V26.2222C63.3167 26.4235 63.4833 26.5878 63.6872 26.5878H65.9924C68.5035 26.5878 70.558 24.5603 70.558 22.0823V9.8105C70.558 9.60923 70.3914 9.44489 70.1875 9.44489H68.511C68.307 9.44489 68.1405 9.60923 68.1405 9.8105Z" fill="white"/>
<path d="M95.6459 9.44489H93.7112C93.6999 9.44489 93.6906 9.44674 93.6794 9.44674C91.275 9.46335 89.3571 11.3412 89.3571 13.7177V13.7417V16.3397V16.3637C89.3571 18.7512 91.2918 20.6365 93.7112 20.6365H95.6459C95.6571 20.6365 95.6665 20.6347 95.6777 20.6347C98.0821 20.6181 100 18.7402 100 16.3637V16.3397V13.7417V13.7177C100 11.3302 98.0653 9.44489 95.6459 9.44489ZM97.5806 16.3453C97.5769 17.4107 96.7386 18.2398 95.659 18.2472C95.6553 18.2472 95.6497 18.2472 95.6459 18.2472H93.7112C93.7112 18.2472 93.7112 18.2472 93.7093 18.2472C93.2322 18.2361 92.8018 18.0791 92.4688 17.8151C92.0421 17.4679 91.7764 16.9417 91.7764 16.3379V13.7343C91.7802 12.6689 92.6184 11.8398 93.6981 11.8324C93.7018 11.8324 93.7074 11.8324 93.7112 11.8324H95.6459C95.6459 11.8324 95.6459 11.8324 95.6478 11.8324C96.1249 11.8435 96.5553 12.0004 96.8883 12.2645C97.3149 12.6116 97.5806 13.1379 97.5806 13.7417V16.3453V16.3453Z" fill="white"/>
<path d="M51.7345 3.92566H50.058C49.8541 3.92566 49.6875 4.09 49.6875 4.29127V20.269C49.6875 20.4703 49.8541 20.6346 50.058 20.6346H51.7345C51.9385 20.6346 52.105 20.4703 52.105 20.269V4.29127C52.105 4.09 51.9385 3.92566 51.7345 3.92566Z" fill="white"/>
<path d="M56.1129 15.0398L59.408 9.89359C59.5333 9.69786 59.3911 9.44489 59.1573 9.44489H57.1121C56.9362 9.44489 56.7734 9.53167 56.6761 9.67755L53.6356 14.292C53.5813 14.375 53.5514 14.4729 53.5514 14.5708V15.5106C53.5514 15.6104 53.5813 15.7064 53.6356 15.7895L56.6761 20.402C56.7716 20.5479 56.9362 20.6347 57.1121 20.6347H59.1404C59.3818 20.6347 59.5277 20.3725 59.3986 20.1712L56.1129 15.0398Z" fill="white"/>
<path d="M0.778385 23.5946C0.778385 25.0515 1.75885 26.0578 3.1678 26.3717C3.35491 26.4124 3.87134 26.5896 7.11025 26.5896C10.0685 26.5896 26.9534 26.5896 26.9534 26.5896V9.62953C1.78879 17.0691 0.778385 22.1137 0.778385 23.5946Z" fill="white"/>
<path d="M0 13.2948C24.7455 8.54191 30.0782 5.65583 30.0782 3.9312C30.0782 2.47062 26.9553 2.057 26.9553 2.057V0H0V13.2948Z" fill="white"/>
</g>
<defs>
<clipPath id="clip0">
<rect width="100" height="26.5896" fill="white"/>
</clipPath>
</defs>
</svg>
