<svg width="145" height="80" viewBox="0 0 145 80" fill="none" xmlns="http://www.w3.org/2000/svg">
<g clip-path="url(#clip0)">
<path d="M59.2113 73.5021V73.4785C59.2113 72.7722 58.9523 72.1366 58.5285 71.6892C57.9635 71.1242 57.0924 70.771 55.9859 70.771H52.1483V79.8587H53.1607V76.3272H55.7034L58.2931 79.8587H59.5174L56.7863 76.1389C58.1989 75.8799 59.2113 75.0088 59.2113 73.5021ZM53.1607 75.4091V71.7128H55.9152C57.3514 71.7128 58.1989 72.3955 58.1989 73.5021V73.5256C58.1989 74.7028 57.2337 75.3855 55.9152 75.3855L53.1607 75.4091ZM46.0506 70.7004L41.9776 79.8587H43.0135L44.073 77.4573H48.9229L49.9588 79.8587H51.0418L46.9688 70.7004H46.0506ZM48.5227 76.5156H44.4497L46.4979 71.9011L48.5227 76.5156ZM64.0377 70.771H60.93V79.8587H64.0377C66.8393 79.8587 68.7699 77.8811 68.7699 75.3149V75.2913C68.7934 72.7251 66.8393 70.771 64.0377 70.771ZM67.734 75.3384C67.734 77.3396 66.2978 78.917 64.0377 78.917H61.9423V71.7363H64.0377C66.2978 71.7363 67.734 73.3137 67.734 75.3384ZM6.68629 77.3867V77.4102C6.68629 78.9641 5.41495 79.9765 3.64921 79.9765C2.23661 79.9765 1.08299 79.5056 0 78.5168L0.635668 77.7634C1.5774 78.6109 2.4485 79.0583 3.69629 79.0583C4.897 79.0583 5.67393 78.3991 5.67393 77.5044V77.4809C5.67393 76.6333 5.2266 76.1624 3.34314 75.7622C1.29488 75.3149 0.353149 74.6321 0.353149 73.1489V73.1254C0.353149 71.6892 1.60094 70.6298 3.29606 70.6298C4.59094 70.6298 5.53267 71.0065 6.42731 71.7363L5.83873 72.5368C5.01471 71.854 4.1907 71.548 3.27251 71.548C2.11889 71.548 1.36551 72.2072 1.36551 73.0077V73.0312C1.36551 73.8788 1.83637 74.3732 3.79046 74.7969C5.7681 75.2678 6.68629 75.9976 6.68629 77.3867ZM14.4556 71.7128H11.442V79.8587H10.4297V71.7128H7.43967V70.771H14.4556V71.7128ZM30.8652 70.771H31.854V79.8587H31.0536L25.2855 72.3955V79.8587H24.2966V70.771H25.2384L30.8652 78.0459V70.771ZM17.94 70.7004L13.8905 79.8587H14.9264L15.9859 77.4573H20.8358L21.8717 79.8587H22.9547L18.8817 70.7004H17.94ZM16.3626 76.5156L18.4108 71.9011L20.4356 76.5156H16.3626ZM37.0571 70.771H33.9494V79.8587H37.0571C39.8587 79.8587 41.7893 77.8811 41.7893 75.3149V75.2913C41.7893 72.7251 39.8587 70.771 37.0571 70.771ZM40.7534 75.3384C40.7534 77.3396 39.3172 78.917 37.0571 78.917H34.9617V71.7363H37.0571C39.3172 71.7363 40.7534 73.3137 40.7534 75.3384ZM96.9511 75.0088H100.647V78.6345C99.6586 79.5291 98.3873 80.0235 97.0689 80.0235C94.2672 80.0235 92.525 77.9517 92.525 75.3384V75.3149C92.525 72.8193 94.3143 70.6062 96.9982 70.6062C98.505 70.6062 99.4232 71.0536 100.318 71.8069L99.6586 72.5839C98.9759 71.9717 98.1989 71.548 96.9511 71.548C94.9735 71.548 93.5609 73.2431 93.5609 75.2678V75.2913C93.5609 77.4573 94.9264 79.0583 97.0924 79.0583C98.1048 79.0583 99.0465 78.658 99.6586 78.1401V75.8799H96.9511V75.0088ZM130.43 70.6062C127.722 70.6062 125.862 72.7958 125.862 75.3149V75.3384C125.862 77.834 127.675 80 130.406 80C133.114 80 134.974 77.8105 134.974 75.2913V75.2678C134.95 72.7722 133.137 70.6062 130.43 70.6062ZM133.914 75.3384C133.914 77.4102 132.454 79.0583 130.43 79.0583C128.381 79.0583 126.922 77.3632 126.922 75.3149V75.2913C126.922 73.2195 128.381 71.5715 130.406 71.5715C132.454 71.5715 133.914 73.2666 133.914 75.3149V75.3384ZM112.231 70.771H113.243V79.8587H112.231V70.771ZM123.178 70.771H124.191V79.8587H123.178V70.771ZM143.119 70.771H144.108V79.8587H143.308L137.54 72.3955V79.8587H136.551V70.771H137.493L143.119 78.0459V70.771ZM114.797 70.771H121.813V71.7128H118.823V79.8587H117.81V71.7128H114.82V70.771H114.797ZM109.052 70.771H110.041V79.8587H109.241L103.473 72.3955V79.8587H102.484V70.771H103.426L109.052 78.0459V70.771ZM80.6357 77.7398L81.2949 78.3991C80.3531 79.3643 79.3408 80 77.7163 80C75.1501 80 73.2431 77.9282 73.2431 75.3149V75.2913C73.2431 72.7251 75.1265 70.5827 77.7634 70.5827C79.3879 70.5827 80.3531 71.1713 81.2478 72.0188L80.565 72.7722C79.8117 72.0424 78.9641 71.5244 77.7634 71.5244C75.7858 71.5244 74.3025 73.1489 74.3025 75.2443V75.2678C74.3025 77.3632 75.7858 79.0112 77.7634 79.0112C78.9876 79.0583 79.7881 78.5874 80.6357 77.7398ZM86.9217 70.6062C84.2142 70.6062 82.3543 72.7958 82.3543 75.3149V75.3384C82.3543 77.834 84.1672 80 86.8982 80C89.6292 80 91.4656 77.8105 91.4656 75.2913V75.2678C91.4656 72.7722 89.6292 70.6062 86.9217 70.6062ZM90.4061 75.3384C90.4061 77.4102 88.9464 79.0583 86.9217 79.0583C84.8735 79.0583 83.4138 77.3632 83.4138 75.3149V75.2913C83.4138 73.2195 84.8735 71.5715 86.8982 71.5715C88.9464 71.5715 90.4061 73.2666 90.4061 75.3149V75.3384ZM144.085 0.0706298V61.2125H123.32V56.7863H138.788V4.49676H123.296V0.0706298H144.085ZM20.5297 61.2125H0V0H20.5297V4.42613H5.2266V56.7863H20.5062V61.2125H20.5297ZM113.196 49.8882C109.429 54.1495 104.956 57.2572 97.94 57.2572C87.0159 57.2572 78.7757 48.1931 78.7757 37.528V37.3867C78.7757 26.6274 87.0159 17.4926 97.94 17.4926C105.026 17.4926 109.429 20.5062 112.913 24.2731L109.217 28.2519C106.251 25.0736 102.931 22.5074 97.8693 22.5074C90.2649 22.5074 84.4968 29.0524 84.4968 37.2454V37.3867C84.4968 45.6268 90.4297 52.1954 98.246 52.1954C103.025 52.1954 106.698 49.7705 109.665 46.5215L113.196 49.8882ZM69.6645 42.3779V42.5191C69.6645 51.3479 62.4367 57.0924 52.3838 57.0924C44.3555 57.0924 37.7634 54.3614 31.6892 48.8523L35.2443 44.5909C40.518 49.4408 45.5798 51.8893 52.5956 51.8893C59.3996 51.8893 63.8729 48.2166 63.8729 43.1313V42.99C63.8729 38.2107 61.3302 35.4797 50.7122 33.196C39.0583 30.6062 33.7139 26.7922 33.7139 18.3167V18.1519C33.7139 10.053 40.7298 4.07298 50.359 4.07298C57.7281 4.07298 63.0253 6.21542 68.1577 10.4061L64.8381 14.9029C60.1295 10.9947 55.4444 9.29959 50.2178 9.29959C43.6257 9.29959 39.435 12.9723 39.435 17.6339V17.7752C39.435 22.6251 42.0483 25.3561 53.1842 27.781C64.4379 30.3002 69.6645 34.4909 69.6645 42.3779Z" fill="white"/>
</g>
<defs>
<clipPath id="clip0">
<rect width="144.085" height="80" fill="white"/>
</clipPath>
</defs>
</svg>
