<svg width="147" height="81" viewBox="0 0 147 81" fill="none" xmlns="http://www.w3.org/2000/svg">
<path fill-rule="evenodd" clip-rule="evenodd" d="M0 76.7458L4.70857 76.2979C5.10802 77.2178 6.11267 77.8109 7.43204 77.8109C8.703 77.8109 9.47767 77.3873 9.47767 76.6973C9.47767 74.3128 0.326813 75.959 0.45996 70.5362C0.54469 67.837 3.25606 66.1182 7.35942 66.1182C10.9181 66.1182 13.7989 67.5586 14.392 70.0158L9.73186 70.5362C9.44136 69.6647 8.63037 69.12 7.55308 69.12C6.34265 69.12 5.6164 69.5437 5.6164 70.2578C5.6164 72.6182 14.7794 70.6089 14.7794 76.0437C14.7794 78.9972 11.9227 80.8128 7.45625 80.8128C3.20764 80.8249 0.568902 79.1303 0 76.7458ZM16.7766 75.0269V70.161H14.7551V66.6023H16.7766V63.5279H21.9088V66.6023H25.649V70.1489H21.9088V74.6759C21.9088 76.4674 22.5624 77.1452 24.1844 77.1452C24.5233 77.1452 24.8865 77.0968 25.3948 77.0242L26.0485 80.5465C25.419 80.6918 24.2449 80.8128 23.2403 80.8128C18.9553 80.8249 16.7766 79.2756 16.7766 75.0269ZM37.0513 73.4413C37.0513 71.2746 35.8893 70.04 34.3641 70.04C32.839 70.04 31.6891 71.2746 31.6891 73.4413C31.6891 75.6564 32.8511 76.891 34.3641 76.891C35.9135 76.8789 37.0513 75.6564 37.0513 73.4413ZM26.92 73.4655C26.92 68.8659 29.4014 66.1303 32.9237 66.1303C34.6909 66.1303 36.2887 67.0381 36.8818 68.418V66.4208H41.6751V80.4739H36.8818V78.5977C36.2887 79.9292 34.6667 80.8128 32.9237 80.8128C29.4256 80.8249 26.92 78.0409 26.92 73.4655ZM45.4275 75.0269V70.161H43.406V66.6023H45.4275V63.5279H50.5597V66.6023H54.312V70.1489H50.5597V74.6759C50.5597 76.4674 51.2133 77.1452 52.8353 77.1452C53.1742 77.1452 53.5373 77.0968 54.0457 77.0242L54.6994 80.5465C54.0699 80.6918 52.8958 80.8128 51.9033 80.8128C47.6062 80.8249 45.4275 79.2756 45.4275 75.0269ZM65.8353 71.7104C65.7385 70.2215 64.6975 69.2653 63.1966 69.2653C61.732 69.2653 60.6547 70.161 60.5336 71.7104H65.8353ZM55.5709 73.4776C55.5709 69.12 58.6212 66.1303 63.0755 66.1303C67.9778 66.1303 70.7981 69.3742 70.2776 74.4944H60.4489C60.4731 76.3221 61.5746 77.4357 63.3176 77.4357C64.5523 77.4357 65.3996 76.9394 65.7385 75.9711L70.2171 76.3947C69.3093 79.2877 66.9005 80.8249 63.1724 80.8249C58.5606 80.8249 55.5709 77.932 55.5709 73.4776ZM71.1975 76.7458L75.9061 76.2979C76.3055 77.2178 77.3102 77.8109 78.6296 77.8109C79.9005 77.8109 80.6752 77.3873 80.6752 76.6973C80.6752 74.3128 71.5122 75.959 71.6575 70.5362C71.7422 67.837 74.4536 66.1182 78.5569 66.1182C82.1156 66.1182 84.9964 67.5586 85.5895 70.0158L80.9294 70.5362C80.6389 69.6647 79.8279 69.12 78.7506 69.12C77.5402 69.12 76.8139 69.5437 76.8139 70.2578C76.8139 72.6182 85.9769 70.6089 85.9769 76.0437C85.9769 78.9972 83.1203 80.8128 78.6538 80.8128C74.4052 80.8249 71.7664 79.1303 71.1975 76.7458ZM95.7814 75.0269V70.161H93.7599V66.6023H95.7814V63.5279H100.914V66.6023H104.654V70.1489H100.914V74.6759C100.914 76.4674 101.567 77.1452 103.189 77.1452C103.528 77.1452 103.891 77.0968 104.4 77.0242L105.053 80.5465C104.424 80.6918 103.25 80.8128 102.245 80.8128C97.9602 80.8249 95.7814 79.2756 95.7814 75.0269ZM105.925 80.8249H111.13V66.9897H105.925V80.8249ZM105.925 65.2588H111.13V61.7969H105.925V65.2588ZM114.023 75.0269V70.161H112.001V66.6023H114.023V63.5279H119.155V66.6023H122.895V70.1489H119.155V74.6759C119.155 76.4674 119.808 77.1452 121.43 77.1452C121.769 77.1452 122.132 77.0968 122.641 77.0242L123.294 80.5465C122.665 80.6918 121.491 80.8128 120.498 80.8128C116.189 80.8249 114.023 79.2756 114.023 75.0269ZM125.025 80.8249H130.23V61.7969H125.025V80.8249ZM142.238 71.7104C142.141 70.2215 141.112 69.2653 139.599 69.2653C138.134 69.2653 137.057 70.161 136.936 71.7104H142.238ZM131.973 73.4776C131.973 69.12 135.011 66.1303 139.478 66.1303C144.38 66.1303 147.2 69.3742 146.68 74.4944H136.863C136.888 76.3221 137.989 77.4357 139.732 77.4357C140.967 77.4357 141.826 76.9394 142.153 75.9711L146.632 76.3947C145.724 79.2877 143.315 80.8249 139.587 80.8249C134.963 80.8249 131.973 77.932 131.973 73.4776Z" fill="white"/>
<path fill-rule="evenodd" clip-rule="evenodd" d="M49 48.4173H59.4218V38.0439H49V48.4173ZM49 29.4014H59.4218V19.028H49V29.4014ZM68.1006 48.4173H78.5224V38.0439H68.1006V48.4173Z" fill="white"/>
<path fill-rule="evenodd" clip-rule="evenodd" d="M77.9414 19.5969H87.7822V9.80449H77.9414V19.5969V19.5969ZM68.1006 29.4014H97.623V0H68.1006V29.4014Z" fill="white"/>
</svg>
