<svg width="136" height="43" viewBox="0 0 136 43" fill="none" xmlns="http://www.w3.org/2000/svg">
<path fill-rule="evenodd" clip-rule="evenodd" d="M22.7697 35.5537C21.9886 34.6405 20.6862 34.4903 19.5583 34.5397C18.5611 34.6089 17.5541 34.8975 16.9673 35.7672C16.5867 36.3286 16.4935 37.2576 16.7612 37.8743C17.1457 38.6097 17.9744 38.9398 18.7316 39.1513C19.0106 39.2321 19.3143 39.2882 19.622 39.3452C20.1954 39.4512 20.7829 39.5599 21.2512 39.8352C21.8062 40.1673 21.6536 41.0766 21.0589 41.2663C20.1331 41.5431 19.0369 41.5253 18.3391 40.7662C18.3312 40.5883 18.3252 40.4104 18.3193 40.2305C17.6572 40.2226 16.997 40.2226 16.3349 40.2365L16.3542 40.3614C16.4439 40.9469 16.5257 41.4811 16.9534 41.9463C17.7186 42.8121 19.0567 43.0216 20.153 42.992C21.3067 42.9544 22.5278 42.654 23.182 41.6202C23.6399 40.8532 23.7272 39.5427 22.9342 38.9536C22.163 38.3513 21.3191 38.1917 20.4504 38.0274C20.0933 37.9599 19.7321 37.8915 19.3699 37.7913C18.8664 37.6589 18.2975 37.1786 18.6305 36.6231C18.7217 36.3365 19.0845 36.2357 19.3422 36.1645C19.8893 36.0558 20.5118 36.0815 21.0232 36.3187C21.1766 36.4604 21.2531 36.6829 21.3257 36.8941C21.3554 36.9804 21.3844 37.0648 21.4177 37.141C22.0521 37.145 22.6884 37.143 23.3228 37.1173L23.3169 37.0755C23.2381 36.5127 23.1663 35.9993 22.7697 35.5537ZM58.7911 37.3287C58.3471 36.4768 57.8872 35.698 57.0308 35.1979C55.2031 33.996 52.5884 34.4803 51.3217 36.2554C50.0133 38.0126 50.3126 40.5823 51.9877 41.9957C53.4705 43.2528 55.6987 43.322 57.2647 42.1736C58.0022 41.6695 58.3947 40.9619 58.7872 40.189C58.1191 40.1613 57.4511 40.1672 56.7811 40.1811C56.7428 40.2296 56.7052 40.2782 56.6677 40.3267L56.6674 40.3271C56.4548 40.6022 56.2473 40.8707 55.9524 41.0706C54.985 41.6992 53.5657 41.4442 52.9274 40.4677C52.293 39.507 52.293 38.149 52.8639 37.1587C53.4348 36.1427 54.8463 35.8146 55.8414 36.3918C56.2079 36.6139 56.449 36.9252 56.7034 37.2538L56.7034 37.2539C56.7298 37.2879 56.7563 37.3221 56.783 37.3564C57.4531 37.3623 58.1211 37.3584 58.7911 37.3287ZM61.9411 34.7611C61.9649 35.8067 61.9669 36.8524 61.9451 37.8961C63.0889 37.9158 64.2327 37.9119 65.3765 37.8961C65.3338 37.1427 65.3515 36.3924 65.3692 35.6407V35.6403V35.64V35.6396V35.6393C65.3762 35.3462 65.3831 35.0529 65.3865 34.7591C65.9653 34.7709 66.5461 34.7729 67.125 34.7611C67.1806 36.3514 67.1733 37.9439 67.166 39.5364C67.1611 40.6101 67.1562 41.6837 67.1706 42.7567C66.5759 42.7567 65.9812 42.7607 65.3884 42.7765C65.3333 41.947 65.3533 41.122 65.3733 40.2948V40.2946V40.2945V40.2944V40.2943V40.294V40.2938V40.2937V40.2935C65.3799 40.0212 65.3865 39.7486 65.3904 39.4755C64.3328 39.4572 63.2752 39.4592 62.2177 39.4611L61.953 39.4616L61.9542 39.6831C61.9599 40.712 61.9656 41.7395 61.9471 42.7686C61.3365 42.7548 60.7259 42.7567 60.1174 42.7647C60.1233 40.0981 60.1213 37.4316 60.1154 34.765C60.724 34.7749 61.3325 34.7749 61.9411 34.7611ZM12.0162 34.7728C10.8767 34.7747 9.73728 34.7765 8.59785 34.763C8.59433 35.9479 8.5955 37.1328 8.59667 38.3178V38.3184C8.59814 39.7998 8.59961 41.2812 8.5919 42.7626C9.65281 42.7559 10.7142 42.7571 11.7758 42.7583H11.7759H11.776H11.7761H11.7762C12.9005 42.7595 14.025 42.7608 15.1495 42.7527C15.1476 42.2427 15.1495 41.7327 15.1575 41.2227C13.5786 41.2208 11.9998 41.2208 10.4209 41.2208H10.4058C10.4031 40.8298 10.4022 40.4389 10.4014 40.0486V40.0482C10.4009 39.8525 10.4005 39.6569 10.3998 39.4615C10.8148 39.4609 11.2295 39.4611 11.6441 39.4612H11.6453H11.6453H11.6454H11.6455C12.5774 39.4615 13.5086 39.4618 14.4399 39.4536C14.4379 38.9397 14.4399 38.4238 14.4458 37.9079C13.6988 37.909 12.9518 37.907 12.2049 37.9051L12.2025 37.905C11.6043 37.9035 11.006 37.9019 10.4077 37.9019C10.4038 37.3722 10.4018 36.8424 10.4018 36.3127C11.0227 36.3143 11.6436 36.3133 12.2646 36.3124C13.1958 36.3109 14.1271 36.3095 15.0583 36.3166L15.0594 36.0092C15.0606 35.5991 15.0619 35.1883 15.0683 34.7788C14.0509 34.7694 13.0335 34.7711 12.0162 34.7728ZM25.0733 34.765L25.2398 34.767L25.9431 34.769H25.9432H25.9433H25.9434C27.8181 34.7747 29.6926 34.7803 31.5655 34.761C31.5694 35.2769 31.5714 35.7929 31.5714 36.3088C30.0272 36.3147 28.4809 36.3186 26.9347 36.3048V36.3055V36.3061V36.3067V36.3074C26.9307 36.8382 26.9268 37.3691 26.9307 37.9C27.7462 37.9084 28.5625 37.9066 29.379 37.9048H29.3791H29.3793H29.3794C29.9045 37.9036 30.4297 37.9024 30.9549 37.9039L30.9549 37.9074C30.9509 38.4261 30.947 38.9428 30.947 39.4616C29.9446 39.4571 28.9433 39.4593 27.9414 39.4616H27.9408H27.9403H27.9383C27.6039 39.4623 27.2693 39.4631 26.9347 39.4635C26.9307 40.0506 26.9287 40.6377 26.9307 41.2267C27.9853 41.2188 29.0407 41.2197 30.0958 41.2206H30.0959H30.096H30.096C30.6236 41.221 31.1512 41.2215 31.6785 41.2208C31.6745 41.7348 31.6745 42.2487 31.6804 42.7626C29.7948 42.7558 27.9077 42.7578 26.0203 42.7597H26.0202H26.0201H26.0199L25.0752 42.7606C25.0812 40.0961 25.0852 37.4295 25.0733 34.765ZM0.00634061 34.761C0.794353 34.7759 1.58237 34.7736 2.37038 34.7713H2.3712C2.94678 34.7696 3.52235 34.7679 4.09793 34.7729C4.86906 34.8065 5.64416 34.8935 6.21112 35.4707C6.86926 36.0597 6.88908 37.1785 6.70868 37.9751C6.53424 38.7006 6.00297 39.0564 5.37853 39.3825C5.38645 39.4537 5.39438 39.5248 5.40231 39.598C6.06838 40.6298 6.70869 41.6932 7.32322 42.7567C7.1141 42.7567 6.90428 42.7602 6.69423 42.7637H6.6941H6.69397H6.69384H6.69382H6.6938H6.69377C6.19908 42.772 5.7031 42.7803 5.21201 42.7429C4.76236 42.181 4.39663 41.5501 4.0307 40.9189C3.75294 40.4398 3.47506 39.9605 3.16027 39.511C2.71424 39.5169 2.26821 39.5189 1.82218 39.5169C1.81795 40.0936 1.81823 40.6708 1.81851 41.2482C1.81876 41.7536 1.81901 42.2591 1.81623 42.7646C1.2136 42.7567 0.612941 42.7587 0.0122874 42.7666C-0.000456235 40.8605 0.0019712 38.9544 0.00439864 37.0483C0.00536962 36.2859 0.00634061 35.5235 0.00634061 34.761ZM1.81225 36.3147C2.1111 36.3189 2.41096 36.3149 2.71101 36.3109C3.25684 36.3036 3.80334 36.2963 4.3457 36.3384C4.54852 36.382 4.71052 36.5681 4.85859 36.7382L4.85866 36.7382C4.91173 36.7992 4.96302 36.8581 5.01376 36.9077C4.98601 37.1449 4.96023 37.3821 4.93644 37.6212C4.37231 38.0792 3.57208 38.0463 2.79953 38.0145H2.79941H2.79938H2.79934C2.46164 38.0006 2.12923 37.9869 1.82414 38.0146C1.82116 37.7317 1.81968 37.4483 1.81819 37.1646C1.8167 36.8815 1.81522 36.5981 1.81225 36.3147ZM45.0471 34.7707H45.0465C44.187 34.7719 43.3273 34.773 42.4684 34.763C42.4644 36.0952 42.4654 37.428 42.4664 38.7608C42.4674 40.0936 42.4684 41.4264 42.4644 42.7586C42.6629 42.7593 42.8615 42.7602 43.0603 42.761L43.062 42.761L43.0637 42.761C43.4655 42.7628 43.8679 42.7646 44.2703 42.7646C44.2842 41.6833 44.2842 40.6021 44.2723 39.5228L44.5421 39.5218H44.5427C44.9012 39.5205 45.2604 39.5192 45.6184 39.5129C45.9722 40.0466 46.3028 40.5947 46.6333 41.1427C46.9639 41.6907 47.2944 42.2388 47.6483 42.7725C48.1478 42.7629 48.6473 42.7618 49.1468 42.7608C49.3689 42.7603 49.591 42.7599 49.813 42.7586C49.1252 41.6458 48.4412 40.5289 47.7771 39.4022C48.3996 39.0998 48.9368 38.7776 49.141 38.0719C49.3571 37.2437 49.3333 36.0577 48.6494 35.4331C48.0824 34.9112 47.2617 34.7847 46.5203 34.7709C46.0295 34.7694 45.5383 34.7701 45.0471 34.7707ZM44.9186 36.3103C44.7046 36.3088 44.4905 36.3073 44.2763 36.3068C44.2763 36.8741 44.2743 37.4394 44.2703 38.0048C44.5214 38.0034 44.7729 38.0067 45.0244 38.01H45.0245C45.5278 38.0166 46.0313 38.0232 46.5322 37.9929C46.845 37.9883 47.0428 37.8324 47.2585 37.6623C47.3217 37.6124 47.3864 37.5614 47.456 37.5126C47.4487 37.446 47.4427 37.3787 47.4367 37.3112C47.4196 37.1203 47.4023 36.9276 47.3569 36.7436C47.229 36.6079 47.0807 36.4885 46.9346 36.3707L46.9343 36.3704C46.9038 36.3459 46.8735 36.3214 46.8435 36.2969C46.2013 36.3192 45.5603 36.3147 44.9187 36.3103H44.9186H44.9186ZM37.2673 34.7482H37.2674C37.54 34.7506 37.8124 34.753 38.0834 34.7472C38.5192 35.8389 38.9639 36.9273 39.4087 38.0157C40.0543 39.5958 40.7 41.176 41.3186 42.7666C40.6466 42.7607 39.9766 42.7587 39.3065 42.7607C39.0845 42.1776 38.8664 41.5925 38.6583 41.0034C37.5283 40.9955 36.3984 40.9936 35.2685 41.0034C35.1934 41.2105 35.1171 41.417 35.0408 41.6236C34.9015 42.0008 34.7621 42.3781 34.6301 42.7587H32.6022C32.8285 42.1963 33.0547 41.6323 33.2812 41.0676L33.2817 41.0665C34.1241 38.9659 34.9705 36.8552 35.8453 34.7789C36.3164 34.7399 36.7922 34.7441 37.2673 34.7482ZM36.9754 36.4867C37.3382 37.5066 37.7009 38.5246 38.1232 39.5209C37.374 39.5962 36.6249 39.5923 35.872 39.5884L35.8177 39.5881C36.1864 38.5464 36.5809 37.5165 36.9754 36.4867Z" fill="white"/>
<path fill-rule="evenodd" clip-rule="evenodd" d="M87.1487 34.6306C88.3699 34.4151 89.8249 34.4922 90.824 35.3046C91.2874 35.6721 91.4204 36.1905 91.5569 36.7227L91.5569 36.7228C91.5886 36.8462 91.6204 36.9704 91.6566 37.0935C91.0163 37.141 90.376 37.1548 89.7337 37.1469C89.7002 37.0767 89.6689 37.003 89.6373 36.9285L89.6373 36.9284L89.6373 36.9284L89.6372 36.9284C89.555 36.7344 89.4704 36.535 89.3372 36.378C88.8555 36.034 88.1042 36.0578 87.5531 36.1882C87.2003 36.2851 86.7701 36.5677 86.8296 36.9868C86.7899 37.4711 87.3648 37.6925 87.7434 37.8091C88.0629 37.8946 88.3908 37.9579 88.7186 38.0211C89.6253 38.196 90.5311 38.3708 91.2562 39.0168C92.172 39.7561 91.8588 41.2149 91.2046 42.0194C90.4315 42.7844 89.1985 43.0196 88.1478 42.9919C87.1309 42.9761 86.0168 42.7844 85.2813 42.0234C84.8633 41.5981 84.761 41.0585 84.656 40.5043L84.656 40.5043L84.656 40.5043L84.656 40.5043L84.656 40.5043L84.656 40.5043L84.656 40.5043L84.656 40.5043C84.639 40.4146 84.6219 40.3245 84.6034 40.2345C85.2357 40.2226 85.8681 40.2187 86.4985 40.2246C86.5406 40.3136 86.5764 40.4031 86.6115 40.4906L86.6115 40.4906L86.6115 40.4906C86.7414 40.8152 86.8602 41.1119 87.2459 41.2505C87.9318 41.4778 88.913 41.5411 89.5474 41.1457C89.8819 40.8971 89.8559 40.564 89.8285 40.2134C89.8208 40.1152 89.813 40.0157 89.813 39.9162C89.1791 39.6061 88.5148 39.4709 87.8686 39.3394C87.0113 39.165 86.1858 38.997 85.5053 38.4357C84.758 37.8625 84.7858 36.88 85.0791 36.0716C85.438 35.2611 86.2963 34.765 87.1487 34.6306ZM72.3505 34.7789L72.3667 34.7786C72.9699 34.7688 73.575 34.759 74.1782 34.7453C74.208 37.4217 74.2298 40.108 74.1663 42.7824C73.5617 42.7686 72.9571 42.7567 72.3505 42.7449C72.3703 40.0902 72.3703 37.4335 72.3505 34.7789ZM77.8733 34.7689C77.2766 34.7729 76.6819 34.7709 76.0852 34.763C76.049 35.6178 76.0577 36.4712 76.0664 37.3249C76.072 37.8707 76.0775 38.4168 76.0714 38.9634C76.0736 39.3253 76.0709 39.6859 76.0683 40.0459V40.0459V40.0459V40.0459V40.0459V40.0459V40.0459C76.0615 40.9622 76.0548 41.8746 76.1288 42.7942C76.2918 42.7707 76.4947 42.7767 76.7072 42.783C77.1384 42.7958 77.6091 42.8098 77.8654 42.5807C77.8867 41.9255 77.8813 41.2698 77.8759 40.6141C77.8687 39.7429 77.8615 38.8715 77.9169 38.0008C78.3985 38.7387 78.9129 39.4536 79.4272 40.1685L79.4272 40.1685L79.4272 40.1685C79.8677 40.7807 80.3082 41.3929 80.7279 42.0193C80.7706 42.0735 80.8133 42.1326 80.857 42.1931C81.0063 42.3998 81.1679 42.6235 81.3841 42.729C81.8357 42.789 82.3013 42.7745 82.7606 42.7603C82.8758 42.7567 82.9906 42.7531 83.1048 42.7507C83.0968 40.0941 83.0968 37.4354 83.1048 34.7788C82.4922 34.7709 81.8797 34.7729 81.2691 34.7768C81.2731 36.3325 81.275 37.8881 81.2572 39.4418C80.4087 38.346 79.6056 37.211 78.8032 36.0771L78.8032 36.0771C78.494 35.6401 78.1849 35.2033 77.8733 34.7689ZM92.9393 34.7728L94.6552 34.7746L94.6552 34.7746C96.3689 34.7764 98.0826 34.7783 99.7963 34.7768C99.7933 35.033 99.7908 35.2893 99.7883 35.5458C99.7858 35.7998 99.7834 36.054 99.7804 36.3087C98.9458 36.3147 98.1132 36.3147 97.2787 36.3008C97.2684 37.0975 97.2755 37.8958 97.2826 38.6944V38.6945V38.6947V38.6949V38.6951V38.6952C97.2947 40.0562 97.3068 41.4181 97.2331 42.7744C96.6324 42.7626 96.0317 42.7586 95.4291 42.7567C95.4626 41.0256 95.4538 39.2933 95.4449 37.5607V37.5606C95.4427 37.1407 95.4406 36.7207 95.439 36.3008L95.438 36.3008C94.5979 36.3068 93.7577 36.3127 92.9175 36.3147C92.9274 35.801 92.9333 35.2873 92.9393 34.7736V34.7736V34.7735V34.7735V34.7735V34.7735L92.9393 34.7728ZM101.503 34.7537C101.393 34.7537 101.283 34.7538 101.174 34.7531C101.188 36.4457 101.186 38.1391 101.185 39.8322V39.8323V39.8323V39.8324V39.8324C101.184 40.8126 101.184 41.7927 101.186 42.7725C101.808 42.7646 102.431 42.7606 103.055 42.7606C103.022 41.5939 103.03 40.4222 103.038 39.2504V39.2504V39.2503V39.2503V39.2502V39.2501C103.048 37.7716 103.059 36.293 102.986 34.8243C102.499 34.7531 101.998 34.7534 101.503 34.7537ZM104.443 34.761C106.726 34.7848 109.012 34.7867 111.294 34.763C111.294 35.2789 111.292 35.7929 111.288 36.3068C110.449 36.3088 109.609 36.3127 108.77 36.3167C108.79 38.4614 108.802 40.6081 108.768 42.7528L108.763 42.7528C108.186 42.7607 107.607 42.7686 107.028 42.7864C106.905 41.4612 106.922 40.1216 106.939 38.7831C106.95 37.9614 106.96 37.14 106.939 36.3226C106.104 36.3088 105.269 36.3028 104.435 36.3167C104.435 35.7968 104.437 35.2789 104.443 34.761ZM114.487 34.763C113.889 34.769 113.292 34.7729 112.695 34.7709C112.699 35.5393 112.697 36.3084 112.695 37.0774V37.0775V37.0776C112.692 38.1029 112.689 39.1281 112.699 40.1514C112.684 41.1497 113.284 42.0233 114.144 42.4938C115.32 43.1263 116.813 43.158 118.034 42.6341C119.029 42.1933 119.741 41.2623 119.731 40.1514C119.742 39.3385 119.738 38.5251 119.735 37.7115V37.7114V37.7112C119.73 36.7346 119.726 35.7577 119.747 34.7808C119.152 34.7709 118.557 34.7591 117.964 34.7413C117.916 35.611 117.921 36.4813 117.926 37.3512V37.3512V37.3513C117.931 38.0888 117.935 38.826 117.907 39.5624C117.904 39.5996 117.9 39.6377 117.897 39.6767C117.859 40.1125 117.813 40.6473 117.495 40.954C117.007 41.4877 116.161 41.4976 115.51 41.3295C114.947 41.1595 114.622 40.6772 114.569 40.104C114.456 39.1175 114.478 38.113 114.5 37.1086V37.1085V37.1084C114.517 36.3237 114.534 35.539 114.487 34.763ZM121.152 34.7531C123.41 34.7907 125.682 34.7926 127.94 34.7531C127.974 35.0927 128.003 35.4324 128.032 35.772L128.032 35.7732C128.047 35.9432 128.061 36.1131 128.077 36.283C127.214 36.3226 126.354 36.3206 125.49 36.2929C125.479 37.3712 125.481 38.449 125.484 39.5268C125.486 40.6045 125.489 41.6823 125.478 42.7606C124.887 42.7665 124.296 42.7764 123.705 42.7922C123.637 41.2949 123.65 39.7938 123.663 38.2941C123.669 37.6319 123.675 36.9699 123.674 36.3087C122.825 36.3147 121.975 36.3147 121.126 36.3048C121.134 35.7869 121.142 35.269 121.152 34.7531ZM131.577 34.7754C130.854 34.7726 130.13 34.7699 129.407 34.7749C129.411 37.4315 129.409 40.0902 129.405 42.7468C130.513 42.7639 131.621 42.7621 132.728 42.7604C133.806 42.7586 134.884 42.7569 135.962 42.7725L135.963 42.7523C135.975 42.2471 135.986 41.7399 136 41.2347C134.994 41.2108 133.987 41.2133 132.981 41.2157C132.401 41.2171 131.822 41.2185 131.242 41.2149C131.242 40.6298 131.242 40.0447 131.244 39.4596C132.578 39.4537 133.913 39.4517 135.247 39.4636C135.255 38.9496 135.263 38.4357 135.272 37.9218C134.246 37.8946 133.219 37.8974 132.192 37.9002C131.876 37.9011 131.56 37.902 131.244 37.902C131.244 37.3703 131.246 36.8385 131.252 36.3068C132.791 36.3127 134.331 36.3147 135.869 36.3127C135.869 36.238 135.87 36.163 135.871 36.0878C135.874 35.6717 135.877 35.25 135.833 34.8381C135.452 34.7609 135.043 34.7636 134.652 34.7663C134.613 34.7665 134.574 34.7668 134.535 34.767C133.548 34.7829 132.562 34.7792 131.577 34.7754Z" fill="white"/>
<path fill-rule="evenodd" clip-rule="evenodd" d="M86.6355 12.0171C86.6355 16.0865 83.5192 19.5769 79.8212 19.5769C75.9258 19.5769 73.0069 16.0865 73.0069 12.0171C73.0069 7.7537 75.9258 4.45726 79.8212 4.45726C83.5192 4.45726 86.6355 7.7537 86.6355 12.0171ZM79.8212 0C73.0069 0 67.556 5.42681 67.556 12.0171C67.556 18.6073 73.0069 23.8402 79.8212 23.8402C86.4407 23.8402 91.8916 18.6073 91.8916 12.0171C91.8916 5.42681 86.4407 0 79.8212 0ZM104.739 23.4524V5.03896H111.942V0.775608H92.4734V5.03896H99.6772V23.4524H104.739ZM122.844 14.5352H126.155L123.039 6.20241H122.844L119.731 14.5352H122.844ZM118.172 18.2195V18.4134L116.225 23.4524H110.189L119.731 0.775608H126.155L135.694 23.4524H129.658L127.519 18.4134V18.2195H118.172ZM12.2652 23.4524V5.03896H19.469V0.775608H0V5.03896H7.20384V23.4524H12.2652ZM32.5133 19.5769C36.2113 19.5769 39.3249 16.0865 39.3249 12.0171C39.3249 7.7537 36.2113 4.45726 32.5133 4.45726C28.6179 4.45726 25.699 7.7537 25.699 12.0171C25.699 16.0865 28.6179 19.5769 32.5133 19.5769ZM20.2481 12.0171C20.2481 5.42681 25.699 0 32.5133 0C39.1302 0 44.5811 5.42681 44.5811 12.0171C44.5811 18.6073 39.1302 23.8402 32.5133 23.8402C25.699 23.8402 20.2481 18.6073 20.2481 12.0171ZM58.5993 23.4524H56.0699H53.3431V14.7291L44.3864 0.775608H50.4242L56.0699 10.2719L61.5208 0.775608H67.556L58.5993 14.7291V23.4524Z" fill="white"/>
</svg>
