<svg width="528" height="528" viewBox="0 0 528 528" fill="none" xmlns="http://www.w3.org/2000/svg">
<rect width="528" height="528" rx="24" fill="#171717"/>
<path d="M101.702 87H103.896V81.8864H106.879C110.253 81.8864 111.922 79.848 111.922 77.1634C111.922 74.4858 110.267 72.4545 106.886 72.4545H101.702V87ZM103.896 80.0256V74.3366H106.652C108.825 74.3366 109.713 75.5156 109.713 77.1634C109.713 78.8111 108.825 80.0256 106.68 80.0256H103.896ZM116.448 72.4545H114.324V87H116.448V72.4545ZM124.006 87.2202C126.385 87.2202 128.069 86.0483 128.552 84.2727L126.542 83.9105C126.158 84.9403 125.235 85.4659 124.028 85.4659C122.209 85.4659 120.988 84.2869 120.931 82.1847H128.687V81.4318C128.687 77.4901 126.329 75.9489 123.857 75.9489C120.817 75.9489 118.814 78.2642 118.814 81.6165C118.814 85.0043 120.789 87.2202 124.006 87.2202ZM120.938 80.5938C121.023 79.0455 122.145 77.7031 123.871 77.7031C125.519 77.7031 126.599 78.9247 126.606 80.5938H120.938ZM134.218 87.2415C136.021 87.2415 137.037 86.3253 137.442 85.5085H137.527V87H139.601V79.7557C139.601 76.581 137.101 75.9489 135.368 75.9489C133.394 75.9489 131.575 76.7443 130.865 78.733L132.861 79.1875C133.173 78.4134 133.969 77.6676 135.396 77.6676C136.767 77.6676 137.47 78.3849 137.47 79.6207V79.6705C137.47 80.4446 136.675 80.4304 134.715 80.6577C132.648 80.8991 130.531 81.4389 130.531 83.9176C130.531 86.0625 132.144 87.2415 134.218 87.2415ZM134.679 85.5369C133.479 85.5369 132.612 84.9972 132.612 83.946C132.612 82.8097 133.621 82.4048 134.85 82.2415C135.539 82.1491 137.172 81.9645 137.477 81.6591V83.0653C137.477 84.358 136.448 85.5369 134.679 85.5369ZM150.604 78.7543C150.164 77.0568 148.836 75.9489 146.478 75.9489C144.013 75.9489 142.266 77.2486 142.266 79.1804C142.266 80.7287 143.204 81.7585 145.249 82.2131L147.096 82.6179C148.147 82.8523 148.637 83.321 148.637 84.0028C148.637 84.848 147.735 85.5085 146.343 85.5085C145.072 85.5085 144.255 84.9616 143.999 83.8892L141.947 84.2017C142.302 86.1335 143.907 87.2202 146.357 87.2202C148.992 87.2202 150.817 85.821 150.817 83.8466C150.817 82.3054 149.837 81.3537 147.834 80.892L146.101 80.4943C144.901 80.2102 144.383 79.8054 144.39 79.0668C144.383 78.2287 145.292 77.6321 146.499 77.6321C147.82 77.6321 148.431 78.3636 148.68 79.0952L150.604 78.7543ZM157.854 87.2202C160.233 87.2202 161.916 86.0483 162.399 84.2727L160.389 83.9105C160.006 84.9403 159.083 85.4659 157.875 85.4659C156.057 85.4659 154.835 84.2869 154.779 82.1847H162.534V81.4318C162.534 77.4901 160.176 75.9489 157.705 75.9489C154.665 75.9489 152.662 78.2642 152.662 81.6165C152.662 85.0043 154.637 87.2202 157.854 87.2202ZM154.786 80.5938C154.871 79.0455 155.993 77.7031 157.719 77.7031C159.367 77.7031 160.446 78.9247 160.453 80.5938H154.786ZM170.183 87H172.307V80.3381C172.307 78.9105 173.408 77.8807 174.914 77.8807C175.354 77.8807 175.851 77.9588 176.021 78.0085V75.9773C175.808 75.9489 175.389 75.9276 175.119 75.9276C173.841 75.9276 172.747 76.652 172.35 77.8239H172.236V76.0909H170.183V87ZM182.17 87.2202C184.55 87.2202 186.233 86.0483 186.716 84.2727L184.706 83.9105C184.322 84.9403 183.399 85.4659 182.192 85.4659C180.373 85.4659 179.152 84.2869 179.095 82.1847H186.851V81.4318C186.851 77.4901 184.493 75.9489 182.021 75.9489C178.981 75.9489 176.979 78.2642 176.979 81.6165C176.979 85.0043 178.953 87.2202 182.17 87.2202ZM179.102 80.5938C179.187 79.0455 180.309 77.7031 182.035 77.7031C183.683 77.7031 184.763 78.9247 184.77 80.5938H179.102ZM193.802 87.2202C196.38 87.2202 198.049 85.6719 198.284 83.5483H196.217C195.947 84.7273 195.031 85.4233 193.816 85.4233C192.019 85.4233 190.862 83.9247 190.862 81.5455C190.862 79.2088 192.041 77.7386 193.816 77.7386C195.166 77.7386 195.99 78.5909 196.217 79.6136H198.284C198.056 77.4119 196.259 75.9489 193.781 75.9489C190.705 75.9489 188.717 78.2642 188.717 81.5952C188.717 84.8835 190.634 87.2202 193.802 87.2202ZM205.15 87.2202C208.225 87.2202 210.235 84.9688 210.235 81.5952C210.235 78.2003 208.225 75.9489 205.15 75.9489C202.074 75.9489 200.064 78.2003 200.064 81.5952C200.064 84.9688 202.074 87.2202 205.15 87.2202ZM205.157 85.4375C203.147 85.4375 202.209 83.6832 202.209 81.5881C202.209 79.5 203.147 77.7244 205.157 77.7244C207.153 77.7244 208.09 79.5 208.09 81.5881C208.09 83.6832 207.153 85.4375 205.157 85.4375ZM212.605 87H214.729V80.3381C214.729 78.9105 215.83 77.8807 217.335 77.8807C217.776 77.8807 218.273 77.9588 218.443 78.0085V75.9773C218.23 75.9489 217.811 75.9276 217.541 75.9276C216.263 75.9276 215.169 76.652 214.771 77.8239H214.658V76.0909H212.605V87ZM223.974 87.2131C225.963 87.2131 226.744 85.9986 227.128 85.3026H227.305V87H229.379V72.4545H227.256V77.8594H227.128C226.744 77.1847 226.02 75.9489 223.988 75.9489C221.354 75.9489 219.415 78.0298 219.415 81.5668C219.415 85.0966 221.325 87.2131 223.974 87.2131ZM224.443 85.402C222.547 85.402 221.559 83.733 221.559 81.5455C221.559 79.3793 222.525 77.7528 224.443 77.7528C226.297 77.7528 227.291 79.2656 227.291 81.5455C227.291 83.8395 226.275 85.402 224.443 85.402ZM239.045 91.0909C240.8 91.0909 241.907 90.1747 242.54 88.456L247.035 76.0909H244.756L241.993 84.5568H241.879L239.116 76.0909H236.844L240.835 87.142L240.572 87.8665C240.032 89.3153 239.273 89.4361 238.108 89.1165L237.596 90.8565C237.852 90.9702 238.406 91.0909 239.045 91.0909ZM253.236 87.2202C256.311 87.2202 258.321 84.9688 258.321 81.5952C258.321 78.2003 256.311 75.9489 253.236 75.9489C250.16 75.9489 248.15 78.2003 248.15 81.5952C248.15 84.9688 250.16 87.2202 253.236 87.2202ZM253.243 85.4375C251.233 85.4375 250.295 83.6832 250.295 81.5881C250.295 79.5 251.233 77.7244 253.243 77.7244C255.238 77.7244 256.176 79.5 256.176 81.5881C256.176 83.6832 255.238 85.4375 253.243 85.4375ZM267.602 82.4759C267.609 84.3295 266.231 85.2102 265.038 85.2102C263.724 85.2102 262.815 84.2585 262.815 82.7741V76.0909H260.691V83.0298C260.691 85.7358 262.176 87.142 264.271 87.142C265.911 87.142 267.026 86.2756 267.531 85.1108H267.644V87H269.732V76.0909H267.602V82.4759ZM272.586 87H274.709V80.3381C274.709 78.9105 275.81 77.8807 277.316 77.8807C277.756 77.8807 278.253 77.9588 278.424 78.0085V75.9773C278.211 75.9489 277.792 75.9276 277.522 75.9276C276.243 75.9276 275.15 76.652 274.752 77.8239H274.638V76.0909H272.586V87ZM288.436 78.7543C287.996 77.0568 286.668 75.9489 284.31 75.9489C281.845 75.9489 280.098 77.2486 280.098 79.1804C280.098 80.7287 281.036 81.7585 283.081 82.2131L284.928 82.6179C285.979 82.8523 286.469 83.321 286.469 84.0028C286.469 84.848 285.567 85.5085 284.175 85.5085C282.904 85.5085 282.087 84.9616 281.831 83.8892L279.779 84.2017C280.134 86.1335 281.739 87.2202 284.189 87.2202C286.824 87.2202 288.649 85.821 288.649 83.8466C288.649 82.3054 287.669 81.3537 285.666 80.892L283.933 80.4943C282.733 80.2102 282.215 79.8054 282.222 79.0668C282.215 78.2287 283.124 77.6321 284.331 77.6321C285.652 77.6321 286.263 78.3636 286.512 79.0952L288.436 78.7543ZM295.686 87.2202C298.065 87.2202 299.748 86.0483 300.231 84.2727L298.221 83.9105C297.838 84.9403 296.915 85.4659 295.707 85.4659C293.889 85.4659 292.667 84.2869 292.611 82.1847H300.366V81.4318C300.366 77.4901 298.008 75.9489 295.537 75.9489C292.497 75.9489 290.494 78.2642 290.494 81.6165C290.494 85.0043 292.469 87.2202 295.686 87.2202ZM292.618 80.5938C292.703 79.0455 293.825 77.7031 295.551 77.7031C297.199 77.7031 298.278 78.9247 298.285 80.5938H292.618ZM304.846 72.4545H302.722V87H304.846V72.4545ZM312.895 76.0909H310.544V75.1108C310.544 74.1449 310.942 73.6193 311.979 73.6193C312.419 73.6193 312.731 73.7188 312.93 73.7827L313.427 72.0639C313.129 71.9503 312.511 71.7727 311.652 71.7727C309.926 71.7727 308.413 72.7812 308.413 74.8267V76.0909H306.73V77.7955H308.413V87H310.544V77.7955H312.895V76.0909ZM320.379 87H322.502V80.3381C322.502 78.9105 323.603 77.8807 325.109 77.8807C325.549 77.8807 326.046 77.9588 326.217 78.0085V75.9773C326.004 75.9489 325.585 75.9276 325.315 75.9276C324.036 75.9276 322.943 76.652 322.545 77.8239H322.431V76.0909H320.379V87ZM332.366 87.2202C334.745 87.2202 336.428 86.0483 336.911 84.2727L334.901 83.9105C334.518 84.9403 333.594 85.4659 332.387 85.4659C330.569 85.4659 329.347 84.2869 329.29 82.1847H337.046V81.4318C337.046 77.4901 334.688 75.9489 332.216 75.9489C329.177 75.9489 327.174 78.2642 327.174 81.6165C327.174 85.0043 329.148 87.2202 332.366 87.2202ZM329.297 80.5938C329.383 79.0455 330.505 77.7031 332.231 77.7031C333.878 77.7031 334.958 78.9247 334.965 80.5938H329.297ZM342.577 87.2415C344.381 87.2415 345.396 86.3253 345.801 85.5085H345.887V87H347.96V79.7557C347.96 76.581 345.46 75.9489 343.727 75.9489C341.753 75.9489 339.935 76.7443 339.225 78.733L341.22 79.1875C341.533 78.4134 342.328 77.6676 343.756 77.6676C345.127 77.6676 345.83 78.3849 345.83 79.6207V79.6705C345.83 80.4446 345.034 80.4304 343.074 80.6577C341.007 80.8991 338.891 81.4389 338.891 83.9176C338.891 86.0625 340.503 87.2415 342.577 87.2415ZM343.039 85.5369C341.838 85.5369 340.972 84.9972 340.972 83.946C340.972 82.8097 341.98 82.4048 343.209 82.2415C343.898 82.1491 345.531 81.9645 345.837 81.6591V83.0653C345.837 84.358 344.807 85.5369 343.039 85.5369ZM354.873 87.2131C356.861 87.2131 357.643 85.9986 358.026 85.3026H358.204V87H360.278V72.4545H358.154V77.8594H358.026C357.643 77.1847 356.918 75.9489 354.887 75.9489C352.252 75.9489 350.313 78.0298 350.313 81.5668C350.313 85.0966 352.224 87.2131 354.873 87.2131ZM355.341 85.402C353.445 85.402 352.458 83.733 352.458 81.5455C352.458 79.3793 353.424 77.7528 355.341 77.7528C357.195 77.7528 358.189 79.2656 358.189 81.5455C358.189 83.8395 357.174 85.402 355.341 85.402ZM363.308 87H365.432V76.0909H363.308V87ZM364.381 74.4077C365.112 74.4077 365.723 73.8395 365.723 73.1435C365.723 72.4474 365.112 71.8722 364.381 71.8722C363.642 71.8722 363.039 72.4474 363.039 73.1435C363.039 73.8395 363.642 74.4077 364.381 74.4077ZM370.412 80.5227C370.412 78.7827 371.478 77.7884 372.955 77.7884C374.397 77.7884 375.27 78.733 375.27 80.3168V87H377.394V80.0611C377.394 77.3622 375.91 75.9489 373.68 75.9489C372.039 75.9489 370.966 76.7088 370.462 77.8665H370.327V76.0909H368.289V87H370.412V80.5227ZM384.816 91.3182C387.593 91.3182 389.738 90.0469 389.738 87.2415V76.0909H387.657V77.8594H387.501C387.124 77.1847 386.371 75.9489 384.34 75.9489C381.705 75.9489 379.766 78.0298 379.766 81.5028C379.766 84.983 381.748 86.8366 384.326 86.8366C386.329 86.8366 387.103 85.7074 387.486 85.0114H387.621V87.1562C387.621 88.8679 386.449 89.6065 384.837 89.6065C383.069 89.6065 382.38 88.7188 382.003 88.0938L380.178 88.8466C380.753 90.1818 382.209 91.3182 384.816 91.3182ZM384.795 85.0753C382.898 85.0753 381.911 83.6193 381.911 81.4744C381.911 79.3793 382.877 77.7528 384.795 77.7528C386.648 77.7528 387.643 79.2656 387.643 81.4744C387.643 83.7259 386.627 85.0753 384.795 85.0753ZM402.971 76.0909H400.734V73.4773H398.61V76.0909H397.012V77.7955H398.61V84.2372C398.603 86.2188 400.116 87.1776 401.792 87.142C402.467 87.1349 402.921 87.0071 403.17 86.9148L402.786 85.1605C402.644 85.1889 402.382 85.2528 402.041 85.2528C401.352 85.2528 400.734 85.0256 400.734 83.7969V77.7955H402.971V76.0909ZM407.678 80.5227C407.678 78.7827 408.779 77.7884 410.292 77.7884C411.755 77.7884 412.628 78.7188 412.628 80.3168V87H414.752V80.0611C414.752 77.3409 413.26 75.9489 411.016 75.9489C409.319 75.9489 408.296 76.6875 407.785 77.8665H407.65V72.4545H405.555V87H407.678V80.5227ZM422.287 87.2202C424.667 87.2202 426.35 86.0483 426.833 84.2727L424.823 83.9105C424.439 84.9403 423.516 85.4659 422.309 85.4659C420.491 85.4659 419.269 84.2869 419.212 82.1847H426.968V81.4318C426.968 77.4901 424.61 75.9489 422.138 75.9489C419.099 75.9489 417.096 78.2642 417.096 81.6165C417.096 85.0043 419.07 87.2202 422.287 87.2202ZM419.219 80.5938C419.305 79.0455 420.427 77.7031 422.153 77.7031C423.8 77.7031 424.88 78.9247 424.887 80.5938H419.219ZM181.586 108.091H179.235V107.111C179.235 106.145 179.633 105.619 180.67 105.619C181.11 105.619 181.423 105.719 181.622 105.783L182.119 104.064C181.82 103.95 181.203 103.773 180.343 103.773C178.617 103.773 177.105 104.781 177.105 106.827V108.091H175.421V109.795H177.105V119H179.235V109.795H181.586V108.091ZM187.943 119.22C191.018 119.22 193.028 116.969 193.028 113.595C193.028 110.2 191.018 107.949 187.943 107.949C184.867 107.949 182.857 110.2 182.857 113.595C182.857 116.969 184.867 119.22 187.943 119.22ZM187.95 117.438C185.94 117.438 185.002 115.683 185.002 113.588C185.002 111.5 185.94 109.724 187.95 109.724C189.945 109.724 190.883 111.5 190.883 113.588C190.883 115.683 189.945 117.438 187.95 117.438ZM197.522 104.455H195.398V119H197.522V104.455ZM202.502 104.455H200.379V119H202.502V104.455ZM209.954 119.22C213.03 119.22 215.04 116.969 215.04 113.595C215.04 110.2 213.03 107.949 209.954 107.949C206.879 107.949 204.869 110.2 204.869 113.595C204.869 116.969 206.879 119.22 209.954 119.22ZM209.961 117.438C207.952 117.438 207.014 115.683 207.014 113.588C207.014 111.5 207.952 109.724 209.961 109.724C211.957 109.724 212.895 111.5 212.895 113.588C212.895 115.683 211.957 117.438 209.961 117.438ZM219.443 119H221.602L223.818 111.124H223.981L226.197 119H228.363L231.567 108.091H229.372L227.248 116.067H227.142L225.011 108.091H222.817L220.672 116.102H220.565L218.427 108.091H216.233L219.443 119ZM233.582 119H235.705V108.091H233.582V119ZM234.654 106.408C235.386 106.408 235.997 105.839 235.997 105.143C235.997 104.447 235.386 103.872 234.654 103.872C233.916 103.872 233.312 104.447 233.312 105.143C233.312 105.839 233.916 106.408 234.654 106.408ZM240.686 112.523C240.686 110.783 241.751 109.788 243.229 109.788C244.67 109.788 245.544 110.733 245.544 112.317V119H247.667V112.061C247.667 109.362 246.183 107.949 243.953 107.949C242.312 107.949 241.24 108.709 240.736 109.866H240.601V108.091H238.562V119H240.686V112.523ZM255.089 123.318C257.866 123.318 260.011 122.047 260.011 119.241V108.091H257.93V109.859H257.774C257.398 109.185 256.645 107.949 254.613 107.949C251.979 107.949 250.04 110.03 250.04 113.503C250.04 116.983 252.021 118.837 254.599 118.837C256.602 118.837 257.376 117.707 257.76 117.011H257.895V119.156C257.895 120.868 256.723 121.607 255.111 121.607C253.342 121.607 252.653 120.719 252.277 120.094L250.452 120.847C251.027 122.182 252.483 123.318 255.089 123.318ZM255.068 117.075C253.172 117.075 252.184 115.619 252.184 113.474C252.184 111.379 253.15 109.753 255.068 109.753C256.922 109.753 257.916 111.266 257.916 113.474C257.916 115.726 256.9 117.075 255.068 117.075ZM268.152 123.091H270.276V117.303H270.404C270.787 117.999 271.568 119.213 273.557 119.213C276.199 119.213 278.117 117.097 278.117 113.567C278.117 110.03 276.171 107.949 273.536 107.949C271.512 107.949 270.78 109.185 270.404 109.859H270.226V108.091H268.152V123.091ZM270.233 113.545C270.233 111.266 271.227 109.753 273.081 109.753C275.006 109.753 275.972 111.379 275.972 113.545C275.972 115.733 274.977 117.402 273.081 117.402C271.256 117.402 270.233 115.839 270.233 113.545ZM283.671 119.241C285.475 119.241 286.49 118.325 286.895 117.509H286.98V119H289.054V111.756C289.054 108.581 286.554 107.949 284.821 107.949C282.847 107.949 281.029 108.744 280.318 110.733L282.314 111.188C282.627 110.413 283.422 109.668 284.85 109.668C286.22 109.668 286.923 110.385 286.923 111.621V111.67C286.923 112.445 286.128 112.43 284.168 112.658C282.101 112.899 279.985 113.439 279.985 115.918C279.985 118.062 281.597 119.241 283.671 119.241ZM284.132 117.537C282.932 117.537 282.066 116.997 282.066 115.946C282.066 114.81 283.074 114.405 284.303 114.241C284.992 114.149 286.625 113.964 286.931 113.659V115.065C286.931 116.358 285.901 117.537 284.132 117.537ZM300.057 110.754C299.617 109.057 298.289 107.949 295.931 107.949C293.466 107.949 291.719 109.249 291.719 111.18C291.719 112.729 292.657 113.759 294.702 114.213L296.549 114.618C297.6 114.852 298.09 115.321 298.09 116.003C298.09 116.848 297.188 117.509 295.796 117.509C294.525 117.509 293.708 116.962 293.452 115.889L291.4 116.202C291.755 118.134 293.36 119.22 295.81 119.22C298.445 119.22 300.27 117.821 300.27 115.847C300.27 114.305 299.29 113.354 297.287 112.892L295.555 112.494C294.354 112.21 293.836 111.805 293.843 111.067C293.836 110.229 294.745 109.632 295.952 109.632C297.273 109.632 297.884 110.364 298.133 111.095L300.057 110.754ZM310.78 110.754C310.34 109.057 309.012 107.949 306.654 107.949C304.189 107.949 302.442 109.249 302.442 111.18C302.442 112.729 303.379 113.759 305.425 114.213L307.271 114.618C308.323 114.852 308.813 115.321 308.813 116.003C308.813 116.848 307.911 117.509 306.519 117.509C305.247 117.509 304.431 116.962 304.175 115.889L302.122 116.202C302.477 118.134 304.083 119.22 306.533 119.22C309.168 119.22 310.993 117.821 310.993 115.847C310.993 114.305 310.013 113.354 308.01 112.892L306.277 112.494C305.077 112.21 304.558 111.805 304.566 111.067C304.558 110.229 305.468 109.632 306.675 109.632C307.996 109.632 308.607 110.364 308.855 111.095L310.78 110.754ZM316.503 119.241C318.307 119.241 319.322 118.325 319.727 117.509H319.812V119H321.886V111.756C321.886 108.581 319.386 107.949 317.653 107.949C315.679 107.949 313.861 108.744 313.15 110.733L315.146 111.188C315.459 110.413 316.254 109.668 317.682 109.668C319.052 109.668 319.756 110.385 319.756 111.621V111.67C319.756 112.445 318.96 112.43 317 112.658C314.933 112.899 312.817 113.439 312.817 115.918C312.817 118.062 314.429 119.241 316.503 119.241ZM316.964 117.537C315.764 117.537 314.898 116.997 314.898 115.946C314.898 114.81 315.906 114.405 317.135 114.241C317.824 114.149 319.457 113.964 319.763 113.659V115.065C319.763 116.358 318.733 117.537 316.964 117.537ZM329.289 123.318C332.066 123.318 334.21 122.047 334.21 119.241V108.091H332.129V109.859H331.973C331.597 109.185 330.844 107.949 328.813 107.949C326.178 107.949 324.239 110.03 324.239 113.503C324.239 116.983 326.22 118.837 328.798 118.837C330.801 118.837 331.575 117.707 331.959 117.011H332.094V119.156C332.094 120.868 330.922 121.607 329.31 121.607C327.541 121.607 326.852 120.719 326.476 120.094L324.651 120.847C325.226 122.182 326.682 123.318 329.289 123.318ZM329.267 117.075C327.371 117.075 326.384 115.619 326.384 113.474C326.384 111.379 327.35 109.753 329.267 109.753C331.121 109.753 332.115 111.266 332.115 113.474C332.115 115.726 331.1 117.075 329.267 117.075ZM341.76 119.22C344.139 119.22 345.823 118.048 346.306 116.273L344.296 115.911C343.912 116.94 342.989 117.466 341.781 117.466C339.963 117.466 338.742 116.287 338.685 114.185H346.441V113.432C346.441 109.49 344.083 107.949 341.611 107.949C338.571 107.949 336.568 110.264 336.568 113.616C336.568 117.004 338.543 119.22 341.76 119.22ZM338.692 112.594C338.777 111.045 339.899 109.703 341.625 109.703C343.273 109.703 344.352 110.925 344.36 112.594H338.692ZM350.196 119.135C350.97 119.135 351.616 118.503 351.616 117.714C351.616 116.94 350.97 116.301 350.196 116.301C349.415 116.301 348.775 116.94 348.775 117.714C348.775 118.503 349.415 119.135 350.196 119.135Z" fill="#D0A5D4"/>
<rect x="40.5" y="168.5" width="447" height="119" rx="7.5" fill="#1D1D1D"/>
<line x1="58" y1="186" x2="58" y2="270" stroke="#404040" stroke-width="4" stroke-linecap="round"/>
<path d="M82.1222 203L83.4389 199.293H88.7315L90.0483 203H91.7102L86.9034 189.909H85.267L80.4602 203H82.1222ZM83.9375 197.886L86.0341 191.98H86.1364L88.233 197.886H83.9375ZM95.0533 197.094C95.0533 195.381 96.1143 194.409 97.5589 194.409C98.9588 194.409 99.8089 195.323 99.8089 196.864V203H101.317V196.761C101.317 194.256 99.9815 193.054 97.9936 193.054C96.5107 193.054 95.5902 193.719 95.13 194.716H95.0021V193.182H93.5447V203H95.0533V197.094ZM107.781 203.205C109.673 203.205 110.313 202.028 110.645 201.491H110.824V203H112.281V189.909H110.773V194.741H110.645C110.313 194.23 109.725 193.054 107.807 193.054C105.327 193.054 103.614 195.023 103.614 198.116C103.614 201.236 105.327 203.205 107.781 203.205ZM107.986 201.849C106.094 201.849 105.122 200.188 105.122 198.091C105.122 196.02 106.068 194.409 107.986 194.409C109.827 194.409 110.798 195.892 110.798 198.091C110.798 200.315 109.801 201.849 107.986 201.849ZM122.541 203H124.024L126.171 195.457H126.325L128.472 203H129.955L132.947 193.182H131.362L129.24 200.673H129.137L127.066 193.182H125.455L123.359 200.699H123.257L121.134 193.182H119.549L122.541 203ZM136.45 197.094C136.45 195.381 137.543 194.409 139.032 194.409C140.451 194.409 141.308 195.304 141.308 196.864V203H142.816V196.761C142.816 194.237 141.474 193.054 139.467 193.054C137.92 193.054 137.038 193.7 136.578 194.716H136.45V189.909H134.941V203H136.45V197.094ZM148.465 203.23C150.178 203.23 151.073 202.31 151.38 201.67H151.457V203H152.965V196.531C152.965 193.412 150.587 193.054 149.335 193.054C147.852 193.054 146.164 193.565 145.397 195.355L146.829 195.866C147.161 195.151 147.947 194.384 149.386 194.384C150.773 194.384 151.457 195.119 151.457 196.378V196.429C151.457 197.158 150.715 197.094 148.925 197.324C147.104 197.56 145.116 197.963 145.116 200.213C145.116 202.131 146.599 203.23 148.465 203.23ZM148.695 201.875C147.494 201.875 146.624 201.338 146.624 200.29C146.624 199.139 147.673 198.781 148.849 198.628C149.488 198.551 151.201 198.372 151.457 198.065V199.446C151.457 200.673 150.485 201.875 148.695 201.875ZM159.988 193.182H157.892V190.83H156.383V193.182H154.9V194.46H156.383V200.597C156.383 202.31 157.764 203.128 159.042 203.128C159.605 203.128 159.963 203.026 160.167 202.949L159.861 201.594C159.733 201.619 159.528 201.67 159.196 201.67C158.531 201.67 157.892 201.466 157.892 200.188V194.46H159.988V193.182ZM167.32 203H168.829V196.787C168.829 195.457 169.877 194.486 171.309 194.486C171.711 194.486 172.127 194.562 172.229 194.588V193.054C172.057 193.041 171.66 193.028 171.437 193.028C170.26 193.028 169.238 193.693 168.88 194.665H168.778V193.182H167.32V203ZM177.707 203.205C180.366 203.205 182.156 201.185 182.156 198.142C182.156 195.074 180.366 193.054 177.707 193.054C175.048 193.054 173.258 195.074 173.258 198.142C173.258 201.185 175.048 203.205 177.707 203.205ZM177.707 201.849C175.687 201.849 174.767 200.111 174.767 198.142C174.767 196.173 175.687 194.409 177.707 194.409C179.727 194.409 180.648 196.173 180.648 198.142C180.648 200.111 179.727 201.849 177.707 201.849ZM190.646 198.986C190.646 200.827 189.24 201.67 188.115 201.67C186.862 201.67 185.967 200.75 185.967 199.318V193.182H184.459V199.42C184.459 201.926 185.788 203.128 187.629 203.128C189.112 203.128 190.084 202.335 190.544 201.338H190.646V203H192.155V193.182H190.646V198.986ZM198.881 206.886C201.233 206.886 203.125 205.812 203.125 203.281V193.182H201.668V194.741H201.514C201.182 194.23 200.568 193.054 198.651 193.054C196.171 193.054 194.458 195.023 194.458 198.04C194.458 201.108 196.247 202.847 198.625 202.847C200.543 202.847 201.156 201.722 201.489 201.185H201.617V203.179C201.617 204.815 200.466 205.557 198.881 205.557C197.097 205.557 196.471 204.617 196.068 204.074L194.867 204.918C195.48 205.947 196.688 206.886 198.881 206.886ZM198.83 201.491C196.938 201.491 195.966 200.06 195.966 198.014C195.966 196.02 196.912 194.409 198.83 194.409C200.671 194.409 201.642 195.892 201.642 198.014C201.642 200.188 200.645 201.491 198.83 201.491ZM207.395 197.094C207.395 195.381 208.488 194.409 209.977 194.409C211.396 194.409 212.253 195.304 212.253 196.864V203H213.762V196.761C213.762 194.237 212.419 193.054 210.412 193.054C208.865 193.054 207.983 193.7 207.523 194.716H207.395V189.909H205.887V203H207.395V197.094ZM221.788 203H223.246V201.491H223.425C223.757 202.028 224.396 203.205 226.288 203.205C228.743 203.205 230.456 201.236 230.456 198.116C230.456 195.023 228.743 193.054 226.263 193.054C224.345 193.054 223.757 194.23 223.425 194.741H223.297V189.909H221.788V203ZM223.271 198.091C223.271 195.892 224.243 194.409 226.084 194.409C228.001 194.409 228.947 196.02 228.947 198.091C228.947 200.188 227.976 201.849 226.084 201.849C224.268 201.849 223.271 200.315 223.271 198.091ZM236.88 203.205C238.874 203.205 240.332 202.207 240.792 200.724L239.335 200.315C238.951 201.338 238.062 201.849 236.88 201.849C235.109 201.849 233.888 200.705 233.818 198.602H240.945V197.963C240.945 194.307 238.772 193.054 236.727 193.054C234.067 193.054 232.303 195.151 232.303 198.168C232.303 201.185 234.042 203.205 236.88 203.205ZM233.818 197.298C233.92 195.771 235.001 194.409 236.727 194.409C238.363 194.409 239.411 195.636 239.411 197.298H233.818ZM246.129 203.23C247.842 203.23 248.737 202.31 249.044 201.67H249.121V203H250.629V196.531C250.629 193.412 248.251 193.054 246.999 193.054C245.516 193.054 243.828 193.565 243.061 195.355L244.493 195.866C244.825 195.151 245.612 194.384 247.05 194.384C248.437 194.384 249.121 195.119 249.121 196.378V196.429C249.121 197.158 248.379 197.094 246.589 197.324C244.768 197.56 242.78 197.963 242.78 200.213C242.78 202.131 244.263 203.23 246.129 203.23ZM246.359 201.875C245.158 201.875 244.288 201.338 244.288 200.29C244.288 199.139 245.337 198.781 246.513 198.628C247.152 198.551 248.865 198.372 249.121 198.065V199.446C249.121 200.673 248.149 201.875 246.359 201.875ZM260.337 195.381C259.864 193.987 258.803 193.054 256.86 193.054C254.789 193.054 253.255 194.23 253.255 195.892C253.255 197.247 254.06 198.155 255.863 198.577L257.499 198.96C258.49 199.19 258.956 199.663 258.956 200.341C258.956 201.185 258.062 201.875 256.655 201.875C255.422 201.875 254.648 201.344 254.38 200.29L252.948 200.648C253.3 202.316 254.674 203.205 256.681 203.205C258.963 203.205 260.516 201.958 260.516 200.264C260.516 198.896 259.66 198.033 257.908 197.605L256.451 197.247C255.287 196.96 254.763 196.57 254.763 195.815C254.763 194.972 255.658 194.358 256.86 194.358C258.177 194.358 258.72 195.087 258.982 195.764L260.337 195.381ZM267.057 193.182H264.96V190.83H263.452V193.182H261.969V194.46H263.452V200.597C263.452 202.31 264.832 203.128 266.111 203.128C266.673 203.128 267.031 203.026 267.236 202.949L266.929 201.594C266.801 201.619 266.597 201.67 266.264 201.67C265.599 201.67 264.96 201.466 264.96 200.188V194.46H267.057V193.182ZM271.576 201.21H269.94L269.863 201.926C269.678 203.658 269.313 205.384 269.147 206.196H270.298C270.604 205.327 271.256 203.358 271.474 201.901L271.576 201.21ZM279.433 203H280.942V193.182H279.433V203ZM280.2 191.545C280.789 191.545 281.274 191.085 281.274 190.523C281.274 189.96 280.789 189.5 280.2 189.5C279.612 189.5 279.127 189.96 279.127 190.523C279.127 191.085 279.612 191.545 280.2 191.545ZM287.975 193.182H285.878V190.83H284.37V193.182H282.887V194.46H284.37V200.597C284.37 202.31 285.75 203.128 287.029 203.128C287.591 203.128 287.949 203.026 288.154 202.949L287.847 201.594C287.719 201.619 287.515 201.67 287.182 201.67C286.517 201.67 285.878 201.466 285.878 200.188V194.46H287.975V193.182ZM297.023 195.381C296.55 193.987 295.489 193.054 293.545 193.054C291.474 193.054 289.94 194.23 289.94 195.892C289.94 197.247 290.746 198.155 292.548 198.577L294.185 198.96C295.175 199.19 295.642 199.663 295.642 200.341C295.642 201.185 294.747 201.875 293.341 201.875C292.107 201.875 291.334 201.344 291.065 200.29L289.634 200.648C289.985 202.316 291.359 203.205 293.366 203.205C295.648 203.205 297.202 201.958 297.202 200.264C297.202 198.896 296.345 198.033 294.594 197.605L293.136 197.247C291.973 196.96 291.449 196.57 291.449 195.815C291.449 194.972 292.344 194.358 293.545 194.358C294.862 194.358 295.406 195.087 295.668 195.764L297.023 195.381ZM306.044 197.094C306.044 195.381 307.137 194.409 308.626 194.409C310.045 194.409 310.901 195.304 310.901 196.864V203H312.41V196.761C312.41 194.237 311.068 193.054 309.061 193.054C307.514 193.054 306.632 193.7 306.171 194.716H306.044V189.909H304.535V203H306.044V197.094ZM319.158 203.205C321.817 203.205 323.607 201.185 323.607 198.142C323.607 195.074 321.817 193.054 319.158 193.054C316.499 193.054 314.71 195.074 314.71 198.142C314.71 201.185 316.499 203.205 319.158 203.205ZM319.158 201.849C317.138 201.849 316.218 200.111 316.218 198.142C316.218 196.173 317.138 194.409 319.158 194.409C321.178 194.409 322.099 196.173 322.099 198.142C322.099 200.111 321.178 201.849 319.158 201.849ZM332.097 198.986C332.097 200.827 330.691 201.67 329.566 201.67C328.313 201.67 327.419 200.75 327.419 199.318V193.182H325.91V199.42C325.91 201.926 327.24 203.128 329.08 203.128C330.563 203.128 331.535 202.335 331.995 201.338H332.097V203H333.606V193.182H332.097V198.986ZM336.369 203H337.877V196.787C337.877 195.457 338.926 194.486 340.358 194.486C340.76 194.486 341.176 194.562 341.278 194.588V193.054C341.105 193.041 340.709 193.028 340.485 193.028C339.309 193.028 338.287 193.693 337.929 194.665H337.826V193.182H336.369V203ZM352.117 203.205C354.291 203.205 355.722 201.875 355.978 200.136H354.47C354.188 201.21 353.294 201.849 352.117 201.849C350.328 201.849 349.177 200.366 349.177 198.091C349.177 195.866 350.353 194.409 352.117 194.409C353.447 194.409 354.24 195.227 354.47 196.122H355.978C355.722 194.281 354.163 193.054 352.092 193.054C349.433 193.054 347.669 195.151 347.669 198.142C347.669 201.082 349.356 203.205 352.117 203.205ZM362.172 203.205C364.831 203.205 366.621 201.185 366.621 198.142C366.621 195.074 364.831 193.054 362.172 193.054C359.513 193.054 357.723 195.074 357.723 198.142C357.723 201.185 359.513 203.205 362.172 203.205ZM362.172 201.849C360.152 201.849 359.232 200.111 359.232 198.142C359.232 196.173 360.152 194.409 362.172 194.409C364.192 194.409 365.112 196.173 365.112 198.142C365.112 200.111 364.192 201.849 362.172 201.849ZM368.924 203H370.432V196.864C370.432 195.425 371.48 194.409 372.657 194.409C373.801 194.409 374.6 195.157 374.6 196.276V203H376.134V196.608C376.134 195.342 376.926 194.409 378.307 194.409C379.381 194.409 380.301 194.978 380.301 196.429V203H381.81V196.429C381.81 194.121 380.57 193.054 378.819 193.054C377.412 193.054 376.383 193.7 375.878 194.716H375.776C375.29 193.668 374.434 193.054 373.142 193.054C371.864 193.054 370.918 193.668 370.509 194.716H370.381V193.182H368.924V203ZM388.685 203.205C390.679 203.205 392.136 202.207 392.597 200.724L391.139 200.315C390.756 201.338 389.867 201.849 388.685 201.849C386.914 201.849 385.693 200.705 385.623 198.602H392.75V197.963C392.75 194.307 390.577 193.054 388.531 193.054C385.872 193.054 384.108 195.151 384.108 198.168C384.108 201.185 385.847 203.205 388.685 203.205ZM385.623 197.298C385.725 195.771 386.805 194.409 388.531 194.409C390.168 194.409 391.216 195.636 391.216 197.298H385.623ZM81.3807 235H82.8892V228.787C82.8892 227.457 83.9375 226.486 85.3693 226.486C85.772 226.486 86.1875 226.562 86.2898 226.588V225.054C86.1172 225.041 85.7209 225.028 85.4972 225.028C84.321 225.028 83.2983 225.693 82.9403 226.665H82.8381V225.182H81.3807V235ZM91.7678 235.205C94.4268 235.205 96.2166 233.185 96.2166 230.142C96.2166 227.074 94.4268 225.054 91.7678 225.054C89.1087 225.054 87.3189 227.074 87.3189 230.142C87.3189 233.185 89.1087 235.205 91.7678 235.205ZM91.7678 233.849C89.7479 233.849 88.8274 232.111 88.8274 230.142C88.8274 228.173 89.7479 226.409 91.7678 226.409C93.7876 226.409 94.7081 228.173 94.7081 230.142C94.7081 232.111 93.7876 233.849 91.7678 233.849ZM104.707 230.986C104.707 232.827 103.301 233.67 102.176 233.67C100.923 233.67 100.028 232.75 100.028 231.318V225.182H98.5194V231.42C98.5194 233.926 99.8489 235.128 101.69 235.128C103.173 235.128 104.144 234.335 104.605 233.338H104.707V235H106.215V225.182H104.707V230.986ZM110.487 229.094C110.487 227.381 111.548 226.409 112.993 226.409C114.392 226.409 115.243 227.323 115.243 228.864V235H116.751V228.761C116.751 226.256 115.415 225.054 113.427 225.054C111.944 225.054 111.024 225.719 110.564 226.716H110.436V225.182H108.978V235H110.487V229.094ZM123.215 235.205C125.107 235.205 125.746 234.028 126.079 233.491H126.258V235H127.715V221.909H126.206V226.741H126.079C125.746 226.23 125.158 225.054 123.241 225.054C120.76 225.054 119.047 227.023 119.047 230.116C119.047 233.236 120.76 235.205 123.215 235.205ZM123.42 233.849C121.528 233.849 120.556 232.188 120.556 230.091C120.556 228.02 121.502 226.409 123.42 226.409C125.26 226.409 126.232 227.892 126.232 230.091C126.232 232.315 125.235 233.849 123.42 233.849ZM138.639 235.23C140.352 235.23 141.247 234.31 141.554 233.67H141.631V235H143.139V228.531C143.139 225.412 140.761 225.054 139.508 225.054C138.025 225.054 136.338 225.565 135.571 227.355L137.003 227.866C137.335 227.151 138.121 226.384 139.559 226.384C140.947 226.384 141.631 227.119 141.631 228.378V228.429C141.631 229.158 140.889 229.094 139.099 229.324C137.278 229.56 135.29 229.963 135.29 232.213C135.29 234.131 136.773 235.23 138.639 235.23ZM138.869 233.875C137.667 233.875 136.798 233.338 136.798 232.29C136.798 231.139 137.846 230.781 139.023 230.628C139.662 230.551 141.375 230.372 141.631 230.065V231.446C141.631 232.673 140.659 233.875 138.869 233.875ZM150.162 225.182H148.066V222.83H146.557V225.182H145.074V226.46H146.557V232.597C146.557 234.31 147.938 235.128 149.216 235.128C149.779 235.128 150.137 235.026 150.341 234.949L150.034 233.594C149.907 233.619 149.702 233.67 149.37 233.67C148.705 233.67 148.066 233.466 148.066 232.188V226.46H150.162V225.182ZM159.002 221.909H157.494V235H159.002V221.909ZM164.655 235.23C166.368 235.23 167.263 234.31 167.569 233.67H167.646V235H169.155V228.531C169.155 225.412 166.777 225.054 165.524 225.054C164.041 225.054 162.354 225.565 161.586 227.355L163.018 227.866C163.351 227.151 164.137 226.384 165.575 226.384C166.962 226.384 167.646 227.119 167.646 228.378V228.429C167.646 229.158 166.905 229.094 165.115 229.324C163.293 229.56 161.305 229.963 161.305 232.213C161.305 234.131 162.788 235.23 164.655 235.23ZM164.885 233.875C163.683 233.875 162.814 233.338 162.814 232.29C162.814 231.139 163.862 230.781 165.038 230.628C165.677 230.551 167.39 230.372 167.646 230.065V231.446C167.646 232.673 166.675 233.875 164.885 233.875ZM178.863 227.381C178.39 225.987 177.328 225.054 175.385 225.054C173.314 225.054 171.78 226.23 171.78 227.892C171.78 229.247 172.586 230.155 174.388 230.577L176.025 230.96C177.015 231.19 177.482 231.663 177.482 232.341C177.482 233.185 176.587 233.875 175.181 233.875C173.947 233.875 173.174 233.344 172.905 232.29L171.473 232.648C171.825 234.316 173.199 235.205 175.206 235.205C177.488 235.205 179.042 233.958 179.042 232.264C179.042 230.896 178.185 230.033 176.434 229.605L174.976 229.247C173.813 228.96 173.289 228.57 173.289 227.815C173.289 226.972 174.184 226.358 175.385 226.358C176.702 226.358 177.245 227.087 177.507 227.764L178.863 227.381ZM185.582 225.182H183.486V222.83H181.977V225.182H180.494V226.46H181.977V232.597C181.977 234.31 183.358 235.128 184.636 235.128C185.199 235.128 185.557 235.026 185.761 234.949L185.454 233.594C185.327 233.619 185.122 233.67 184.79 233.67C184.125 233.67 183.486 233.466 183.486 232.188V226.46H185.582V225.182ZM190.101 233.21H188.465L188.388 233.926C188.203 235.658 187.839 237.384 187.672 238.196H188.823C189.13 237.327 189.782 235.358 189.999 233.901L190.101 233.21ZM205.322 225.182H206.857C206.786 223.207 204.964 221.73 202.433 221.73C199.928 221.73 197.959 223.188 197.959 225.386C197.959 227.151 199.237 228.199 201.283 228.787L202.893 229.247C204.274 229.631 205.501 230.116 205.501 231.42C205.501 232.852 204.121 233.798 202.305 233.798C200.746 233.798 199.365 233.108 199.237 231.625H197.601C197.754 233.773 199.493 235.23 202.305 235.23C205.322 235.23 207.036 233.568 207.036 231.446C207.036 228.991 204.709 228.199 203.354 227.841L202.024 227.483C201.053 227.227 199.493 226.716 199.493 225.31C199.493 224.057 200.643 223.136 202.382 223.136C203.967 223.136 205.169 223.891 205.322 225.182ZM210.946 221.909H209.437V235H210.946V221.909ZM217.697 235.205C220.357 235.205 222.146 233.185 222.146 230.142C222.146 227.074 220.357 225.054 217.697 225.054C215.038 225.054 213.249 227.074 213.249 230.142C213.249 233.185 215.038 235.205 217.697 235.205ZM217.697 233.849C215.678 233.849 214.757 232.111 214.757 230.142C214.757 228.173 215.678 226.409 217.697 226.409C219.717 226.409 220.638 228.173 220.638 230.142C220.638 232.111 219.717 233.849 217.697 233.849ZM230.637 230.986C230.637 232.827 229.23 233.67 228.105 233.67C226.852 233.67 225.958 232.75 225.958 231.318V225.182H224.449V231.42C224.449 233.926 225.779 235.128 227.619 235.128C229.102 235.128 230.074 234.335 230.534 233.338H230.637V235H232.145V225.182H230.637V230.986ZM238.897 235.205C241.07 235.205 242.502 233.875 242.757 232.136H241.249C240.968 233.21 240.073 233.849 238.897 233.849C237.107 233.849 235.956 232.366 235.956 230.091C235.956 227.866 237.132 226.409 238.897 226.409C240.226 226.409 241.019 227.227 241.249 228.122H242.757C242.502 226.281 240.942 225.054 238.871 225.054C236.212 225.054 234.448 227.151 234.448 230.142C234.448 233.082 236.135 235.205 238.897 235.205ZM246.471 229.094C246.471 227.381 247.564 226.409 249.054 226.409C250.473 226.409 251.329 227.304 251.329 228.864V235H252.838V228.761C252.838 226.237 251.495 225.054 249.488 225.054C247.941 225.054 247.059 225.7 246.599 226.716H246.471V221.909H244.963V235H246.471V229.094ZM259.714 235.205C261.708 235.205 263.166 234.207 263.626 232.724L262.169 232.315C261.785 233.338 260.896 233.849 259.714 233.849C257.943 233.849 256.722 232.705 256.652 230.602H263.779V229.963C263.779 226.307 261.606 225.054 259.561 225.054C256.901 225.054 255.137 227.151 255.137 230.168C255.137 233.185 256.876 235.205 259.714 235.205ZM256.652 229.298C256.754 227.771 257.835 226.409 259.561 226.409C261.197 226.409 262.245 227.636 262.245 229.298H256.652ZM273.029 227.381C272.556 225.987 271.494 225.054 269.551 225.054C267.48 225.054 265.946 226.23 265.946 227.892C265.946 229.247 266.752 230.155 268.554 230.577L270.191 230.96C271.181 231.19 271.648 231.663 271.648 232.341C271.648 233.185 270.753 233.875 269.347 233.875C268.113 233.875 267.34 233.344 267.071 232.29L265.639 232.648C265.991 234.316 267.365 235.205 269.372 235.205C271.654 235.205 273.208 233.958 273.208 232.264C273.208 230.896 272.351 230.033 270.6 229.605L269.142 229.247C267.979 228.96 267.455 228.57 267.455 227.815C267.455 226.972 268.35 226.358 269.551 226.358C270.868 226.358 271.411 227.087 271.673 227.764L273.029 227.381ZM284.811 225.182H282.714V222.83H281.206V225.182H279.723V226.46H281.206V232.597C281.206 234.31 282.586 235.128 283.865 235.128C284.427 235.128 284.785 235.026 284.99 234.949L284.683 233.594C284.555 233.619 284.35 233.67 284.018 233.67C283.353 233.67 282.714 233.466 282.714 232.188V226.46H284.811V225.182ZM290.963 235.205C293.622 235.205 295.412 233.185 295.412 230.142C295.412 227.074 293.622 225.054 290.963 225.054C288.304 225.054 286.514 227.074 286.514 230.142C286.514 233.185 288.304 235.205 290.963 235.205ZM290.963 233.849C288.943 233.849 288.023 232.111 288.023 230.142C288.023 228.173 288.943 226.409 290.963 226.409C292.983 226.409 293.903 228.173 293.903 230.142C293.903 232.111 292.983 233.849 290.963 233.849ZM299.605 235H301.088L303.236 227.457H303.389L305.537 235H307.02L310.011 225.182H308.426L306.304 232.673H306.202L304.131 225.182H302.52L300.423 232.699H300.321L298.199 225.182H296.614L299.605 235ZM314.895 235.23C316.608 235.23 317.503 234.31 317.81 233.67H317.886V235H319.395V228.531C319.395 225.412 317.017 225.054 315.764 225.054C314.281 225.054 312.594 225.565 311.827 227.355L313.259 227.866C313.591 227.151 314.377 226.384 315.815 226.384C317.202 226.384 317.886 227.119 317.886 228.378V228.429C317.886 229.158 317.145 229.094 315.355 229.324C313.533 229.56 311.545 229.963 311.545 232.213C311.545 234.131 313.028 235.23 314.895 235.23ZM315.125 233.875C313.923 233.875 313.054 233.338 313.054 232.29C313.054 231.139 314.102 230.781 315.278 230.628C315.918 230.551 317.631 230.372 317.886 230.065V231.446C317.886 232.673 316.915 233.875 315.125 233.875ZM322.148 235H323.657V228.787C323.657 227.457 324.705 226.486 326.137 226.486C326.54 226.486 326.955 226.562 327.057 226.588V225.054C326.885 225.041 326.488 225.028 326.265 225.028C325.089 225.028 324.066 225.693 323.708 226.665H323.606V225.182H322.148V235ZM332.254 235.205C334.146 235.205 334.785 234.028 335.118 233.491H335.297V235H336.754V221.909H335.246V226.741H335.118C334.785 226.23 334.197 225.054 332.28 225.054C329.8 225.054 328.086 227.023 328.086 230.116C328.086 233.236 329.8 235.205 332.254 235.205ZM332.459 233.849C330.567 233.849 329.595 232.188 329.595 230.091C329.595 228.02 330.541 226.409 332.459 226.409C334.3 226.409 335.271 227.892 335.271 230.091C335.271 232.315 334.274 233.849 332.459 233.849ZM346.681 227.381C346.208 225.987 345.147 225.054 343.204 225.054C341.133 225.054 339.599 226.23 339.599 227.892C339.599 229.247 340.404 230.155 342.206 230.577L343.843 230.96C344.834 231.19 345.3 231.663 345.3 232.341C345.3 233.185 344.405 233.875 342.999 233.875C341.765 233.875 340.992 233.344 340.724 232.29L339.292 232.648C339.643 234.316 341.018 235.205 343.025 235.205C345.307 235.205 346.86 233.958 346.86 232.264C346.86 230.896 346.003 230.033 344.252 229.605L342.795 229.247C341.631 228.96 341.107 228.57 341.107 227.815C341.107 226.972 342.002 226.358 343.204 226.358C344.52 226.358 345.064 227.087 345.326 227.764L346.681 227.381ZM354.398 235H359.128C362.222 235 363.5 233.491 363.5 231.523C363.5 229.452 362.068 228.327 360.866 228.25V228.122C361.991 227.815 362.989 227.074 362.989 225.386C362.989 223.469 361.71 221.909 358.974 221.909H354.398V235ZM355.983 233.594V229.043H359.205C360.918 229.043 361.991 230.193 361.991 231.523C361.991 232.673 361.199 233.594 359.128 233.594H355.983ZM355.983 227.662V223.315H358.974C360.713 223.315 361.48 224.236 361.48 225.386C361.48 226.767 360.355 227.662 358.923 227.662H355.983ZM370.017 235.205C372.011 235.205 373.468 234.207 373.929 232.724L372.471 232.315C372.088 233.338 371.199 233.849 370.017 233.849C368.246 233.849 367.025 232.705 366.955 230.602H374.082V229.963C374.082 226.307 371.909 225.054 369.863 225.054C367.204 225.054 365.44 227.151 365.44 230.168C365.44 233.185 367.179 235.205 370.017 235.205ZM366.955 229.298C367.057 227.771 368.137 226.409 369.863 226.409C371.5 226.409 372.548 227.636 372.548 229.298H366.955ZM380.647 225.182H378.55V222.83H377.042V225.182H375.559V226.46H377.042V232.597C377.042 234.31 378.422 235.128 379.701 235.128C380.263 235.128 380.621 235.026 380.826 234.949L380.519 233.594C380.391 233.619 380.186 233.67 379.854 233.67C379.189 233.67 378.55 233.466 378.55 232.188V226.46H380.647V225.182ZM384.635 229.094C384.635 227.381 385.728 226.409 387.218 226.409C388.637 226.409 389.493 227.304 389.493 228.864V235H391.002V228.761C391.002 226.237 389.659 225.054 387.652 225.054C386.105 225.054 385.223 225.7 384.763 226.716H384.635V221.909H383.127V235H384.635V229.094ZM395.27 221.909H393.762V235H395.27V221.909ZM402.15 235.205C404.144 235.205 405.601 234.207 406.061 232.724L404.604 232.315C404.221 233.338 403.332 233.849 402.15 233.849C400.379 233.849 399.158 232.705 399.088 230.602H406.215V229.963C406.215 226.307 404.042 225.054 401.996 225.054C399.337 225.054 397.573 227.151 397.573 230.168C397.573 233.185 399.311 235.205 402.15 235.205ZM399.088 229.298C399.19 227.771 400.27 226.409 401.996 226.409C403.632 226.409 404.681 227.636 404.681 229.298H399.088ZM410.018 229.094C410.018 227.381 411.111 226.409 412.6 226.409C414.02 226.409 414.876 227.304 414.876 228.864V235H416.385V228.761C416.385 226.237 415.042 225.054 413.035 225.054C411.488 225.054 410.606 225.7 410.146 226.716H410.018V221.909H408.51V235H410.018V229.094ZM423.261 235.205C425.255 235.205 426.713 234.207 427.173 232.724L425.715 232.315C425.332 233.338 424.443 233.849 423.261 233.849C421.49 233.849 420.269 232.705 420.199 230.602H427.326V229.963C427.326 226.307 425.153 225.054 423.107 225.054C420.448 225.054 418.684 227.151 418.684 230.168C418.684 233.185 420.423 235.205 423.261 235.205ZM420.199 229.298C420.301 227.771 421.382 226.409 423.107 226.409C424.744 226.409 425.792 227.636 425.792 229.298H420.199ZM429.621 235H431.129V228.864C431.129 227.425 432.178 226.409 433.354 226.409C434.498 226.409 435.297 227.157 435.297 228.276V235H436.831V228.608C436.831 227.342 437.624 226.409 439.004 226.409C440.078 226.409 440.999 226.978 440.999 228.429V235H442.507V228.429C442.507 226.121 441.267 225.054 439.516 225.054C438.11 225.054 437.08 225.7 436.575 226.716H436.473C435.987 225.668 435.131 225.054 433.84 225.054C432.561 225.054 431.615 225.668 431.206 226.716H431.078V225.182H429.621V235ZM85.6506 257.182H83.554V254.83H82.0455V257.182H80.5625V258.46H82.0455V264.597C82.0455 266.31 83.4261 267.128 84.7045 267.128C85.267 267.128 85.625 267.026 85.8295 266.949L85.5227 265.594C85.3949 265.619 85.1903 265.67 84.858 265.67C84.1932 265.67 83.554 265.466 83.554 264.188V258.46H85.6506V257.182ZM91.8029 267.205C94.462 267.205 96.2518 265.185 96.2518 262.142C96.2518 259.074 94.462 257.054 91.8029 257.054C89.1438 257.054 87.354 259.074 87.354 262.142C87.354 265.185 89.1438 267.205 91.8029 267.205ZM91.8029 265.849C89.783 265.849 88.8626 264.111 88.8626 262.142C88.8626 260.173 89.783 258.409 91.8029 258.409C93.8228 258.409 94.7433 260.173 94.7433 262.142C94.7433 264.111 93.8228 265.849 91.8029 265.849ZM103.822 267H105.279V265.491H105.458C105.79 266.028 106.43 267.205 108.322 267.205C110.776 267.205 112.489 265.236 112.489 262.116C112.489 259.023 110.776 257.054 108.296 257.054C106.378 257.054 105.79 258.23 105.458 258.741H105.33V253.909H103.822V267ZM105.305 262.091C105.305 259.892 106.276 258.409 108.117 258.409C110.035 258.409 110.981 260.02 110.981 262.091C110.981 264.188 110.009 265.849 108.117 265.849C106.302 265.849 105.305 264.315 105.305 262.091ZM118.913 267.205C120.907 267.205 122.365 266.207 122.825 264.724L121.368 264.315C120.984 265.338 120.096 265.849 118.913 265.849C117.143 265.849 115.922 264.705 115.851 262.602H122.979V261.963C122.979 258.307 120.805 257.054 118.76 257.054C116.101 257.054 114.336 259.151 114.336 262.168C114.336 265.185 116.075 267.205 118.913 267.205ZM115.851 261.298C115.954 259.771 117.034 258.409 118.76 258.409C120.396 258.409 121.444 259.636 121.444 261.298H115.851ZM130.54 267H131.998V265.491H132.177C132.509 266.028 133.148 267.205 135.04 267.205C137.495 267.205 139.208 265.236 139.208 262.116C139.208 259.023 137.495 257.054 135.015 257.054C133.097 257.054 132.509 258.23 132.177 258.741H132.049V253.909H130.54V267ZM132.023 262.091C132.023 259.892 132.995 258.409 134.836 258.409C136.753 258.409 137.699 260.02 137.699 262.091C137.699 264.188 136.728 265.849 134.836 265.849C133.02 265.849 132.023 264.315 132.023 262.091ZM145.504 267.205C148.163 267.205 149.953 265.185 149.953 262.142C149.953 259.074 148.163 257.054 145.504 257.054C142.845 257.054 141.055 259.074 141.055 262.142C141.055 265.185 142.845 267.205 145.504 267.205ZM145.504 265.849C143.484 265.849 142.564 264.111 142.564 262.142C142.564 260.173 143.484 258.409 145.504 258.409C147.524 258.409 148.444 260.173 148.444 262.142C148.444 264.111 147.524 265.849 145.504 265.849ZM152.256 267H153.764V260.787C153.764 259.457 154.812 258.486 156.244 258.486C156.647 258.486 157.062 258.562 157.165 258.588V257.054C156.992 257.041 156.596 257.028 156.372 257.028C155.196 257.028 154.173 257.693 153.815 258.665H153.713V257.182H152.256V267ZM160.461 261.094C160.461 259.381 161.523 258.409 162.967 258.409C164.367 258.409 165.217 259.323 165.217 260.864V267H166.726V260.761C166.726 258.256 165.39 257.054 163.402 257.054C161.919 257.054 160.998 257.719 160.538 258.716H160.41V257.182H158.953V267H160.461V261.094ZM171.451 263.318H172.985V263.241C173.011 261.656 173.42 260.966 174.545 260.263C175.67 259.579 176.335 258.594 176.335 257.182C176.335 255.188 174.877 253.73 172.627 253.73C170.556 253.73 168.913 255.009 168.817 257.182H170.428C170.524 255.673 171.579 255.06 172.627 255.06C173.829 255.06 174.8 255.852 174.8 257.105C174.8 258.121 174.219 258.85 173.471 259.304C172.218 260.065 171.47 260.806 171.451 263.241V263.318ZM172.269 267.102C172.902 267.102 173.42 266.585 173.42 265.952C173.42 265.319 172.902 264.801 172.269 264.801C171.636 264.801 171.119 265.319 171.119 265.952C171.119 266.585 171.636 267.102 172.269 267.102Z" fill="white"/>
<rect x="40.5" y="168.5" width="447" height="119" rx="7.5" stroke="#2C2C2C"/>
<rect x="232" y="336" width="64" height="64" rx="32" fill="url(#paint0_linear)"/>
<path d="M264 371.75C266.109 371.75 267.818 370.071 267.818 368V361.75C267.818 359.679 266.109 358 264 358C261.891 358 260.182 359.679 260.182 361.75V368C260.182 370.071 261.891 371.75 264 371.75ZM270.364 365.5H269.727C269.376 365.5 269.091 365.78 269.091 366.125V368C269.091 370.922 266.526 373.266 263.491 372.976C260.846 372.722 258.909 370.387 258.909 367.777V366.125C258.909 365.78 258.624 365.5 258.273 365.5H257.636C257.285 365.5 257 365.78 257 366.125V367.694C257 371.195 259.544 374.317 263.045 374.791V376.125H260.818C260.467 376.125 260.182 376.405 260.182 376.75V377.375C260.182 377.72 260.467 378 260.818 378H267.182C267.533 378 267.818 377.72 267.818 377.375V376.75C267.818 376.405 267.533 376.125 267.182 376.125H264.955V374.806C268.363 374.346 271 371.473 271 368V366.125C271 365.78 270.715 365.5 270.364 365.5Z" fill="white"/>
<path opacity="0.72" d="M40 462L40 488M112 462V488M48 443L48 488M120 443V488M56 451L56 488M128 451V488M64 462V488M72 455L72 488M80 462L80 488M136 462V488M88 471L88 488M144 471V488M96 459L96 488M152 459V488M104 467V488" stroke="url(#paint1_linear)" stroke-width="3" stroke-linecap="round"/>
<line x1="169.5" y1="486.5" x2="486.5" y2="486.5" stroke="#222222" stroke-width="3" stroke-linecap="round" stroke-dasharray="3 8"/>
<defs>
<linearGradient id="paint0_linear" x1="232" y1="400" x2="296.146" y2="336.147" gradientUnits="userSpaceOnUse">
<stop stop-color="#D1AAD7"/>
<stop offset="0.25" stop-color="#C88BC4"/>
<stop offset="0.5" stop-color="#7B8FDD"/>
<stop offset="0.7486" stop-color="#86BFF2"/>
<stop offset="0.9987" stop-color="#BBDEF2"/>
</linearGradient>
<linearGradient id="paint1_linear" x1="40" y1="465.49" x2="151.996" y2="466.128" gradientUnits="userSpaceOnUse">
<stop stop-color="#D1AAD7"/>
<stop offset="0.25" stop-color="#C88BC4"/>
<stop offset="0.5" stop-color="#7B8FDD"/>
<stop offset="0.7486" stop-color="#86BFF2"/>
<stop offset="0.9987" stop-color="#BBDEF2"/>
</linearGradient>
</defs>
</svg>
