<svg width="528" height="528" viewBox="0 0 528 528" fill="none" xmlns="http://www.w3.org/2000/svg">
<rect width="528" height="528" rx="24" fill="#171717"/>
<path d="M101.496 87H103.691V81.8864H106.674C110.048 81.8864 111.717 79.848 111.717 77.1634C111.717 74.4858 110.062 72.4545 106.681 72.4545H101.496V87ZM103.691 80.0256V74.3366H106.447C108.62 74.3366 109.508 75.5156 109.508 77.1634C109.508 78.8111 108.62 80.0256 106.475 80.0256H103.691ZM116.243 72.4545H114.119V87H116.243V72.4545ZM123.801 87.2202C126.18 87.2202 127.864 86.0483 128.347 84.2727L126.337 83.9105C125.953 84.9403 125.03 85.4659 123.822 85.4659C122.004 85.4659 120.783 84.2869 120.726 82.1847H128.482V81.4318C128.482 77.4901 126.124 75.9489 123.652 75.9489C120.612 75.9489 118.609 78.2642 118.609 81.6165C118.609 85.0043 120.584 87.2202 123.801 87.2202ZM120.733 80.5938C120.818 79.0455 121.94 77.7031 123.666 77.7031C125.314 77.7031 126.393 78.9247 126.401 80.5938H120.733ZM134.012 87.2415C135.816 87.2415 136.832 86.3253 137.237 85.5085H137.322V87H139.396V79.7557C139.396 76.581 136.896 75.9489 135.163 75.9489C133.189 75.9489 131.37 76.7443 130.66 78.733L132.656 79.1875C132.968 78.4134 133.764 77.6676 135.191 77.6676C136.562 77.6676 137.265 78.3849 137.265 79.6207V79.6705C137.265 80.4446 136.47 80.4304 134.51 80.6577C132.443 80.8991 130.326 81.4389 130.326 83.9176C130.326 86.0625 131.939 87.2415 134.012 87.2415ZM134.474 85.5369C133.274 85.5369 132.407 84.9972 132.407 83.946C132.407 82.8097 133.416 82.4048 134.645 82.2415C135.333 82.1491 136.967 81.9645 137.272 81.6591V83.0653C137.272 84.358 136.243 85.5369 134.474 85.5369ZM150.399 78.7543C149.959 77.0568 148.631 75.9489 146.273 75.9489C143.808 75.9489 142.061 77.2486 142.061 79.1804C142.061 80.7287 142.999 81.7585 145.044 82.2131L146.891 82.6179C147.942 82.8523 148.432 83.321 148.432 84.0028C148.432 84.848 147.53 85.5085 146.138 85.5085C144.866 85.5085 144.05 84.9616 143.794 83.8892L141.741 84.2017C142.097 86.1335 143.702 87.2202 146.152 87.2202C148.787 87.2202 150.612 85.821 150.612 83.8466C150.612 82.3054 149.632 81.3537 147.629 80.892L145.896 80.4943C144.696 80.2102 144.178 79.8054 144.185 79.0668C144.178 78.2287 145.087 77.6321 146.294 77.6321C147.615 77.6321 148.226 78.3636 148.474 79.0952L150.399 78.7543ZM157.649 87.2202C160.028 87.2202 161.711 86.0483 162.194 84.2727L160.184 83.9105C159.801 84.9403 158.877 85.4659 157.67 85.4659C155.852 85.4659 154.63 84.2869 154.574 82.1847H162.329V81.4318C162.329 77.4901 159.971 75.9489 157.5 75.9489C154.46 75.9489 152.457 78.2642 152.457 81.6165C152.457 85.0043 154.431 87.2202 157.649 87.2202ZM154.581 80.5938C154.666 79.0455 155.788 77.7031 157.514 77.7031C159.162 77.7031 160.241 78.9247 160.248 80.5938H154.581ZM172.102 72.4545H169.978V87H172.102V72.4545ZM178.134 87.2415C179.938 87.2415 180.953 86.3253 181.358 85.5085H181.443V87H183.517V79.7557C183.517 76.581 181.017 75.9489 179.284 75.9489C177.31 75.9489 175.491 76.7443 174.781 78.733L176.777 79.1875C177.089 78.4134 177.885 77.6676 179.312 77.6676C180.683 77.6676 181.386 78.3849 181.386 79.6207V79.6705C181.386 80.4446 180.591 80.4304 178.631 80.6577C176.564 80.8991 174.447 81.4389 174.447 83.9176C174.447 86.0625 176.06 87.2415 178.134 87.2415ZM178.595 85.5369C177.395 85.5369 176.528 84.9972 176.528 83.946C176.528 82.8097 177.537 82.4048 178.766 82.2415C179.455 82.1491 181.088 81.9645 181.393 81.6591V83.0653C181.393 84.358 180.364 85.5369 178.595 85.5369ZM186.516 87H188.59V85.3026H188.767C189.151 85.9986 189.932 87.2131 191.921 87.2131C194.563 87.2131 196.48 85.0966 196.48 81.5668C196.48 78.0298 194.534 75.9489 191.9 75.9489C189.875 75.9489 189.144 77.1847 188.767 77.8594H188.64V72.4545H186.516V87ZM188.597 81.5455C188.597 79.2656 189.591 77.7528 191.445 77.7528C193.37 77.7528 194.336 79.3793 194.336 81.5455C194.336 83.733 193.341 85.402 191.445 85.402C189.62 85.402 188.597 83.8395 188.597 81.5455ZM203.567 87.2202C205.946 87.2202 207.629 86.0483 208.112 84.2727L206.102 83.9105C205.719 84.9403 204.795 85.4659 203.588 85.4659C201.77 85.4659 200.548 84.2869 200.491 82.1847H208.247V81.4318C208.247 77.4901 205.889 75.9489 203.418 75.9489C200.378 75.9489 198.375 78.2642 198.375 81.6165C198.375 85.0043 200.349 87.2202 203.567 87.2202ZM200.499 80.5938C200.584 79.0455 201.706 77.7031 203.432 77.7031C205.08 77.7031 206.159 78.9247 206.166 80.5938H200.499ZM212.727 72.4545H210.603V87H212.727V72.4545ZM224.051 87.2415C225.855 87.2415 226.871 86.3253 227.276 85.5085H227.361V87H229.435V79.7557C229.435 76.581 226.935 75.9489 225.202 75.9489C223.228 75.9489 221.409 76.7443 220.699 78.733L222.695 79.1875C223.007 78.4134 223.803 77.6676 225.23 77.6676C226.601 77.6676 227.304 78.3849 227.304 79.6207V79.6705C227.304 80.4446 226.509 80.4304 224.549 80.6577C222.482 80.8991 220.365 81.4389 220.365 83.9176C220.365 86.0625 221.978 87.2415 224.051 87.2415ZM224.513 85.5369C223.313 85.5369 222.446 84.9972 222.446 83.946C222.446 82.8097 223.455 82.4048 224.684 82.2415C225.373 82.1491 227.006 81.9645 227.311 81.6591V83.0653C227.311 84.358 226.282 85.5369 224.513 85.5369ZM234.387 80.5227C234.387 78.7827 235.452 77.7884 236.93 77.7884C238.371 77.7884 239.245 78.733 239.245 80.3168V87H241.369V80.0611C241.369 77.3622 239.884 75.9489 237.654 75.9489C236.013 75.9489 234.941 76.7088 234.437 77.8665H234.302V76.0909H232.263V87H234.387V80.5227ZM245.168 91.0909C246.923 91.0909 248.031 90.1747 248.663 88.456L253.158 76.0909H250.879L248.116 84.5568H248.002L245.239 76.0909H242.967L246.958 87.142L246.695 87.8665C246.156 89.3153 245.396 89.4361 244.231 89.1165L243.719 90.8565C243.975 90.9702 244.529 91.0909 245.168 91.0909ZM260.447 91.0909H262.571V85.3026H262.699C263.082 85.9986 263.863 87.2131 265.852 87.2131C268.494 87.2131 270.412 85.0966 270.412 81.5668C270.412 78.0298 268.466 75.9489 265.831 75.9489C263.806 75.9489 263.075 77.1847 262.699 77.8594H262.521V76.0909H260.447V91.0909ZM262.528 81.5455C262.528 79.2656 263.522 77.7528 265.376 77.7528C267.301 77.7528 268.267 79.3793 268.267 81.5455C268.267 83.733 267.272 85.402 265.376 85.402C263.551 85.402 262.528 83.8395 262.528 81.5455ZM277.493 87.2202C279.872 87.2202 281.555 86.0483 282.038 84.2727L280.028 83.9105C279.645 84.9403 278.721 85.4659 277.514 85.4659C275.696 85.4659 274.474 84.2869 274.417 82.1847H282.173V81.4318C282.173 77.4901 279.815 75.9489 277.343 75.9489C274.304 75.9489 272.301 78.2642 272.301 81.6165C272.301 85.0043 274.275 87.2202 277.493 87.2202ZM274.424 80.5938C274.51 79.0455 275.632 77.7031 277.358 77.7031C279.005 77.7031 280.085 78.9247 280.092 80.5938H274.424ZM289.124 87.2202C292.2 87.2202 294.21 84.9688 294.21 81.5952C294.21 78.2003 292.2 75.9489 289.124 75.9489C286.049 75.9489 284.039 78.2003 284.039 81.5952C284.039 84.9688 286.049 87.2202 289.124 87.2202ZM289.131 85.4375C287.121 85.4375 286.184 83.6832 286.184 81.5881C286.184 79.5 287.121 77.7244 289.131 77.7244C291.127 77.7244 292.065 79.5 292.065 81.5881C292.065 83.6832 291.127 85.4375 289.131 85.4375ZM296.58 91.0909H298.703V85.3026H298.831C299.215 85.9986 299.996 87.2131 301.985 87.2131C304.627 87.2131 306.544 85.0966 306.544 81.5668C306.544 78.0298 304.598 75.9489 301.963 75.9489C299.939 75.9489 299.208 77.1847 298.831 77.8594H298.654V76.0909H296.58V91.0909ZM298.661 81.5455C298.661 79.2656 299.655 77.7528 301.509 77.7528C303.434 77.7528 304.4 79.3793 304.4 81.5455C304.4 83.733 303.405 85.402 301.509 85.402C299.684 85.402 298.661 83.8395 298.661 81.5455ZM311.047 72.4545H308.924V87H311.047V72.4545ZM318.606 87.2202C320.985 87.2202 322.668 86.0483 323.151 84.2727L321.141 83.9105C320.758 84.9403 319.835 85.4659 318.627 85.4659C316.809 85.4659 315.587 84.2869 315.531 82.1847H323.286V81.4318C323.286 77.4901 320.928 75.9489 318.457 75.9489C315.417 75.9489 313.414 78.2642 313.414 81.6165C313.414 85.0043 315.388 87.2202 318.606 87.2202ZM315.538 80.5938C315.623 79.0455 316.745 77.7031 318.471 77.7031C320.119 77.7031 321.198 78.9247 321.205 80.5938H315.538ZM328.405 85.0114H326.36L326.289 85.8068C326.125 87.7315 325.671 89.6705 325.479 90.5511H326.985C327.326 89.6207 328.078 87.4901 328.299 85.7855L328.405 85.0114ZM336.463 91.0909H338.586V85.3026H338.714C339.098 85.9986 339.879 87.2131 341.868 87.2131C344.51 87.2131 346.427 85.0966 346.427 81.5668C346.427 78.0298 344.481 75.9489 341.846 75.9489C339.822 75.9489 339.091 77.1847 338.714 77.8594H338.537V76.0909H336.463V91.0909ZM338.544 81.5455C338.544 79.2656 339.538 77.7528 341.392 77.7528C343.316 77.7528 344.282 79.3793 344.282 81.5455C344.282 83.733 343.288 85.402 341.392 85.402C339.566 85.402 338.544 83.8395 338.544 81.5455ZM350.93 72.4545H348.806V87H350.93V72.4545ZM356.962 87.2415C358.766 87.2415 359.781 86.3253 360.186 85.5085H360.271V87H362.345V79.7557C362.345 76.581 359.845 75.9489 358.112 75.9489C356.138 75.9489 354.32 76.7443 353.609 78.733L355.605 79.1875C355.918 78.4134 356.713 77.6676 358.141 77.6676C359.511 77.6676 360.214 78.3849 360.214 79.6207V79.6705C360.214 80.4446 359.419 80.4304 357.459 80.6577C355.392 80.8991 353.276 81.4389 353.276 83.9176C353.276 86.0625 354.888 87.2415 356.962 87.2415ZM357.423 85.5369C356.223 85.5369 355.357 84.9972 355.357 83.946C355.357 82.8097 356.365 82.4048 357.594 82.2415C358.283 82.1491 359.916 81.9645 360.222 81.6591V83.0653C360.222 84.358 359.192 85.5369 357.423 85.5369ZM369.769 87.2202C372.347 87.2202 374.016 85.6719 374.25 83.5483H372.184C371.914 84.7273 370.998 85.4233 369.783 85.4233C367.986 85.4233 366.828 83.9247 366.828 81.5455C366.828 79.2088 368.007 77.7386 369.783 77.7386C371.132 77.7386 371.956 78.5909 372.184 79.6136H374.25C374.023 77.4119 372.226 75.9489 369.748 75.9489C366.672 75.9489 364.684 78.2642 364.684 81.5952C364.684 84.8835 366.601 87.2202 369.769 87.2202ZM381.223 87.2202C383.602 87.2202 385.286 86.0483 385.768 84.2727L383.759 83.9105C383.375 84.9403 382.452 85.4659 381.244 85.4659C379.426 85.4659 378.205 84.2869 378.148 82.1847H385.903V81.4318C385.903 77.4901 383.545 75.9489 381.074 75.9489C378.034 75.9489 376.031 78.2642 376.031 81.6165C376.031 85.0043 378.006 87.2202 381.223 87.2202ZM378.155 80.5938C378.24 79.0455 379.362 77.7031 381.088 77.7031C382.736 77.7031 383.815 78.9247 383.822 80.5938H378.155ZM396.434 78.7543C395.994 77.0568 394.666 75.9489 392.308 75.9489C389.843 75.9489 388.096 77.2486 388.096 79.1804C388.096 80.7287 389.034 81.7585 391.079 82.2131L392.926 82.6179C393.977 82.8523 394.467 83.321 394.467 84.0028C394.467 84.848 393.565 85.5085 392.173 85.5085C390.902 85.5085 390.085 84.9616 389.829 83.8892L387.777 84.2017C388.132 86.1335 389.737 87.2202 392.187 87.2202C394.822 87.2202 396.647 85.821 396.647 83.8466C396.647 82.3054 395.667 81.3537 393.664 80.892L391.931 80.4943C390.731 80.2102 390.213 79.8054 390.22 79.0668C390.213 78.2287 391.122 77.6321 392.329 77.6321C393.65 77.6321 394.261 78.3636 394.51 79.0952L396.434 78.7543ZM401.745 85.0114H399.7L399.629 85.8068C399.465 87.7315 399.011 89.6705 398.819 90.5511H400.325C400.665 89.6207 401.418 87.4901 401.638 85.7855L401.745 85.0114ZM414.398 87.2202C417.473 87.2202 419.483 84.9688 419.483 81.5952C419.483 78.2003 417.473 75.9489 414.398 75.9489C411.322 75.9489 409.312 78.2003 409.312 81.5952C409.312 84.9688 411.322 87.2202 414.398 87.2202ZM414.405 85.4375C412.395 85.4375 411.457 83.6832 411.457 81.5881C411.457 79.5 412.395 77.7244 414.405 77.7244C416.401 77.7244 417.338 79.5 417.338 81.5881C417.338 83.6832 416.401 85.4375 414.405 85.4375ZM421.853 87H423.977V80.3381C423.977 78.9105 425.078 77.8807 426.583 77.8807C427.024 77.8807 427.521 77.9588 427.691 78.0085V75.9773C427.478 75.9489 427.059 75.9276 426.789 75.9276C425.511 75.9276 424.417 76.652 424.02 77.8239H423.906V76.0909H421.853V87ZM108.597 119.22C111.672 119.22 113.682 116.969 113.682 113.595C113.682 110.2 111.672 107.949 108.597 107.949C105.522 107.949 103.512 110.2 103.512 113.595C103.512 116.969 105.522 119.22 108.597 119.22ZM108.604 117.438C106.594 117.438 105.657 115.683 105.657 113.588C105.657 111.5 106.594 109.724 108.604 109.724C110.6 109.724 111.537 111.5 111.537 113.588C111.537 115.683 110.6 117.438 108.604 117.438ZM116.053 119H118.176V112.338C118.176 110.911 119.277 109.881 120.783 109.881C121.223 109.881 121.72 109.959 121.891 110.009V107.977C121.678 107.949 121.259 107.928 120.989 107.928C119.71 107.928 118.616 108.652 118.219 109.824H118.105V108.091H116.053V119ZM127.912 123.318C130.689 123.318 132.833 122.047 132.833 119.241V108.091H130.752V109.859H130.596C130.22 109.185 129.467 107.949 127.436 107.949C124.801 107.949 122.862 110.03 122.862 113.503C122.862 116.983 124.843 118.837 127.422 118.837C129.424 118.837 130.199 117.707 130.582 117.011H130.717V119.156C130.717 120.868 129.545 121.607 127.933 121.607C126.164 121.607 125.475 120.719 125.099 120.094L123.274 120.847C123.849 122.182 125.305 123.318 127.912 123.318ZM127.89 117.075C125.994 117.075 125.007 115.619 125.007 113.474C125.007 111.379 125.973 109.753 127.89 109.753C129.744 109.753 130.738 111.266 130.738 113.474C130.738 115.726 129.723 117.075 127.89 117.075ZM138.856 119.241C140.66 119.241 141.676 118.325 142.081 117.509H142.166V119H144.24V111.756C144.24 108.581 141.74 107.949 140.007 107.949C138.032 107.949 136.214 108.744 135.504 110.733L137.5 111.188C137.812 110.413 138.608 109.668 140.035 109.668C141.406 109.668 142.109 110.385 142.109 111.621V111.67C142.109 112.445 141.314 112.43 139.353 112.658C137.287 112.899 135.17 113.439 135.17 115.918C135.17 118.062 136.782 119.241 138.856 119.241ZM139.318 117.537C138.118 117.537 137.251 116.997 137.251 115.946C137.251 114.81 138.26 114.405 139.488 114.241C140.177 114.149 141.811 113.964 142.116 113.659V115.065C142.116 116.358 141.086 117.537 139.318 117.537ZM149.192 112.523C149.192 110.783 150.257 109.788 151.734 109.788C153.176 109.788 154.05 110.733 154.05 112.317V119H156.173V112.061C156.173 109.362 154.689 107.949 152.459 107.949C150.818 107.949 149.746 108.709 149.241 109.866H149.107V108.091H147.068V119H149.192V112.523ZM159.021 119H161.145V108.091H159.021V119ZM160.094 106.408C160.825 106.408 161.436 105.839 161.436 105.143C161.436 104.447 160.825 103.872 160.094 103.872C159.355 103.872 158.751 104.447 158.751 105.143C158.751 105.839 159.355 106.408 160.094 106.408ZM163.775 119H172.532V117.153H166.651V117.054L172.333 109.639V108.091H163.966V109.938H169.684V110.037L163.775 117.544V119ZM178.212 119.241C180.016 119.241 181.031 118.325 181.436 117.509H181.521V119H183.595V111.756C183.595 108.581 181.095 107.949 179.362 107.949C177.388 107.949 175.57 108.744 174.859 110.733L176.855 111.188C177.168 110.413 177.963 109.668 179.391 109.668C180.761 109.668 181.464 110.385 181.464 111.621V111.67C181.464 112.445 180.669 112.43 178.709 112.658C176.642 112.899 174.526 113.439 174.526 115.918C174.526 118.062 176.138 119.241 178.212 119.241ZM178.673 117.537C177.473 117.537 176.607 116.997 176.607 115.946C176.607 114.81 177.615 114.405 178.844 114.241C179.533 114.149 181.166 113.964 181.472 113.659V115.065C181.472 116.358 180.442 117.537 178.673 117.537ZM191.516 108.091H189.279V105.477H187.155V108.091H185.557V109.795H187.155V116.237C187.148 118.219 188.661 119.178 190.337 119.142C191.012 119.135 191.466 119.007 191.715 118.915L191.331 117.161C191.189 117.189 190.926 117.253 190.586 117.253C189.897 117.253 189.279 117.026 189.279 115.797V109.795H191.516V108.091ZM193.865 119H195.989V108.091H193.865V119ZM194.938 106.408C195.669 106.408 196.28 105.839 196.28 105.143C196.28 104.447 195.669 103.872 194.938 103.872C194.199 103.872 193.595 104.447 193.595 105.143C193.595 105.839 194.199 106.408 194.938 106.408ZM203.441 119.22C206.516 119.22 208.526 116.969 208.526 113.595C208.526 110.2 206.516 107.949 203.441 107.949C200.365 107.949 198.355 110.2 198.355 113.595C198.355 116.969 200.365 119.22 203.441 119.22ZM203.448 117.438C201.438 117.438 200.5 115.683 200.5 113.588C200.5 111.5 201.438 109.724 203.448 109.724C205.444 109.724 206.381 111.5 206.381 113.588C206.381 115.683 205.444 117.438 203.448 117.438ZM213.02 112.523C213.02 110.783 214.085 109.788 215.562 109.788C217.004 109.788 217.878 110.733 217.878 112.317V119H220.001V112.061C220.001 109.362 218.517 107.949 216.287 107.949C214.646 107.949 213.574 108.709 213.07 109.866H212.935V108.091H210.896V119H213.02V112.523ZM231.024 110.754C230.584 109.057 229.256 107.949 226.898 107.949C224.433 107.949 222.686 109.249 222.686 111.18C222.686 112.729 223.624 113.759 225.669 114.213L227.516 114.618C228.567 114.852 229.057 115.321 229.057 116.003C229.057 116.848 228.155 117.509 226.763 117.509C225.491 117.509 224.675 116.962 224.419 115.889L222.366 116.202C222.722 118.134 224.327 119.22 226.777 119.22C229.412 119.22 231.237 117.821 231.237 115.847C231.237 114.305 230.257 113.354 228.254 112.892L226.521 112.494C225.321 112.21 224.803 111.805 224.81 111.067C224.803 110.229 225.712 109.632 226.919 109.632C228.24 109.632 228.851 110.364 229.099 111.095L231.024 110.754ZM238.865 119H240.989V108.091H238.865V119ZM239.938 106.408C240.669 106.408 241.28 105.839 241.28 105.143C241.28 104.447 240.669 103.872 239.938 103.872C239.199 103.872 238.595 104.447 238.595 105.143C238.595 105.839 239.199 106.408 239.938 106.408ZM245.969 112.523C245.969 110.783 247.034 109.788 248.512 109.788C249.953 109.788 250.827 110.733 250.827 112.317V119H252.951V112.061C252.951 109.362 251.466 107.949 249.236 107.949C247.596 107.949 246.523 108.709 246.019 109.866H245.884V108.091H243.846V119H245.969V112.523ZM266.184 108.091H263.947V105.477H261.823V108.091H260.225V109.795H261.823V116.237C261.816 118.219 263.329 119.178 265.005 119.142C265.68 119.135 266.134 119.007 266.383 118.915L265.999 117.161C265.857 117.189 265.594 117.253 265.254 117.253C264.565 117.253 263.947 117.026 263.947 115.797V109.795H266.184V108.091ZM270.891 112.523C270.891 110.783 271.992 109.788 273.505 109.788C274.968 109.788 275.841 110.719 275.841 112.317V119H277.965V112.061C277.965 109.341 276.473 107.949 274.229 107.949C272.532 107.949 271.509 108.688 270.998 109.866H270.863V104.455H268.767V119H270.891V112.523ZM285.5 119.22C287.88 119.22 289.563 118.048 290.046 116.273L288.036 115.911C287.652 116.94 286.729 117.466 285.522 117.466C283.703 117.466 282.482 116.287 282.425 114.185H290.181V113.432C290.181 109.49 287.823 107.949 285.351 107.949C282.311 107.949 280.309 110.264 280.309 113.616C280.309 117.004 282.283 119.22 285.5 119.22ZM282.432 112.594C282.517 111.045 283.64 109.703 285.365 109.703C287.013 109.703 288.093 110.925 288.1 112.594H282.432ZM303.022 108.091H300.671V107.111C300.671 106.145 301.069 105.619 302.105 105.619C302.546 105.619 302.858 105.719 303.057 105.783L303.554 104.064C303.256 103.95 302.638 103.773 301.779 103.773C300.053 103.773 298.54 104.781 298.54 106.827V108.091H296.857V109.795H298.54V119H300.671V109.795H303.022V108.091ZM309.378 119.22C312.453 119.22 314.463 116.969 314.463 113.595C314.463 110.2 312.453 107.949 309.378 107.949C306.303 107.949 304.293 110.2 304.293 113.595C304.293 116.969 306.303 119.22 309.378 119.22ZM309.385 117.438C307.375 117.438 306.438 115.683 306.438 113.588C306.438 111.5 307.375 109.724 309.385 109.724C311.381 109.724 312.319 111.5 312.319 113.588C312.319 115.683 311.381 117.438 309.385 117.438ZM318.957 104.455H316.834V119H318.957V104.455ZM323.938 104.455H321.814V119H323.938V104.455ZM331.39 119.22C334.465 119.22 336.475 116.969 336.475 113.595C336.475 110.2 334.465 107.949 331.39 107.949C328.315 107.949 326.305 110.2 326.305 113.595C326.305 116.969 328.315 119.22 331.39 119.22ZM331.397 117.438C329.387 117.438 328.45 115.683 328.45 113.588C328.45 111.5 329.387 109.724 331.397 109.724C333.393 109.724 334.33 111.5 334.33 113.588C334.33 115.683 333.393 117.438 331.397 117.438ZM340.879 119H343.038L345.254 111.124H345.417L347.633 119H349.799L353.002 108.091H350.808L348.684 116.067H348.577L346.447 108.091H344.252L342.107 116.102H342.001L339.863 108.091H337.668L340.879 119ZM355.017 119H357.141V108.091H355.017V119ZM356.09 106.408C356.821 106.408 357.432 105.839 357.432 105.143C357.432 104.447 356.821 103.872 356.09 103.872C355.351 103.872 354.748 104.447 354.748 105.143C354.748 105.839 355.351 106.408 356.09 106.408ZM362.121 112.523C362.121 110.783 363.187 109.788 364.664 109.788C366.106 109.788 366.979 110.733 366.979 112.317V119H369.103V112.061C369.103 109.362 367.619 107.949 365.388 107.949C363.748 107.949 362.675 108.709 362.171 109.866H362.036V108.091H359.998V119H362.121V112.523ZM376.525 123.318C379.302 123.318 381.447 122.047 381.447 119.241V108.091H379.366V109.859H379.21C378.833 109.185 378.08 107.949 376.049 107.949C373.414 107.949 371.475 110.03 371.475 113.503C371.475 116.983 373.457 118.837 376.035 118.837C378.038 118.837 378.812 117.707 379.195 117.011H379.33V119.156C379.33 120.868 378.158 121.607 376.546 121.607C374.778 121.607 374.089 120.719 373.712 120.094L371.887 120.847C372.462 122.182 373.918 123.318 376.525 123.318ZM376.504 117.075C374.607 117.075 373.62 115.619 373.62 113.474C373.62 111.379 374.586 109.753 376.504 109.753C378.357 109.753 379.352 111.266 379.352 113.474C379.352 115.726 378.336 117.075 376.504 117.075ZM394.68 108.091H392.443V105.477H390.319V108.091H388.721V109.795H390.319V116.237C390.312 118.219 391.825 119.178 393.501 119.142C394.176 119.135 394.63 119.007 394.879 118.915L394.495 117.161C394.353 117.189 394.091 117.253 393.75 117.253C393.061 117.253 392.443 117.026 392.443 115.797V109.795H394.68V108.091ZM401.614 119.22C403.993 119.22 405.676 118.048 406.159 116.273L404.149 115.911C403.766 116.94 402.842 117.466 401.635 117.466C399.817 117.466 398.595 116.287 398.538 114.185H406.294V113.432C406.294 109.49 403.936 107.949 401.464 107.949C398.425 107.949 396.422 110.264 396.422 113.616C396.422 117.004 398.396 119.22 401.614 119.22ZM398.545 112.594C398.631 111.045 399.753 109.703 401.479 109.703C403.126 109.703 404.206 110.925 404.213 112.594H398.545ZM410.072 108.091H407.743L411.095 113.545L407.7 119H410.03L412.48 114.923L414.938 119H417.26L413.83 113.545L417.232 108.091H414.909L412.48 112.338L410.072 108.091ZM424.504 108.091H422.267V105.477H420.143V108.091H418.545V109.795H420.143V116.237C420.136 118.219 421.649 119.178 423.325 119.142C424 119.135 424.455 119.007 424.703 118.915L424.32 117.161C424.178 117.189 423.915 117.253 423.574 117.253C422.885 117.253 422.267 117.026 422.267 115.797V109.795H424.504V108.091Z" fill="#D0A5D4"/>
<line x1="58" y1="186" x2="58" y2="436" stroke="#404040" stroke-width="4" stroke-linecap="round"/>
<path d="M80.8693 199.315H84.9858V211H86.571V199.315H90.6875V197.909H80.8693V199.315ZM94.438 205.094C94.438 203.381 95.5311 202.409 97.0204 202.409C98.4395 202.409 99.296 203.304 99.296 204.864V211H100.805V204.761C100.805 202.237 99.4622 201.054 97.4551 201.054C95.9082 201.054 95.0261 201.7 94.5659 202.716H94.438V197.909H92.9295V211H94.438V205.094ZM107.681 211.205C109.675 211.205 111.132 210.207 111.593 208.724L110.135 208.315C109.752 209.338 108.863 209.849 107.681 209.849C105.91 209.849 104.689 208.705 104.619 206.602H111.746V205.963C111.746 202.307 109.573 201.054 107.527 201.054C104.868 201.054 103.104 203.151 103.104 206.168C103.104 209.185 104.843 211.205 107.681 211.205ZM104.619 205.298C104.721 203.771 105.801 202.409 107.527 202.409C109.164 202.409 110.212 203.636 110.212 205.298H104.619ZM114.714 214.682C116.075 214.682 117.034 213.96 117.603 212.432L121.783 201.207L120.134 201.182L117.424 209.006H117.322L114.611 201.182H112.975L116.606 211.051L116.324 211.818C115.775 213.314 115.097 213.455 113.998 213.173L113.614 214.503C113.768 214.58 114.202 214.682 114.714 214.682ZM131.066 211H132.549L134.697 203.457H134.85L136.998 211H138.481L141.472 201.182H139.887L137.765 208.673H137.663L135.592 201.182H133.981L131.884 208.699H131.782L129.66 201.182H128.075L131.066 211ZM147.249 211.205C149.243 211.205 150.701 210.207 151.161 208.724L149.704 208.315C149.32 209.338 148.432 209.849 147.249 209.849C145.479 209.849 144.258 208.705 144.187 206.602H151.314V205.963C151.314 202.307 149.141 201.054 147.096 201.054C144.437 201.054 142.672 203.151 142.672 206.168C142.672 209.185 144.411 211.205 147.249 211.205ZM144.187 205.298C144.29 203.771 145.37 202.409 147.096 202.409C148.732 202.409 149.78 203.636 149.78 205.298H144.187ZM153.609 211H155.118V204.787C155.118 203.457 156.166 202.486 157.598 202.486C158.001 202.486 158.416 202.562 158.518 202.588V201.054C158.346 201.041 157.949 201.028 157.726 201.028C156.55 201.028 155.527 201.693 155.169 202.665H155.067V201.182H153.609V211ZM164.124 211.205C166.118 211.205 167.576 210.207 168.036 208.724L166.579 208.315C166.195 209.338 165.307 209.849 164.124 209.849C162.354 209.849 161.133 208.705 161.062 206.602H168.189V205.963C168.189 202.307 166.016 201.054 163.971 201.054C161.312 201.054 159.547 203.151 159.547 206.168C159.547 209.185 161.286 211.205 164.124 211.205ZM161.062 205.298C161.165 203.771 162.245 202.409 163.971 202.409C165.607 202.409 166.655 203.636 166.655 205.298H161.062ZM179.254 211.205C181.146 211.205 181.785 210.028 182.118 209.491H182.297V211H183.754V197.909H182.246V202.741H182.118C181.785 202.23 181.197 201.054 179.28 201.054C176.8 201.054 175.086 203.023 175.086 206.116C175.086 209.236 176.8 211.205 179.254 211.205ZM179.459 209.849C177.567 209.849 176.595 208.188 176.595 206.091C176.595 204.02 177.541 202.409 179.459 202.409C181.3 202.409 182.271 203.892 182.271 206.091C182.271 208.315 181.274 209.849 179.459 209.849ZM190.843 211.205C192.837 211.205 194.295 210.207 194.755 208.724L193.297 208.315C192.914 209.338 192.025 209.849 190.843 209.849C189.072 209.849 187.851 208.705 187.781 206.602H194.908V205.963C194.908 202.307 192.735 201.054 190.689 201.054C188.03 201.054 186.266 203.151 186.266 206.168C186.266 209.185 188.005 211.205 190.843 211.205ZM187.781 205.298C187.883 203.771 188.964 202.409 190.689 202.409C192.326 202.409 193.374 203.636 193.374 205.298H187.781ZM198.711 197.909H197.203V211H198.711V197.909ZM201.474 211H202.983V201.182H201.474V211ZM202.241 199.545C202.83 199.545 203.315 199.085 203.315 198.523C203.315 197.96 202.83 197.5 202.241 197.5C201.653 197.5 201.168 197.96 201.168 198.523C201.168 199.085 201.653 199.545 202.241 199.545ZM209.709 214.886C212.061 214.886 213.953 213.812 213.953 211.281V201.182H212.496V202.741H212.343C212.01 202.23 211.396 201.054 209.479 201.054C206.999 201.054 205.286 203.023 205.286 206.04C205.286 209.108 207.075 210.847 209.453 210.847C211.371 210.847 211.985 209.722 212.317 209.185H212.445V211.179C212.445 212.815 211.294 213.557 209.709 213.557C207.926 213.557 207.299 212.617 206.896 212.074L205.695 212.918C206.308 213.947 207.517 214.886 209.709 214.886ZM209.658 209.491C207.766 209.491 206.794 208.06 206.794 206.014C206.794 204.02 207.74 202.409 209.658 202.409C211.499 202.409 212.47 203.892 212.47 206.014C212.47 208.188 211.473 209.491 209.658 209.491ZM218.223 205.094C218.223 203.381 219.316 202.409 220.806 202.409C222.225 202.409 223.081 203.304 223.081 204.864V211H224.59V204.761C224.59 202.237 223.247 201.054 221.24 201.054C219.693 201.054 218.811 201.7 218.351 202.716H218.223V197.909H216.715V211H218.223V205.094ZM231.619 201.182H229.523V198.83H228.014V201.182H226.531V202.46H228.014V208.597C228.014 210.31 229.395 211.128 230.673 211.128C231.236 211.128 231.594 211.026 231.798 210.949L231.491 209.594C231.364 209.619 231.159 209.67 230.827 209.67C230.162 209.67 229.523 209.466 229.523 208.188V202.46H231.619V201.182ZM237.9 211.205C239.894 211.205 241.351 210.207 241.811 208.724L240.354 208.315C239.971 209.338 239.082 209.849 237.9 209.849C236.129 209.849 234.908 208.705 234.838 206.602H241.965V205.963C241.965 202.307 239.792 201.054 237.746 201.054C235.087 201.054 233.323 203.151 233.323 206.168C233.323 209.185 235.061 211.205 237.9 211.205ZM234.838 205.298C234.94 203.771 236.02 202.409 237.746 202.409C239.382 202.409 240.431 203.636 240.431 205.298H234.838ZM247.967 211.205C249.859 211.205 250.498 210.028 250.831 209.491H251.01V211H252.467V197.909H250.958V202.741H250.831C250.498 202.23 249.91 201.054 247.993 201.054C245.512 201.054 243.799 203.023 243.799 206.116C243.799 209.236 245.512 211.205 247.967 211.205ZM248.172 209.849C246.279 209.849 245.308 208.188 245.308 206.091C245.308 204.02 246.254 202.409 248.172 202.409C250.012 202.409 250.984 203.892 250.984 206.091C250.984 208.315 249.987 209.849 248.172 209.849ZM260.706 211H262.164V209.491H262.343C262.675 210.028 263.314 211.205 265.206 211.205C267.661 211.205 269.374 209.236 269.374 206.116C269.374 203.023 267.661 201.054 265.181 201.054C263.263 201.054 262.675 202.23 262.343 202.741H262.215V197.909H260.706V211ZM262.189 206.091C262.189 203.892 263.161 202.409 265.002 202.409C266.919 202.409 267.865 204.02 267.865 206.091C267.865 208.188 266.894 209.849 265.002 209.849C263.186 209.849 262.189 208.315 262.189 206.091ZM272.301 214.682C273.663 214.682 274.622 213.96 275.191 212.432L279.371 201.207L277.722 201.182L275.012 209.006H274.909L272.199 201.182H270.563L274.194 211.051L273.912 211.818C273.363 213.314 272.685 213.455 271.586 213.173L271.202 214.503C271.355 214.58 271.79 214.682 272.301 214.682ZM290.699 201.182H288.603V198.83H287.094V201.182H285.611V202.46H287.094V208.597C287.094 210.31 288.475 211.128 289.753 211.128C290.316 211.128 290.674 211.026 290.878 210.949L290.572 209.594C290.444 209.619 290.239 209.67 289.907 209.67C289.242 209.67 288.603 209.466 288.603 208.188V202.46H290.699V201.182ZM294.688 205.094C294.688 203.381 295.781 202.409 297.27 202.409C298.689 202.409 299.546 203.304 299.546 204.864V211H301.055V204.761C301.055 202.237 299.712 201.054 297.705 201.054C296.158 201.054 295.276 201.7 294.816 202.716H294.688V197.909H293.18V211H294.688V205.094ZM307.931 211.205C309.925 211.205 311.382 210.207 311.843 208.724L310.385 208.315C310.002 209.338 309.113 209.849 307.931 209.849C306.16 209.849 304.939 208.705 304.869 206.602H311.996V205.963C311.996 202.307 309.823 201.054 307.777 201.054C305.118 201.054 303.354 203.151 303.354 206.168C303.354 209.185 305.093 211.205 307.931 211.205ZM304.869 205.298C304.971 203.771 306.051 202.409 307.777 202.409C309.414 202.409 310.462 203.636 310.462 205.298H304.869ZM319.558 211H321.143V205.145H328.123V211H329.708V197.909H328.123V203.739H321.143V197.909H319.558V211ZM332.678 211H334.186V201.182H332.678V211ZM333.445 199.545C334.033 199.545 334.518 199.085 334.518 198.523C334.518 197.96 334.033 197.5 333.445 197.5C332.857 197.5 332.371 197.96 332.371 198.523C332.371 199.085 332.857 199.545 333.445 199.545ZM338.458 197.909H336.949V211H338.458V197.909ZM345.49 201.182H343.394V198.83H341.885V201.182H340.402V202.46H341.885V208.597C341.885 210.31 343.266 211.128 344.544 211.128C345.107 211.128 345.465 211.026 345.669 210.949L345.363 209.594C345.235 209.619 345.03 209.67 344.698 209.67C344.033 209.67 343.394 209.466 343.394 208.188V202.46H345.49V201.182ZM351.643 211.205C354.302 211.205 356.092 209.185 356.092 206.142C356.092 203.074 354.302 201.054 351.643 201.054C348.984 201.054 347.194 203.074 347.194 206.142C347.194 209.185 348.984 211.205 351.643 211.205ZM351.643 209.849C349.623 209.849 348.702 208.111 348.702 206.142C348.702 204.173 349.623 202.409 351.643 202.409C353.663 202.409 354.583 204.173 354.583 206.142C354.583 208.111 353.663 209.849 351.643 209.849ZM359.903 205.094C359.903 203.381 360.964 202.409 362.409 202.409C363.808 202.409 364.659 203.323 364.659 204.864V211H366.167V204.761C366.167 202.256 364.831 201.054 362.843 201.054C361.36 201.054 360.44 201.719 359.98 202.716H359.852V201.182H358.394V211H359.903V205.094ZM370.253 197.909H368.821V199.085C368.821 200.031 368.361 200.849 367.824 201.616L368.642 202.281C369.665 201.463 370.253 200.108 370.253 199.06V197.909ZM377.812 203.381C377.339 201.987 376.278 201.054 374.335 201.054C372.263 201.054 370.729 202.23 370.729 203.892C370.729 205.247 371.535 206.155 373.337 206.577L374.974 206.96C375.964 207.19 376.431 207.663 376.431 208.341C376.431 209.185 375.536 209.875 374.13 209.875C372.896 209.875 372.123 209.344 371.854 208.29L370.423 208.648C370.774 210.316 372.148 211.205 374.156 211.205C376.438 211.205 377.991 209.958 377.991 208.264C377.991 206.896 377.134 206.033 375.383 205.605L373.925 205.247C372.762 204.96 372.238 204.57 372.238 203.815C372.238 202.972 373.133 202.358 374.335 202.358C375.651 202.358 376.195 203.087 376.457 203.764L377.812 203.381ZM82.8892 237.909H81.3807V251H82.8892V237.909ZM89.6408 251.205C92.2999 251.205 94.0897 249.185 94.0897 246.142C94.0897 243.074 92.2999 241.054 89.6408 241.054C86.9817 241.054 85.1919 243.074 85.1919 246.142C85.1919 249.185 86.9817 251.205 89.6408 251.205ZM89.6408 249.849C87.6209 249.849 86.7005 248.111 86.7005 246.142C86.7005 244.173 87.6209 242.409 89.6408 242.409C91.6607 242.409 92.5811 244.173 92.5811 246.142C92.5811 248.111 91.6607 249.849 89.6408 249.849ZM100.381 251.205C102.554 251.205 103.986 249.875 104.242 248.136H102.733C102.452 249.21 101.557 249.849 100.381 249.849C98.5913 249.849 97.4407 248.366 97.4407 246.091C97.4407 243.866 98.6168 242.409 100.381 242.409C101.711 242.409 102.503 243.227 102.733 244.122H104.242C103.986 242.281 102.426 241.054 100.355 241.054C97.6964 241.054 95.9322 243.151 95.9322 246.142C95.9322 249.082 97.6197 251.205 100.381 251.205ZM109.336 251.23C111.049 251.23 111.944 250.31 112.251 249.67H112.328V251H113.836V244.531C113.836 241.412 111.458 241.054 110.206 241.054C108.723 241.054 107.035 241.565 106.268 243.355L107.7 243.866C108.032 243.151 108.819 242.384 110.257 242.384C111.644 242.384 112.328 243.119 112.328 244.378V244.429C112.328 245.158 111.586 245.094 109.797 245.324C107.975 245.56 105.987 245.963 105.987 248.213C105.987 250.131 107.47 251.23 109.336 251.23ZM109.566 249.875C108.365 249.875 107.495 249.338 107.495 248.29C107.495 247.139 108.544 246.781 109.72 246.628C110.359 246.551 112.072 246.372 112.328 246.065V247.446C112.328 248.673 111.356 249.875 109.566 249.875ZM120.86 241.182H118.763V238.83H117.254V241.182H115.771V242.46H117.254V248.597C117.254 250.31 118.635 251.128 119.914 251.128C120.476 251.128 120.834 251.026 121.039 250.949L120.732 249.594C120.604 249.619 120.399 249.67 120.067 249.67C119.402 249.67 118.763 249.466 118.763 248.188V242.46H120.86V241.182ZM123.129 251H124.637V241.182H123.129V251ZM123.896 239.545C124.484 239.545 124.97 239.085 124.97 238.523C124.97 237.96 124.484 237.5 123.896 237.5C123.308 237.5 122.822 237.96 122.822 238.523C122.822 239.085 123.308 239.545 123.896 239.545ZM131.389 251.205C134.048 251.205 135.838 249.185 135.838 246.142C135.838 243.074 134.048 241.054 131.389 241.054C128.73 241.054 126.94 243.074 126.94 246.142C126.94 249.185 128.73 251.205 131.389 251.205ZM131.389 249.849C129.369 249.849 128.449 248.111 128.449 246.142C128.449 244.173 129.369 242.409 131.389 242.409C133.409 242.409 134.329 244.173 134.329 246.142C134.329 248.111 133.409 249.849 131.389 249.849ZM139.649 245.094C139.649 243.381 140.71 242.409 142.155 242.409C143.555 242.409 144.405 243.323 144.405 244.864V251H145.913V244.761C145.913 242.256 144.577 241.054 142.589 241.054C141.106 241.054 140.186 241.719 139.726 242.716H139.598V241.182H138.14V251H139.649V245.094ZM149.769 251.102C150.402 251.102 150.92 250.585 150.92 249.952C150.92 249.319 150.402 248.801 149.769 248.801C149.136 248.801 148.619 249.319 148.619 249.952C148.619 250.585 149.136 251.102 149.769 251.102ZM149.769 243.815C150.402 243.815 150.92 243.298 150.92 242.665C150.92 242.032 150.402 241.514 149.769 241.514C149.136 241.514 148.619 242.032 148.619 242.665C148.619 243.298 149.136 243.815 149.769 243.815ZM165.644 243.381C165.171 241.987 164.11 241.054 162.167 241.054C160.096 241.054 158.561 242.23 158.561 243.892C158.561 245.247 159.367 246.155 161.169 246.577L162.806 246.96C163.797 247.19 164.263 247.663 164.263 248.341C164.263 249.185 163.368 249.875 161.962 249.875C160.728 249.875 159.955 249.344 159.686 248.29L158.255 248.648C158.606 250.316 159.98 251.205 161.988 251.205C164.27 251.205 165.823 249.958 165.823 248.264C165.823 246.896 164.966 246.033 163.215 245.605L161.757 245.247C160.594 244.96 160.07 244.57 160.07 243.815C160.07 242.972 160.965 242.358 162.167 242.358C163.483 242.358 164.027 243.087 164.289 243.764L165.644 243.381ZM174.281 246.986C174.281 248.827 172.875 249.67 171.75 249.67C170.497 249.67 169.602 248.75 169.602 247.318V241.182H168.094V247.42C168.094 249.926 169.423 251.128 171.264 251.128C172.747 251.128 173.719 250.335 174.179 249.338H174.281V251H175.79V241.182H174.281V246.986ZM178.553 251H180.061V244.787C180.061 243.457 181.109 242.486 182.541 242.486C182.944 242.486 183.359 242.562 183.462 242.588V241.054C183.289 241.041 182.893 241.028 182.669 241.028C181.493 241.028 180.47 241.693 180.112 242.665H180.01V241.182H178.553V251ZM185.25 251H186.758V244.787C186.758 243.457 187.807 242.486 189.238 242.486C189.641 242.486 190.057 242.562 190.159 242.588V241.054C189.986 241.041 189.59 241.028 189.366 241.028C188.19 241.028 187.167 241.693 186.809 242.665H186.707V241.182H185.25V251ZM195.637 251.205C198.296 251.205 200.086 249.185 200.086 246.142C200.086 243.074 198.296 241.054 195.637 241.054C192.978 241.054 191.188 243.074 191.188 246.142C191.188 249.185 192.978 251.205 195.637 251.205ZM195.637 249.849C193.617 249.849 192.697 248.111 192.697 246.142C192.697 244.173 193.617 242.409 195.637 242.409C197.657 242.409 198.577 244.173 198.577 246.142C198.577 248.111 197.657 249.849 195.637 249.849ZM208.576 246.986C208.576 248.827 207.17 249.67 206.045 249.67C204.792 249.67 203.897 248.75 203.897 247.318V241.182H202.388V247.42C202.388 249.926 203.718 251.128 205.559 251.128C207.042 251.128 208.013 250.335 208.474 249.338H208.576V251H210.085V241.182H208.576V246.986ZM214.356 245.094C214.356 243.381 215.417 242.409 216.862 242.409C218.262 242.409 219.112 243.323 219.112 244.864V251H220.62V244.761C220.62 242.256 219.284 241.054 217.296 241.054C215.813 241.054 214.893 241.719 214.433 242.716H214.305V241.182H212.847V251H214.356V245.094ZM227.084 251.205C228.976 251.205 229.615 250.028 229.948 249.491H230.127V251H231.584V237.909H230.076V242.741H229.948C229.615 242.23 229.027 241.054 227.11 241.054C224.63 241.054 222.917 243.023 222.917 246.116C222.917 249.236 224.63 251.205 227.084 251.205ZM227.289 249.849C225.397 249.849 224.425 248.188 224.425 246.091C224.425 244.02 225.371 242.409 227.289 242.409C229.13 242.409 230.101 243.892 230.101 246.091C230.101 248.315 229.104 249.849 227.289 249.849ZM238.673 251.205C240.667 251.205 242.125 250.207 242.585 248.724L241.127 248.315C240.744 249.338 239.855 249.849 238.673 249.849C236.902 249.849 235.681 248.705 235.611 246.602H242.738V245.963C242.738 242.307 240.565 241.054 238.52 241.054C235.86 241.054 234.096 243.151 234.096 246.168C234.096 249.185 235.835 251.205 238.673 251.205ZM235.611 245.298C235.713 243.771 236.794 242.409 238.52 242.409C240.156 242.409 241.204 243.636 241.204 245.298H235.611ZM248.74 251.205C250.632 251.205 251.272 250.028 251.604 249.491H251.783V251H253.24V237.909H251.732V242.741H251.604C251.272 242.23 250.684 241.054 248.766 241.054C246.286 241.054 244.573 243.023 244.573 246.116C244.573 249.236 246.286 251.205 248.74 251.205ZM248.945 249.849C247.053 249.849 246.081 248.188 246.081 246.091C246.081 244.02 247.027 242.409 248.945 242.409C250.786 242.409 251.757 243.892 251.757 246.091C251.757 248.315 250.76 249.849 248.945 249.849ZM261.48 251H262.937V249.491H263.116C263.449 250.028 264.088 251.205 265.98 251.205C268.434 251.205 270.147 249.236 270.147 246.116C270.147 243.023 268.434 241.054 265.954 241.054C264.037 241.054 263.449 242.23 263.116 242.741H262.988V237.909H261.48V251ZM262.963 246.091C262.963 243.892 263.934 242.409 265.775 242.409C267.693 242.409 268.639 244.02 268.639 246.091C268.639 248.188 267.667 249.849 265.775 249.849C263.96 249.849 262.963 248.315 262.963 246.091ZM273.075 254.682C274.436 254.682 275.395 253.96 275.964 252.432L280.145 241.207L278.495 241.182L275.785 249.006H275.683L272.973 241.182H271.336L274.967 251.051L274.686 251.818C274.136 253.314 273.458 253.455 272.359 253.173L271.975 254.503C272.129 254.58 272.564 254.682 273.075 254.682ZM295.231 241.182H293.595L290.885 249.006H290.782L288.072 241.182H286.436L290.067 251H291.601L295.231 241.182ZM297.222 251H298.731V241.182H297.222V251ZM297.99 239.545C298.578 239.545 299.063 239.085 299.063 238.523C299.063 237.96 298.578 237.5 297.99 237.5C297.401 237.5 296.916 237.96 296.916 238.523C296.916 239.085 297.401 239.545 297.99 239.545ZM301.699 251H303.156V249.491H303.335C303.667 250.028 304.306 251.205 306.199 251.205C308.653 251.205 310.366 249.236 310.366 246.116C310.366 243.023 308.653 241.054 306.173 241.054C304.255 241.054 303.667 242.23 303.335 242.741H303.207V237.909H301.699V251ZM303.181 246.091C303.181 243.892 304.153 242.409 305.994 242.409C307.912 242.409 308.858 244.02 308.858 246.091C308.858 248.188 307.886 249.849 305.994 249.849C304.179 249.849 303.181 248.315 303.181 246.091ZM312.674 251H314.182V244.787C314.182 243.457 315.23 242.486 316.662 242.486C317.065 242.486 317.48 242.562 317.583 242.588V241.054C317.41 241.041 317.014 241.028 316.79 241.028C315.614 241.028 314.591 241.693 314.233 242.665H314.131V241.182H312.674V251ZM322.26 251.23C323.973 251.23 324.868 250.31 325.175 249.67H325.252V251H326.76V244.531C326.76 241.412 324.382 241.054 323.129 241.054C321.646 241.054 319.959 241.565 319.192 243.355L320.624 243.866C320.956 243.151 321.742 242.384 323.181 242.384C324.568 242.384 325.252 243.119 325.252 244.378V244.429C325.252 245.158 324.51 245.094 322.72 245.324C320.899 245.56 318.911 245.963 318.911 248.213C318.911 250.131 320.394 251.23 322.26 251.23ZM322.49 249.875C321.289 249.875 320.419 249.338 320.419 248.29C320.419 247.139 321.468 246.781 322.644 246.628C323.283 246.551 324.996 246.372 325.252 246.065V247.446C325.252 248.673 324.28 249.875 322.49 249.875ZM331.022 245.094C331.022 243.381 332.083 242.409 333.528 242.409C334.928 242.409 335.778 243.323 335.778 244.864V251H337.286V244.761C337.286 242.256 335.95 241.054 333.962 241.054C332.479 241.054 331.559 241.719 331.099 242.716H330.971V241.182H329.513V251H331.022V245.094ZM344.313 241.182H342.216V238.83H340.708V241.182H339.225V242.46H340.708V248.597C340.708 250.31 342.088 251.128 343.367 251.128C343.929 251.128 344.287 251.026 344.492 250.949L344.185 249.594C344.057 249.619 343.852 249.67 343.52 249.67C342.855 249.67 342.216 249.466 342.216 248.188V242.46H344.313V241.182ZM353.153 245.094C353.153 243.381 354.214 242.409 355.659 242.409C357.058 242.409 357.909 243.323 357.909 244.864V251H359.417V244.761C359.417 242.256 358.081 241.054 356.093 241.054C354.61 241.054 353.69 241.719 353.23 242.716H353.102V241.182H351.644V251H353.153V245.094ZM362.174 251H363.682V241.182H362.174V251ZM362.941 239.545C363.529 239.545 364.015 239.085 364.015 238.523C364.015 237.96 363.529 237.5 362.941 237.5C362.353 237.5 361.867 237.96 361.867 238.523C361.867 239.085 362.353 239.545 362.941 239.545ZM370.408 254.886C372.76 254.886 374.653 253.812 374.653 251.281V241.182H373.195V242.741H373.042C372.709 242.23 372.096 241.054 370.178 241.054C367.698 241.054 365.985 243.023 365.985 246.04C365.985 249.108 367.775 250.847 370.153 250.847C372.07 250.847 372.684 249.722 373.016 249.185H373.144V251.179C373.144 252.815 371.993 253.557 370.408 253.557C368.625 253.557 367.998 252.617 367.596 252.074L366.394 252.918C367.008 253.947 368.216 254.886 370.408 254.886ZM370.357 249.491C368.465 249.491 367.493 248.06 367.493 246.014C367.493 244.02 368.439 242.409 370.357 242.409C372.198 242.409 373.17 243.892 373.17 246.014C373.17 248.188 372.172 249.491 370.357 249.491ZM378.922 245.094C378.922 243.381 380.015 242.409 381.505 242.409C382.924 242.409 383.78 243.304 383.78 244.864V251H385.289V244.761C385.289 242.237 383.947 241.054 381.939 241.054C380.393 241.054 379.51 241.7 379.05 242.716H378.922V237.909H377.414V251H378.922V245.094ZM392.319 241.182H390.222V238.83H388.713V241.182H387.23V242.46H388.713V248.597C388.713 250.31 390.094 251.128 391.373 251.128C391.935 251.128 392.293 251.026 392.498 250.949L392.191 249.594C392.063 249.619 391.858 249.67 391.526 249.67C390.861 249.67 390.222 249.466 390.222 248.188V242.46H392.319V241.182ZM396.307 237.909H394.799V251H396.307V237.909ZM399.07 251H400.579V241.182H399.07V251ZM399.837 239.545C400.425 239.545 400.911 239.085 400.911 238.523C400.911 237.96 400.425 237.5 399.837 237.5C399.249 237.5 398.763 237.96 398.763 238.523C398.763 239.085 399.249 239.545 399.837 239.545ZM407.714 241.182H405.515V240.185C405.515 239.213 405.924 238.702 406.921 238.702C407.356 238.702 407.612 238.804 407.765 238.855L408.2 237.551C407.969 237.449 407.509 237.295 406.768 237.295C405.362 237.295 404.006 238.139 404.006 239.827V241.182H402.421V242.46H404.006V251H405.515V242.46H407.714V241.182ZM413.54 251.205C415.534 251.205 416.992 250.207 417.452 248.724L415.995 248.315C415.611 249.338 414.723 249.849 413.54 249.849C411.77 249.849 410.549 248.705 410.478 246.602H417.605V245.963C417.605 242.307 415.432 241.054 413.387 241.054C410.728 241.054 408.963 243.151 408.963 246.168C408.963 249.185 410.702 251.205 413.54 251.205ZM410.478 245.298C410.581 243.771 411.661 242.409 413.387 242.409C415.023 242.409 416.071 243.636 416.071 245.298H410.478ZM422.15 249.21H420.514L420.437 249.926C420.252 251.658 419.887 253.384 419.721 254.196H420.872C421.179 253.327 421.831 251.358 422.048 249.901L422.15 249.21ZM84.2699 291.23C85.983 291.23 86.8778 290.31 87.1847 289.67H87.2614V291H88.7699V284.531C88.7699 281.412 86.392 281.054 85.1392 281.054C83.6562 281.054 81.9688 281.565 81.2017 283.355L82.6335 283.866C82.9659 283.151 83.7521 282.384 85.1903 282.384C86.5774 282.384 87.2614 283.119 87.2614 284.378V284.429C87.2614 285.158 86.5199 285.094 84.7301 285.324C82.9084 285.56 80.9205 285.963 80.9205 288.213C80.9205 290.131 82.4034 291.23 84.2699 291.23ZM84.5 289.875C83.2983 289.875 82.429 289.338 82.429 288.29C82.429 287.139 83.4773 286.781 84.6534 286.628C85.2926 286.551 87.0057 286.372 87.2614 286.065V287.446C87.2614 288.673 86.2898 289.875 84.5 289.875ZM93.0318 285.094C93.0318 283.381 94.0929 282.409 95.5375 282.409C96.9373 282.409 97.7875 283.323 97.7875 284.864V291H99.296V284.761C99.296 282.256 97.9601 281.054 95.9721 281.054C94.4892 281.054 93.5687 281.719 93.1085 282.716H92.9806V281.182H91.5233V291H93.0318V285.094ZM105.76 291.205C107.652 291.205 108.291 290.028 108.624 289.491H108.803V291H110.26V277.909H108.751V282.741H108.624C108.291 282.23 107.703 281.054 105.786 281.054C103.305 281.054 101.592 283.023 101.592 286.116C101.592 289.236 103.305 291.205 105.76 291.205ZM105.964 289.849C104.072 289.849 103.101 288.188 103.101 286.091C103.101 284.02 104.047 282.409 105.964 282.409C107.805 282.409 108.777 283.892 108.777 286.091C108.777 288.315 107.78 289.849 105.964 289.849ZM118.295 291H119.803V281.182H118.295V291ZM119.062 279.545C119.65 279.545 120.136 279.085 120.136 278.523C120.136 277.96 119.65 277.5 119.062 277.5C118.474 277.5 117.988 277.96 117.988 278.523C117.988 279.085 118.474 279.545 119.062 279.545ZM124.075 285.094C124.075 283.381 125.136 282.409 126.58 282.409C127.98 282.409 128.83 283.323 128.83 284.864V291H130.339V284.761C130.339 282.256 129.003 281.054 127.015 281.054C125.532 281.054 124.612 281.719 124.151 282.716H124.024V281.182H122.566V291H124.075V285.094ZM142.147 291.205C144.32 291.205 145.752 289.875 146.007 288.136H144.499C144.218 289.21 143.323 289.849 142.147 289.849C140.357 289.849 139.206 288.366 139.206 286.091C139.206 283.866 140.382 282.409 142.147 282.409C143.476 282.409 144.269 283.227 144.499 284.122H146.007C145.752 282.281 144.192 281.054 142.121 281.054C139.462 281.054 137.698 283.151 137.698 286.142C137.698 289.082 139.385 291.205 142.147 291.205ZM149.721 277.909H148.213V291H149.721V277.909ZM156.473 291.205C159.132 291.205 160.922 289.185 160.922 286.142C160.922 283.074 159.132 281.054 156.473 281.054C153.814 281.054 152.024 283.074 152.024 286.142C152.024 289.185 153.814 291.205 156.473 291.205ZM156.473 289.849C154.453 289.849 153.532 288.111 153.532 286.142C153.532 284.173 154.453 282.409 156.473 282.409C158.493 282.409 159.413 284.173 159.413 286.142C159.413 288.111 158.493 289.849 156.473 289.849ZM170.179 283.381C169.706 281.987 168.645 281.054 166.702 281.054C164.631 281.054 163.097 282.23 163.097 283.892C163.097 285.247 163.902 286.155 165.705 286.577L167.341 286.96C168.332 287.19 168.798 287.663 168.798 288.341C168.798 289.185 167.903 289.875 166.497 289.875C165.263 289.875 164.49 289.344 164.222 288.29L162.79 288.648C163.141 290.316 164.516 291.205 166.523 291.205C168.805 291.205 170.358 289.958 170.358 288.264C170.358 286.896 169.501 286.033 167.75 285.605L166.293 285.247C165.129 284.96 164.605 284.57 164.605 283.815C164.605 282.972 165.5 282.358 166.702 282.358C168.018 282.358 168.562 283.087 168.824 283.764L170.179 283.381ZM176.745 291.205C178.74 291.205 180.197 290.207 180.657 288.724L179.2 288.315C178.816 289.338 177.928 289.849 176.745 289.849C174.975 289.849 173.754 288.705 173.683 286.602H180.811V285.963C180.811 282.307 178.637 281.054 176.592 281.054C173.933 281.054 172.169 283.151 172.169 286.168C172.169 289.185 173.907 291.205 176.745 291.205ZM173.683 285.298C173.786 283.771 174.866 282.409 176.592 282.409C178.228 282.409 179.276 283.636 179.276 285.298H173.683ZM188.168 294.682H189.676V289.491H189.804C190.137 290.028 190.776 291.205 192.668 291.205C195.122 291.205 196.835 289.236 196.835 286.116C196.835 283.023 195.122 281.054 192.642 281.054C190.725 281.054 190.137 282.23 189.804 282.741H189.625V281.182H188.168V294.682ZM189.651 286.091C189.651 283.892 190.622 282.409 192.463 282.409C194.381 282.409 195.327 284.02 195.327 286.091C195.327 288.188 194.355 289.849 192.463 289.849C190.648 289.849 189.651 288.315 189.651 286.091ZM199.137 291H200.645V284.787C200.645 283.457 201.693 282.486 203.125 282.486C203.528 282.486 203.943 282.562 204.046 282.588V281.054C203.873 281.041 203.477 281.028 203.253 281.028C202.077 281.028 201.054 281.693 200.696 282.665H200.594V281.182H199.137V291ZM209.524 291.205C212.183 291.205 213.972 289.185 213.972 286.142C213.972 283.074 212.183 281.054 209.524 281.054C206.865 281.054 205.075 283.074 205.075 286.142C205.075 289.185 206.865 291.205 209.524 291.205ZM209.524 289.849C207.504 289.849 206.583 288.111 206.583 286.142C206.583 284.173 207.504 282.409 209.524 282.409C211.544 282.409 212.464 284.173 212.464 286.142C212.464 288.111 211.544 289.849 209.524 289.849ZM216.996 281.182H215.257L218.377 286.091L215.257 291H216.996L219.348 287.19L221.7 291H223.439L220.269 286.091L223.439 281.182H221.7L219.348 285.196L216.996 281.182ZM225.592 291H227.1V281.182H225.592V291ZM226.359 279.545C226.947 279.545 227.433 279.085 227.433 278.523C227.433 277.96 226.947 277.5 226.359 277.5C225.771 277.5 225.285 277.96 225.285 278.523C225.285 279.085 225.771 279.545 226.359 279.545ZM229.863 291H231.372V284.864C231.372 283.425 232.42 282.409 233.596 282.409C234.74 282.409 235.539 283.157 235.539 284.276V291H237.073V284.608C237.073 283.342 237.866 282.409 239.247 282.409C240.32 282.409 241.241 282.978 241.241 284.429V291H242.749V284.429C242.749 282.121 241.509 281.054 239.758 281.054C238.352 281.054 237.323 281.7 236.818 282.716H236.715C236.23 281.668 235.373 281.054 234.082 281.054C232.803 281.054 231.857 281.668 231.448 282.716H231.32V281.182H229.863V291ZM245.508 291H247.016V281.182H245.508V291ZM246.275 279.545C246.863 279.545 247.349 279.085 247.349 278.523C247.349 277.96 246.863 277.5 246.275 277.5C245.687 277.5 245.201 277.96 245.201 278.523C245.201 279.085 245.687 279.545 246.275 279.545ZM254.049 281.182H251.952V278.83H250.444V281.182H248.961V282.46H250.444V288.597C250.444 290.31 251.825 291.128 253.103 291.128C253.665 291.128 254.023 291.026 254.228 290.949L253.921 289.594C253.793 289.619 253.589 289.67 253.256 289.67C252.592 289.67 251.952 289.466 251.952 288.188V282.46H254.049V281.182ZM257.29 294.682C258.651 294.682 259.61 293.96 260.179 292.432L264.359 281.207L262.71 281.182L260 289.006H259.898L257.188 281.182H255.551L259.182 291.051L258.901 291.818C258.351 293.314 257.673 293.455 256.574 293.173L256.19 294.503C256.344 294.58 256.778 294.682 257.29 294.682ZM275.688 281.182H273.591V278.83H272.083V281.182H270.6V282.46H272.083V288.597C272.083 290.31 273.463 291.128 274.742 291.128C275.304 291.128 275.662 291.026 275.867 290.949L275.56 289.594C275.432 289.619 275.227 289.67 274.895 289.67C274.23 289.67 273.591 289.466 273.591 288.188V282.46H275.688V281.182ZM281.84 291.205C284.499 291.205 286.289 289.185 286.289 286.142C286.289 283.074 284.499 281.054 281.84 281.054C279.181 281.054 277.391 283.074 277.391 286.142C277.391 289.185 279.181 291.205 281.84 291.205ZM281.84 289.849C279.82 289.849 278.9 288.111 278.9 286.142C278.9 284.173 279.82 282.409 281.84 282.409C283.86 282.409 284.78 284.173 284.78 286.142C284.78 288.111 283.86 289.849 281.84 289.849ZM293.654 291H295.163V284.864C295.163 283.425 296.211 282.409 297.387 282.409C298.531 282.409 299.33 283.157 299.33 284.276V291H300.864V284.608C300.864 283.342 301.657 282.409 303.038 282.409C304.112 282.409 305.032 282.978 305.032 284.429V291H306.54V284.429C306.54 282.121 305.3 281.054 303.549 281.054C302.143 281.054 301.114 281.7 300.609 282.716H300.506C300.021 281.668 299.164 281.054 297.873 281.054C296.594 281.054 295.648 281.668 295.239 282.716H295.112V281.182H293.654V291ZM312.188 291.23C313.901 291.23 314.796 290.31 315.103 289.67H315.179V291H316.688V284.531C316.688 281.412 314.31 281.054 313.057 281.054C311.574 281.054 309.887 281.565 309.12 283.355L310.551 283.866C310.884 283.151 311.67 282.384 313.108 282.384C314.495 282.384 315.179 283.119 315.179 284.378V284.429C315.179 285.158 314.438 285.094 312.648 285.324C310.826 285.56 308.838 285.963 308.838 288.213C308.838 290.131 310.321 291.23 312.188 291.23ZM312.418 289.875C311.216 289.875 310.347 289.338 310.347 288.29C310.347 287.139 311.395 286.781 312.571 286.628C313.211 286.551 314.924 286.372 315.179 286.065V287.446C315.179 288.673 314.208 289.875 312.418 289.875ZM319.441 281.182V291.716C319.441 292.713 319.032 293.276 318.112 293.276H317.83V294.682H318.137C320.029 294.682 320.95 293.531 320.95 291.716V281.182H319.441ZM320.183 279.545C320.771 279.545 321.257 279.085 321.257 278.523C321.257 277.96 320.771 277.5 320.183 277.5C319.595 277.5 319.109 277.96 319.109 278.523C319.109 279.085 319.595 279.545 320.183 279.545ZM327.701 291.205C330.36 291.205 332.15 289.185 332.15 286.142C332.15 283.074 330.36 281.054 327.701 281.054C325.042 281.054 323.252 283.074 323.252 286.142C323.252 289.185 325.042 291.205 327.701 291.205ZM327.701 289.849C325.681 289.849 324.761 288.111 324.761 286.142C324.761 284.173 325.681 282.409 327.701 282.409C329.721 282.409 330.642 284.173 330.642 286.142C330.642 288.111 329.721 289.849 327.701 289.849ZM334.453 291H335.961V284.787C335.961 283.457 337.01 282.486 338.442 282.486C338.844 282.486 339.26 282.562 339.362 282.588V281.054C339.189 281.041 338.793 281.028 338.569 281.028C337.393 281.028 336.371 281.693 336.013 282.665H335.91V281.182H334.453V291ZM347.721 277.909H346.213V291H347.721V277.909ZM353.373 291.23C355.086 291.23 355.981 290.31 356.288 289.67H356.365V291H357.873V284.531C357.873 281.412 355.496 281.054 354.243 281.054C352.76 281.054 351.072 281.565 350.305 283.355L351.737 283.866C352.069 283.151 352.856 282.384 354.294 282.384C355.681 282.384 356.365 283.119 356.365 284.378V284.429C356.365 285.158 355.623 285.094 353.834 285.324C352.012 285.56 350.024 285.963 350.024 288.213C350.024 290.131 351.507 291.23 353.373 291.23ZM353.604 289.875C352.402 289.875 351.532 289.338 351.532 288.29C351.532 287.139 352.581 286.781 353.757 286.628C354.396 286.551 356.109 286.372 356.365 286.065V287.446C356.365 288.673 355.393 289.875 353.604 289.875ZM362.135 285.094C362.135 283.381 363.196 282.409 364.641 282.409C366.041 282.409 366.891 283.323 366.891 284.864V291H368.4V284.761C368.4 282.256 367.064 281.054 365.076 281.054C363.593 281.054 362.672 281.719 362.212 282.716H362.084V281.182H360.627V291H362.135V285.094ZM374.863 291.205C376.756 291.205 377.395 290.028 377.727 289.491H377.906V291H379.363V277.909H377.855V282.741H377.727C377.395 282.23 376.807 281.054 374.889 281.054C372.409 281.054 370.696 283.023 370.696 286.116C370.696 289.236 372.409 291.205 374.863 291.205ZM375.068 289.849C373.176 289.849 372.204 288.188 372.204 286.091C372.204 284.02 373.15 282.409 375.068 282.409C376.909 282.409 377.881 283.892 377.881 286.091C377.881 288.315 376.883 289.849 375.068 289.849ZM382.336 291H383.844V284.864C383.844 283.425 384.893 282.409 386.069 282.409C387.213 282.409 388.012 283.157 388.012 284.276V291H389.546V284.608C389.546 283.342 390.339 282.409 391.719 282.409C392.793 282.409 393.714 282.978 393.714 284.429V291H395.222V284.429C395.222 282.121 393.982 281.054 392.231 281.054C390.824 281.054 389.795 281.7 389.29 282.716H389.188C388.702 281.668 387.846 281.054 386.555 281.054C385.276 281.054 384.33 281.668 383.921 282.716H383.793V281.182H382.336V291ZM400.869 291.23C402.583 291.23 403.477 290.31 403.784 289.67H403.861V291H405.369V284.531C405.369 281.412 402.992 281.054 401.739 281.054C400.256 281.054 398.568 281.565 397.801 283.355L399.233 283.866C399.566 283.151 400.352 282.384 401.79 282.384C403.177 282.384 403.861 283.119 403.861 284.378V284.429C403.861 285.158 403.119 285.094 401.33 285.324C399.508 285.56 397.52 285.963 397.52 288.213C397.52 290.131 399.003 291.23 400.869 291.23ZM401.1 289.875C399.898 289.875 399.029 289.338 399.029 288.29C399.029 287.139 400.077 286.781 401.253 286.628C401.892 286.551 403.605 286.372 403.861 286.065V287.446C403.861 288.673 402.889 289.875 401.1 289.875ZM408.123 291H409.631V284.787C409.631 283.457 410.68 282.486 412.112 282.486C412.514 282.486 412.93 282.562 413.032 282.588V281.054C412.859 281.041 412.463 281.028 412.239 281.028C411.063 281.028 410.04 281.693 409.683 282.665H409.58V281.182H408.123V291ZM414.82 291H416.329V287.325L417.383 286.347L421.059 291H422.976L418.521 285.375L422.67 281.182H420.803L416.508 285.554H416.329V277.909H414.82V291ZM431.566 283.381C431.093 281.987 430.032 281.054 428.088 281.054C426.017 281.054 424.483 282.23 424.483 283.892C424.483 285.247 425.289 286.155 427.091 286.577L428.728 286.96C429.718 287.19 430.185 287.663 430.185 288.341C430.185 289.185 429.29 289.875 427.884 289.875C426.65 289.875 425.877 289.344 425.608 288.29L424.176 288.648C424.528 290.316 425.902 291.205 427.909 291.205C430.191 291.205 431.745 289.958 431.745 288.264C431.745 286.896 430.888 286.033 429.137 285.605L427.679 285.247C426.516 284.96 425.992 284.57 425.992 283.815C425.992 282.972 426.887 282.358 428.088 282.358C429.405 282.358 429.949 283.087 430.211 283.764L431.566 283.381ZM81.3807 331H82.8892V321.182H81.3807V331ZM82.1477 319.545C82.7358 319.545 83.2216 319.085 83.2216 318.523C83.2216 317.96 82.7358 317.5 82.1477 317.5C81.5597 317.5 81.0739 317.96 81.0739 318.523C81.0739 319.085 81.5597 319.545 82.1477 319.545ZM87.1607 325.094C87.1607 323.381 88.2218 322.409 89.6664 322.409C91.0662 322.409 91.9164 323.323 91.9164 324.864V331H93.4249V324.761C93.4249 322.256 92.089 321.054 90.101 321.054C88.6181 321.054 87.6976 321.719 87.2374 322.716H87.1096V321.182H85.6522V331H87.1607V325.094ZM101.449 331H103.034V326.219H105.897C108.946 326.219 110.321 324.365 110.321 322.051C110.321 319.737 108.946 317.909 105.872 317.909H101.449V331ZM103.034 324.812V319.315H105.821C107.949 319.315 108.761 320.479 108.761 322.051C108.761 323.624 107.949 324.812 105.846 324.812H103.034ZM115.559 331.23C117.272 331.23 118.167 330.31 118.474 329.67H118.55V331H120.059V324.531C120.059 321.412 117.681 321.054 116.428 321.054C114.945 321.054 113.258 321.565 112.491 323.355L113.923 323.866C114.255 323.151 115.041 322.384 116.479 322.384C117.866 322.384 118.55 323.119 118.55 324.378V324.429C118.55 325.158 117.809 325.094 116.019 325.324C114.197 325.56 112.21 325.963 112.21 328.213C112.21 330.131 113.692 331.23 115.559 331.23ZM115.789 329.875C114.587 329.875 113.718 329.338 113.718 328.29C113.718 327.139 114.766 326.781 115.942 326.628C116.582 326.551 118.295 326.372 118.55 326.065V327.446C118.55 328.673 117.579 329.875 115.789 329.875ZM122.812 331H124.321V324.787C124.321 323.457 125.369 322.486 126.801 322.486C127.204 322.486 127.619 322.562 127.721 322.588V321.054C127.549 321.041 127.153 321.028 126.929 321.028C125.753 321.028 124.73 321.693 124.372 322.665H124.27V321.182H122.812V331ZM129.51 331H131.018V321.182H129.51V331ZM130.277 319.545C130.865 319.545 131.35 319.085 131.35 318.523C131.35 317.96 130.865 317.5 130.277 317.5C129.689 317.5 129.203 317.96 129.203 318.523C129.203 319.085 129.689 319.545 130.277 319.545ZM140.736 323.381C140.263 321.987 139.202 321.054 137.258 321.054C135.187 321.054 133.653 322.23 133.653 323.892C133.653 325.247 134.459 326.155 136.261 326.577L137.898 326.96C138.888 327.19 139.355 327.663 139.355 328.341C139.355 329.185 138.46 329.875 137.054 329.875C135.82 329.875 135.047 329.344 134.778 328.29L133.346 328.648C133.698 330.316 135.072 331.205 137.079 331.205C139.361 331.205 140.915 329.958 140.915 328.264C140.915 326.896 140.058 326.033 138.307 325.605L136.849 325.247C135.686 324.96 135.162 324.57 135.162 323.815C135.162 322.972 136.057 322.358 137.258 322.358C138.575 322.358 139.118 323.087 139.381 323.764L140.736 323.381ZM144.285 331.102C144.918 331.102 145.435 330.585 145.435 329.952C145.435 329.319 144.918 328.801 144.285 328.801C143.652 328.801 143.134 329.319 143.134 329.952C143.134 330.585 143.652 331.102 144.285 331.102ZM153.946 331L155.263 327.293H160.556L161.873 331H163.534L158.728 317.909H157.091L152.284 331H153.946ZM155.762 325.886L157.858 319.98H157.961L160.057 325.886H155.762ZM166.877 325.094C166.877 323.381 167.939 322.409 169.383 322.409C170.783 322.409 171.633 323.323 171.633 324.864V331H173.142V324.761C173.142 322.256 171.806 321.054 169.818 321.054C168.335 321.054 167.414 321.719 166.954 322.716H166.826V321.182H165.369V331H166.877V325.094ZM179.606 331.205C181.498 331.205 182.137 330.028 182.469 329.491H182.648V331H184.106V317.909H182.597V322.741H182.469C182.137 322.23 181.549 321.054 179.631 321.054C177.151 321.054 175.438 323.023 175.438 326.116C175.438 329.236 177.151 331.205 179.606 331.205ZM179.81 329.849C177.918 329.849 176.947 328.188 176.947 326.091C176.947 324.02 177.893 322.409 179.81 322.409C181.651 322.409 182.623 323.892 182.623 326.091C182.623 328.315 181.626 329.849 179.81 329.849ZM195.03 331.23C196.743 331.23 197.638 330.31 197.944 329.67H198.021V331H199.53V324.531C199.53 321.412 197.152 321.054 195.899 321.054C194.416 321.054 192.729 321.565 191.961 323.355L193.393 323.866C193.726 323.151 194.512 322.384 195.95 322.384C197.337 322.384 198.021 323.119 198.021 324.378V324.429C198.021 325.158 197.28 325.094 195.49 325.324C193.668 325.56 191.68 325.963 191.68 328.213C191.68 330.131 193.163 331.23 195.03 331.23ZM195.26 329.875C194.058 329.875 193.189 329.338 193.189 328.29C193.189 327.139 194.237 326.781 195.413 326.628C196.052 326.551 197.765 326.372 198.021 326.065V327.446C198.021 328.673 197.05 329.875 195.26 329.875ZM209.238 323.381C208.765 321.987 207.703 321.054 205.76 321.054C203.689 321.054 202.155 322.23 202.155 323.892C202.155 325.247 202.961 326.155 204.763 326.577L206.4 326.96C207.39 327.19 207.857 327.663 207.857 328.341C207.857 329.185 206.962 329.875 205.556 329.875C204.322 329.875 203.549 329.344 203.28 328.29L201.848 328.648C202.2 330.316 203.574 331.205 205.581 331.205C207.863 331.205 209.417 329.958 209.417 328.264C209.417 326.896 208.56 326.033 206.809 325.605L205.351 325.247C204.188 324.96 203.664 324.57 203.664 323.815C203.664 322.972 204.559 322.358 205.76 322.358C207.077 322.358 207.62 323.087 207.882 323.764L209.238 323.381ZM218.258 317.909H216.75V331H218.258V317.909ZM227.209 326.986C227.209 328.827 225.803 329.67 224.678 329.67C223.425 329.67 222.53 328.75 222.53 327.318V321.182H221.021V327.42C221.021 329.926 222.351 331.128 224.192 331.128C225.675 331.128 226.646 330.335 227.107 329.338H227.209V331H228.717V321.182H227.209V326.986ZM235.469 331.205C237.642 331.205 239.074 329.875 239.33 328.136H237.821C237.54 329.21 236.645 329.849 235.469 329.849C233.679 329.849 232.529 328.366 232.529 326.091C232.529 323.866 233.705 322.409 235.469 322.409C236.798 322.409 237.591 323.227 237.821 324.122H239.33C239.074 322.281 237.514 321.054 235.443 321.054C232.784 321.054 231.02 323.151 231.02 326.142C231.02 329.082 232.708 331.205 235.469 331.205ZM241.535 331H243.044V327.325L244.098 326.347L247.774 331H249.691L245.236 325.375L249.384 321.182H247.518L243.222 325.554H243.044V317.909H241.535V331ZM258.613 331H260.096L262.244 323.457H262.397L264.545 331H266.028L269.019 321.182H267.434L265.312 328.673H265.21L263.138 321.182H261.528L259.431 328.699H259.329L257.207 321.182H255.621L258.613 331ZM274.668 331.205C277.327 331.205 279.117 329.185 279.117 326.142C279.117 323.074 277.327 321.054 274.668 321.054C272.009 321.054 270.219 323.074 270.219 326.142C270.219 329.185 272.009 331.205 274.668 331.205ZM274.668 329.849C272.648 329.849 271.728 328.111 271.728 326.142C271.728 324.173 272.648 322.409 274.668 322.409C276.688 322.409 277.608 324.173 277.608 326.142C277.608 328.111 276.688 329.849 274.668 329.849ZM287.607 326.986C287.607 328.827 286.201 329.67 285.076 329.67C283.823 329.67 282.928 328.75 282.928 327.318V321.182H281.42V327.42C281.42 329.926 282.749 331.128 284.59 331.128C286.073 331.128 287.045 330.335 287.505 329.338H287.607V331H289.116V321.182H287.607V326.986ZM293.387 317.909H291.879V331H293.387V317.909ZM299.858 331.205C301.75 331.205 302.389 330.028 302.721 329.491H302.9V331H304.358V317.909H302.849V322.741H302.721C302.389 322.23 301.801 321.054 299.883 321.054C297.403 321.054 295.69 323.023 295.69 326.116C295.69 329.236 297.403 331.205 299.858 331.205ZM300.062 329.849C298.17 329.849 297.199 328.188 297.199 326.091C297.199 324.02 298.145 322.409 300.062 322.409C301.903 322.409 302.875 323.892 302.875 326.091C302.875 328.315 301.877 329.849 300.062 329.849ZM313.901 325.094C313.901 323.381 314.994 322.409 316.483 322.409C317.902 322.409 318.759 323.304 318.759 324.864V331H320.267V324.761C320.267 322.237 318.925 321.054 316.918 321.054C315.371 321.054 314.489 321.7 314.029 322.716H313.901V317.909H312.392V331H313.901V325.094ZM325.916 331.23C327.629 331.23 328.524 330.31 328.831 329.67H328.908V331H330.416V324.531C330.416 321.412 328.039 321.054 326.786 321.054C325.303 321.054 323.615 321.565 322.848 323.355L324.28 323.866C324.612 323.151 325.399 322.384 326.837 322.384C328.224 322.384 328.908 323.119 328.908 324.378V324.429C328.908 325.158 328.166 325.094 326.377 325.324C324.555 325.56 322.567 325.963 322.567 328.213C322.567 330.131 324.05 331.23 325.916 331.23ZM326.146 329.875C324.945 329.875 324.075 329.338 324.075 328.29C324.075 327.139 325.124 326.781 326.3 326.628C326.939 326.551 328.652 326.372 328.908 326.065V327.446C328.908 328.673 327.936 329.875 326.146 329.875ZM340.847 321.182H339.21L336.5 329.006H336.398L333.688 321.182H332.051L335.682 331H337.216L340.847 321.182ZM346.603 331.205C348.597 331.205 350.054 330.207 350.515 328.724L349.057 328.315C348.674 329.338 347.785 329.849 346.603 329.849C344.832 329.849 343.611 328.705 343.541 326.602H350.668V325.963C350.668 322.307 348.495 321.054 346.449 321.054C343.79 321.054 342.026 323.151 342.026 326.168C342.026 329.185 343.765 331.205 346.603 331.205ZM343.541 325.298C343.643 323.771 344.723 322.409 346.449 322.409C348.086 322.409 349.134 323.636 349.134 325.298H343.541ZM358.025 331H359.534V321.182H358.025V331ZM358.792 319.545C359.38 319.545 359.866 319.085 359.866 318.523C359.866 317.96 359.38 317.5 358.792 317.5C358.204 317.5 357.718 317.96 357.718 318.523C357.718 319.085 358.204 319.545 358.792 319.545ZM366.567 321.182H364.47V318.83H362.961V321.182H361.479V322.46H362.961V328.597C362.961 330.31 364.342 331.128 365.621 331.128C366.183 331.128 366.541 331.026 366.746 330.949L366.439 329.594C366.311 329.619 366.106 329.67 365.774 329.67C365.109 329.67 364.47 329.466 364.47 328.188V322.46H366.567V321.182ZM371.086 329.21H369.449L369.373 329.926C369.187 331.658 368.823 333.384 368.657 334.196H369.807C370.114 333.327 370.766 331.358 370.983 329.901L371.086 329.21ZM379.148 331H380.733V326.219H383.597C386.646 326.219 388.02 324.365 388.02 322.051C388.02 319.737 386.646 317.909 383.571 317.909H379.148V331ZM380.733 324.812V319.315H383.52C385.648 319.315 386.46 320.479 386.46 322.051C386.46 323.624 385.648 324.812 383.545 324.812H380.733ZM393.258 331.23C394.971 331.23 395.866 330.31 396.173 329.67H396.25V331H397.758V324.531C397.758 321.412 395.38 321.054 394.127 321.054C392.645 321.054 390.957 321.565 390.19 323.355L391.622 323.866C391.954 323.151 392.74 322.384 394.179 322.384C395.566 322.384 396.25 323.119 396.25 324.378V324.429C396.25 325.158 395.508 325.094 393.718 325.324C391.897 325.56 389.909 325.963 389.909 328.213C389.909 330.131 391.392 331.23 393.258 331.23ZM393.488 329.875C392.287 329.875 391.417 329.338 391.417 328.29C391.417 327.139 392.466 326.781 393.642 326.628C394.281 326.551 395.994 326.372 396.25 326.065V327.446C396.25 328.673 395.278 329.875 393.488 329.875ZM400.512 331H402.02V324.787C402.02 323.457 403.068 322.486 404.5 322.486C404.903 322.486 405.318 322.562 405.421 322.588V321.054C405.248 321.041 404.852 321.028 404.628 321.028C403.452 321.028 402.429 321.693 402.071 322.665H401.969V321.182H400.512V331ZM407.209 331H408.717V321.182H407.209V331ZM407.976 319.545C408.564 319.545 409.05 319.085 409.05 318.523C409.05 317.96 408.564 317.5 407.976 317.5C407.388 317.5 406.902 317.96 406.902 318.523C406.902 319.085 407.388 319.545 407.976 319.545ZM418.435 323.381C417.962 321.987 416.901 321.054 414.958 321.054C412.887 321.054 411.352 322.23 411.352 323.892C411.352 325.247 412.158 326.155 413.96 326.577L415.597 326.96C416.588 327.19 417.054 327.663 417.054 328.341C417.054 329.185 416.159 329.875 414.753 329.875C413.519 329.875 412.746 329.344 412.477 328.29L411.046 328.648C411.397 330.316 412.771 331.205 414.779 331.205C417.061 331.205 418.614 329.958 418.614 328.264C418.614 326.896 417.757 326.033 416.006 325.605L414.548 325.247C413.385 324.96 412.861 324.57 412.861 323.815C412.861 322.972 413.756 322.358 414.958 322.358C416.274 322.358 416.818 323.087 417.08 323.764L418.435 323.381ZM81.5852 371H83.1705V365.145H90.1506V371H91.7358V357.909H90.1506V363.739H83.1705V357.909H81.5852V371ZM94.7049 371H96.2134V361.182H94.7049V371ZM95.4719 359.545C96.06 359.545 96.5458 359.085 96.5458 358.523C96.5458 357.96 96.06 357.5 95.4719 357.5C94.8839 357.5 94.3981 357.96 94.3981 358.523C94.3981 359.085 94.8839 359.545 95.4719 359.545ZM100.485 357.909H98.9764V371H100.485V357.909ZM107.518 361.182H105.421V358.83H103.913V361.182H102.43V362.46H103.913V368.597C103.913 370.31 105.293 371.128 106.572 371.128C107.134 371.128 107.492 371.026 107.697 370.949L107.39 369.594C107.262 369.619 107.058 369.67 106.725 369.67C106.06 369.67 105.421 369.466 105.421 368.188V362.46H107.518V361.182ZM113.67 371.205C116.329 371.205 118.119 369.185 118.119 366.142C118.119 363.074 116.329 361.054 113.67 361.054C111.011 361.054 109.221 363.074 109.221 366.142C109.221 369.185 111.011 371.205 113.67 371.205ZM113.67 369.849C111.65 369.849 110.73 368.111 110.73 366.142C110.73 364.173 111.65 362.409 113.67 362.409C115.69 362.409 116.61 364.173 116.61 366.142C116.61 368.111 115.69 369.849 113.67 369.849ZM121.93 365.094C121.93 363.381 122.991 362.409 124.436 362.409C125.836 362.409 126.686 363.323 126.686 364.864V371H128.194V364.761C128.194 362.256 126.858 361.054 124.871 361.054C123.388 361.054 122.467 361.719 122.007 362.716H121.879V361.182H120.422V371H121.93V365.094ZM137.522 365.094C137.522 363.381 138.615 362.409 140.104 362.409C141.523 362.409 142.38 363.304 142.38 364.864V371H143.888V364.761C143.888 362.237 142.546 361.054 140.539 361.054C138.992 361.054 138.11 361.7 137.65 362.716H137.522V357.909H136.013V371H137.522V365.094ZM149.537 371.23C151.251 371.23 152.145 370.31 152.452 369.67H152.529V371H154.037V364.531C154.037 361.412 151.66 361.054 150.407 361.054C148.924 361.054 147.236 361.565 146.469 363.355L147.901 363.866C148.233 363.151 149.02 362.384 150.458 362.384C151.845 362.384 152.529 363.119 152.529 364.378V364.429C152.529 365.158 151.787 365.094 149.998 365.324C148.176 365.56 146.188 365.963 146.188 368.213C146.188 370.131 147.671 371.23 149.537 371.23ZM149.768 369.875C148.566 369.875 147.697 369.338 147.697 368.29C147.697 367.139 148.745 366.781 149.921 366.628C150.56 366.551 152.273 366.372 152.529 366.065V367.446C152.529 368.673 151.557 369.875 149.768 369.875ZM156.791 374.682H158.299V369.491H158.427C158.76 370.028 159.399 371.205 161.291 371.205C163.745 371.205 165.458 369.236 165.458 366.116C165.458 363.023 163.745 361.054 161.265 361.054C159.348 361.054 158.76 362.23 158.427 362.741H158.248V361.182H156.791V374.682ZM158.274 366.091C158.274 363.892 159.245 362.409 161.086 362.409C163.004 362.409 163.95 364.02 163.95 366.091C163.95 368.188 162.978 369.849 161.086 369.849C159.271 369.849 158.274 368.315 158.274 366.091ZM167.76 374.682H169.268V369.491H169.396C169.728 370.028 170.368 371.205 172.26 371.205C174.714 371.205 176.427 369.236 176.427 366.116C176.427 363.023 174.714 361.054 172.234 361.054C170.316 361.054 169.728 362.23 169.396 362.741H169.217V361.182H167.76V374.682ZM169.243 366.091C169.243 363.892 170.214 362.409 172.055 362.409C173.973 362.409 174.919 364.02 174.919 366.091C174.919 368.188 173.947 369.849 172.055 369.849C170.24 369.849 169.243 368.315 169.243 366.091ZM182.845 371.205C184.839 371.205 186.297 370.207 186.757 368.724L185.299 368.315C184.916 369.338 184.027 369.849 182.845 369.849C181.074 369.849 179.853 368.705 179.783 366.602H186.91V365.963C186.91 362.307 184.737 361.054 182.691 361.054C180.032 361.054 178.268 363.151 178.268 366.168C178.268 369.185 180.007 371.205 182.845 371.205ZM179.783 365.298C179.885 363.771 180.966 362.409 182.691 362.409C184.328 362.409 185.376 363.636 185.376 365.298H179.783ZM190.713 365.094C190.713 363.381 191.775 362.409 193.219 362.409C194.619 362.409 195.469 363.323 195.469 364.864V371H196.978V364.761C196.978 362.256 195.642 361.054 193.654 361.054C192.171 361.054 191.25 361.719 190.79 362.716H190.662V361.182H189.205V371H190.713V365.094ZM203.851 371.205C205.845 371.205 207.302 370.207 207.763 368.724L206.305 368.315C205.922 369.338 205.033 369.849 203.851 369.849C202.08 369.849 200.859 368.705 200.789 366.602H207.916V365.963C207.916 362.307 205.743 361.054 203.697 361.054C201.038 361.054 199.274 363.151 199.274 366.168C199.274 369.185 201.013 371.205 203.851 371.205ZM200.789 365.298C200.891 363.771 201.971 362.409 203.697 362.409C205.334 362.409 206.382 363.636 206.382 365.298H200.789ZM213.918 371.205C215.81 371.205 216.449 370.028 216.782 369.491H216.961V371H218.418V357.909H216.91V362.741H216.782C216.449 362.23 215.861 361.054 213.944 361.054C211.464 361.054 209.751 363.023 209.751 366.116C209.751 369.236 211.464 371.205 213.918 371.205ZM214.123 369.849C212.231 369.849 211.259 368.188 211.259 366.091C211.259 364.02 212.205 362.409 214.123 362.409C215.964 362.409 216.935 363.892 216.935 366.091C216.935 368.315 215.938 369.849 214.123 369.849ZM230.723 361.182H228.626V358.83H227.118V361.182H225.635V362.46H227.118V368.597C227.118 370.31 228.498 371.128 229.777 371.128C230.339 371.128 230.697 371.026 230.902 370.949L230.595 369.594C230.467 369.619 230.263 369.67 229.93 369.67C229.265 369.67 228.626 369.466 228.626 368.188V362.46H230.723V361.182ZM236.875 371.205C239.534 371.205 241.324 369.185 241.324 366.142C241.324 363.074 239.534 361.054 236.875 361.054C234.216 361.054 232.426 363.074 232.426 366.142C232.426 369.185 234.216 371.205 236.875 371.205ZM236.875 369.849C234.855 369.849 233.935 368.111 233.935 366.142C233.935 364.173 234.855 362.409 236.875 362.409C238.895 362.409 239.816 364.173 239.816 366.142C239.816 368.111 238.895 369.849 236.875 369.849ZM248.894 371H250.351V369.491H250.53C250.863 370.028 251.502 371.205 253.394 371.205C255.848 371.205 257.561 369.236 257.561 366.116C257.561 363.023 255.848 361.054 253.368 361.054C251.451 361.054 250.863 362.23 250.53 362.741H250.402V357.909H248.894V371ZM250.377 366.091C250.377 363.892 251.348 362.409 253.189 362.409C255.107 362.409 256.053 364.02 256.053 366.091C256.053 368.188 255.081 369.849 253.189 369.849C251.374 369.849 250.377 368.315 250.377 366.091ZM263.985 371.205C265.98 371.205 267.437 370.207 267.897 368.724L266.44 368.315C266.056 369.338 265.168 369.849 263.985 369.849C262.215 369.849 260.994 368.705 260.924 366.602H268.051V365.963C268.051 362.307 265.877 361.054 263.832 361.054C261.173 361.054 259.409 363.151 259.409 366.168C259.409 369.185 261.147 371.205 263.985 371.205ZM260.924 365.298C261.026 363.771 262.106 362.409 263.832 362.409C265.468 362.409 266.517 363.636 266.517 365.298H260.924ZM282.363 363.381C281.89 361.987 280.828 361.054 278.885 361.054C276.814 361.054 275.28 362.23 275.28 363.892C275.28 365.247 276.086 366.155 277.888 366.577L279.525 366.96C280.515 367.19 280.982 367.663 280.982 368.341C280.982 369.185 280.087 369.875 278.681 369.875C277.447 369.875 276.674 369.344 276.405 368.29L274.973 368.648C275.325 370.316 276.699 371.205 278.706 371.205C280.988 371.205 282.542 369.958 282.542 368.264C282.542 366.896 281.685 366.033 279.934 365.605L278.476 365.247C277.313 364.96 276.789 364.57 276.789 363.815C276.789 362.972 277.684 362.358 278.885 362.358C280.202 362.358 280.745 363.087 281.007 363.764L282.363 363.381ZM289.082 361.182H286.986V358.83H285.477V361.182H283.994V362.46H285.477V368.597C285.477 370.31 286.858 371.128 288.136 371.128C288.699 371.128 289.057 371.026 289.261 370.949L288.954 369.594C288.827 369.619 288.622 369.67 288.29 369.67C287.625 369.67 286.986 369.466 286.986 368.188V362.46H289.082V361.182ZM294.241 371.23C295.954 371.23 296.849 370.31 297.155 369.67H297.232V371H298.741V364.531C298.741 361.412 296.363 361.054 295.11 361.054C293.627 361.054 291.939 361.565 291.172 363.355L292.604 363.866C292.937 363.151 293.723 362.384 295.161 362.384C296.548 362.384 297.232 363.119 297.232 364.378V364.429C297.232 365.158 296.491 365.094 294.701 365.324C292.879 365.56 290.891 365.963 290.891 368.213C290.891 370.131 292.374 371.23 294.241 371.23ZM294.471 369.875C293.269 369.875 292.4 369.338 292.4 368.29C292.4 367.139 293.448 366.781 294.624 366.628C295.263 366.551 296.976 366.372 297.232 366.065V367.446C297.232 368.673 296.26 369.875 294.471 369.875ZM302.114 374.682C303.475 374.682 304.434 373.96 305.003 372.432L309.184 361.207L307.534 361.182L304.824 369.006H304.722L302.012 361.182H300.375L304.006 371.051L303.725 371.818C303.175 373.314 302.498 373.455 301.398 373.173L301.015 374.503C301.168 374.58 301.603 374.682 302.114 374.682ZM311.18 371H312.688V361.182H311.18V371ZM311.947 359.545C312.535 359.545 313.02 359.085 313.02 358.523C313.02 357.96 312.535 357.5 311.947 357.5C311.358 357.5 310.873 357.96 310.873 358.523C310.873 359.085 311.358 359.545 311.947 359.545ZM316.96 365.094C316.96 363.381 318.021 362.409 319.465 362.409C320.865 362.409 321.715 363.323 321.715 364.864V371H323.224V364.761C323.224 362.256 321.888 361.054 319.9 361.054C318.417 361.054 317.496 361.719 317.036 362.716H316.908V361.182H315.451V371H316.96V365.094ZM329.943 374.886C332.296 374.886 334.188 373.812 334.188 371.281V361.182H332.73V362.741H332.577C332.244 362.23 331.631 361.054 329.713 361.054C327.233 361.054 325.52 363.023 325.52 366.04C325.52 369.108 327.31 370.847 329.688 370.847C331.605 370.847 332.219 369.722 332.551 369.185H332.679V371.179C332.679 372.815 331.529 373.557 329.943 373.557C328.16 373.557 327.534 372.617 327.131 372.074L325.929 372.918C326.543 373.947 327.751 374.886 329.943 374.886ZM329.892 369.491C328 369.491 327.029 368.06 327.029 366.014C327.029 364.02 327.975 362.409 329.892 362.409C331.733 362.409 332.705 363.892 332.705 366.014C332.705 368.188 331.708 369.491 329.892 369.491ZM342.012 371H343.52V361.182H342.012V371ZM342.779 359.545C343.367 359.545 343.852 359.085 343.852 358.523C343.852 357.96 343.367 357.5 342.779 357.5C342.191 357.5 341.705 357.96 341.705 358.523C341.705 359.085 342.191 359.545 342.779 359.545ZM347.792 365.094C347.792 363.381 348.853 362.409 350.297 362.409C351.697 362.409 352.547 363.323 352.547 364.864V371H354.056V364.761C354.056 362.256 352.72 361.054 350.732 361.054C349.249 361.054 348.328 361.719 347.868 362.716H347.74V361.182H346.283V371H347.792V365.094ZM366.145 361.182H364.048V358.83H362.54V361.182H361.057V362.46H362.54V368.597C362.54 370.31 363.92 371.128 365.199 371.128C365.761 371.128 366.119 371.026 366.324 370.949L366.017 369.594C365.889 369.619 365.684 369.67 365.352 369.67C364.687 369.67 364.048 369.466 364.048 368.188V362.46H366.145V361.182ZM370.133 365.094C370.133 363.381 371.226 362.409 372.716 362.409C374.135 362.409 374.991 363.304 374.991 364.864V371H376.5V364.761C376.5 362.237 375.157 361.054 373.15 361.054C371.604 361.054 370.721 361.7 370.261 362.716H370.133V357.909H368.625V371H370.133V365.094ZM383.376 371.205C385.37 371.205 386.828 370.207 387.288 368.724L385.831 368.315C385.447 369.338 384.559 369.849 383.376 369.849C381.605 369.849 380.385 368.705 380.314 366.602H387.441V365.963C387.441 362.307 385.268 361.054 383.223 361.054C380.564 361.054 378.799 363.151 378.799 366.168C378.799 369.185 380.538 371.205 383.376 371.205ZM380.314 365.298C380.417 363.771 381.497 362.409 383.223 362.409C384.859 362.409 385.907 363.636 385.907 365.298H380.314ZM394.799 371H396.307V364.787C396.307 363.457 397.355 362.486 398.787 362.486C399.19 362.486 399.605 362.562 399.708 362.588V361.054C399.535 361.041 399.139 361.028 398.915 361.028C397.739 361.028 396.716 361.693 396.358 362.665H396.256V361.182H394.799V371ZM405.186 371.205C407.845 371.205 409.635 369.185 409.635 366.142C409.635 363.074 407.845 361.054 405.186 361.054C402.527 361.054 400.737 363.074 400.737 366.142C400.737 369.185 402.527 371.205 405.186 371.205ZM405.186 369.849C403.166 369.849 402.245 368.111 402.245 366.142C402.245 364.173 403.166 362.409 405.186 362.409C407.206 362.409 408.126 364.173 408.126 366.142C408.126 368.111 407.206 369.849 405.186 369.849ZM415.926 371.205C418.585 371.205 420.375 369.185 420.375 366.142C420.375 363.074 418.585 361.054 415.926 361.054C413.267 361.054 411.477 363.074 411.477 366.142C411.477 369.185 413.267 371.205 415.926 371.205ZM415.926 369.849C413.906 369.849 412.986 368.111 412.986 366.142C412.986 364.173 413.906 362.409 415.926 362.409C417.946 362.409 418.866 364.173 418.866 366.142C418.866 368.111 417.946 369.849 415.926 369.849ZM422.678 371H424.186V364.864C424.186 363.425 425.234 362.409 426.411 362.409C427.555 362.409 428.354 363.157 428.354 364.276V371H429.888V364.608C429.888 363.342 430.68 362.409 432.061 362.409C433.135 362.409 434.055 362.978 434.055 364.429V371H435.564V364.429C435.564 362.121 434.324 361.054 432.572 361.054C431.166 361.054 430.137 361.7 429.632 362.716H429.53C429.044 361.668 428.188 361.054 426.896 361.054C425.618 361.054 424.672 361.668 424.263 362.716H424.135V361.182H422.678V371ZM82.8892 405.094C82.8892 403.381 83.9503 402.409 85.3949 402.409C86.7947 402.409 87.6449 403.323 87.6449 404.864V411H89.1534V404.761C89.1534 402.256 87.8175 401.054 85.8295 401.054C84.3466 401.054 83.4261 401.719 82.9659 402.716H82.8381V401.182H81.3807V411H82.8892V405.094ZM96.0265 411.205C98.0208 411.205 99.4782 410.207 99.9384 408.724L98.481 408.315C98.0975 409.338 97.209 409.849 96.0265 409.849C94.2559 409.849 93.035 408.705 92.9647 406.602H100.092V405.963C100.092 402.307 97.9185 401.054 95.873 401.054C93.214 401.054 91.4498 403.151 91.4498 406.168C91.4498 409.185 93.1884 411.205 96.0265 411.205ZM92.9647 405.298C93.0669 403.771 94.1472 402.409 95.873 402.409C97.5094 402.409 98.5577 403.636 98.5577 405.298H92.9647ZM103.248 401.182H101.509L104.629 406.091L101.509 411H103.248L105.6 407.19L107.952 411H109.691L106.521 406.091L109.691 401.182H107.952L105.6 405.196L103.248 401.182ZM116.113 401.182H114.017V398.83H112.508V401.182H111.025V402.46H112.508V408.597C112.508 410.31 113.889 411.128 115.167 411.128C115.73 411.128 116.088 411.026 116.292 410.949L115.986 409.594C115.858 409.619 115.653 409.67 115.321 409.67C114.656 409.67 114.017 409.466 114.017 408.188V402.46H116.113V401.182ZM127.153 411.205C129.045 411.205 129.684 410.028 130.016 409.491H130.195V411H131.653V397.909H130.144V402.741H130.016C129.684 402.23 129.096 401.054 127.178 401.054C124.698 401.054 122.985 403.023 122.985 406.116C122.985 409.236 124.698 411.205 127.153 411.205ZM127.357 409.849C125.465 409.849 124.493 408.188 124.493 406.091C124.493 404.02 125.439 402.409 127.357 402.409C129.198 402.409 130.17 403.892 130.17 406.091C130.17 408.315 129.172 409.849 127.357 409.849ZM138.613 411.205C141.273 411.205 143.062 409.185 143.062 406.142C143.062 403.074 141.273 401.054 138.613 401.054C135.954 401.054 134.165 403.074 134.165 406.142C134.165 409.185 135.954 411.205 138.613 411.205ZM138.613 409.849C136.594 409.849 135.673 408.111 135.673 406.142C135.673 404.173 136.594 402.409 138.613 402.409C140.633 402.409 141.554 404.173 141.554 406.142C141.554 408.111 140.633 409.849 138.613 409.849ZM149.354 411.205C152.013 411.205 153.803 409.185 153.803 406.142C153.803 403.074 152.013 401.054 149.354 401.054C146.695 401.054 144.905 403.074 144.905 406.142C144.905 409.185 146.695 411.205 149.354 411.205ZM149.354 409.849C147.334 409.849 146.413 408.111 146.413 406.142C146.413 404.173 147.334 402.409 149.354 402.409C151.374 402.409 152.294 404.173 152.294 406.142C152.294 408.111 151.374 409.849 149.354 409.849ZM156.105 411H157.614V404.787C157.614 403.457 158.662 402.486 160.094 402.486C160.497 402.486 160.912 402.562 161.014 402.588V401.054C160.842 401.041 160.445 401.028 160.222 401.028C159.046 401.028 158.023 401.693 157.665 402.665H157.563V401.182H156.105V411ZM164.797 397.909H163.058L163.186 407.318H164.669L164.797 397.909ZM163.928 411.102C164.56 411.102 165.078 410.585 165.078 409.952C165.078 409.319 164.56 408.801 163.928 408.801C163.295 408.801 162.777 409.319 162.777 409.952C162.777 410.585 163.295 411.102 163.928 411.102Z" fill="white"/>
<rect opacity="0.25" x="316" y="193" width="65" height="24" fill="#FFCA28"/>
<rect opacity="0.25" x="97" y="313" width="51" height="24" fill="#60B058"/>
<rect opacity="0.25" x="375" y="313" width="48" height="24" fill="#943CFF"/>
<rect opacity="0.25" x="77" y="352" width="56" height="24" fill="#943CFF"/>
<path d="M324.54 181.636C324.54 178.845 322.869 177.153 320.611 177.153C318.344 177.153 316.678 178.845 316.678 181.636C316.678 184.423 318.344 186.119 320.611 186.119C322.869 186.119 324.54 184.428 324.54 181.636ZM323.236 181.636C323.236 183.763 322.111 184.918 320.611 184.918C319.107 184.918 317.986 183.763 317.986 181.636C317.986 179.51 319.107 178.355 320.611 178.355C322.111 178.355 323.236 179.51 323.236 181.636ZM326.079 186H327.353V182.003C327.353 181.146 328.014 180.528 328.917 180.528C329.181 180.528 329.48 180.575 329.582 180.605V179.386C329.454 179.369 329.203 179.357 329.041 179.357C328.274 179.357 327.618 179.791 327.379 180.494H327.311V179.455H326.079V186ZM333.195 188.591C334.861 188.591 336.148 187.828 336.148 186.145V179.455H334.899V180.516H334.805C334.58 180.111 334.128 179.369 332.909 179.369C331.328 179.369 330.165 180.618 330.165 182.702C330.165 184.79 331.354 185.902 332.901 185.902C334.102 185.902 334.567 185.224 334.797 184.807H334.878V186.094C334.878 187.121 334.175 187.564 333.207 187.564C332.146 187.564 331.733 187.031 331.507 186.656L330.412 187.108C330.757 187.909 331.631 188.591 333.195 188.591ZM333.182 184.845C332.044 184.845 331.452 183.972 331.452 182.685C331.452 181.428 332.031 180.452 333.182 180.452C334.294 180.452 334.891 181.359 334.891 182.685C334.891 184.036 334.281 184.845 333.182 184.845ZM339.761 186.145C340.844 186.145 341.453 185.595 341.696 185.105H341.747V186H342.991V181.653C342.991 179.749 341.491 179.369 340.452 179.369C339.267 179.369 338.176 179.847 337.75 181.04L338.947 181.312C339.135 180.848 339.612 180.401 340.469 180.401C341.291 180.401 341.713 180.831 341.713 181.572V181.602C341.713 182.067 341.236 182.058 340.06 182.195C338.82 182.339 337.55 182.663 337.55 184.151C337.55 185.438 338.517 186.145 339.761 186.145ZM340.038 185.122C339.318 185.122 338.798 184.798 338.798 184.168C338.798 183.486 339.403 183.243 340.141 183.145C340.554 183.089 341.534 182.979 341.717 182.795V183.639C341.717 184.415 341.099 185.122 340.038 185.122ZM345.963 182.114C345.963 181.07 346.602 180.473 347.488 180.473C348.353 180.473 348.877 181.04 348.877 181.99V186H350.152V181.837C350.152 180.217 349.261 179.369 347.923 179.369C346.939 179.369 346.295 179.825 345.993 180.52H345.912V179.455H344.689V186H345.963V182.114ZM351.86 186H353.135V179.455H351.86V186ZM352.504 178.445C352.943 178.445 353.309 178.104 353.309 177.686C353.309 177.268 352.943 176.923 352.504 176.923C352.061 176.923 351.699 177.268 351.699 177.686C351.699 178.104 352.061 178.445 352.504 178.445ZM354.712 186H359.967V184.892H356.438V184.832L359.847 180.384V179.455H354.827V180.562H358.258V180.622L354.712 185.126V186ZM363.375 186.145C364.457 186.145 365.066 185.595 365.309 185.105H365.36V186H366.605V181.653C366.605 179.749 365.105 179.369 364.065 179.369C362.88 179.369 361.789 179.847 361.363 181.04L362.561 181.312C362.748 180.848 363.225 180.401 364.082 180.401C364.904 180.401 365.326 180.831 365.326 181.572V181.602C365.326 182.067 364.849 182.058 363.673 182.195C362.433 182.339 361.163 182.663 361.163 184.151C361.163 185.438 362.13 186.145 363.375 186.145ZM363.652 185.122C362.931 185.122 362.412 184.798 362.412 184.168C362.412 183.486 363.017 183.243 363.754 183.145C364.167 183.089 365.147 182.979 365.331 182.795V183.639C365.331 184.415 364.713 185.122 363.652 185.122ZM371.357 179.455H370.015V177.886H368.741V179.455H367.782V180.477H368.741V184.342C368.737 185.531 369.644 186.107 370.65 186.085C371.055 186.081 371.327 186.004 371.477 185.949L371.246 184.896C371.161 184.913 371.004 184.952 370.799 184.952C370.386 184.952 370.015 184.815 370.015 184.078V180.477H371.357V179.455ZM372.767 186H374.041V179.455H372.767V186ZM373.41 178.445C373.849 178.445 374.216 178.104 374.216 177.686C374.216 177.268 373.849 176.923 373.41 176.923C372.967 176.923 372.605 177.268 372.605 177.686C372.605 178.104 372.967 178.445 373.41 178.445ZM378.512 186.132C380.357 186.132 381.563 184.781 381.563 182.757C381.563 180.72 380.357 179.369 378.512 179.369C376.667 179.369 375.461 180.72 375.461 182.757C375.461 184.781 376.667 186.132 378.512 186.132ZM378.516 185.062C377.31 185.062 376.748 184.01 376.748 182.753C376.748 181.5 377.31 180.435 378.516 180.435C379.714 180.435 380.276 181.5 380.276 182.753C380.276 184.01 379.714 185.062 378.516 185.062ZM384.26 182.114C384.26 181.07 384.899 180.473 385.785 180.473C386.65 180.473 387.174 181.04 387.174 181.99V186H388.449V181.837C388.449 180.217 387.558 179.369 386.22 179.369C385.235 179.369 384.592 179.825 384.289 180.52H384.208V179.455H382.985V186H384.26V182.114Z" fill="#FFCA28"/>
<path d="M97.9588 306H103.23V304.866H99.2756V297.273H97.9588V306ZM107.387 306.132C109.232 306.132 110.438 304.781 110.438 302.757C110.438 300.72 109.232 299.369 107.387 299.369C105.542 299.369 104.336 300.72 104.336 302.757C104.336 304.781 105.542 306.132 107.387 306.132ZM107.391 305.062C106.185 305.062 105.623 304.01 105.623 302.753C105.623 301.5 106.185 300.435 107.391 300.435C108.589 300.435 109.151 301.5 109.151 302.753C109.151 304.01 108.589 305.062 107.391 305.062ZM114.618 306.132C116.164 306.132 117.166 305.203 117.306 303.929H116.066C115.904 304.636 115.355 305.054 114.626 305.054C113.548 305.054 112.853 304.155 112.853 302.727C112.853 301.325 113.561 300.443 114.626 300.443C115.436 300.443 115.93 300.955 116.066 301.568H117.306C117.17 300.247 116.092 299.369 114.605 299.369C112.76 299.369 111.566 300.759 111.566 302.757C111.566 304.73 112.717 306.132 114.618 306.132ZM120.574 306.145C121.656 306.145 122.266 305.595 122.509 305.105H122.56V306H123.804V301.653C123.804 299.749 122.304 299.369 121.264 299.369C120.08 299.369 118.989 299.847 118.562 301.04L119.76 301.312C119.947 300.848 120.425 300.401 121.281 300.401C122.104 300.401 122.526 300.831 122.526 301.572V301.602C122.526 302.067 122.048 302.058 120.872 302.195C119.632 302.339 118.362 302.663 118.362 304.151C118.362 305.438 119.33 306.145 120.574 306.145ZM120.851 305.122C120.131 305.122 119.611 304.798 119.611 304.168C119.611 303.486 120.216 303.243 120.953 303.145C121.366 303.089 122.347 302.979 122.53 302.795V303.639C122.53 304.415 121.912 305.122 120.851 305.122ZM128.556 299.455H127.214V297.886H125.94V299.455H124.981V300.477H125.94V304.342C125.936 305.531 126.843 306.107 127.849 306.085C128.254 306.081 128.527 306.004 128.676 305.949L128.446 304.896C128.36 304.913 128.203 304.952 127.998 304.952C127.585 304.952 127.214 304.815 127.214 304.078V300.477H128.556V299.455ZM129.966 306H131.24V299.455H129.966V306ZM130.609 298.445C131.048 298.445 131.415 298.104 131.415 297.686C131.415 297.268 131.048 296.923 130.609 296.923C130.166 296.923 129.804 297.268 129.804 297.686C129.804 298.104 130.166 298.445 130.609 298.445ZM135.711 306.132C137.556 306.132 138.762 304.781 138.762 302.757C138.762 300.72 137.556 299.369 135.711 299.369C133.866 299.369 132.66 300.72 132.66 302.757C132.66 304.781 133.866 306.132 135.711 306.132ZM135.716 305.062C134.51 305.062 133.947 304.01 133.947 302.753C133.947 301.5 134.51 300.435 135.716 300.435C136.913 300.435 137.475 301.5 137.475 302.753C137.475 304.01 136.913 305.062 135.716 305.062ZM141.459 302.114C141.459 301.07 142.098 300.473 142.984 300.473C143.849 300.473 144.374 301.04 144.374 301.99V306H145.648V301.837C145.648 300.217 144.757 299.369 143.419 299.369C142.435 299.369 141.791 299.825 141.489 300.52H141.408V299.455H140.185V306H141.459V302.114Z" fill="#60B058"/>
<path d="M375.959 306H377.276V302.932H379.065C381.089 302.932 382.091 301.709 382.091 300.098C382.091 298.491 381.098 297.273 379.07 297.273H375.959V306ZM377.276 301.815V298.402H378.929C380.233 298.402 380.766 299.109 380.766 300.098C380.766 301.087 380.233 301.815 378.946 301.815H377.276ZM386.271 306.132C387.699 306.132 388.709 305.429 388.999 304.364L387.793 304.146C387.562 304.764 387.009 305.08 386.284 305.08C385.193 305.08 384.46 304.372 384.426 303.111H389.08V302.659C389.08 300.294 387.665 299.369 386.182 299.369C384.358 299.369 383.156 300.759 383.156 302.77C383.156 304.803 384.341 306.132 386.271 306.132ZM384.43 302.156C384.482 301.227 385.155 300.422 386.19 300.422C387.179 300.422 387.827 301.155 387.831 302.156H384.43ZM390.493 306H391.767V302.003C391.767 301.146 392.428 300.528 393.331 300.528C393.596 300.528 393.894 300.575 393.996 300.605V299.386C393.868 299.369 393.617 299.357 393.455 299.357C392.688 299.357 392.032 299.791 391.793 300.494H391.725V299.455H390.493V306ZM400.004 301.053C399.739 300.034 398.942 299.369 397.528 299.369C396.049 299.369 395.001 300.149 395.001 301.308C395.001 302.237 395.563 302.855 396.79 303.128L397.898 303.371C398.529 303.511 398.823 303.793 398.823 304.202C398.823 304.709 398.282 305.105 397.447 305.105C396.684 305.105 396.194 304.777 396.04 304.134L394.809 304.321C395.022 305.48 395.985 306.132 397.455 306.132C399.036 306.132 400.131 305.293 400.131 304.108C400.131 303.183 399.543 302.612 398.342 302.335L397.302 302.097C396.582 301.926 396.271 301.683 396.275 301.24C396.271 300.737 396.816 300.379 397.54 300.379C398.333 300.379 398.7 300.818 398.849 301.257L400.004 301.053ZM404.289 306.132C406.135 306.132 407.341 304.781 407.341 302.757C407.341 300.72 406.135 299.369 404.289 299.369C402.444 299.369 401.238 300.72 401.238 302.757C401.238 304.781 402.444 306.132 404.289 306.132ZM404.294 305.062C403.088 305.062 402.525 304.01 402.525 302.753C402.525 301.5 403.088 300.435 404.294 300.435C405.491 300.435 406.054 301.5 406.054 302.753C406.054 304.01 405.491 305.062 404.294 305.062ZM410.037 302.114C410.037 301.07 410.676 300.473 411.562 300.473C412.428 300.473 412.952 301.04 412.952 301.99V306H414.226V301.837C414.226 300.217 413.335 299.369 411.997 299.369C411.013 299.369 410.369 299.825 410.067 300.52H409.986V299.455H408.763V306H410.037V302.114Z" fill="#943CFF"/>
</svg>
