<svg width="528" height="528" viewBox="0 0 528 528" fill="none" xmlns="http://www.w3.org/2000/svg">
<rect width="528" height="528" rx="24" fill="#171717"/>
<path d="M158.895 94.7543C158.455 93.0568 157.127 91.9489 154.769 91.9489C152.304 91.9489 150.557 93.2486 150.557 95.1804C150.557 96.7287 151.495 97.7585 153.54 98.2131L155.387 98.6179C156.438 98.8523 156.928 99.321 156.928 100.003C156.928 100.848 156.026 101.509 154.634 101.509C153.363 101.509 152.546 100.962 152.29 99.8892L150.238 100.202C150.593 102.134 152.198 103.22 154.648 103.22C157.283 103.22 159.108 101.821 159.108 99.8466C159.108 98.3054 158.128 97.3537 156.125 96.892L154.392 96.4943C153.192 96.2102 152.674 95.8054 152.681 95.0668C152.674 94.2287 153.583 93.6321 154.79 93.6321C156.111 93.6321 156.722 94.3636 156.971 95.0952L158.895 94.7543ZM166.536 92.0909H164.298V89.4773H162.175V92.0909H160.577V93.7955H162.175V100.237C162.168 102.219 163.68 103.178 165.357 103.142C166.031 103.135 166.486 103.007 166.734 102.915L166.351 101.161C166.209 101.189 165.946 101.253 165.605 101.253C164.916 101.253 164.298 101.026 164.298 99.7969V93.7955H166.536V92.0909ZM173.469 103.22C175.848 103.22 177.532 102.048 178.015 100.273L176.005 99.9105C175.621 100.94 174.698 101.466 173.49 101.466C171.672 101.466 170.451 100.287 170.394 98.1847H178.15V97.4318C178.15 93.4901 175.792 91.9489 173.32 91.9489C170.28 91.9489 168.277 94.2642 168.277 97.6165C168.277 101.004 170.252 103.22 173.469 103.22ZM170.401 96.5938C170.486 95.0455 171.608 93.7031 173.334 93.7031C174.982 93.7031 176.061 94.9247 176.069 96.5938H170.401ZM189.506 92.0909H187.226L184.471 100.486H184.357L181.594 92.0909H179.314L183.277 103H185.55L189.506 92.0909ZM195.813 103.22C198.192 103.22 199.875 102.048 200.358 100.273L198.348 99.9105C197.965 100.94 197.042 101.466 195.834 101.466C194.016 101.466 192.794 100.287 192.738 98.1847H200.493V97.4318C200.493 93.4901 198.135 91.9489 195.664 91.9489C192.624 91.9489 190.621 94.2642 190.621 97.6165C190.621 101.004 192.596 103.22 195.813 103.22ZM192.745 96.5938C192.83 95.0455 193.952 93.7031 195.678 93.7031C197.326 93.7031 198.405 94.9247 198.412 96.5938H192.745ZM209.277 95.9332H202.828V97.7727H209.277V95.9332ZM212.107 92.0909V103.696C212.107 104.705 211.688 105.259 210.68 105.259H210.339V107.084C210.488 107.091 210.623 107.091 210.772 107.091C213.031 107.091 214.231 105.898 214.231 103.71V92.0909H212.107ZM213.158 90.4077C213.89 90.4077 214.501 89.8395 214.501 89.1435C214.501 88.4474 213.89 87.8722 213.158 87.8722C212.42 87.8722 211.816 88.4474 211.816 89.1435C211.816 89.8395 212.42 90.4077 213.158 90.4077ZM221.683 103.22C224.758 103.22 226.768 100.969 226.768 97.5952C226.768 94.2003 224.758 91.9489 221.683 91.9489C218.608 91.9489 216.598 94.2003 216.598 97.5952C216.598 100.969 218.608 103.22 221.683 103.22ZM221.69 101.438C219.68 101.438 218.743 99.6832 218.743 97.5881C218.743 95.5 219.68 93.7244 221.69 93.7244C223.686 93.7244 224.623 95.5 224.623 97.5881C224.623 99.6832 223.686 101.438 221.69 101.438ZM229.309 103H231.383V101.303H231.56C231.944 101.999 232.725 103.213 234.714 103.213C237.356 103.213 239.273 101.097 239.273 97.5668C239.273 94.0298 237.327 91.9489 234.692 91.9489C232.668 91.9489 231.937 93.1847 231.56 93.8594H231.433V88.4545H229.309V103ZM231.39 97.5455C231.39 95.2656 232.384 93.7528 234.238 93.7528C236.163 93.7528 237.129 95.3793 237.129 97.5455C237.129 99.733 236.134 101.402 234.238 101.402C232.413 101.402 231.39 99.8395 231.39 97.5455ZM249.833 94.7543C249.392 93.0568 248.064 91.9489 245.706 91.9489C243.242 91.9489 241.495 93.2486 241.495 95.1804C241.495 96.7287 242.432 97.7585 244.478 98.2131L246.324 98.6179C247.375 98.8523 247.865 99.321 247.865 100.003C247.865 100.848 246.963 101.509 245.571 101.509C244.3 101.509 243.483 100.962 243.228 99.8892L241.175 100.202C241.53 102.134 243.135 103.22 245.586 103.22C248.221 103.22 250.046 101.821 250.046 99.8466C250.046 98.3054 249.066 97.3537 247.063 96.892L245.33 96.4943C244.13 96.2102 243.611 95.8054 243.618 95.0668C243.611 94.2287 244.52 93.6321 245.728 93.6321C247.049 93.6321 247.659 94.3636 247.908 95.0952L249.833 94.7543ZM258.808 95.9332H252.359V97.7727H258.808V95.9332ZM269.813 94.7543C269.373 93.0568 268.045 91.9489 265.687 91.9489C263.222 91.9489 261.475 93.2486 261.475 95.1804C261.475 96.7287 262.413 97.7585 264.458 98.2131L266.305 98.6179C267.356 98.8523 267.846 99.321 267.846 100.003C267.846 100.848 266.944 101.509 265.552 101.509C264.281 101.509 263.464 100.962 263.208 99.8892L261.156 100.202C261.511 102.134 263.116 103.22 265.566 103.22C268.201 103.22 270.026 101.821 270.026 99.8466C270.026 98.3054 269.046 97.3537 267.043 96.892L265.31 96.4943C264.11 96.2102 263.592 95.8054 263.599 95.0668C263.592 94.2287 264.501 93.6321 265.708 93.6321C267.029 93.6321 267.64 94.3636 267.888 95.0952L269.813 94.7543ZM272.361 107.091H274.485V101.303H274.613C274.996 101.999 275.777 103.213 277.766 103.213C280.408 103.213 282.326 101.097 282.326 97.5668C282.326 94.0298 280.38 91.9489 277.745 91.9489C275.721 91.9489 274.989 93.1847 274.613 93.8594H274.435V92.0909H272.361V107.091ZM274.442 97.5455C274.442 95.2656 275.436 93.7528 277.29 93.7528C279.215 93.7528 280.181 95.3793 280.181 97.5455C280.181 99.733 279.186 101.402 277.29 101.402C275.465 101.402 274.442 99.8395 274.442 97.5455ZM289.407 103.22C291.786 103.22 293.469 102.048 293.952 100.273L291.942 99.9105C291.559 100.94 290.635 101.466 289.428 101.466C287.61 101.466 286.388 100.287 286.331 98.1847H294.087V97.4318C294.087 93.4901 291.729 91.9489 289.257 91.9489C286.218 91.9489 284.215 94.2642 284.215 97.6165C284.215 101.004 286.189 103.22 289.407 103.22ZM286.338 96.5938C286.424 95.0455 287.546 93.7031 289.272 93.7031C290.919 93.7031 291.999 94.9247 292.006 96.5938H286.338ZM301.145 103.22C303.524 103.22 305.207 102.048 305.69 100.273L303.68 99.9105C303.297 100.94 302.374 101.466 301.166 101.466C299.348 101.466 298.126 100.287 298.07 98.1847H305.825V97.4318C305.825 93.4901 303.467 91.9489 300.996 91.9489C297.956 91.9489 295.953 94.2642 295.953 97.6165C295.953 101.004 297.928 103.22 301.145 103.22ZM298.077 96.5938C298.162 95.0455 299.284 93.7031 301.01 93.7031C302.658 93.7031 303.737 94.9247 303.744 96.5938H298.077ZM312.777 103.22C315.355 103.22 317.024 101.672 317.258 99.5483H315.191C314.922 100.727 314.005 101.423 312.791 101.423C310.994 101.423 309.836 99.9247 309.836 97.5455C309.836 95.2088 311.015 93.7386 312.791 93.7386C314.14 93.7386 314.964 94.5909 315.191 95.6136H317.258C317.031 93.4119 315.234 91.9489 312.755 91.9489C309.68 91.9489 307.691 94.2642 307.691 97.5952C307.691 100.884 309.609 103.22 312.777 103.22ZM321.653 96.5227C321.653 94.7827 322.754 93.7884 324.266 93.7884C325.729 93.7884 326.603 94.7188 326.603 96.3168V103H328.727V96.0611C328.727 93.3409 327.235 91.9489 324.991 91.9489C323.293 91.9489 322.271 92.6875 321.759 93.8665H321.624V88.4545H319.529V103H321.653V96.5227ZM332.96 103.135C333.734 103.135 334.38 102.503 334.38 101.714C334.38 100.94 333.734 100.301 332.96 100.301C332.178 100.301 331.539 100.94 331.539 101.714C331.539 102.503 332.178 103.135 332.96 103.135ZM337.224 103H339.348V96.2741C339.348 94.804 340.378 93.7812 341.585 93.7812C342.764 93.7812 343.581 94.5625 343.581 95.7486V103H345.697V96.0469C345.697 94.733 346.5 93.7812 347.885 93.7812C349.007 93.7812 349.93 94.4062 349.93 95.8835V103H352.054V95.6847C352.054 93.1918 350.662 91.9489 348.688 91.9489C347.118 91.9489 345.939 92.7017 345.413 93.8665H345.3C344.824 92.6733 343.822 91.9489 342.366 91.9489C340.925 91.9489 339.852 92.6662 339.398 93.8665H339.263V92.0909H337.224V103ZM354.9 107.091H357.024V101.303H357.152C357.535 101.999 358.316 103.213 360.305 103.213C362.947 103.213 364.865 101.097 364.865 97.5668C364.865 94.0298 362.919 91.9489 360.284 91.9489C358.26 91.9489 357.528 93.1847 357.152 93.8594H356.974V92.0909H354.9V107.091ZM356.981 97.5455C356.981 95.2656 357.975 93.7528 359.829 93.7528C361.754 93.7528 362.72 95.3793 362.72 97.5455C362.72 99.733 361.725 101.402 359.829 101.402C358.004 101.402 356.981 99.8395 356.981 97.5455ZM372.279 103.199C375.248 103.199 377.429 101.423 377.422 99.0085C377.429 97.169 376.314 95.848 374.382 95.5497V95.4361C375.902 95.0455 376.889 93.8523 376.882 92.2188C376.889 90.081 375.135 88.2557 372.336 88.2557C369.666 88.2557 367.521 89.8679 367.45 92.233H369.574C369.623 90.8977 370.88 90.0881 372.308 90.0881C373.792 90.0881 374.765 90.9901 374.758 92.3324C374.765 93.7386 373.636 94.6619 372.024 94.6619H370.795V96.4517H372.024C374.041 96.4517 375.206 97.4744 375.206 98.9375C375.206 100.351 373.977 101.31 372.265 101.31C370.689 101.31 369.46 100.5 369.375 99.2074H367.145C367.237 101.58 369.339 103.199 372.279 103.199Z" fill="#D0A5D4"/>
<rect x="40.5" y="168.5" width="447" height="183" rx="7.5" fill="#1D1D1D"/>
<line x1="58" y1="186" x2="58" y2="334" stroke="#404040" stroke-width="4" stroke-linecap="round"/>
<path d="M92.6307 196.455C92.6307 192.312 90.2017 189.73 86.8523 189.73C83.5028 189.73 81.0739 192.312 81.0739 196.455C81.0739 200.597 83.5028 203.179 86.8523 203.179C90.2017 203.179 92.6307 200.597 92.6307 196.455ZM91.0966 196.455C91.0966 199.855 89.2301 201.696 86.8523 201.696C84.4744 201.696 82.608 199.855 82.608 196.455C82.608 193.054 84.4744 191.213 86.8523 191.213C89.2301 191.213 91.0966 193.054 91.0966 196.455ZM96.6001 197.094C96.6001 195.381 97.6612 194.409 99.1058 194.409C100.506 194.409 101.356 195.323 101.356 196.864V203H102.864V196.761C102.864 194.256 101.528 193.054 99.5405 193.054C98.0575 193.054 97.1371 193.719 96.6768 194.716H96.549V193.182H95.0916V203H96.6001V197.094ZM114.953 193.182H112.857V190.83H111.348V193.182H109.865V194.46H111.348V200.597C111.348 202.31 112.729 203.128 114.007 203.128C114.57 203.128 114.928 203.026 115.132 202.949L114.825 201.594C114.698 201.619 114.493 201.67 114.161 201.67C113.496 201.67 112.857 201.466 112.857 200.188V194.46H114.953V193.182ZM118.942 197.094C118.942 195.381 120.035 194.409 121.524 194.409C122.943 194.409 123.8 195.304 123.8 196.864V203H125.308V196.761C125.308 194.237 123.966 193.054 121.959 193.054C120.412 193.054 119.53 193.7 119.07 194.716H118.942V189.909H117.433V203H118.942V197.094ZM132.185 203.205C134.179 203.205 135.636 202.207 136.097 200.724L134.639 200.315C134.256 201.338 133.367 201.849 132.185 201.849C130.414 201.849 129.193 200.705 129.123 198.602H136.25V197.963C136.25 194.307 134.077 193.054 132.031 193.054C129.372 193.054 127.608 195.151 127.608 198.168C127.608 201.185 129.347 203.205 132.185 203.205ZM129.123 197.298C129.225 195.771 130.305 194.409 132.031 194.409C133.668 194.409 134.716 195.636 134.716 197.298H129.123ZM143.812 203H145.269V201.491H145.448C145.781 202.028 146.42 203.205 148.312 203.205C150.766 203.205 152.479 201.236 152.479 198.116C152.479 195.023 150.766 193.054 148.286 193.054C146.369 193.054 145.781 194.23 145.448 194.741H145.32V189.909H143.812V203ZM145.295 198.091C145.295 195.892 146.266 194.409 148.107 194.409C150.025 194.409 150.971 196.02 150.971 198.091C150.971 200.188 149.999 201.849 148.107 201.849C146.292 201.849 145.295 200.315 145.295 198.091ZM157.676 203.23C159.389 203.23 160.284 202.31 160.591 201.67H160.668V203H162.176V196.531C162.176 193.412 159.798 193.054 158.545 193.054C157.062 193.054 155.375 193.565 154.608 195.355L156.04 195.866C156.372 195.151 157.158 194.384 158.597 194.384C159.984 194.384 160.668 195.119 160.668 196.378V196.429C160.668 197.158 159.926 197.094 158.136 197.324C156.315 197.56 154.327 197.963 154.327 200.213C154.327 202.131 155.81 203.23 157.676 203.23ZM157.906 201.875C156.705 201.875 155.835 201.338 155.835 200.29C155.835 199.139 156.884 198.781 158.06 198.628C158.699 198.551 160.412 198.372 160.668 198.065V199.446C160.668 200.673 159.696 201.875 157.906 201.875ZM168.918 203.205C171.091 203.205 172.523 201.875 172.779 200.136H171.27C170.989 201.21 170.094 201.849 168.918 201.849C167.128 201.849 165.978 200.366 165.978 198.091C165.978 195.866 167.154 194.409 168.918 194.409C170.248 194.409 171.04 195.227 171.27 196.122H172.779C172.523 194.281 170.964 193.054 168.893 193.054C166.233 193.054 164.469 195.151 164.469 198.142C164.469 201.082 166.157 203.205 168.918 203.205ZM174.984 203H176.493V199.325L177.547 198.347L181.223 203H183.14L178.685 197.375L182.834 193.182H180.967L176.672 197.554H176.493V189.909H174.984V203ZM193.826 203.205C196 203.205 197.431 201.875 197.687 200.136H196.179C195.897 201.21 195.002 201.849 193.826 201.849C192.037 201.849 190.886 200.366 190.886 198.091C190.886 195.866 192.062 194.409 193.826 194.409C195.156 194.409 195.949 195.227 196.179 196.122H197.687C197.431 194.281 195.872 193.054 193.801 193.054C191.142 193.054 189.377 195.151 189.377 198.142C189.377 201.082 191.065 203.205 193.826 203.205ZM203.881 203.205C206.54 203.205 208.33 201.185 208.33 198.142C208.33 195.074 206.54 193.054 203.881 193.054C201.222 193.054 199.432 195.074 199.432 198.142C199.432 201.185 201.222 203.205 203.881 203.205ZM203.881 201.849C201.861 201.849 200.941 200.111 200.941 198.142C200.941 196.173 201.861 194.409 203.881 194.409C205.901 194.409 206.821 196.173 206.821 198.142C206.821 200.111 205.901 201.849 203.881 201.849ZM218.309 193.182H216.673L213.963 201.006H213.861L211.15 193.182H209.514L213.145 203H214.679L218.309 193.182ZM224.066 203.205C226.06 203.205 227.517 202.207 227.977 200.724L226.52 200.315C226.137 201.338 225.248 201.849 224.066 201.849C222.295 201.849 221.074 200.705 221.004 198.602H228.131V197.963C228.131 194.307 225.958 193.054 223.912 193.054C221.253 193.054 219.489 195.151 219.489 198.168C219.489 201.185 221.227 203.205 224.066 203.205ZM221.004 197.298C221.106 195.771 222.186 194.409 223.912 194.409C225.548 194.409 226.597 195.636 226.597 197.298H221.004ZM230.426 203H231.934V196.787C231.934 195.457 232.982 194.486 234.414 194.486C234.817 194.486 235.232 194.562 235.335 194.588V193.054C235.162 193.041 234.766 193.028 234.542 193.028C233.366 193.028 232.343 193.693 231.985 194.665H231.883V193.182H230.426V203ZM246.174 203.205C248.833 203.205 250.623 201.185 250.623 198.142C250.623 195.074 248.833 193.054 246.174 193.054C243.515 193.054 241.725 195.074 241.725 198.142C241.725 201.185 243.515 203.205 246.174 203.205ZM246.174 201.849C244.154 201.849 243.234 200.111 243.234 198.142C243.234 196.173 244.154 194.409 246.174 194.409C248.194 194.409 249.114 196.173 249.114 198.142C249.114 200.111 248.194 201.849 246.174 201.849ZM257.298 193.182H255.099V192.185C255.099 191.213 255.508 190.702 256.505 190.702C256.94 190.702 257.195 190.804 257.349 190.855L257.784 189.551C257.553 189.449 257.093 189.295 256.352 189.295C254.945 189.295 253.59 190.139 253.59 191.827V193.182H252.005V194.46H253.59V203H255.099V194.46H257.298V193.182ZM268.744 193.182H266.648V190.83H265.139V193.182H263.656V194.46H265.139V200.597C265.139 202.31 266.52 203.128 267.798 203.128C268.361 203.128 268.719 203.026 268.923 202.949L268.616 201.594C268.489 201.619 268.284 201.67 267.952 201.67C267.287 201.67 266.648 201.466 266.648 200.188V194.46H268.744V193.182ZM272.733 197.094C272.733 195.381 273.826 194.409 275.315 194.409C276.734 194.409 277.591 195.304 277.591 196.864V203H279.099V196.761C279.099 194.237 277.757 193.054 275.75 193.054C274.203 193.054 273.321 193.7 272.861 194.716H272.733V189.909H271.224V203H272.733V197.094ZM285.976 203.205C287.97 203.205 289.427 202.207 289.888 200.724L288.43 200.315C288.047 201.338 287.158 201.849 285.976 201.849C284.205 201.849 282.984 200.705 282.914 198.602H290.041V197.963C290.041 194.307 287.868 193.054 285.822 193.054C283.163 193.054 281.399 195.151 281.399 198.168C281.399 201.185 283.138 203.205 285.976 203.205ZM282.914 197.298C283.016 195.771 284.096 194.409 285.822 194.409C287.459 194.409 288.507 195.636 288.507 197.298H282.914ZM292.336 203H293.844V193.182H292.336V203ZM293.103 191.545C293.691 191.545 294.177 191.085 294.177 190.523C294.177 189.96 293.691 189.5 293.103 189.5C292.515 189.5 292.029 189.96 292.029 190.523C292.029 191.085 292.515 191.545 293.103 191.545ZM296.607 203H298.116V196.787C298.116 195.457 299.164 194.486 300.596 194.486C300.999 194.486 301.414 194.562 301.516 194.588V193.054C301.344 193.041 300.947 193.028 300.724 193.028C299.548 193.028 298.525 193.693 298.167 194.665H298.065V193.182H296.607V203ZM312.739 193.182H310.54V192.185C310.54 191.213 310.949 190.702 311.947 190.702C312.381 190.702 312.637 190.804 312.79 190.855L313.225 189.551C312.995 189.449 312.535 189.295 311.793 189.295C310.387 189.295 309.032 190.139 309.032 191.827V193.182H307.447V194.46H309.032V203H310.54V194.46H312.739V193.182ZM314.853 203H316.362V193.182H314.853V203ZM315.62 191.545C316.208 191.545 316.694 191.085 316.694 190.523C316.694 189.96 316.208 189.5 315.62 189.5C315.032 189.5 314.547 189.96 314.547 190.523C314.547 191.085 315.032 191.545 315.62 191.545ZM320.633 197.094C320.633 195.381 321.694 194.409 323.139 194.409C324.539 194.409 325.389 195.323 325.389 196.864V203H326.898V196.761C326.898 194.256 325.562 193.054 323.574 193.054C322.091 193.054 321.17 193.719 320.71 194.716H320.582V193.182H319.125V203H320.633V197.094ZM332.543 203.23C334.256 203.23 335.151 202.31 335.458 201.67H335.535V203H337.043V196.531C337.043 193.412 334.665 193.054 333.413 193.054C331.93 193.054 330.242 193.565 329.475 195.355L330.907 195.866C331.239 195.151 332.026 194.384 333.464 194.384C334.851 194.384 335.535 195.119 335.535 196.378V196.429C335.535 197.158 334.793 197.094 333.004 197.324C331.182 197.56 329.194 197.963 329.194 200.213C329.194 202.131 330.677 203.23 332.543 203.23ZM332.773 201.875C331.572 201.875 330.702 201.338 330.702 200.29C330.702 199.139 331.751 198.781 332.927 198.628C333.566 198.551 335.279 198.372 335.535 198.065V199.446C335.535 200.673 334.563 201.875 332.773 201.875ZM341.305 189.909H339.797V203H341.305V189.909ZM349.131 203H350.639V193.182H349.131V203ZM349.898 191.545C350.486 191.545 350.972 191.085 350.972 190.523C350.972 189.96 350.486 189.5 349.898 189.5C349.31 189.5 348.824 189.96 348.824 190.523C348.824 191.085 349.31 191.545 349.898 191.545ZM360.357 195.381C359.884 193.987 358.823 193.054 356.879 193.054C354.808 193.054 353.274 194.23 353.274 195.892C353.274 197.247 354.08 198.155 355.882 198.577L357.519 198.96C358.509 199.19 358.976 199.663 358.976 200.341C358.976 201.185 358.081 201.875 356.675 201.875C355.441 201.875 354.668 201.344 354.399 200.29L352.968 200.648C353.319 202.316 354.693 203.205 356.7 203.205C358.982 203.205 360.536 201.958 360.536 200.264C360.536 198.896 359.679 198.033 357.928 197.605L356.47 197.247C355.307 196.96 354.783 196.57 354.783 195.815C354.783 194.972 355.678 194.358 356.879 194.358C358.196 194.358 358.74 195.087 359.002 195.764L360.357 195.381ZM369.761 195.381C369.288 193.987 368.227 193.054 366.284 193.054C364.213 193.054 362.679 194.23 362.679 195.892C362.679 197.247 363.484 198.155 365.287 198.577L366.923 198.96C367.914 199.19 368.38 199.663 368.38 200.341C368.38 201.185 367.485 201.875 366.079 201.875C364.846 201.875 364.072 201.344 363.804 200.29L362.372 200.648C362.723 202.316 364.098 203.205 366.105 203.205C368.387 203.205 369.94 201.958 369.94 200.264C369.94 198.896 369.083 198.033 367.332 197.605L365.875 197.247C364.711 196.96 364.187 196.57 364.187 195.815C364.187 194.972 365.082 194.358 366.284 194.358C367.6 194.358 368.144 195.087 368.406 195.764L369.761 195.381ZM378.398 198.986C378.398 200.827 376.992 201.67 375.867 201.67C374.614 201.67 373.719 200.75 373.719 199.318V193.182H372.211V199.42C372.211 201.926 373.54 203.128 375.381 203.128C376.864 203.128 377.836 202.335 378.296 201.338H378.398V203H379.907V193.182H378.398V198.986ZM386.786 203.205C388.781 203.205 390.238 202.207 390.698 200.724L389.241 200.315C388.857 201.338 387.969 201.849 386.786 201.849C385.016 201.849 383.795 200.705 383.724 198.602H390.852V197.963C390.852 194.307 388.678 193.054 386.633 193.054C383.974 193.054 382.21 195.151 382.21 198.168C382.21 201.185 383.948 203.205 386.786 203.205ZM383.724 197.298C383.827 195.771 384.907 194.409 386.633 194.409C388.269 194.409 389.317 195.636 389.317 197.298H383.724ZM400.433 203H401.916L404.064 195.457H404.217L406.365 203H407.848L410.839 193.182H409.254L407.132 200.673H407.03L404.959 193.182H403.348L401.251 200.699H401.149L399.027 193.182H397.442L400.433 203ZM415.723 203.23C417.436 203.23 418.331 202.31 418.638 201.67H418.714V203H420.223V196.531C420.223 193.412 417.845 193.054 416.592 193.054C415.109 193.054 413.422 193.565 412.655 195.355L414.087 195.866C414.419 195.151 415.205 194.384 416.643 194.384C418.031 194.384 418.714 195.119 418.714 196.378V196.429C418.714 197.158 417.973 197.094 416.183 197.324C414.362 197.56 412.374 197.963 412.374 200.213C412.374 202.131 413.857 203.23 415.723 203.23ZM415.953 201.875C414.751 201.875 413.882 201.338 413.882 200.29C413.882 199.139 414.93 198.781 416.107 198.628C416.746 198.551 418.459 198.372 418.714 198.065V199.446C418.714 200.673 417.743 201.875 415.953 201.875ZM429.931 195.381C429.458 193.987 428.397 193.054 426.454 193.054C424.383 193.054 422.849 194.23 422.849 195.892C422.849 197.247 423.654 198.155 425.456 198.577L427.093 198.96C428.084 199.19 428.55 199.663 428.55 200.341C428.55 201.185 427.655 201.875 426.249 201.875C425.015 201.875 424.242 201.344 423.974 200.29L422.542 200.648C422.893 202.316 424.268 203.205 426.275 203.205C428.557 203.205 430.11 201.958 430.11 200.264C430.11 198.896 429.253 198.033 427.502 197.605L426.045 197.247C424.881 196.96 424.357 196.57 424.357 195.815C424.357 194.972 425.252 194.358 426.454 194.358C427.77 194.358 428.314 195.087 428.576 195.764L429.931 195.381ZM440.332 203.23C442.045 203.23 442.94 202.31 443.247 201.67H443.324V203H444.832V196.531C444.832 193.412 442.455 193.054 441.202 193.054C439.719 193.054 438.031 193.565 437.264 195.355L438.696 195.866C439.028 195.151 439.815 194.384 441.253 194.384C442.64 194.384 443.324 195.119 443.324 196.378V196.429C443.324 197.158 442.582 197.094 440.793 197.324C438.971 197.56 436.983 197.963 436.983 200.213C436.983 202.131 438.466 203.23 440.332 203.23ZM440.562 201.875C439.361 201.875 438.491 201.338 438.491 200.29C438.491 199.139 439.54 198.781 440.716 198.628C441.355 198.551 443.068 198.372 443.324 198.065V199.446C443.324 200.673 442.352 201.875 440.562 201.875ZM81.3807 238.682H82.8892V233.491H83.017C83.3494 234.028 83.9886 235.205 85.8807 235.205C88.3352 235.205 90.0483 233.236 90.0483 230.116C90.0483 227.023 88.3352 225.054 85.8551 225.054C83.9375 225.054 83.3494 226.23 83.017 226.741H82.8381V225.182H81.3807V238.682ZM82.8636 230.091C82.8636 227.892 83.8352 226.409 85.6761 226.409C87.5938 226.409 88.5398 228.02 88.5398 230.091C88.5398 232.188 87.5682 233.849 85.6761 233.849C83.8608 233.849 82.8636 232.315 82.8636 230.091ZM93.858 229.094C93.858 227.381 94.951 226.409 96.4403 226.409C97.8594 226.409 98.7159 227.304 98.7159 228.864V235H100.224V228.761C100.224 226.237 98.8821 225.054 96.875 225.054C95.3281 225.054 94.446 225.7 93.9858 226.716H93.858V221.909H92.3494V235H93.858V229.094ZM106.973 235.205C109.632 235.205 111.422 233.185 111.422 230.142C111.422 227.074 109.632 225.054 106.973 225.054C104.314 225.054 102.524 227.074 102.524 230.142C102.524 233.185 104.314 235.205 106.973 235.205ZM106.973 233.849C104.953 233.849 104.032 232.111 104.032 230.142C104.032 228.173 104.953 226.409 106.973 226.409C108.993 226.409 109.913 228.173 109.913 230.142C109.913 232.111 108.993 233.849 106.973 233.849ZM117.994 225.182H115.898V222.83H114.389V225.182H112.906V226.46H114.389V232.597C114.389 234.31 115.77 235.128 117.048 235.128C117.611 235.128 117.969 235.026 118.173 234.949L117.866 233.594C117.739 233.619 117.534 233.67 117.202 233.67C116.537 233.67 115.898 233.466 115.898 232.188V226.46H117.994V225.182ZM124.147 235.205C126.806 235.205 128.596 233.185 128.596 230.142C128.596 227.074 126.806 225.054 124.147 225.054C121.488 225.054 119.698 227.074 119.698 230.142C119.698 233.185 121.488 235.205 124.147 235.205ZM124.147 233.849C122.127 233.849 121.206 232.111 121.206 230.142C121.206 228.173 122.127 226.409 124.147 226.409C126.167 226.409 127.087 228.173 127.087 230.142C127.087 232.111 126.167 233.849 124.147 233.849ZM134.861 238.886C137.214 238.886 139.106 237.812 139.106 235.281V225.182H137.648V226.741H137.495C137.162 226.23 136.549 225.054 134.631 225.054C132.151 225.054 130.438 227.023 130.438 230.04C130.438 233.108 132.228 234.847 134.606 234.847C136.523 234.847 137.137 233.722 137.469 233.185H137.597V235.179C137.597 236.815 136.447 237.557 134.861 237.557C133.078 237.557 132.452 236.617 132.049 236.074L130.847 236.918C131.461 237.947 132.669 238.886 134.861 238.886ZM134.81 233.491C132.918 233.491 131.947 232.06 131.947 230.014C131.947 228.02 132.893 226.409 134.81 226.409C136.651 226.409 137.623 227.892 137.623 230.014C137.623 232.188 136.626 233.491 134.81 233.491ZM141.867 235H143.376V228.787C143.376 227.457 144.424 226.486 145.856 226.486C146.258 226.486 146.674 226.562 146.776 226.588V225.054C146.604 225.041 146.207 225.028 145.983 225.028C144.807 225.028 143.785 225.693 143.427 226.665H143.324V225.182H141.867V235ZM151.453 235.23C153.167 235.23 154.061 234.31 154.368 233.67H154.445V235H155.953V228.531C155.953 225.412 153.576 225.054 152.323 225.054C150.84 225.054 149.152 225.565 148.385 227.355L149.817 227.866C150.15 227.151 150.936 226.384 152.374 226.384C153.761 226.384 154.445 227.119 154.445 228.378V228.429C154.445 229.158 153.703 229.094 151.914 229.324C150.092 229.56 148.104 229.963 148.104 232.213C148.104 234.131 149.587 235.23 151.453 235.23ZM151.684 233.875C150.482 233.875 149.613 233.338 149.613 232.29C149.613 231.139 150.661 230.781 151.837 230.628C152.476 230.551 154.189 230.372 154.445 230.065V231.446C154.445 232.673 153.473 233.875 151.684 233.875ZM158.707 238.682H160.215V233.491H160.343C160.676 234.028 161.315 235.205 163.207 235.205C165.661 235.205 167.374 233.236 167.374 230.116C167.374 227.023 165.661 225.054 163.181 225.054C161.264 225.054 160.676 226.23 160.343 226.741H160.164V225.182H158.707V238.682ZM160.19 230.091C160.19 227.892 161.161 226.409 163.002 226.409C164.92 226.409 165.866 228.02 165.866 230.091C165.866 232.188 164.894 233.849 163.002 233.849C161.187 233.849 160.19 232.315 160.19 230.091ZM171.184 229.094C171.184 227.381 172.277 226.409 173.767 226.409C175.186 226.409 176.042 227.304 176.042 228.864V235H177.551V228.761C177.551 226.237 176.208 225.054 174.201 225.054C172.654 225.054 171.772 225.7 171.312 226.716H171.184V221.909H169.676V235H171.184V229.094ZM189.362 235.205C192.021 235.205 193.81 233.185 193.81 230.142C193.81 227.074 192.021 225.054 189.362 225.054C186.702 225.054 184.913 227.074 184.913 230.142C184.913 233.185 186.702 235.205 189.362 235.205ZM189.362 233.849C187.342 233.849 186.421 232.111 186.421 230.142C186.421 228.173 187.342 226.409 189.362 226.409C191.381 226.409 192.302 228.173 192.302 230.142C192.302 232.111 191.381 233.849 189.362 233.849ZM200.485 225.182H198.286V224.185C198.286 223.213 198.695 222.702 199.693 222.702C200.127 222.702 200.383 222.804 200.536 222.855L200.971 221.551C200.741 221.449 200.281 221.295 199.539 221.295C198.133 221.295 196.778 222.139 196.778 223.827V225.182H195.193V226.46H196.778V235H198.286V226.46H200.485V225.182ZM210.551 235.23C212.264 235.23 213.159 234.31 213.466 233.67H213.543V235H215.051V228.531C215.051 225.412 212.673 225.054 211.42 225.054C209.938 225.054 208.25 225.565 207.483 227.355L208.915 227.866C209.247 227.151 210.033 226.384 211.472 226.384C212.859 226.384 213.543 227.119 213.543 228.378V228.429C213.543 229.158 212.801 229.094 211.011 229.324C209.19 229.56 207.202 229.963 207.202 232.213C207.202 234.131 208.685 235.23 210.551 235.23ZM210.781 233.875C209.58 233.875 208.71 233.338 208.71 232.29C208.71 231.139 209.759 230.781 210.935 230.628C211.574 230.551 213.287 230.372 213.543 230.065V231.446C213.543 232.673 212.571 233.875 210.781 233.875ZM219.313 229.094C219.313 227.381 220.374 226.409 221.819 226.409C223.219 226.409 224.069 227.323 224.069 228.864V235H225.577V228.761C225.577 226.256 224.241 225.054 222.253 225.054C220.77 225.054 219.85 225.719 219.39 226.716H219.262V225.182H217.805V235H219.313V229.094ZM237.513 235.205C239.507 235.205 240.964 234.207 241.425 232.724L239.967 232.315C239.584 233.338 238.695 233.849 237.513 233.849C235.742 233.849 234.521 232.705 234.451 230.602H241.578V229.963C241.578 226.307 239.405 225.054 237.359 225.054C234.7 225.054 232.936 227.151 232.936 230.168C232.936 233.185 234.675 235.205 237.513 235.205ZM234.451 229.298C234.553 227.771 235.634 226.409 237.359 226.409C238.996 226.409 240.044 227.636 240.044 229.298H234.451ZM246.762 235.23C248.475 235.23 249.37 234.31 249.677 233.67H249.754V235H251.262V228.531C251.262 225.412 248.884 225.054 247.631 225.054C246.148 225.054 244.461 225.565 243.694 227.355L245.126 227.866C245.458 227.151 246.244 226.384 247.683 226.384C249.07 226.384 249.754 227.119 249.754 228.378V228.429C249.754 229.158 249.012 229.094 247.222 229.324C245.401 229.56 243.413 229.963 243.413 232.213C243.413 234.131 244.896 235.23 246.762 235.23ZM246.992 233.875C245.79 233.875 244.921 233.338 244.921 232.29C244.921 231.139 245.969 230.781 247.146 230.628C247.785 230.551 249.498 230.372 249.754 230.065V231.446C249.754 232.673 248.782 233.875 246.992 233.875ZM254.015 235H255.524V228.787C255.524 227.457 256.572 226.486 258.004 226.486C258.407 226.486 258.822 226.562 258.925 226.588V225.054C258.752 225.041 258.356 225.028 258.132 225.028C256.956 225.028 255.933 225.693 255.575 226.665H255.473V225.182H254.015V235ZM262.221 221.909H260.713V235H262.221V221.909ZM265.956 238.682C267.317 238.682 268.276 237.96 268.845 236.432L273.013 225.182H271.376L268.666 233.006H268.564L265.854 225.182H264.217L267.848 235.051L267.567 235.818C267.017 237.314 266.339 237.455 265.24 237.173L264.856 238.503C265.01 238.58 265.444 238.682 265.956 238.682ZM280.066 235H281.575V228.864C281.575 227.425 282.623 226.409 283.799 226.409C284.943 226.409 285.742 227.157 285.742 228.276V235H287.276V228.608C287.276 227.342 288.069 226.409 289.45 226.409C290.524 226.409 291.444 226.978 291.444 228.429V235H292.953V228.429C292.953 226.121 291.713 225.054 289.961 225.054C288.555 225.054 287.526 225.7 287.021 226.716H286.919C286.433 225.668 285.576 225.054 284.285 225.054C283.007 225.054 282.061 225.668 281.651 226.716H281.524V225.182H280.066V235ZM299.699 235.205C302.358 235.205 304.148 233.185 304.148 230.142C304.148 227.074 302.358 225.054 299.699 225.054C297.04 225.054 295.251 227.074 295.251 230.142C295.251 233.185 297.04 235.205 299.699 235.205ZM299.699 233.849C297.68 233.849 296.759 232.111 296.759 230.142C296.759 228.173 297.68 226.409 299.699 226.409C301.719 226.409 302.64 228.173 302.64 230.142C302.64 232.111 301.719 233.849 299.699 233.849ZM306.451 235H307.96V228.787C307.96 227.457 309.008 226.486 310.44 226.486C310.842 226.486 311.258 226.562 311.36 226.588V225.054C311.188 225.041 310.791 225.028 310.567 225.028C309.391 225.028 308.369 225.693 308.011 226.665H307.908V225.182H306.451V235ZM314.657 229.094C314.657 227.381 315.718 226.409 317.162 226.409C318.562 226.409 319.412 227.323 319.412 228.864V235H320.921V228.761C320.921 226.256 319.585 225.054 317.597 225.054C316.114 225.054 315.194 225.719 314.733 226.716H314.606V225.182H313.148V235H314.657V229.094ZM323.678 235H325.186V225.182H323.678V235ZM324.445 223.545C325.033 223.545 325.518 223.085 325.518 222.523C325.518 221.96 325.033 221.5 324.445 221.5C323.857 221.5 323.371 221.96 323.371 222.523C323.371 223.085 323.857 223.545 324.445 223.545ZM329.458 229.094C329.458 227.381 330.519 226.409 331.963 226.409C333.363 226.409 334.213 227.323 334.213 228.864V235H335.722V228.761C335.722 226.256 334.386 225.054 332.398 225.054C330.915 225.054 329.994 225.719 329.534 226.716H329.406V225.182H327.949V235H329.458V229.094ZM342.441 238.886C344.794 238.886 346.686 237.812 346.686 235.281V225.182H345.228V226.741H345.075C344.743 226.23 344.129 225.054 342.211 225.054C339.731 225.054 338.018 227.023 338.018 230.04C338.018 233.108 339.808 234.847 342.186 234.847C344.103 234.847 344.717 233.722 345.049 233.185H345.177V235.179C345.177 236.815 344.027 237.557 342.441 237.557C340.658 237.557 340.032 236.617 339.629 236.074L338.427 236.918C339.041 237.947 340.249 238.886 342.441 238.886ZM342.39 233.491C340.498 233.491 339.527 232.06 339.527 230.014C339.527 228.02 340.473 226.409 342.39 226.409C344.231 226.409 345.203 227.892 345.203 230.014C345.203 232.188 344.206 233.491 342.39 233.491ZM358.498 235.205C360.672 235.205 362.103 233.875 362.359 232.136H360.85C360.569 233.21 359.674 233.849 358.498 233.849C356.708 233.849 355.558 232.366 355.558 230.091C355.558 227.866 356.734 226.409 358.498 226.409C359.828 226.409 360.62 227.227 360.85 228.122H362.359C362.103 226.281 360.544 225.054 358.473 225.054C355.814 225.054 354.049 227.151 354.049 230.142C354.049 233.082 355.737 235.205 358.498 235.205ZM368.553 235.205C371.212 235.205 373.002 233.185 373.002 230.142C373.002 227.074 371.212 225.054 368.553 225.054C365.894 225.054 364.104 227.074 364.104 230.142C364.104 233.185 365.894 235.205 368.553 235.205ZM368.553 233.849C366.533 233.849 365.613 232.111 365.613 230.142C365.613 228.173 366.533 226.409 368.553 226.409C370.573 226.409 371.493 228.173 371.493 230.142C371.493 232.111 370.573 233.849 368.553 233.849ZM381.492 230.986C381.492 232.827 380.086 233.67 378.961 233.67C377.708 233.67 376.813 232.75 376.813 231.318V225.182H375.305V231.42C375.305 233.926 376.634 235.128 378.475 235.128C379.958 235.128 380.93 234.335 381.39 233.338H381.492V235H383.001V225.182H381.492V230.986ZM387.272 229.094C387.272 227.381 388.333 226.409 389.778 226.409C391.178 226.409 392.028 227.323 392.028 228.864V235H393.536V228.761C393.536 226.256 392.2 225.054 390.212 225.054C388.729 225.054 387.809 225.719 387.349 226.716H387.221V225.182H385.763V235H387.272V229.094ZM400.563 225.182H398.466V222.83H396.958V225.182H395.475V226.46H396.958V232.597C396.958 234.31 398.338 235.128 399.617 235.128C400.179 235.128 400.537 235.026 400.742 234.949L400.435 233.594C400.307 233.619 400.102 233.67 399.77 233.67C399.105 233.67 398.466 233.466 398.466 232.188V226.46H400.563V225.182ZM402.832 235H404.34V228.787C404.34 227.457 405.389 226.486 406.82 226.486C407.223 226.486 407.639 226.562 407.741 226.588V225.054C407.568 225.041 407.172 225.028 406.948 225.028C405.772 225.028 404.749 225.693 404.392 226.665H404.289V225.182H402.832V235ZM410.8 238.682C412.161 238.682 413.12 237.96 413.689 236.432L417.856 225.182H416.22L413.51 233.006H413.407L410.697 225.182H409.061L412.692 235.051L412.41 235.818C411.861 237.314 411.183 237.455 410.084 237.173L409.7 238.503C409.854 238.58 410.288 238.682 410.8 238.682ZM81.3807 267H82.8892V260.787C82.8892 259.457 83.9375 258.486 85.3693 258.486C85.772 258.486 86.1875 258.562 86.2898 258.588V257.054C86.1172 257.041 85.7209 257.028 85.4972 257.028C84.321 257.028 83.2983 257.693 82.9403 258.665H82.8381V257.182H81.3807V267ZM91.7678 267.205C94.4268 267.205 96.2166 265.185 96.2166 262.142C96.2166 259.074 94.4268 257.054 91.7678 257.054C89.1087 257.054 87.3189 259.074 87.3189 262.142C87.3189 265.185 89.1087 267.205 91.7678 267.205ZM91.7678 265.849C89.7479 265.849 88.8274 264.111 88.8274 262.142C88.8274 260.173 89.7479 258.409 91.7678 258.409C93.7876 258.409 94.7081 260.173 94.7081 262.142C94.7081 264.111 93.7876 265.849 91.7678 265.849ZM101.409 267.23C103.122 267.23 104.017 266.31 104.323 265.67H104.4V267H105.909V260.531C105.909 257.412 103.531 257.054 102.278 257.054C100.795 257.054 99.1074 257.565 98.3404 259.355L99.7722 259.866C100.105 259.151 100.891 258.384 102.329 258.384C103.716 258.384 104.4 259.119 104.4 260.378V260.429C104.4 261.158 103.659 261.094 101.869 261.324C100.047 261.56 98.0591 261.963 98.0591 264.213C98.0591 266.131 99.5421 267.23 101.409 267.23ZM101.639 265.875C100.437 265.875 99.5676 265.338 99.5676 264.29C99.5676 263.139 100.616 262.781 101.792 262.628C102.431 262.551 104.144 262.372 104.4 262.065V263.446C104.4 264.673 103.428 265.875 101.639 265.875ZM112.369 267.205C114.261 267.205 114.901 266.028 115.233 265.491H115.412V267H116.869V253.909H115.361V258.741H115.233C114.901 258.23 114.312 257.054 112.395 257.054C109.915 257.054 108.202 259.023 108.202 262.116C108.202 265.236 109.915 267.205 112.369 267.205ZM112.574 265.849C110.682 265.849 109.71 264.188 109.71 262.091C109.71 260.02 110.656 258.409 112.574 258.409C114.415 258.409 115.386 259.892 115.386 262.091C115.386 264.315 114.389 265.849 112.574 265.849ZM122.092 265.21H120.455L120.379 265.926C120.193 267.658 119.829 269.384 119.663 270.196H120.813C121.12 269.327 121.772 267.358 121.989 265.901L122.092 265.21ZM134.219 257.182H132.122V254.83H130.614V257.182H129.131V258.46H130.614V264.597C130.614 266.31 131.994 267.128 133.273 267.128C133.835 267.128 134.193 267.026 134.398 266.949L134.091 265.594C133.963 265.619 133.759 265.67 133.426 265.67C132.762 265.67 132.122 265.466 132.122 264.188V258.46H134.219V257.182ZM138.208 261.094C138.208 259.381 139.301 258.409 140.79 258.409C142.209 258.409 143.066 259.304 143.066 260.864V267H144.574V260.761C144.574 258.237 143.232 257.054 141.225 257.054C139.678 257.054 138.796 257.7 138.335 258.716H138.208V253.909H136.699V267H138.208V261.094ZM151.45 267.205C153.445 267.205 154.902 266.207 155.362 264.724L153.905 264.315C153.521 265.338 152.633 265.849 151.45 265.849C149.68 265.849 148.459 264.705 148.388 262.602H155.516V261.963C155.516 258.307 153.342 257.054 151.297 257.054C148.638 257.054 146.874 259.151 146.874 262.168C146.874 265.185 148.612 267.205 151.45 267.205ZM148.388 261.298C148.491 259.771 149.571 258.409 151.297 258.409C152.933 258.409 153.982 259.636 153.982 261.298H148.388ZM162.873 267H164.381V263.325L165.436 262.347L169.112 267H171.029L166.574 261.375L170.722 257.182H168.856L164.56 261.554H164.381V253.909H162.873V267ZM172.664 267H174.172V257.182H172.664V267ZM173.431 255.545C174.019 255.545 174.505 255.085 174.505 254.523C174.505 253.96 174.019 253.5 173.431 253.5C172.843 253.5 172.357 253.96 172.357 254.523C172.357 255.085 172.843 255.545 173.431 255.545ZM178.444 261.094C178.444 259.381 179.505 258.409 180.95 258.409C182.349 258.409 183.2 259.323 183.2 260.864V267H184.708V260.761C184.708 258.256 183.372 257.054 181.384 257.054C179.901 257.054 178.981 257.719 178.521 258.716H178.393V257.182H176.935V267H178.444V261.094ZM191.172 267.205C193.064 267.205 193.703 266.028 194.036 265.491H194.215V267H195.672V253.909H194.164V258.741H194.036C193.703 258.23 193.115 257.054 191.198 257.054C188.718 257.054 187.004 259.023 187.004 262.116C187.004 265.236 188.718 267.205 191.172 267.205ZM191.377 265.849C189.485 265.849 188.513 264.188 188.513 262.091C188.513 260.02 189.459 258.409 191.377 258.409C193.218 258.409 194.189 259.892 194.189 262.091C194.189 264.315 193.192 265.849 191.377 265.849ZM204.678 270.682C206.04 270.682 206.999 269.96 207.568 268.432L211.735 257.182H210.099L207.389 265.006H207.286L204.576 257.182H202.94L206.57 267.051L206.289 267.818C205.74 269.314 205.062 269.455 203.963 269.173L203.579 270.503C203.732 270.58 204.167 270.682 204.678 270.682ZM217.363 267.205C220.023 267.205 221.812 265.185 221.812 262.142C221.812 259.074 220.023 257.054 217.363 257.054C214.704 257.054 212.915 259.074 212.915 262.142C212.915 265.185 214.704 267.205 217.363 267.205ZM217.363 265.849C215.344 265.849 214.423 264.111 214.423 262.142C214.423 260.173 215.344 258.409 217.363 258.409C219.383 258.409 220.304 260.173 220.304 262.142C220.304 264.111 219.383 265.849 217.363 265.849ZM230.303 262.986C230.303 264.827 228.896 265.67 227.771 265.67C226.518 265.67 225.624 264.75 225.624 263.318V257.182H224.115V263.42C224.115 265.926 225.445 267.128 227.286 267.128C228.768 267.128 229.74 266.335 230.2 265.338H230.303V267H231.811V257.182H230.303V262.986ZM239.637 267H241.145V260.864C241.145 259.425 242.193 258.409 243.369 258.409C244.514 258.409 245.313 259.157 245.313 260.276V267H246.847V260.608C246.847 259.342 247.639 258.409 249.02 258.409C250.094 258.409 251.014 258.978 251.014 260.429V267H252.523V260.429C252.523 258.121 251.283 257.054 249.531 257.054C248.125 257.054 247.096 257.7 246.591 258.716H246.489C246.003 257.668 245.146 257.054 243.855 257.054C242.577 257.054 241.631 257.668 241.222 258.716H241.094V257.182H239.637V267ZM255.281 267H256.79V257.182H255.281V267ZM256.048 255.545C256.636 255.545 257.122 255.085 257.122 254.523C257.122 253.96 256.636 253.5 256.048 253.5C255.46 253.5 254.974 253.96 254.974 254.523C254.974 255.085 255.46 255.545 256.048 255.545ZM263.516 270.886C265.868 270.886 267.76 269.812 267.76 267.281V257.182H266.303V258.741H266.149C265.817 258.23 265.203 257.054 263.286 257.054C260.805 257.054 259.092 259.023 259.092 262.04C259.092 265.108 260.882 266.847 263.26 266.847C265.178 266.847 265.791 265.722 266.124 265.185H266.251V267.179C266.251 268.815 265.101 269.557 263.516 269.557C261.732 269.557 261.106 268.617 260.703 268.074L259.501 268.918C260.115 269.947 261.323 270.886 263.516 270.886ZM263.464 265.491C261.572 265.491 260.601 264.06 260.601 262.014C260.601 260.02 261.547 258.409 263.464 258.409C265.305 258.409 266.277 259.892 266.277 262.014C266.277 264.188 265.28 265.491 263.464 265.491ZM272.03 261.094C272.03 259.381 273.123 258.409 274.612 258.409C276.031 258.409 276.888 259.304 276.888 260.864V267H278.396V260.761C278.396 258.237 277.054 257.054 275.047 257.054C273.5 257.054 272.618 257.7 272.158 258.716H272.03V253.909H270.521V267H272.03V261.094ZM285.426 257.182H283.329V254.83H281.821V257.182H280.338V258.46H281.821V264.597C281.821 266.31 283.202 267.128 284.48 267.128C285.042 267.128 285.4 267.026 285.605 266.949L285.298 265.594C285.17 265.619 284.966 265.67 284.633 265.67C283.969 265.67 283.329 265.466 283.329 264.188V258.46H285.426V257.182ZM297.13 257.182H294.931V256.185C294.931 255.213 295.34 254.702 296.337 254.702C296.772 254.702 297.028 254.804 297.181 254.855L297.616 253.551C297.385 253.449 296.925 253.295 296.184 253.295C294.778 253.295 293.422 254.139 293.422 255.827V257.182H291.837V258.46H293.422V267H294.931V258.46H297.13V257.182ZM299.244 267H300.752V257.182H299.244V267ZM300.011 255.545C300.599 255.545 301.085 255.085 301.085 254.523C301.085 253.96 300.599 253.5 300.011 253.5C299.423 253.5 298.937 253.96 298.937 254.523C298.937 255.085 299.423 255.545 300.011 255.545ZM305.024 261.094C305.024 259.381 306.085 258.409 307.53 258.409C308.93 258.409 309.78 259.323 309.78 260.864V267H311.288V260.761C311.288 258.256 309.952 257.054 307.964 257.054C306.481 257.054 305.561 257.719 305.101 258.716H304.973V257.182H303.515V267H305.024V261.094ZM317.752 267.205C319.644 267.205 320.283 266.028 320.616 265.491H320.795V267H322.252V253.909H320.744V258.741H320.616C320.283 258.23 319.695 257.054 317.778 257.054C315.298 257.054 313.585 259.023 313.585 262.116C313.585 265.236 315.298 267.205 317.752 267.205ZM317.957 265.849C316.065 265.849 315.093 264.188 315.093 262.091C315.093 260.02 316.039 258.409 317.957 258.409C319.798 258.409 320.769 259.892 320.769 262.091C320.769 264.315 319.772 265.849 317.957 265.849ZM331.259 270.682C332.62 270.682 333.579 269.96 334.148 268.432L338.315 257.182H336.679L333.969 265.006H333.866L331.156 257.182H329.52L333.151 267.051L332.869 267.818C332.32 269.314 331.642 269.455 330.543 269.173L330.159 270.503C330.312 270.58 330.747 270.682 331.259 270.682ZM343.944 267.205C346.603 267.205 348.392 265.185 348.392 262.142C348.392 259.074 346.603 257.054 343.944 257.054C341.284 257.054 339.495 259.074 339.495 262.142C339.495 265.185 341.284 267.205 343.944 267.205ZM343.944 265.849C341.924 265.849 341.003 264.111 341.003 262.142C341.003 260.173 341.924 258.409 343.944 258.409C345.963 258.409 346.884 260.173 346.884 262.142C346.884 264.111 345.963 265.849 343.944 265.849ZM356.883 262.986C356.883 264.827 355.476 265.67 354.351 265.67C353.099 265.67 352.204 264.75 352.204 263.318V257.182H350.695V263.42C350.695 265.926 352.025 267.128 353.866 267.128C355.349 267.128 356.32 266.335 356.78 265.338H356.883V267H358.391V257.182H356.883V262.986ZM361.154 267H362.663V260.787C362.663 259.457 363.711 258.486 365.143 258.486C365.545 258.486 365.961 258.562 366.063 258.588V257.054C365.891 257.041 365.494 257.028 365.271 257.028C364.094 257.028 363.072 257.693 362.714 258.665H362.612V257.182H361.154V267ZM374.806 259.381C374.333 257.987 373.272 257.054 371.329 257.054C369.258 257.054 367.724 258.23 367.724 259.892C367.724 261.247 368.529 262.155 370.331 262.577L371.968 262.96C372.959 263.19 373.425 263.663 373.425 264.341C373.425 265.185 372.53 265.875 371.124 265.875C369.89 265.875 369.117 265.344 368.849 264.29L367.417 264.648C367.768 266.316 369.143 267.205 371.15 267.205C373.432 267.205 374.985 265.958 374.985 264.264C374.985 262.896 374.128 262.033 372.377 261.605L370.92 261.247C369.756 260.96 369.232 260.57 369.232 259.815C369.232 258.972 370.127 258.358 371.329 258.358C372.645 258.358 373.189 259.087 373.451 259.764L374.806 259.381ZM381.372 267.205C383.366 267.205 384.824 266.207 385.284 264.724L383.827 264.315C383.443 265.338 382.555 265.849 381.372 265.849C379.602 265.849 378.381 264.705 378.31 262.602H385.438V261.963C385.438 258.307 383.264 257.054 381.219 257.054C378.56 257.054 376.795 259.151 376.795 262.168C376.795 265.185 378.534 267.205 381.372 267.205ZM378.31 261.298C378.413 259.771 379.493 258.409 381.219 258.409C382.855 258.409 383.903 259.636 383.903 261.298H378.31ZM389.241 253.909H387.732V267H389.241V253.909ZM396.376 257.182H394.177V256.185C394.177 255.213 394.586 254.702 395.583 254.702C396.018 254.702 396.274 254.804 396.427 254.855L396.862 253.551C396.632 253.449 396.171 253.295 395.43 253.295C394.024 253.295 392.669 254.139 392.669 255.827V257.182H391.083V258.46H392.669V267H394.177V258.46H396.376V257.182ZM82.8892 293.094C82.8892 291.381 83.9822 290.409 85.4716 290.409C86.8906 290.409 87.7472 291.304 87.7472 292.864V299H89.2557V292.761C89.2557 290.237 87.9134 289.054 85.9062 289.054C84.3594 289.054 83.4773 289.7 83.017 290.716H82.8892V285.909H81.3807V299H82.8892V293.094ZM92.0154 299H93.524V289.182H92.0154V299ZM92.7825 287.545C93.3706 287.545 93.8564 287.085 93.8564 286.523C93.8564 285.96 93.3706 285.5 92.7825 285.5C92.1944 285.5 91.7086 285.96 91.7086 286.523C91.7086 287.085 92.1944 287.545 92.7825 287.545ZM100.557 289.182H98.4602V286.83H96.9517V289.182H95.4688V290.46H96.9517V296.597C96.9517 298.31 98.3324 299.128 99.6108 299.128C100.173 299.128 100.531 299.026 100.736 298.949L100.429 297.594C100.301 297.619 100.097 297.67 99.7642 297.67C99.0994 297.67 98.4602 297.466 98.4602 296.188V290.46H100.557V289.182ZM106.709 299.205C108.882 299.205 110.314 297.875 110.57 296.136H109.061C108.78 297.21 107.885 297.849 106.709 297.849C104.919 297.849 103.769 296.366 103.769 294.091C103.769 291.866 104.945 290.409 106.709 290.409C108.039 290.409 108.831 291.227 109.061 292.122H110.57C110.314 290.281 108.755 289.054 106.684 289.054C104.025 289.054 102.26 291.151 102.26 294.142C102.26 297.082 103.948 299.205 106.709 299.205ZM114.284 293.094C114.284 291.381 115.377 290.409 116.866 290.409C118.285 290.409 119.142 291.304 119.142 292.864V299H120.65V292.761C120.65 290.237 119.308 289.054 117.301 289.054C115.754 289.054 114.872 289.7 114.412 290.716H114.284V285.909H112.775V299H114.284V293.094ZM124.919 293.094C124.919 291.381 126.012 290.409 127.501 290.409C128.92 290.409 129.776 291.304 129.776 292.864V299H131.285V292.761C131.285 290.237 129.943 289.054 127.936 289.054C126.389 289.054 125.507 289.7 125.046 290.716H124.919V285.909H123.41V299H124.919V293.094ZM134.045 299H135.553V289.182H134.045V299ZM134.812 287.545C135.4 287.545 135.886 287.085 135.886 286.523C135.886 285.96 135.4 285.5 134.812 285.5C134.224 285.5 133.738 285.96 133.738 286.523C133.738 287.085 134.224 287.545 134.812 287.545ZM138.316 299H139.825V295.325L140.879 294.347L144.555 299H146.472L142.017 293.375L146.166 289.182H144.299L140.004 293.554H139.825V285.909H138.316V299ZM148.107 299H149.616V289.182H148.107V299ZM148.874 287.545C149.462 287.545 149.948 287.085 149.948 286.523C149.948 285.96 149.462 285.5 148.874 285.5C148.286 285.5 147.8 285.96 147.8 286.523C147.8 287.085 148.286 287.545 148.874 287.545ZM153.887 293.094C153.887 291.381 154.948 290.409 156.393 290.409C157.793 290.409 158.643 291.323 158.643 292.864V299H160.151V292.761C160.151 290.256 158.816 289.054 156.828 289.054C155.345 289.054 154.424 289.719 153.964 290.716H153.836V289.182H152.379V299H153.887V293.094ZM166.871 302.886C169.223 302.886 171.115 301.812 171.115 299.281V289.182H169.658V290.741H169.505C169.172 290.23 168.559 289.054 166.641 289.054C164.161 289.054 162.448 291.023 162.448 294.04C162.448 297.108 164.238 298.847 166.615 298.847C168.533 298.847 169.147 297.722 169.479 297.185H169.607V299.179C169.607 300.815 168.456 301.557 166.871 301.557C165.088 301.557 164.461 300.617 164.059 300.074L162.857 300.918C163.471 301.947 164.679 302.886 166.871 302.886ZM166.82 297.491C164.928 297.491 163.956 296.06 163.956 294.014C163.956 292.02 164.902 290.409 166.82 290.409C168.661 290.409 169.632 291.892 169.632 294.014C169.632 296.188 168.635 297.491 166.82 297.491ZM182.928 299.205C185.587 299.205 187.377 297.185 187.377 294.142C187.377 291.074 185.587 289.054 182.928 289.054C180.269 289.054 178.479 291.074 178.479 294.142C178.479 297.185 180.269 299.205 182.928 299.205ZM182.928 297.849C180.908 297.849 179.988 296.111 179.988 294.142C179.988 292.173 180.908 290.409 182.928 290.409C184.948 290.409 185.868 292.173 185.868 294.142C185.868 296.111 184.948 297.849 182.928 297.849ZM191.188 293.094C191.188 291.381 192.249 290.409 193.694 290.409C195.094 290.409 195.944 291.323 195.944 292.864V299H197.452V292.761C197.452 290.256 196.116 289.054 194.128 289.054C192.645 289.054 191.725 289.719 191.265 290.716H191.137V289.182H189.68V299H191.188V293.094ZM205.271 299H206.78V289.182H205.271V299ZM206.038 287.545C206.626 287.545 207.112 287.085 207.112 286.523C207.112 285.96 206.626 285.5 206.038 285.5C205.45 285.5 204.964 285.96 204.964 286.523C204.964 287.085 205.45 287.545 206.038 287.545ZM213.915 289.182H211.716V288.185C211.716 287.213 212.125 286.702 213.122 286.702C213.557 286.702 213.813 286.804 213.966 286.855L214.401 285.551C214.171 285.449 213.71 285.295 212.969 285.295C211.563 285.295 210.208 286.139 210.208 287.827V289.182H208.622V290.46H210.208V299H211.716V290.46H213.915V289.182ZM222.063 302.682C223.425 302.682 224.384 301.96 224.952 300.432L229.12 289.182H227.484L224.773 297.006H224.671L221.961 289.182H220.325L223.955 299.051L223.674 299.818C223.124 301.314 222.447 301.455 221.347 301.173L220.964 302.503C221.117 302.58 221.552 302.682 222.063 302.682ZM234.748 299.205C237.407 299.205 239.197 297.185 239.197 294.142C239.197 291.074 237.407 289.054 234.748 289.054C232.089 289.054 230.299 291.074 230.299 294.142C230.299 297.185 232.089 299.205 234.748 299.205ZM234.748 297.849C232.728 297.849 231.808 296.111 231.808 294.142C231.808 292.173 232.728 290.409 234.748 290.409C236.768 290.409 237.689 292.173 237.689 294.142C237.689 296.111 236.768 297.849 234.748 297.849ZM247.687 294.986C247.687 296.827 246.281 297.67 245.156 297.67C243.903 297.67 243.008 296.75 243.008 295.318V289.182H241.5V295.42C241.5 297.926 242.829 299.128 244.67 299.128C246.153 299.128 247.125 298.335 247.585 297.338H247.687V299H249.196V289.182H247.687V294.986ZM259.246 299H260.729L262.876 291.457H263.03L265.178 299H266.661L269.652 289.182H268.067L265.945 296.673H265.842L263.771 289.182H262.161L260.064 296.699H259.962L257.839 289.182H256.254L259.246 299ZM275.429 299.205C277.423 299.205 278.881 298.207 279.341 296.724L277.883 296.315C277.5 297.338 276.611 297.849 275.429 297.849C273.658 297.849 272.437 296.705 272.367 294.602H279.494V293.963C279.494 290.307 277.321 289.054 275.275 289.054C272.616 289.054 270.852 291.151 270.852 294.168C270.852 297.185 272.591 299.205 275.429 299.205ZM272.367 293.298C272.469 291.771 273.55 290.409 275.275 290.409C276.912 290.409 277.96 291.636 277.96 293.298H272.367ZM281.789 299H283.297V292.787C283.297 291.457 284.346 290.486 285.778 290.486C286.18 290.486 286.596 290.562 286.698 290.588V289.054C286.525 289.041 286.129 289.028 285.905 289.028C284.729 289.028 283.706 289.693 283.349 290.665H283.246V289.182H281.789V299ZM292.304 299.205C294.298 299.205 295.756 298.207 296.216 296.724L294.758 296.315C294.375 297.338 293.486 297.849 292.304 297.849C290.533 297.849 289.312 296.705 289.242 294.602H296.369V293.963C296.369 290.307 294.196 289.054 292.15 289.054C289.491 289.054 287.727 291.151 287.727 294.168C287.727 297.185 289.466 299.205 292.304 299.205ZM289.242 293.298C289.344 291.771 290.425 290.409 292.15 290.409C293.787 290.409 294.835 291.636 294.835 293.298H289.242ZM310.681 291.381C310.208 289.987 309.147 289.054 307.204 289.054C305.133 289.054 303.599 290.23 303.599 291.892C303.599 293.247 304.404 294.155 306.206 294.577L307.843 294.96C308.834 295.19 309.3 295.663 309.3 296.341C309.3 297.185 308.405 297.875 306.999 297.875C305.765 297.875 304.992 297.344 304.724 296.29L303.292 296.648C303.643 298.316 305.018 299.205 307.025 299.205C309.307 299.205 310.86 297.958 310.86 296.264C310.86 294.896 310.003 294.033 308.252 293.605L306.795 293.247C305.631 292.96 305.107 292.57 305.107 291.815C305.107 290.972 306.002 290.358 307.204 290.358C308.52 290.358 309.064 291.087 309.326 291.764L310.681 291.381ZM317.119 299.205C319.778 299.205 321.568 297.185 321.568 294.142C321.568 291.074 319.778 289.054 317.119 289.054C314.46 289.054 312.67 291.074 312.67 294.142C312.67 297.185 314.46 299.205 317.119 299.205ZM317.119 297.849C315.099 297.849 314.179 296.111 314.179 294.142C314.179 292.173 315.099 290.409 317.119 290.409C319.139 290.409 320.06 292.173 320.06 294.142C320.06 296.111 319.139 297.849 317.119 297.849ZM331.823 299.23C333.536 299.23 334.431 298.31 334.737 297.67H334.814V299H336.323V292.531C336.323 289.412 333.945 289.054 332.692 289.054C331.209 289.054 329.521 289.565 328.754 291.355L330.186 291.866C330.519 291.151 331.305 290.384 332.743 290.384C334.13 290.384 334.814 291.119 334.814 292.378V292.429C334.814 293.158 334.073 293.094 332.283 293.324C330.461 293.56 328.473 293.963 328.473 296.213C328.473 298.131 329.956 299.23 331.823 299.23ZM332.053 297.875C330.851 297.875 329.982 297.338 329.982 296.29C329.982 295.139 331.03 294.781 332.206 294.628C332.845 294.551 334.558 294.372 334.814 294.065V295.446C334.814 296.673 333.843 297.875 332.053 297.875ZM342.783 299.205C344.675 299.205 345.315 298.028 345.647 297.491H345.826V299H347.283V285.909H345.775V290.741H345.647C345.315 290.23 344.727 289.054 342.809 289.054C340.329 289.054 338.616 291.023 338.616 294.116C338.616 297.236 340.329 299.205 342.783 299.205ZM342.988 297.849C341.096 297.849 340.124 296.188 340.124 294.091C340.124 292.02 341.07 290.409 342.988 290.409C344.829 290.409 345.8 291.892 345.8 294.091C345.8 296.315 344.803 297.849 342.988 297.849ZM358.284 289.182H356.648L353.938 297.006H353.835L351.125 289.182H349.489L353.119 299H354.653L358.284 289.182ZM364.04 299.205C366.034 299.205 367.492 298.207 367.952 296.724L366.495 296.315C366.111 297.338 365.223 297.849 364.04 297.849C362.27 297.849 361.049 296.705 360.978 294.602H368.105V293.963C368.105 290.307 365.932 289.054 363.887 289.054C361.228 289.054 359.463 291.151 359.463 294.168C359.463 297.185 361.202 299.205 364.04 299.205ZM360.978 293.298C361.081 291.771 362.161 290.409 363.887 290.409C365.523 290.409 366.571 291.636 366.571 293.298H360.978ZM371.909 293.094C371.909 291.381 372.97 290.409 374.414 290.409C375.814 290.409 376.664 291.323 376.664 292.864V299H378.173V292.761C378.173 290.256 376.837 289.054 374.849 289.054C373.366 289.054 372.446 289.719 371.985 290.716H371.858V289.182H370.4V299H371.909V293.094ZM385.199 289.182H383.103V286.83H381.594V289.182H380.111V290.46H381.594V296.597C381.594 298.31 382.975 299.128 384.253 299.128C384.816 299.128 385.174 299.026 385.378 298.949L385.072 297.594C384.944 297.619 384.739 297.67 384.407 297.67C383.742 297.67 383.103 297.466 383.103 296.188V290.46H385.199V289.182ZM393.656 294.986C393.656 296.827 392.25 297.67 391.125 297.67C389.872 297.67 388.977 296.75 388.977 295.318V289.182H387.469V295.42C387.469 297.926 388.798 299.128 390.639 299.128C392.122 299.128 393.094 298.335 393.554 297.338H393.656V299H395.165V289.182H393.656V294.986ZM397.928 299H399.436V292.787C399.436 291.457 400.484 290.486 401.916 290.486C402.319 290.486 402.734 290.562 402.837 290.588V289.054C402.664 289.041 402.268 289.028 402.044 289.028C400.868 289.028 399.845 289.693 399.487 290.665H399.385V289.182H397.928V299ZM408.315 299.205C410.974 299.205 412.763 297.185 412.763 294.142C412.763 291.074 410.974 289.054 408.315 289.054C405.656 289.054 403.866 291.074 403.866 294.142C403.866 297.185 405.656 299.205 408.315 299.205ZM408.315 297.849C406.295 297.849 405.374 296.111 405.374 294.142C405.374 292.173 406.295 290.409 408.315 290.409C410.335 290.409 411.255 292.173 411.255 294.142C411.255 296.111 410.335 297.849 408.315 297.849ZM421.254 294.986C421.254 296.827 419.847 297.67 418.722 297.67C417.47 297.67 416.575 296.75 416.575 295.318V289.182H415.066V295.42C415.066 297.926 416.396 299.128 418.237 299.128C419.72 299.128 420.691 298.335 421.151 297.338H421.254V299H422.762V289.182H421.254V294.986ZM432.48 291.381C432.007 289.987 430.946 289.054 429.002 289.054C426.931 289.054 425.397 290.23 425.397 291.892C425.397 293.247 426.203 294.155 428.005 294.577L429.642 294.96C430.632 295.19 431.099 295.663 431.099 296.341C431.099 297.185 430.204 297.875 428.798 297.875C427.564 297.875 426.791 297.344 426.522 296.29L425.091 296.648C425.442 298.316 426.816 299.205 428.824 299.205C431.105 299.205 432.659 297.958 432.659 296.264C432.659 294.896 431.802 294.033 430.051 293.605L428.593 293.247C427.43 292.96 426.906 292.57 426.906 291.815C426.906 290.972 427.801 290.358 429.002 290.358C430.319 290.358 430.863 291.087 431.125 291.764L432.48 291.381ZM436.029 299.102C436.662 299.102 437.18 298.585 437.18 297.952C437.18 297.319 436.662 296.801 436.029 296.801C435.396 296.801 434.878 297.319 434.878 297.952C434.878 298.585 435.396 299.102 436.029 299.102ZM81.5852 331H86.3153C89.4091 331 90.6875 329.491 90.6875 327.523C90.6875 325.452 89.2557 324.327 88.054 324.25V324.122C89.179 323.815 90.1761 323.074 90.1761 321.386C90.1761 319.469 88.8977 317.909 86.1619 317.909H81.5852V331ZM83.1705 329.594V325.043H86.392C88.1051 325.043 89.179 326.193 89.179 327.523C89.179 328.673 88.3864 329.594 86.3153 329.594H83.1705ZM83.1705 323.662V319.315H86.1619C87.9006 319.315 88.6676 320.236 88.6676 321.386C88.6676 322.767 87.5426 323.662 86.1108 323.662H83.1705ZM97.2042 331.205C99.1985 331.205 100.656 330.207 101.116 328.724L99.6587 328.315C99.2752 329.338 98.3867 329.849 97.2042 329.849C95.4336 329.849 94.2127 328.705 94.1424 326.602H101.27V325.963C101.27 322.307 99.0962 321.054 97.0508 321.054C94.3917 321.054 92.6275 323.151 92.6275 326.168C92.6275 329.185 94.3661 331.205 97.2042 331.205ZM94.1424 325.298C94.2447 323.771 95.3249 322.409 97.0508 322.409C98.6871 322.409 99.7354 323.636 99.7354 325.298H94.1424ZM105.073 325.094C105.073 323.381 106.134 322.409 107.578 322.409C108.978 322.409 109.828 323.323 109.828 324.864V331H111.337V324.761C111.337 322.256 110.001 321.054 108.013 321.054C106.53 321.054 105.61 321.719 105.15 322.716H105.022V321.182H103.564V331H105.073V325.094ZM118.21 331.205C120.204 331.205 121.662 330.207 122.122 328.724L120.665 328.315C120.281 329.338 119.393 329.849 118.21 329.849C116.439 329.849 115.219 328.705 115.148 326.602H122.275V325.963C122.275 322.307 120.102 321.054 118.057 321.054C115.398 321.054 113.633 323.151 113.633 326.168C113.633 329.185 115.372 331.205 118.21 331.205ZM115.148 325.298C115.251 323.771 116.331 322.409 118.057 322.409C119.693 322.409 120.741 323.636 120.741 325.298H115.148ZM127.459 331.23C129.172 331.23 130.067 330.31 130.374 329.67H130.451V331H131.959V324.531C131.959 321.412 129.581 321.054 128.329 321.054C126.846 321.054 125.158 321.565 124.391 323.355L125.823 323.866C126.155 323.151 126.942 322.384 128.38 322.384C129.767 322.384 130.451 323.119 130.451 324.378V324.429C130.451 325.158 129.709 325.094 127.92 325.324C126.098 325.56 124.11 325.963 124.11 328.213C124.11 330.131 125.593 331.23 127.459 331.23ZM127.689 329.875C126.488 329.875 125.618 329.338 125.618 328.29C125.618 327.139 126.667 326.781 127.843 326.628C128.482 326.551 130.195 326.372 130.451 326.065V327.446C130.451 328.673 129.479 329.875 127.689 329.875ZM138.983 321.182H136.886V318.83H135.377V321.182H133.895V322.46H135.377V328.597C135.377 330.31 136.758 331.128 138.037 331.128C138.599 331.128 138.957 331.026 139.162 330.949L138.855 329.594C138.727 329.619 138.522 329.67 138.19 329.67C137.525 329.67 136.886 329.466 136.886 328.188V322.46H138.983V321.182ZM142.971 325.094C142.971 323.381 144.064 322.409 145.554 322.409C146.973 322.409 147.829 323.304 147.829 324.864V331H149.338V324.761C149.338 322.237 147.995 321.054 145.988 321.054C144.441 321.054 143.559 321.7 143.099 322.716H142.971V317.909H141.463V331H142.971V325.094ZM157.16 331H158.669V321.182H157.16V331ZM157.927 319.545C158.515 319.545 159.001 319.085 159.001 318.523C159.001 317.96 158.515 317.5 157.927 317.5C157.339 317.5 156.853 317.96 156.853 318.523C156.853 319.085 157.339 319.545 157.927 319.545ZM165.701 321.182H163.605V318.83H162.096V321.182H160.613V322.46H162.096V328.597C162.096 330.31 163.477 331.128 164.755 331.128C165.318 331.128 165.676 331.026 165.88 330.949L165.574 329.594C165.446 329.619 165.241 329.67 164.909 329.67C164.244 329.67 163.605 329.466 163.605 328.188V322.46H165.701V321.182ZM175.257 331H176.74L178.888 323.457H179.042L181.189 331H182.672L185.664 321.182H184.078L181.956 328.673H181.854L179.783 321.182H178.172L176.076 328.699H175.973L173.851 321.182H172.266L175.257 331ZM191.441 331.205C193.435 331.205 194.892 330.207 195.352 328.724L193.895 328.315C193.512 329.338 192.623 329.849 191.441 329.849C189.67 329.849 188.449 328.705 188.379 326.602H195.506V325.963C195.506 322.307 193.333 321.054 191.287 321.054C188.628 321.054 186.864 323.151 186.864 326.168C186.864 329.185 188.602 331.205 191.441 331.205ZM188.379 325.298C188.481 323.771 189.561 322.409 191.287 322.409C192.923 322.409 193.972 323.636 193.972 325.298H188.379ZM197.801 331H199.309V324.787C199.309 323.457 200.357 322.486 201.789 322.486C202.192 322.486 202.607 322.562 202.71 322.588V321.054C202.537 321.041 202.141 321.028 201.917 321.028C200.741 321.028 199.718 321.693 199.36 322.665H199.258V321.182H197.801V331ZM208.316 331.205C210.31 331.205 211.767 330.207 212.227 328.724L210.77 328.315C210.387 329.338 209.498 329.849 208.316 329.849C206.545 329.849 205.324 328.705 205.254 326.602H212.381V325.963C212.381 322.307 210.208 321.054 208.162 321.054C205.503 321.054 203.739 323.151 203.739 326.168C203.739 329.185 205.477 331.205 208.316 331.205ZM205.254 325.298C205.356 323.771 206.436 322.409 208.162 322.409C209.798 322.409 210.847 323.636 210.847 325.298H205.254ZM224.008 321.182H221.911V318.83H220.403V321.182H218.92V322.46H220.403V328.597C220.403 330.31 221.784 331.128 223.062 331.128C223.624 331.128 223.982 331.026 224.187 330.949L223.88 329.594C223.752 329.619 223.548 329.67 223.215 329.67C222.551 329.67 221.911 329.466 221.911 328.188V322.46H224.008V321.182ZM227.997 325.094C227.997 323.381 229.09 322.409 230.579 322.409C231.998 322.409 232.855 323.304 232.855 324.864V331H234.363V324.761C234.363 322.237 233.021 321.054 231.014 321.054C229.467 321.054 228.585 321.7 228.124 322.716H227.997V317.909H226.488V331H227.997V325.094ZM241.239 331.205C243.234 331.205 244.691 330.207 245.151 328.724L243.694 328.315C243.31 329.338 242.422 329.849 241.239 329.849C239.469 329.849 238.248 328.705 238.178 326.602H245.305V325.963C245.305 322.307 243.131 321.054 241.086 321.054C238.427 321.054 236.663 323.151 236.663 326.168C236.663 329.185 238.401 331.205 241.239 331.205ZM238.178 325.298C238.28 323.771 239.36 322.409 241.086 322.409C242.722 322.409 243.771 323.636 243.771 325.298H238.178Z" fill="white"/>
<rect x="40.5" y="168.5" width="447" height="183" rx="7.5" stroke="#2C2C2C"/>
<rect x="232" y="400" width="64" height="64" rx="32" fill="url(#paint0_linear)"/>
<path fill-rule="evenodd" clip-rule="evenodd" d="M259.844 424.299L268.774 422.03C269.303 421.896 269.838 422.223 269.971 422.76C269.99 422.84 270 422.921 270 423.003V437.473C270 438.991 268.66 440.061 266.842 440.061C265.56 440.087 264.5 439.052 264.474 437.75C264.474 437.736 264.474 437.723 264.474 437.709V437.709C264.474 436.638 265.191 435.704 266.214 435.444L267.823 435.035C268.175 434.945 268.421 434.625 268.421 434.256V428.413V428.413C268.421 428.192 268.244 428.012 268.026 428.012C267.994 428.012 267.962 428.016 267.931 428.024L260.975 429.792C260.711 429.859 260.526 430.099 260.526 430.375V440.281C260.526 441.799 259.186 442.869 257.368 442.869C256.087 442.895 255.026 441.861 255 440.558C255 440.544 255 440.531 255 440.518V440.517C255 439.446 255.718 438.512 256.74 438.252L258.349 437.843C258.701 437.754 258.947 437.433 258.947 437.065V425.467V425.467C258.947 424.914 259.317 424.433 259.844 424.299L259.844 424.299Z" fill="white"/>
<defs>
<linearGradient id="paint0_linear" x1="232" y1="464" x2="296.146" y2="400.147" gradientUnits="userSpaceOnUse">
<stop stop-color="#D1AAD7"/>
<stop offset="0.25" stop-color="#C88BC4"/>
<stop offset="0.5" stop-color="#7B8FDD"/>
<stop offset="0.7486" stop-color="#86BFF2"/>
<stop offset="0.9987" stop-color="#BBDEF2"/>
</linearGradient>
</defs>
</svg>
