<svg width="528" height="528" viewBox="0 0 528 528" fill="none" xmlns="http://www.w3.org/2000/svg">
<rect width="528" height="528" rx="24" fill="#FAFAFA"/>
<path d="M0 24C0 10.7452 10.7452 0 24 0H504C517.255 0 528 10.7452 528 24V264H0V24Z" fill="#171717"/>
<path d="M0 24C0 10.7452 10.7452 0 24 0H504C517.255 0 528 10.7452 528 24V264H0V24Z" fill="#171717"/>
<line x1="58" y1="58" x2="58" y2="206" stroke="#404040" stroke-width="4" stroke-linecap="round"/>
<path d="M83.1705 61.9091H81.5852V75H83.1705V61.9091ZM87.6529 69.0938C87.6529 67.3807 88.714 66.4091 90.1586 66.4091C91.5584 66.4091 92.4086 67.3232 92.4086 68.8636V75H93.9171V68.7614C93.9171 66.2557 92.5811 65.054 90.5932 65.054C89.1103 65.054 88.1898 65.7188 87.7296 66.7159H87.6017V65.1818H86.1444V75H87.6529V69.0938ZM103.628 67.3807C103.155 65.9872 102.094 65.054 100.151 65.054C98.0799 65.054 96.5458 66.2301 96.5458 67.892C96.5458 69.2472 97.3512 70.1548 99.1538 70.5767L100.79 70.9602C101.781 71.1903 102.248 71.6634 102.248 72.3409C102.248 73.1847 101.353 73.875 99.9464 73.875C98.7127 73.875 97.9393 73.3445 97.6708 72.2898L96.239 72.6477C96.5906 74.3161 97.9648 75.2045 99.9719 75.2045C102.254 75.2045 103.807 73.9581 103.807 72.2642C103.807 70.8963 102.951 70.0334 101.199 69.6051L99.7418 69.2472C98.5785 68.9595 98.0543 68.5696 98.0543 67.8153C98.0543 66.9716 98.9492 66.358 100.151 66.358C101.468 66.358 102.011 67.0866 102.273 67.7642L103.628 67.3807ZM110.348 65.1818H108.251V62.8295H106.743V65.1818H105.26V66.4602H106.743V72.5966C106.743 74.3097 108.123 75.1278 109.402 75.1278C109.964 75.1278 110.322 75.0256 110.527 74.9489L110.22 73.5938C110.092 73.6193 109.888 73.6705 109.555 73.6705C108.89 73.6705 108.251 73.4659 108.251 72.1875V66.4602H110.348V65.1818ZM112.617 75H114.126V68.7869C114.126 67.4574 115.174 66.4858 116.606 66.4858C117.008 66.4858 117.424 66.5625 117.526 66.5881V65.054C117.354 65.0412 116.957 65.0284 116.733 65.0284C115.557 65.0284 114.535 65.6932 114.177 66.6648H114.074V65.1818H112.617V75ZM125.502 70.9858C125.502 72.8267 124.096 73.6705 122.971 73.6705C121.718 73.6705 120.823 72.75 120.823 71.3182V65.1818H119.314V71.4205C119.314 73.9261 120.644 75.1278 122.485 75.1278C123.968 75.1278 124.939 74.3352 125.4 73.3381H125.502V75H127.01V65.1818H125.502V70.9858ZM133.762 75.2045C135.935 75.2045 137.367 73.875 137.623 72.1364H136.114C135.833 73.2102 134.938 73.8494 133.762 73.8494C131.972 73.8494 130.822 72.3665 130.822 70.0909C130.822 67.8665 131.998 66.4091 133.762 66.4091C135.091 66.4091 135.884 67.2273 136.114 68.1222H137.623C137.367 66.2812 135.807 65.054 133.736 65.054C131.077 65.054 129.313 67.1506 129.313 70.142C129.313 73.0824 131.001 75.2045 133.762 75.2045ZM144.098 65.1818H142.001V62.8295H140.493V65.1818H139.01V66.4602H140.493V72.5966C140.493 74.3097 141.873 75.1278 143.152 75.1278C143.714 75.1278 144.072 75.0256 144.277 74.9489L143.97 73.5938C143.842 73.6193 143.638 73.6705 143.305 73.6705C142.64 73.6705 142.001 73.4659 142.001 72.1875V66.4602H144.098V65.1818ZM146.367 75H147.876V65.1818H146.367V75ZM147.134 63.5455C147.722 63.5455 148.208 63.0852 148.208 62.5227C148.208 61.9602 147.722 61.5 147.134 61.5C146.546 61.5 146.06 61.9602 146.06 62.5227C146.06 63.0852 146.546 63.5455 147.134 63.5455ZM154.627 75.2045C157.286 75.2045 159.076 73.1847 159.076 70.142C159.076 67.0739 157.286 65.054 154.627 65.054C151.968 65.054 150.178 67.0739 150.178 70.142C150.178 73.1847 151.968 75.2045 154.627 75.2045ZM154.627 73.8494C152.607 73.8494 151.687 72.1108 151.687 70.142C151.687 68.1733 152.607 66.4091 154.627 66.4091C156.647 66.4091 157.567 68.1733 157.567 70.142C157.567 72.1108 156.647 73.8494 154.627 73.8494ZM162.887 69.0938C162.887 67.3807 163.948 66.4091 165.393 66.4091C166.793 66.4091 167.643 67.3232 167.643 68.8636V75H169.151V68.7614C169.151 66.2557 167.816 65.054 165.828 65.054C164.345 65.054 163.424 65.7188 162.964 66.7159H162.836V65.1818H161.379V75H162.887V69.0938ZM178.863 67.3807C178.39 65.9872 177.328 65.054 175.385 65.054C173.314 65.054 171.78 66.2301 171.78 67.892C171.78 69.2472 172.586 70.1548 174.388 70.5767L176.025 70.9602C177.015 71.1903 177.482 71.6634 177.482 72.3409C177.482 73.1847 176.587 73.875 175.181 73.875C173.947 73.875 173.174 73.3445 172.905 72.2898L171.473 72.6477C171.825 74.3161 173.199 75.2045 175.206 75.2045C177.488 75.2045 179.042 73.9581 179.042 72.2642C179.042 70.8963 178.185 70.0334 176.434 69.6051L174.976 69.2472C173.813 68.9595 173.289 68.5696 173.289 67.8153C173.289 66.9716 174.184 66.358 175.385 66.358C176.702 66.358 177.245 67.0866 177.507 67.7642L178.863 67.3807ZM182.412 75.1023C183.045 75.1023 183.562 74.5845 183.562 73.9517C183.562 73.3189 183.045 72.8011 182.412 72.8011C181.779 72.8011 181.261 73.3189 181.261 73.9517C181.261 74.5845 181.779 75.1023 182.412 75.1023ZM182.412 67.8153C183.045 67.8153 183.562 67.2976 183.562 66.6648C183.562 66.032 183.045 65.5142 182.412 65.5142C181.779 65.5142 181.261 66.032 181.261 66.6648C181.261 67.2976 181.779 67.8153 182.412 67.8153Z" fill="#D0A5D4"/>
<path d="M192.073 75L193.39 71.2926H198.683L199.999 75H201.661L196.855 61.9091H195.218L190.411 75H192.073ZM193.889 69.8864L195.985 63.9801H196.088L198.184 69.8864H193.889ZM210.45 67.3807C209.977 65.9872 208.916 65.054 206.973 65.054C204.902 65.054 203.368 66.2301 203.368 67.892C203.368 69.2472 204.173 70.1548 205.976 70.5767L207.612 70.9602C208.603 71.1903 209.07 71.6634 209.07 72.3409C209.07 73.1847 208.175 73.875 206.769 73.875C205.535 73.875 204.762 73.3445 204.493 72.2898L203.061 72.6477C203.413 74.3161 204.787 75.2045 206.794 75.2045C209.076 75.2045 210.629 73.9581 210.629 72.2642C210.629 70.8963 209.773 70.0334 208.021 69.6051L206.564 69.2472C205.401 68.9595 204.877 68.5696 204.877 67.8153C204.877 66.9716 205.771 66.358 206.973 66.358C208.29 66.358 208.833 67.0866 209.095 67.7642L210.45 67.3807ZM212.9 75H214.409V71.3246L215.463 70.3466L219.139 75H221.056L216.601 69.375L220.75 65.1818H218.883L214.588 69.554H214.409V61.9091H212.9V75ZM232.024 65.1818H229.927V62.8295H228.419V65.1818H226.936V66.4602H228.419V72.5966C228.419 74.3097 229.799 75.1278 231.078 75.1278C231.64 75.1278 231.998 75.0256 232.203 74.9489L231.896 73.5938C231.768 73.6193 231.563 73.6705 231.231 73.6705C230.566 73.6705 229.927 73.4659 229.927 72.1875V66.4602H232.024V65.1818ZM238.176 75.2045C240.835 75.2045 242.625 73.1847 242.625 70.142C242.625 67.0739 240.835 65.054 238.176 65.054C235.517 65.054 233.727 67.0739 233.727 70.142C233.727 73.1847 235.517 75.2045 238.176 75.2045ZM238.176 73.8494C236.156 73.8494 235.236 72.1108 235.236 70.142C235.236 68.1733 236.156 66.4091 238.176 66.4091C240.196 66.4091 241.116 68.1733 241.116 70.142C241.116 72.1108 240.196 73.8494 238.176 73.8494ZM256.945 67.3807C256.472 65.9872 255.411 65.054 253.467 65.054C251.396 65.054 249.862 66.2301 249.862 67.892C249.862 69.2472 250.668 70.1548 252.47 70.5767L254.107 70.9602C255.097 71.1903 255.564 71.6634 255.564 72.3409C255.564 73.1847 254.669 73.875 253.263 73.875C252.029 73.875 251.256 73.3445 250.987 72.2898L249.555 72.6477C249.907 74.3161 251.281 75.2045 253.288 75.2045C255.57 75.2045 257.124 73.9581 257.124 72.2642C257.124 70.8963 256.267 70.0334 254.516 69.6051L253.058 69.2472C251.895 68.9595 251.371 68.5696 251.371 67.8153C251.371 66.9716 252.266 66.358 253.467 66.358C254.784 66.358 255.327 67.0866 255.589 67.7642L256.945 67.3807ZM263.383 75.2045C265.556 75.2045 266.988 73.875 267.244 72.1364H265.735C265.454 73.2102 264.559 73.8494 263.383 73.8494C261.593 73.8494 260.443 72.3665 260.443 70.0909C260.443 67.8665 261.619 66.4091 263.383 66.4091C264.713 66.4091 265.505 67.2273 265.735 68.1222H267.244C266.988 66.2812 265.428 65.054 263.357 65.054C260.698 65.054 258.934 67.1506 258.934 70.142C258.934 73.0824 260.622 75.2045 263.383 75.2045ZM270.958 69.0938C270.958 67.3807 272.051 66.4091 273.54 66.4091C274.959 66.4091 275.816 67.304 275.816 68.8636V75H277.324V68.7614C277.324 66.2365 275.982 65.054 273.975 65.054C272.428 65.054 271.546 65.6996 271.085 66.7159H270.958V61.9091H269.449V75H270.958V69.0938ZM284.2 75.2045C286.195 75.2045 287.652 74.2074 288.112 72.7244L286.655 72.3153C286.271 73.3381 285.383 73.8494 284.2 73.8494C282.43 73.8494 281.209 72.7053 281.138 70.6023H288.266V69.9631C288.266 66.3068 286.092 65.054 284.047 65.054C281.388 65.054 279.624 67.1506 279.624 70.1676C279.624 73.1847 281.362 75.2045 284.2 75.2045ZM281.138 69.2983C281.241 67.7706 282.321 66.4091 284.047 66.4091C285.683 66.4091 286.732 67.6364 286.732 69.2983H281.138ZM294.268 75.2045C296.16 75.2045 296.799 74.0284 297.131 73.4915H297.31V75H298.768V61.9091H297.259V66.7415H297.131C296.799 66.2301 296.211 65.054 294.293 65.054C291.813 65.054 290.1 67.0227 290.1 70.1165C290.1 73.2358 291.813 75.2045 294.268 75.2045ZM294.472 73.8494C292.58 73.8494 291.609 72.1875 291.609 70.0909C291.609 68.0199 292.555 66.4091 294.472 66.4091C296.313 66.4091 297.285 67.892 297.285 70.0909C297.285 72.3153 296.288 73.8494 294.472 73.8494ZM307.928 70.9858C307.928 72.8267 306.521 73.6705 305.396 73.6705C304.143 73.6705 303.249 72.75 303.249 71.3182V65.1818H301.74V71.4205C301.74 73.9261 303.07 75.1278 304.911 75.1278C306.393 75.1278 307.365 74.3352 307.825 73.3381H307.928V75H309.436V65.1818H307.928V70.9858ZM313.708 61.9091H312.199V75H313.708V61.9091ZM320.587 75.2045C322.581 75.2045 324.039 74.2074 324.499 72.7244L323.042 72.3153C322.658 73.3381 321.77 73.8494 320.587 73.8494C318.816 73.8494 317.596 72.7053 317.525 70.6023H324.652V69.9631C324.652 66.3068 322.479 65.054 320.434 65.054C317.775 65.054 316.01 67.1506 316.01 70.1676C316.01 73.1847 317.749 75.2045 320.587 75.2045ZM317.525 69.2983C317.627 67.7706 318.708 66.4091 320.434 66.4091C322.07 66.4091 323.118 67.6364 323.118 69.2983H317.525ZM334.899 75.2301C336.612 75.2301 337.507 74.3097 337.814 73.6705H337.89V75H339.399V68.5312C339.399 65.4119 337.021 65.054 335.768 65.054C334.285 65.054 332.598 65.5653 331.831 67.3551L333.262 67.8665C333.595 67.1506 334.381 66.3835 335.819 66.3835C337.206 66.3835 337.89 67.1186 337.89 68.3778V68.429C337.89 69.1577 337.149 69.0938 335.359 69.3239C333.537 69.5604 331.549 69.9631 331.549 72.2131C331.549 74.1307 333.032 75.2301 334.899 75.2301ZM335.129 73.875C333.927 73.875 333.058 73.3381 333.058 72.2898C333.058 71.1392 334.106 70.7812 335.282 70.6278C335.922 70.5511 337.635 70.3722 337.89 70.0653V71.446C337.89 72.6733 336.919 73.875 335.129 73.875ZM350.922 75.2045C352.814 75.2045 353.453 74.0284 353.786 73.4915H353.965V75H355.422V61.9091H353.914V66.7415H353.786C353.453 66.2301 352.865 65.054 350.948 65.054C348.468 65.054 346.754 67.0227 346.754 70.1165C346.754 73.2358 348.468 75.2045 350.922 75.2045ZM351.127 73.8494C349.235 73.8494 348.263 72.1875 348.263 70.0909C348.263 68.0199 349.209 66.4091 351.127 66.4091C352.968 66.4091 353.939 67.892 353.939 70.0909C353.939 72.3153 352.942 73.8494 351.127 73.8494ZM362.511 75.2045C364.505 75.2045 365.963 74.2074 366.423 72.7244L364.965 72.3153C364.582 73.3381 363.693 73.8494 362.511 73.8494C360.74 73.8494 359.519 72.7053 359.449 70.6023H366.576V69.9631C366.576 66.3068 364.403 65.054 362.357 65.054C359.698 65.054 357.934 67.1506 357.934 70.1676C357.934 73.1847 359.673 75.2045 362.511 75.2045ZM359.449 69.2983C359.551 67.7706 360.632 66.4091 362.357 66.4091C363.994 66.4091 365.042 67.6364 365.042 69.2983H359.449ZM368.871 75H370.379V68.8636C370.379 67.4254 371.428 66.4091 372.604 66.4091C373.748 66.4091 374.547 67.157 374.547 68.2756V75H376.081V68.608C376.081 67.3423 376.874 66.4091 378.254 66.4091C379.328 66.4091 380.249 66.978 380.249 68.429V75H381.757V68.429C381.757 66.1214 380.517 65.054 378.766 65.054C377.36 65.054 376.33 65.6996 375.825 66.7159H375.723C375.237 65.6676 374.381 65.054 373.09 65.054C371.811 65.054 370.865 65.6676 370.456 66.7159H370.328V65.1818H368.871V75ZM388.504 75.2045C391.163 75.2045 392.953 73.1847 392.953 70.142C392.953 67.0739 391.163 65.054 388.504 65.054C385.845 65.054 384.055 67.0739 384.055 70.142C384.055 73.1847 385.845 75.2045 388.504 75.2045ZM388.504 73.8494C386.484 73.8494 385.564 72.1108 385.564 70.142C385.564 68.1733 386.484 66.4091 388.504 66.4091C390.524 66.4091 391.444 68.1733 391.444 70.142C391.444 72.1108 390.524 73.8494 388.504 73.8494ZM404.69 65.1818H402.491V64.1847C402.491 63.2131 402.901 62.7017 403.898 62.7017C404.332 62.7017 404.588 62.804 404.741 62.8551L405.176 61.5511C404.946 61.4489 404.486 61.2955 403.744 61.2955C402.338 61.2955 400.983 62.1392 400.983 63.8267V65.1818H399.398V66.4602H400.983V75H402.491V66.4602H404.69V65.1818ZM410.389 75.2045C413.048 75.2045 414.838 73.1847 414.838 70.142C414.838 67.0739 413.048 65.054 410.389 65.054C407.73 65.054 405.94 67.0739 405.94 70.142C405.94 73.1847 407.73 75.2045 410.389 75.2045ZM410.389 73.8494C408.369 73.8494 407.449 72.1108 407.449 70.142C407.449 68.1733 408.369 66.4091 410.389 66.4091C412.409 66.4091 413.329 68.1733 413.329 70.142C413.329 72.1108 412.409 73.8494 410.389 73.8494ZM417.14 75H418.649V68.7869C418.649 67.4574 419.697 66.4858 421.129 66.4858C421.532 66.4858 421.947 66.5625 422.05 66.5881V65.054C421.877 65.0412 421.481 65.0284 421.257 65.0284C420.081 65.0284 419.058 65.6932 418.7 66.6648H418.598V65.1818H417.14V75ZM85.6506 97.1818H83.554V94.8295H82.0455V97.1818H80.5625V98.4602H82.0455V104.597C82.0455 106.31 83.4261 107.128 84.7045 107.128C85.267 107.128 85.625 107.026 85.8295 106.949L85.5227 105.594C85.3949 105.619 85.1903 105.67 84.858 105.67C84.1932 105.67 83.554 105.466 83.554 104.188V98.4602H85.6506V97.1818ZM89.6392 101.094C89.6392 99.3807 90.7322 98.4091 92.2216 98.4091C93.6406 98.4091 94.4972 99.304 94.4972 100.864V107H96.0057V100.761C96.0057 98.2365 94.6634 97.054 92.6562 97.054C91.1094 97.054 90.2273 97.6996 89.767 98.7159H89.6392V93.9091H88.1307V107H89.6392V101.094ZM102.882 107.205C104.876 107.205 106.334 106.207 106.794 104.724L105.336 104.315C104.953 105.338 104.064 105.849 102.882 105.849C101.111 105.849 99.8904 104.705 99.8201 102.602H106.947V101.963C106.947 98.3068 104.774 97.054 102.729 97.054C100.069 97.054 98.3052 99.1506 98.3052 102.168C98.3052 105.185 100.044 107.205 102.882 107.205ZM99.8201 101.298C99.9224 99.7706 101.003 98.4091 102.729 98.4091C104.365 98.4091 105.413 99.6364 105.413 101.298H99.8201ZM114.305 110.682H115.813V105.491H115.941C116.273 106.028 116.912 107.205 118.805 107.205C121.259 107.205 122.972 105.236 122.972 102.116C122.972 99.0227 121.259 97.054 118.779 97.054C116.861 97.054 116.273 98.2301 115.941 98.7415H115.762V97.1818H114.305V110.682ZM115.787 102.091C115.787 99.892 116.759 98.4091 118.6 98.4091C120.518 98.4091 121.464 100.02 121.464 102.091C121.464 104.188 120.492 105.849 118.6 105.849C116.785 105.849 115.787 104.315 115.787 102.091ZM126.782 101.094C126.782 99.3807 127.875 98.4091 129.364 98.4091C130.783 98.4091 131.64 99.304 131.64 100.864V107H133.148V100.761C133.148 98.2365 131.806 97.054 129.799 97.054C128.252 97.054 127.37 97.6996 126.91 98.7159H126.782V93.9091H125.273V107H126.782V101.094ZM139.897 107.205C142.556 107.205 144.346 105.185 144.346 102.142C144.346 99.0739 142.556 97.054 139.897 97.054C137.238 97.054 135.448 99.0739 135.448 102.142C135.448 105.185 137.238 107.205 139.897 107.205ZM139.897 105.849C137.877 105.849 136.956 104.111 136.956 102.142C136.956 100.173 137.877 98.4091 139.897 98.4091C141.917 98.4091 142.837 100.173 142.837 102.142C142.837 104.111 141.917 105.849 139.897 105.849ZM148.157 101.094C148.157 99.3807 149.218 98.4091 150.662 98.4091C152.062 98.4091 152.912 99.3232 152.912 100.864V107H154.421V100.761C154.421 98.2557 153.085 97.054 151.097 97.054C149.614 97.054 148.694 97.7188 148.233 98.7159H148.106V97.1818H146.648V107H148.157V101.094ZM161.294 107.205C163.288 107.205 164.746 106.207 165.206 104.724L163.749 104.315C163.365 105.338 162.477 105.849 161.294 105.849C159.523 105.849 158.303 104.705 158.232 102.602H165.359V101.963C165.359 98.3068 163.186 97.054 161.141 97.054C158.482 97.054 156.717 99.1506 156.717 102.168C156.717 105.185 158.456 107.205 161.294 107.205ZM158.232 101.298C158.335 99.7706 159.415 98.4091 161.141 98.4091C162.777 98.4091 163.825 99.6364 163.825 101.298H158.232ZM172.717 110.682H174.225V105.491H174.353C174.685 106.028 175.325 107.205 177.217 107.205C179.671 107.205 181.384 105.236 181.384 102.116C181.384 99.0227 179.671 97.054 177.191 97.054C175.273 97.054 174.685 98.2301 174.353 98.7415H174.174V97.1818H172.717V110.682ZM174.2 102.091C174.2 99.892 175.171 98.4091 177.012 98.4091C178.93 98.4091 179.876 100.02 179.876 102.091C179.876 104.188 178.904 105.849 177.012 105.849C175.197 105.849 174.2 104.315 174.2 102.091ZM183.685 107H185.194V100.787C185.194 99.4574 186.242 98.4858 187.674 98.4858C188.077 98.4858 188.492 98.5625 188.594 98.5881V97.054C188.422 97.0412 188.026 97.0284 187.802 97.0284C186.626 97.0284 185.603 97.6932 185.245 98.6648H185.143V97.1818H183.685V107ZM194.072 107.205C196.732 107.205 198.521 105.185 198.521 102.142C198.521 99.0739 196.732 97.054 194.072 97.054C191.413 97.054 189.624 99.0739 189.624 102.142C189.624 105.185 191.413 107.205 194.072 107.205ZM194.072 105.849C192.053 105.849 191.132 104.111 191.132 102.142C191.132 100.173 192.053 98.4091 194.072 98.4091C196.092 98.4091 197.013 100.173 197.013 102.142C197.013 104.111 196.092 105.849 194.072 105.849ZM204.531 107.205C206.423 107.205 207.063 106.028 207.395 105.491H207.574V107H209.031V93.9091H207.523V98.7415H207.395C207.063 98.2301 206.475 97.054 204.557 97.054C202.077 97.054 200.364 99.0227 200.364 102.116C200.364 105.236 202.077 107.205 204.531 107.205ZM204.736 105.849C202.844 105.849 201.872 104.188 201.872 102.091C201.872 100.02 202.818 98.4091 204.736 98.4091C206.577 98.4091 207.548 99.892 207.548 102.091C207.548 104.315 206.551 105.849 204.736 105.849ZM218.191 102.986C218.191 104.827 216.785 105.67 215.66 105.67C214.407 105.67 213.512 104.75 213.512 103.318V97.1818H212.004V103.42C212.004 105.926 213.333 107.128 215.174 107.128C216.657 107.128 217.629 106.335 218.089 105.338H218.191V107H219.7V97.1818H218.191V102.986ZM226.451 107.205C228.625 107.205 230.056 105.875 230.312 104.136H228.804C228.522 105.21 227.627 105.849 226.451 105.849C224.662 105.849 223.511 104.366 223.511 102.091C223.511 99.8665 224.687 98.4091 226.451 98.4091C227.781 98.4091 228.574 99.2273 228.804 100.122H230.312C230.056 98.2812 228.497 97.054 226.426 97.054C223.767 97.054 222.002 99.1506 222.002 102.142C222.002 105.082 223.69 107.205 226.451 107.205ZM236.787 97.1818H234.691V94.8295H233.182V97.1818H231.699V98.4602H233.182V104.597C233.182 106.31 234.563 107.128 235.841 107.128C236.404 107.128 236.762 107.026 236.966 106.949L236.659 105.594C236.532 105.619 236.327 105.67 235.995 105.67C235.33 105.67 234.691 105.466 234.691 104.188V98.4602H236.787V97.1818ZM240.156 107.102C240.789 107.102 241.306 106.585 241.306 105.952C241.306 105.319 240.789 104.801 240.156 104.801C239.523 104.801 239.005 105.319 239.005 105.952C239.005 106.585 239.523 107.102 240.156 107.102ZM249.281 107H250.866V101.886H253.729C253.844 101.886 253.953 101.886 254.062 101.88L256.823 107H258.664L255.705 101.592C257.373 101.023 258.153 99.6619 258.153 97.9233C258.153 95.6094 256.772 93.9091 253.704 93.9091H249.281V107ZM250.866 100.455V95.3153H253.653C255.775 95.3153 256.593 96.3509 256.593 97.9233C256.593 99.4957 255.775 100.455 253.678 100.455H250.866ZM264.601 107.205C266.595 107.205 268.052 106.207 268.513 104.724L267.055 104.315C266.672 105.338 265.783 105.849 264.601 105.849C262.83 105.849 261.609 104.705 261.539 102.602H268.666V101.963C268.666 98.3068 266.493 97.054 264.447 97.054C261.788 97.054 260.024 99.1506 260.024 102.168C260.024 105.185 261.763 107.205 264.601 107.205ZM261.539 101.298C261.641 99.7706 262.721 98.4091 264.447 98.4091C266.084 98.4091 267.132 99.6364 267.132 101.298H261.539ZM277.915 99.3807C277.442 97.9872 276.381 97.054 274.438 97.054C272.367 97.054 270.833 98.2301 270.833 99.892C270.833 101.247 271.638 102.155 273.441 102.577L275.077 102.96C276.068 103.19 276.535 103.663 276.535 104.341C276.535 105.185 275.64 105.875 274.233 105.875C273 105.875 272.226 105.344 271.958 104.29L270.526 104.648C270.878 106.316 272.252 107.205 274.259 107.205C276.541 107.205 278.094 105.958 278.094 104.264C278.094 102.896 277.238 102.033 275.486 101.605L274.029 101.247C272.866 100.96 272.341 100.57 272.341 99.8153C272.341 98.9716 273.236 98.358 274.438 98.358C275.755 98.358 276.298 99.0866 276.56 99.7642L277.915 99.3807ZM280.365 110.682H281.874V105.491H282.001C282.334 106.028 282.973 107.205 284.865 107.205C287.32 107.205 289.033 105.236 289.033 102.116C289.033 99.0227 287.32 97.054 284.839 97.054C282.922 97.054 282.334 98.2301 282.001 98.7415H281.822V97.1818H280.365V110.682ZM281.848 102.091C281.848 99.892 282.82 98.4091 284.661 98.4091C286.578 98.4091 287.524 100.02 287.524 102.091C287.524 104.188 286.553 105.849 284.661 105.849C282.845 105.849 281.848 104.315 281.848 102.091ZM295.322 107.205C297.982 107.205 299.771 105.185 299.771 102.142C299.771 99.0739 297.982 97.054 295.322 97.054C292.663 97.054 290.874 99.0739 290.874 102.142C290.874 105.185 292.663 107.205 295.322 107.205ZM295.322 105.849C293.303 105.849 292.382 104.111 292.382 102.142C292.382 100.173 293.303 98.4091 295.322 98.4091C297.342 98.4091 298.263 100.173 298.263 102.142C298.263 104.111 297.342 105.849 295.322 105.849ZM303.583 101.094C303.583 99.3807 304.644 98.4091 306.088 98.4091C307.488 98.4091 308.338 99.3232 308.338 100.864V107H309.847V100.761C309.847 98.2557 308.511 97.054 306.523 97.054C305.04 97.054 304.119 97.7188 303.659 98.7159H303.531V97.1818H302.074V107H303.583V101.094ZM319.558 99.3807C319.085 97.9872 318.024 97.054 316.081 97.054C314.01 97.054 312.475 98.2301 312.475 99.892C312.475 101.247 313.281 102.155 315.083 102.577L316.72 102.96C317.711 103.19 318.177 103.663 318.177 104.341C318.177 105.185 317.282 105.875 315.876 105.875C314.642 105.875 313.869 105.344 313.6 104.29L312.169 104.648C312.52 106.316 313.895 107.205 315.902 107.205C318.184 107.205 319.737 105.958 319.737 104.264C319.737 102.896 318.88 102.033 317.129 101.605L315.672 101.247C314.508 100.96 313.984 100.57 313.984 99.8153C313.984 98.9716 314.879 98.358 316.081 98.358C317.397 98.358 317.941 99.0866 318.203 99.7642L319.558 99.3807ZM326.124 107.205C328.118 107.205 329.576 106.207 330.036 104.724L328.579 104.315C328.195 105.338 327.307 105.849 326.124 105.849C324.354 105.849 323.133 104.705 323.062 102.602H330.189V101.963C330.189 98.3068 328.016 97.054 325.971 97.054C323.312 97.054 321.547 99.1506 321.547 102.168C321.547 105.185 323.286 107.205 326.124 107.205ZM323.062 101.298C323.165 99.7706 324.245 98.4091 325.971 98.4091C327.607 98.4091 328.655 99.6364 328.655 101.298H323.062ZM339.439 99.3807C338.966 97.9872 337.905 97.054 335.961 97.054C333.89 97.054 332.356 98.2301 332.356 99.892C332.356 101.247 333.162 102.155 334.964 102.577L336.601 102.96C337.591 103.19 338.058 103.663 338.058 104.341C338.058 105.185 337.163 105.875 335.757 105.875C334.523 105.875 333.75 105.344 333.481 104.29L332.05 104.648C332.401 106.316 333.775 107.205 335.782 107.205C338.064 107.205 339.618 105.958 339.618 104.264C339.618 102.896 338.761 102.033 337.01 101.605L335.552 101.247C334.389 100.96 333.865 100.57 333.865 99.8153C333.865 98.9716 334.76 98.358 335.961 98.358C337.278 98.358 337.822 99.0866 338.084 99.7642L339.439 99.3807ZM346.951 107H348.46V100.864C348.46 99.4254 349.508 98.4091 350.684 98.4091C351.828 98.4091 352.627 99.157 352.627 100.276V107H354.161V100.608C354.161 99.3423 354.954 98.4091 356.335 98.4091C357.408 98.4091 358.329 98.978 358.329 100.429V107H359.837V100.429C359.837 98.1214 358.597 97.054 356.846 97.054C355.44 97.054 354.411 97.6996 353.906 98.7159H353.803C353.317 97.6676 352.461 97.054 351.17 97.054C349.891 97.054 348.945 97.6676 348.536 98.7159H348.408V97.1818H346.951V107ZM368.783 102.986C368.783 104.827 367.377 105.67 366.252 105.67C364.999 105.67 364.104 104.75 364.104 103.318V97.1818H362.596V103.42C362.596 105.926 363.925 107.128 365.766 107.128C367.249 107.128 368.221 106.335 368.681 105.338H368.783V107H370.292V97.1818H368.783V102.986ZM380.009 99.3807C379.536 97.9872 378.475 97.054 376.532 97.054C374.461 97.054 372.927 98.2301 372.927 99.892C372.927 101.247 373.732 102.155 375.535 102.577L377.171 102.96C378.162 103.19 378.628 103.663 378.628 104.341C378.628 105.185 377.733 105.875 376.327 105.875C375.094 105.875 374.32 105.344 374.052 104.29L372.62 104.648C372.971 106.316 374.346 107.205 376.353 107.205C378.635 107.205 380.188 105.958 380.188 104.264C380.188 102.896 379.331 102.033 377.58 101.605L376.123 101.247C374.959 100.96 374.435 100.57 374.435 99.8153C374.435 98.9716 375.33 98.358 376.532 98.358C377.849 98.358 378.392 99.0866 378.654 99.7642L380.009 99.3807ZM386.729 97.1818H384.632V94.8295H383.124V97.1818H381.641V98.4602H383.124V104.597C383.124 106.31 384.504 107.128 385.783 107.128C386.345 107.128 386.703 107.026 386.908 106.949L386.601 105.594C386.473 105.619 386.268 105.67 385.936 105.67C385.271 105.67 384.632 105.466 384.632 104.188V98.4602H386.729V97.1818ZM394.265 107H395.722V105.491H395.901C396.234 106.028 396.873 107.205 398.765 107.205C401.219 107.205 402.933 105.236 402.933 102.116C402.933 99.0227 401.219 97.054 398.739 97.054C396.822 97.054 396.234 98.2301 395.901 98.7415H395.773V93.9091H394.265V107ZM395.748 102.091C395.748 99.892 396.719 98.4091 398.56 98.4091C400.478 98.4091 401.424 100.02 401.424 102.091C401.424 104.188 400.452 105.849 398.56 105.849C396.745 105.849 395.748 104.315 395.748 102.091ZM409.357 107.205C411.351 107.205 412.808 106.207 413.268 104.724L411.811 104.315C411.428 105.338 410.539 105.849 409.357 105.849C407.586 105.849 406.365 104.705 406.295 102.602H413.422V101.963C413.422 98.3068 411.249 97.054 409.203 97.054C406.544 97.054 404.78 99.1506 404.78 102.168C404.78 105.185 406.518 107.205 409.357 107.205ZM406.295 101.298C406.397 99.7706 407.477 98.4091 409.203 98.4091C410.839 98.4091 411.888 99.6364 411.888 101.298H406.295ZM81.3807 139H82.8892V129.182H81.3807V139ZM82.1477 127.545C82.7358 127.545 83.2216 127.085 83.2216 126.523C83.2216 125.96 82.7358 125.5 82.1477 125.5C81.5597 125.5 81.0739 125.96 81.0739 126.523C81.0739 127.085 81.5597 127.545 82.1477 127.545ZM87.1607 133.094C87.1607 131.381 88.2218 130.409 89.6664 130.409C91.0662 130.409 91.9164 131.323 91.9164 132.864V139H93.4249V132.761C93.4249 130.256 92.089 129.054 90.101 129.054C88.6181 129.054 87.6976 129.719 87.2374 130.716H87.1096V129.182H85.6522V139H87.1607V133.094ZM101.449 139H109.451V137.594H103.034V133.145H108.94V131.739H103.034V127.315H109.349V125.909H101.449V139ZM113.51 133.094C113.51 131.381 114.571 130.409 116.016 130.409C117.416 130.409 118.266 131.323 118.266 132.864V139H119.775V132.761C119.775 130.256 118.439 129.054 116.451 129.054C114.968 129.054 114.047 129.719 113.587 130.716H113.459V129.182H112.002V139H113.51V133.094ZM126.494 142.886C128.846 142.886 130.738 141.812 130.738 139.281V129.182H129.281V130.741H129.128C128.795 130.23 128.182 129.054 126.264 129.054C123.784 129.054 122.071 131.023 122.071 134.04C122.071 137.108 123.861 138.847 126.238 138.847C128.156 138.847 128.77 137.722 129.102 137.185H129.23V139.179C129.23 140.815 128.079 141.557 126.494 141.557C124.711 141.557 124.084 140.617 123.682 140.074L122.48 140.918C123.094 141.947 124.302 142.886 126.494 142.886ZM126.443 137.491C124.551 137.491 123.579 136.06 123.579 134.014C123.579 132.02 124.525 130.409 126.443 130.409C128.284 130.409 129.256 131.892 129.256 134.014C129.256 136.188 128.258 137.491 126.443 137.491ZM135.008 125.909H133.5V139H135.008V125.909ZM137.771 139H139.28V129.182H137.771V139ZM138.538 127.545C139.126 127.545 139.612 127.085 139.612 126.523C139.612 125.96 139.126 125.5 138.538 125.5C137.95 125.5 137.464 125.96 137.464 126.523C137.464 127.085 137.95 127.545 138.538 127.545ZM148.997 131.381C148.524 129.987 147.463 129.054 145.52 129.054C143.449 129.054 141.915 130.23 141.915 131.892C141.915 133.247 142.72 134.155 144.523 134.577L146.159 134.96C147.15 135.19 147.617 135.663 147.617 136.341C147.617 137.185 146.722 137.875 145.316 137.875C144.082 137.875 143.308 137.344 143.04 136.29L141.608 136.648C141.96 138.316 143.334 139.205 145.341 139.205C147.623 139.205 149.176 137.958 149.176 136.264C149.176 134.896 148.32 134.033 146.568 133.605L145.111 133.247C143.948 132.96 143.423 132.57 143.423 131.815C143.423 130.972 144.318 130.358 145.52 130.358C146.837 130.358 147.38 131.087 147.642 131.764L148.997 131.381ZM152.956 133.094C152.956 131.381 154.049 130.409 155.538 130.409C156.957 130.409 157.814 131.304 157.814 132.864V139H159.322V132.761C159.322 130.237 157.98 129.054 155.973 129.054C154.426 129.054 153.544 129.7 153.083 130.716H152.956V125.909H151.447V139H152.956V133.094ZM170.034 139.23C171.747 139.23 172.642 138.31 172.948 137.67H173.025V139H174.534V132.531C174.534 129.412 172.156 129.054 170.903 129.054C169.42 129.054 167.732 129.565 166.965 131.355L168.397 131.866C168.73 131.151 169.516 130.384 170.954 130.384C172.341 130.384 173.025 131.119 173.025 132.378V132.429C173.025 133.158 172.284 133.094 170.494 133.324C168.672 133.56 166.684 133.963 166.684 136.213C166.684 138.131 168.167 139.23 170.034 139.23ZM170.264 137.875C169.062 137.875 168.193 137.338 168.193 136.29C168.193 135.139 169.241 134.781 170.417 134.628C171.056 134.551 172.769 134.372 173.025 134.065V135.446C173.025 136.673 172.053 137.875 170.264 137.875ZM178.795 133.094C178.795 131.381 179.857 130.409 181.301 130.409C182.701 130.409 183.551 131.323 183.551 132.864V139H185.06V132.761C185.06 130.256 183.724 129.054 181.736 129.054C180.253 129.054 179.332 129.719 178.872 130.716H178.744V129.182H177.287V139H178.795V133.094ZM191.524 139.205C193.416 139.205 194.055 138.028 194.387 137.491H194.566V139H196.024V125.909H194.515V130.741H194.387C194.055 130.23 193.467 129.054 191.549 129.054C189.069 129.054 187.356 131.023 187.356 134.116C187.356 137.236 189.069 139.205 191.524 139.205ZM191.728 137.849C189.836 137.849 188.865 136.188 188.865 134.091C188.865 132.02 189.811 130.409 191.728 130.409C193.569 130.409 194.541 131.892 194.541 134.091C194.541 136.315 193.544 137.849 191.728 137.849ZM204.058 139H205.567V132.787C205.567 131.457 206.615 130.486 208.047 130.486C208.45 130.486 208.865 130.562 208.968 130.588V129.054C208.795 129.041 208.399 129.028 208.175 129.028C206.999 129.028 205.976 129.693 205.618 130.665H205.516V129.182H204.058V139ZM214.573 139.205C216.568 139.205 218.025 138.207 218.485 136.724L217.028 136.315C216.644 137.338 215.756 137.849 214.573 137.849C212.803 137.849 211.582 136.705 211.512 134.602H218.639V133.963C218.639 130.307 216.465 129.054 214.42 129.054C211.761 129.054 209.997 131.151 209.997 134.168C209.997 137.185 211.735 139.205 214.573 139.205ZM211.512 133.298C211.614 131.771 212.694 130.409 214.42 130.409C216.056 130.409 217.105 131.636 217.105 133.298H211.512ZM222.442 125.909H220.933V139H222.442V125.909ZM229.321 139.205C231.316 139.205 232.773 138.207 233.233 136.724L231.776 136.315C231.392 137.338 230.504 137.849 229.321 137.849C227.551 137.849 226.33 136.705 226.26 134.602H233.387V133.963C233.387 130.307 231.213 129.054 229.168 129.054C226.509 129.054 224.745 131.151 224.745 134.168C224.745 137.185 226.483 139.205 229.321 139.205ZM226.26 133.298C226.362 131.771 227.442 130.409 229.168 130.409C230.804 130.409 231.853 131.636 231.853 133.298H226.26ZM243.411 129.182H241.775L239.064 137.006H238.962L236.252 129.182H234.616L238.246 139H239.78L243.411 129.182ZM247.993 139.23C249.706 139.23 250.6 138.31 250.907 137.67H250.984V139H252.493V132.531C252.493 129.412 250.115 129.054 248.862 129.054C247.379 129.054 245.691 129.565 244.924 131.355L246.356 131.866C246.689 131.151 247.475 130.384 248.913 130.384C250.3 130.384 250.984 131.119 250.984 132.378V132.429C250.984 133.158 250.243 133.094 248.453 133.324C246.631 133.56 244.643 133.963 244.643 136.213C244.643 138.131 246.126 139.23 247.993 139.23ZM248.223 137.875C247.021 137.875 246.152 137.338 246.152 136.29C246.152 135.139 247.2 134.781 248.376 134.628C249.015 134.551 250.728 134.372 250.984 134.065V135.446C250.984 136.673 250.012 137.875 248.223 137.875ZM256.754 133.094C256.754 131.381 257.816 130.409 259.26 130.409C260.66 130.409 261.51 131.323 261.51 132.864V139H263.019V132.761C263.019 130.256 261.683 129.054 259.695 129.054C258.212 129.054 257.291 129.719 256.831 130.716H256.703V129.182H255.246V139H256.754V133.094ZM270.045 129.182H267.949V126.83H266.44V129.182H264.957V130.46H266.44V136.597C266.44 138.31 267.821 139.128 269.099 139.128C269.662 139.128 270.02 139.026 270.224 138.949L269.917 137.594C269.789 137.619 269.585 137.67 269.252 137.67C268.588 137.67 267.949 137.466 267.949 136.188V130.46H270.045V129.182ZM273.414 139.102C274.047 139.102 274.564 138.585 274.564 137.952C274.564 137.319 274.047 136.801 273.414 136.801C272.781 136.801 272.263 137.319 272.263 137.952C272.263 138.585 272.781 139.102 273.414 139.102ZM286.578 139C290.567 139 292.817 136.52 292.817 132.429C292.817 128.364 290.567 125.909 286.757 125.909H282.538V139H286.578ZM284.124 137.594V127.315H286.655C289.723 127.315 291.283 129.259 291.283 132.429C291.283 135.625 289.723 137.594 286.476 137.594H284.124ZM299.26 139.205C301.919 139.205 303.709 137.185 303.709 134.142C303.709 131.074 301.919 129.054 299.26 129.054C296.601 129.054 294.811 131.074 294.811 134.142C294.811 137.185 296.601 139.205 299.26 139.205ZM299.26 137.849C297.24 137.849 296.32 136.111 296.32 134.142C296.32 132.173 297.24 130.409 299.26 130.409C301.28 130.409 302.2 132.173 302.2 134.142C302.2 136.111 301.28 137.849 299.26 137.849ZM321.659 125.909H320.1V136.213H319.972L312.813 125.909H311.279V139H312.864V128.722H312.992L320.125 139H321.659V125.909ZM335.877 132.455C335.877 128.312 333.448 125.73 330.098 125.73C326.749 125.73 324.32 128.312 324.32 132.455C324.32 136.597 326.749 139.179 330.098 139.179C333.448 139.179 335.877 136.597 335.877 132.455ZM334.343 132.455C334.343 135.855 332.476 137.696 330.098 137.696C327.721 137.696 325.854 135.855 325.854 132.455C325.854 129.054 327.721 127.213 330.098 127.213C332.476 127.213 334.343 129.054 334.343 132.455ZM337.281 127.315H341.398V139H342.983V127.315H347.1V125.909H337.281V127.315ZM357.293 139.23C359.006 139.23 359.901 138.31 360.208 137.67H360.285V139H361.793V132.531C361.793 129.412 359.415 129.054 358.163 129.054C356.68 129.054 354.992 129.565 354.225 131.355L355.657 131.866C355.989 131.151 356.776 130.384 358.214 130.384C359.601 130.384 360.285 131.119 360.285 132.378V132.429C360.285 133.158 359.543 133.094 357.754 133.324C355.932 133.56 353.944 133.963 353.944 136.213C353.944 138.131 355.427 139.23 357.293 139.23ZM357.523 137.875C356.322 137.875 355.452 137.338 355.452 136.29C355.452 135.139 356.501 134.781 357.677 134.628C358.316 134.551 360.029 134.372 360.285 134.065V135.446C360.285 136.673 359.313 137.875 357.523 137.875ZM371.501 131.381C371.028 129.987 369.967 129.054 368.024 129.054C365.953 129.054 364.419 130.23 364.419 131.892C364.419 133.247 365.224 134.155 367.027 134.577L368.663 134.96C369.654 135.19 370.121 135.663 370.121 136.341C370.121 137.185 369.226 137.875 367.819 137.875C366.586 137.875 365.812 137.344 365.544 136.29L364.112 136.648C364.464 138.316 365.838 139.205 367.845 139.205C370.127 139.205 371.68 137.958 371.68 136.264C371.68 134.896 370.824 134.033 369.072 133.605L367.615 133.247C366.452 132.96 365.927 132.57 365.927 131.815C365.927 130.972 366.822 130.358 368.024 130.358C369.341 130.358 369.884 131.087 370.146 131.764L371.501 131.381ZM373.951 139H375.46V135.325L376.514 134.347L380.19 139H382.107L377.652 133.375L381.8 129.182H379.934L375.638 133.554H375.46V125.909H373.951V139ZM391.694 139.23C393.407 139.23 394.302 138.31 394.608 137.67H394.685V139H396.194V132.531C396.194 129.412 393.816 129.054 392.563 129.054C391.08 129.054 389.393 129.565 388.626 131.355L390.057 131.866C390.39 131.151 391.176 130.384 392.614 130.384C394.001 130.384 394.685 131.119 394.685 132.378V132.429C394.685 133.158 393.944 133.094 392.154 133.324C390.332 133.56 388.344 133.963 388.344 136.213C388.344 138.131 389.827 139.23 391.694 139.23ZM391.924 137.875C390.722 137.875 389.853 137.338 389.853 136.29C389.853 135.139 390.901 134.781 392.077 134.628C392.716 134.551 394.43 134.372 394.685 134.065V135.446C394.685 136.673 393.714 137.875 391.924 137.875ZM399.152 139H400.609V137.491H400.788C401.12 138.028 401.76 139.205 403.652 139.205C406.106 139.205 407.819 137.236 407.819 134.116C407.819 131.023 406.106 129.054 403.626 129.054C401.708 129.054 401.12 130.23 400.788 130.741H400.66V125.909H399.152V139ZM400.635 134.091C400.635 131.892 401.606 130.409 403.447 130.409C405.365 130.409 406.311 132.02 406.311 134.091C406.311 136.188 405.339 137.849 403.447 137.849C401.632 137.849 400.635 136.315 400.635 134.091ZM414.115 139.205C416.775 139.205 418.564 137.185 418.564 134.142C418.564 131.074 416.775 129.054 414.115 129.054C411.456 129.054 409.667 131.074 409.667 134.142C409.667 137.185 411.456 139.205 414.115 139.205ZM414.115 137.849C412.096 137.849 411.175 136.111 411.175 134.142C411.175 132.173 412.096 130.409 414.115 130.409C416.135 130.409 417.056 132.173 417.056 134.142C417.056 136.111 416.135 137.849 414.115 137.849ZM427.055 134.986C427.055 136.827 425.648 137.67 424.523 137.67C423.27 137.67 422.376 136.75 422.376 135.318V129.182H420.867V135.42C420.867 137.926 422.197 139.128 424.037 139.128C425.52 139.128 426.492 138.335 426.952 137.338H427.055V139H428.563V129.182H427.055V134.986ZM435.596 129.182H433.499V126.83H431.991V129.182H430.508V130.46H431.991V136.597C431.991 138.31 433.371 139.128 434.65 139.128C435.212 139.128 435.57 139.026 435.775 138.949L435.468 137.594C435.34 137.619 435.136 137.67 434.803 137.67C434.138 137.67 433.499 137.466 433.499 136.188V130.46H435.596V129.182ZM84.2699 171.23C85.983 171.23 86.8778 170.31 87.1847 169.67H87.2614V171H88.7699V164.531C88.7699 161.412 86.392 161.054 85.1392 161.054C83.6562 161.054 81.9688 161.565 81.2017 163.355L82.6335 163.866C82.9659 163.151 83.7521 162.384 85.1903 162.384C86.5774 162.384 87.2614 163.119 87.2614 164.378V164.429C87.2614 165.158 86.5199 165.094 84.7301 165.324C82.9084 165.56 80.9205 165.963 80.9205 168.213C80.9205 170.131 82.4034 171.23 84.2699 171.23ZM84.5 169.875C83.2983 169.875 82.429 169.338 82.429 168.29C82.429 167.139 83.4773 166.781 84.6534 166.628C85.2926 166.551 87.0057 166.372 87.2614 166.065V167.446C87.2614 168.673 86.2898 169.875 84.5 169.875ZM93.0318 165.094C93.0318 163.381 94.0929 162.409 95.5375 162.409C96.9373 162.409 97.7875 163.323 97.7875 164.864V171H99.296V164.761C99.296 162.256 97.9601 161.054 95.9721 161.054C94.4892 161.054 93.5687 161.719 93.1085 162.716H92.9806V161.182H91.5233V171H93.0318V165.094ZM102.673 174.682C104.034 174.682 104.993 173.96 105.562 172.432L109.729 161.182H108.093L105.383 169.006H105.281L102.57 161.182H100.934L104.565 171.051L104.283 171.818C103.734 173.314 103.056 173.455 101.957 173.173L101.573 174.503C101.727 174.58 102.161 174.682 102.673 174.682ZM120.772 171.205C123.431 171.205 125.221 169.185 125.221 166.142C125.221 163.074 123.431 161.054 120.772 161.054C118.113 161.054 116.323 163.074 116.323 166.142C116.323 169.185 118.113 171.205 120.772 171.205ZM120.772 169.849C118.752 169.849 117.831 168.111 117.831 166.142C117.831 164.173 118.752 162.409 120.772 162.409C122.792 162.409 123.712 164.173 123.712 166.142C123.712 168.111 122.792 169.849 120.772 169.849ZM131.793 161.182H129.697V158.83H128.188V161.182H126.705V162.46H128.188V168.597C128.188 170.31 129.569 171.128 130.847 171.128C131.41 171.128 131.768 171.026 131.972 170.949L131.665 169.594C131.537 169.619 131.333 169.67 131.001 169.67C130.336 169.67 129.697 169.466 129.697 168.188V162.46H131.793V161.182ZM135.782 165.094C135.782 163.381 136.875 162.409 138.364 162.409C139.783 162.409 140.64 163.304 140.64 164.864V171H142.148V164.761C142.148 162.237 140.806 161.054 138.799 161.054C137.252 161.054 136.37 161.7 135.91 162.716H135.782V157.909H134.273V171H135.782V165.094ZM149.025 171.205C151.019 171.205 152.476 170.207 152.936 168.724L151.479 168.315C151.096 169.338 150.207 169.849 149.025 169.849C147.254 169.849 146.033 168.705 145.963 166.602H153.09V165.963C153.09 162.307 150.917 161.054 148.871 161.054C146.212 161.054 144.448 163.151 144.448 166.168C144.448 169.185 146.186 171.205 149.025 171.205ZM145.963 165.298C146.065 163.771 147.145 162.409 148.871 162.409C150.507 162.409 151.556 163.636 151.556 165.298H145.963ZM155.385 171H156.893V164.787C156.893 163.457 157.941 162.486 159.373 162.486C159.776 162.486 160.191 162.562 160.294 162.588V161.054C160.121 161.041 159.725 161.028 159.501 161.028C158.325 161.028 157.302 161.693 156.944 162.665H156.842V161.182H155.385V171ZM167.144 174.682H168.653V169.491H168.781C169.113 170.028 169.752 171.205 171.644 171.205C174.099 171.205 175.812 169.236 175.812 166.116C175.812 163.023 174.099 161.054 171.619 161.054C169.701 161.054 169.113 162.23 168.781 162.741H168.602V161.182H167.144V174.682ZM168.627 166.091C168.627 163.892 169.599 162.409 171.44 162.409C173.357 162.409 174.303 164.02 174.303 166.091C174.303 168.188 173.332 169.849 171.44 169.849C169.624 169.849 168.627 168.315 168.627 166.091ZM178.113 171H179.622V164.787C179.622 163.457 180.67 162.486 182.102 162.486C182.504 162.486 182.92 162.562 183.022 162.588V161.054C182.85 161.041 182.453 161.028 182.23 161.028C181.053 161.028 180.031 161.693 179.673 162.665H179.57V161.182H178.113V171ZM188.5 171.205C191.159 171.205 192.949 169.185 192.949 166.142C192.949 163.074 191.159 161.054 188.5 161.054C185.841 161.054 184.051 163.074 184.051 166.142C184.051 169.185 185.841 171.205 188.5 171.205ZM188.5 169.849C186.48 169.849 185.56 168.111 185.56 166.142C185.56 164.173 186.48 162.409 188.5 162.409C190.52 162.409 191.441 164.173 191.441 166.142C191.441 168.111 190.52 169.849 188.5 169.849ZM198.959 171.205C200.851 171.205 201.49 170.028 201.823 169.491H202.002V171H203.459V157.909H201.951V162.741H201.823C201.49 162.23 200.902 161.054 198.985 161.054C196.505 161.054 194.792 163.023 194.792 166.116C194.792 169.236 196.505 171.205 198.959 171.205ZM199.164 169.849C197.272 169.849 196.3 168.188 196.3 166.091C196.3 164.02 197.246 162.409 199.164 162.409C201.005 162.409 201.976 163.892 201.976 166.091C201.976 168.315 200.979 169.849 199.164 169.849ZM212.619 166.986C212.619 168.827 211.213 169.67 210.088 169.67C208.835 169.67 207.94 168.75 207.94 167.318V161.182H206.431V167.42C206.431 169.926 207.761 171.128 209.602 171.128C211.085 171.128 212.056 170.335 212.517 169.338H212.619V171H214.127V161.182H212.619V166.986ZM220.879 171.205C223.052 171.205 224.484 169.875 224.74 168.136H223.231C222.95 169.21 222.055 169.849 220.879 169.849C219.089 169.849 217.939 168.366 217.939 166.091C217.939 163.866 219.115 162.409 220.879 162.409C222.209 162.409 223.001 163.227 223.231 164.122H224.74C224.484 162.281 222.925 161.054 220.854 161.054C218.194 161.054 216.43 163.151 216.43 166.142C216.43 169.082 218.118 171.205 220.879 171.205ZM231.215 161.182H229.118V158.83H227.61V161.182H226.127V162.46H227.61V168.597C227.61 170.31 228.991 171.128 230.269 171.128C230.831 171.128 231.189 171.026 231.394 170.949L231.087 169.594C230.959 169.619 230.755 169.67 230.422 169.67C229.758 169.67 229.118 169.466 229.118 168.188V162.46H231.215V161.182ZM240.263 163.381C239.79 161.987 238.729 161.054 236.786 161.054C234.715 161.054 233.181 162.23 233.181 163.892C233.181 165.247 233.986 166.155 235.789 166.577L237.425 166.96C238.416 167.19 238.882 167.663 238.882 168.341C238.882 169.185 237.987 169.875 236.581 169.875C235.347 169.875 234.574 169.344 234.306 168.29L232.874 168.648C233.225 170.316 234.6 171.205 236.607 171.205C238.889 171.205 240.442 169.958 240.442 168.264C240.442 166.896 239.585 166.033 237.834 165.605L236.377 165.247C235.213 164.96 234.689 164.57 234.689 163.815C234.689 162.972 235.584 162.358 236.786 162.358C238.102 162.358 238.646 163.087 238.908 163.764L240.263 163.381ZM253.4 164.685H247.673V166.091H253.4V164.685ZM261.117 161.182V171.716C261.117 172.713 260.708 173.276 259.787 173.276H259.506V174.682H259.813C261.705 174.682 262.626 173.531 262.626 171.716V161.182H261.117ZM261.858 159.545C262.447 159.545 262.932 159.085 262.932 158.523C262.932 157.96 262.447 157.5 261.858 157.5C261.27 157.5 260.785 157.96 260.785 158.523C260.785 159.085 261.27 159.545 261.858 159.545ZM271.576 166.986C271.576 168.827 270.17 169.67 269.045 169.67C267.792 169.67 266.897 168.75 266.897 167.318V161.182H265.388V167.42C265.388 169.926 266.718 171.128 268.559 171.128C270.042 171.128 271.013 170.335 271.474 169.338H271.576V171H273.085V161.182H271.576V166.986ZM282.802 163.381C282.329 161.987 281.268 161.054 279.325 161.054C277.254 161.054 275.72 162.23 275.72 163.892C275.72 165.247 276.525 166.155 278.328 166.577L279.964 166.96C280.955 167.19 281.421 167.663 281.421 168.341C281.421 169.185 280.526 169.875 279.12 169.875C277.887 169.875 277.113 169.344 276.845 168.29L275.413 168.648C275.764 170.316 277.139 171.205 279.146 171.205C281.428 171.205 282.981 169.958 282.981 168.264C282.981 166.896 282.124 166.033 280.373 165.605L278.916 165.247C277.752 164.96 277.228 164.57 277.228 163.815C277.228 162.972 278.123 162.358 279.325 162.358C280.642 162.358 281.185 163.087 281.447 163.764L282.802 163.381ZM289.522 161.182H287.425V158.83H285.917V161.182H284.434V162.46H285.917V168.597C285.917 170.31 287.297 171.128 288.576 171.128C289.138 171.128 289.496 171.026 289.701 170.949L289.394 169.594C289.266 169.619 289.061 169.67 288.729 169.67C288.064 169.67 287.425 169.466 287.425 168.188V162.46H289.522V161.182ZM299.743 171.23C301.456 171.23 302.35 170.31 302.657 169.67H302.734V171H304.243V164.531C304.243 161.412 301.865 161.054 300.612 161.054C299.129 161.054 297.441 161.565 296.674 163.355L298.106 163.866C298.439 163.151 299.225 162.384 300.663 162.384C302.05 162.384 302.734 163.119 302.734 164.378V164.429C302.734 165.158 301.993 165.094 300.203 165.324C298.381 165.56 296.393 165.963 296.393 168.213C296.393 170.131 297.876 171.23 299.743 171.23ZM299.973 169.875C298.771 169.875 297.902 169.338 297.902 168.29C297.902 167.139 298.95 166.781 300.126 166.628C300.765 166.551 302.478 166.372 302.734 166.065V167.446C302.734 168.673 301.762 169.875 299.973 169.875ZM307.2 171H308.658V169.491H308.837C309.169 170.028 309.808 171.205 311.7 171.205C314.155 171.205 315.868 169.236 315.868 166.116C315.868 163.023 314.155 161.054 311.675 161.054C309.757 161.054 309.169 162.23 308.837 162.741H308.709V157.909H307.2V171ZM308.683 166.091C308.683 163.892 309.655 162.409 311.496 162.409C313.414 162.409 314.36 164.02 314.36 166.091C314.36 168.188 313.388 169.849 311.496 169.849C309.681 169.849 308.683 168.315 308.683 166.091ZM322.164 171.205C324.823 171.205 326.613 169.185 326.613 166.142C326.613 163.074 324.823 161.054 322.164 161.054C319.505 161.054 317.715 163.074 317.715 166.142C317.715 169.185 319.505 171.205 322.164 171.205ZM322.164 169.849C320.144 169.849 319.224 168.111 319.224 166.142C319.224 164.173 320.144 162.409 322.164 162.409C324.184 162.409 325.105 164.173 325.105 166.142C325.105 168.111 324.184 169.849 322.164 169.849ZM335.103 166.986C335.103 168.827 333.697 169.67 332.572 169.67C331.319 169.67 330.424 168.75 330.424 167.318V161.182H328.916V167.42C328.916 169.926 330.245 171.128 332.086 171.128C333.569 171.128 334.541 170.335 335.001 169.338H335.103V171H336.612V161.182H335.103V166.986ZM343.645 161.182H341.548V158.83H340.04V161.182H338.557V162.46H340.04V168.597C340.04 170.31 341.42 171.128 342.699 171.128C343.261 171.128 343.619 171.026 343.824 170.949L343.517 169.594C343.389 169.619 343.184 169.67 342.852 169.67C342.187 169.67 341.548 169.466 341.548 168.188V162.46H343.645V161.182ZM355.246 161.182H353.15V158.83H351.641V161.182H350.158V162.46H351.641V168.597C351.641 170.31 353.022 171.128 354.3 171.128C354.863 171.128 355.221 171.026 355.425 170.949L355.118 169.594C354.991 169.619 354.786 169.67 354.454 169.67C353.789 169.67 353.15 169.466 353.15 168.188V162.46H355.246V161.182ZM359.235 165.094C359.235 163.381 360.328 162.409 361.817 162.409C363.236 162.409 364.093 163.304 364.093 164.864V171H365.601V164.761C365.601 162.237 364.259 161.054 362.252 161.054C360.705 161.054 359.823 161.7 359.363 162.716H359.235V157.909H357.726V171H359.235V165.094ZM372.478 171.205C374.472 171.205 375.929 170.207 376.39 168.724L374.932 168.315C374.549 169.338 373.66 169.849 372.478 169.849C370.707 169.849 369.486 168.705 369.416 166.602H376.543V165.963C376.543 162.307 374.37 161.054 372.324 161.054C369.665 161.054 367.901 163.151 367.901 166.168C367.901 169.185 369.64 171.205 372.478 171.205ZM369.416 165.298C369.518 163.771 370.598 162.409 372.324 162.409C373.961 162.409 375.009 163.636 375.009 165.298H369.416ZM81.3807 206.682H82.8892V201.491H83.017C83.3494 202.028 83.9886 203.205 85.8807 203.205C88.3352 203.205 90.0483 201.236 90.0483 198.116C90.0483 195.023 88.3352 193.054 85.8551 193.054C83.9375 193.054 83.3494 194.23 83.017 194.741H82.8381V193.182H81.3807V206.682ZM82.8636 198.091C82.8636 195.892 83.8352 194.409 85.6761 194.409C87.5938 194.409 88.5398 196.02 88.5398 198.091C88.5398 200.188 87.5682 201.849 85.6761 201.849C83.8608 201.849 82.8636 200.315 82.8636 198.091ZM93.858 197.094C93.858 195.381 94.951 194.409 96.4403 194.409C97.8594 194.409 98.7159 195.304 98.7159 196.864V203H100.224V196.761C100.224 194.237 98.8821 193.054 96.875 193.054C95.3281 193.054 94.446 193.7 93.9858 194.716H93.858V189.909H92.3494V203H93.858V197.094ZM106.973 203.205C109.632 203.205 111.422 201.185 111.422 198.142C111.422 195.074 109.632 193.054 106.973 193.054C104.314 193.054 102.524 195.074 102.524 198.142C102.524 201.185 104.314 203.205 106.973 203.205ZM106.973 201.849C104.953 201.849 104.032 200.111 104.032 198.142C104.032 196.173 104.953 194.409 106.973 194.409C108.993 194.409 109.913 196.173 109.913 198.142C109.913 200.111 108.993 201.849 106.973 201.849ZM115.233 197.094C115.233 195.381 116.294 194.409 117.739 194.409C119.138 194.409 119.989 195.323 119.989 196.864V203H121.497V196.761C121.497 194.256 120.161 193.054 118.173 193.054C116.69 193.054 115.77 193.719 115.31 194.716H115.182V193.182H113.724V203H115.233V197.094ZM128.37 203.205C130.365 203.205 131.822 202.207 132.282 200.724L130.825 200.315C130.441 201.338 129.553 201.849 128.37 201.849C126.6 201.849 125.379 200.705 125.308 198.602H132.436V197.963C132.436 194.307 130.262 193.054 128.217 193.054C125.558 193.054 123.794 195.151 123.794 198.168C123.794 201.185 125.532 203.205 128.37 203.205ZM125.308 197.298C125.411 195.771 126.491 194.409 128.217 194.409C129.853 194.409 130.901 195.636 130.901 197.298H125.308ZM139.793 206.682H141.301V201.491H141.429C141.762 202.028 142.401 203.205 144.293 203.205C146.747 203.205 148.46 201.236 148.46 198.116C148.46 195.023 146.747 193.054 144.267 193.054C142.35 193.054 141.762 194.23 141.429 194.741H141.25V193.182H139.793V206.682ZM141.276 198.091C141.276 195.892 142.247 194.409 144.088 194.409C146.006 194.409 146.952 196.02 146.952 198.091C146.952 200.188 145.98 201.849 144.088 201.849C142.273 201.849 141.276 200.315 141.276 198.091ZM150.762 203H152.27V196.787C152.27 195.457 153.318 194.486 154.75 194.486C155.153 194.486 155.568 194.562 155.671 194.588V193.054C155.498 193.041 155.102 193.028 154.878 193.028C153.702 193.028 152.679 193.693 152.321 194.665H152.219V193.182H150.762V203ZM161.149 203.205C163.808 203.205 165.597 201.185 165.597 198.142C165.597 195.074 163.808 193.054 161.149 193.054C158.49 193.054 156.7 195.074 156.7 198.142C156.7 201.185 158.49 203.205 161.149 203.205ZM161.149 201.849C159.129 201.849 158.208 200.111 158.208 198.142C158.208 196.173 159.129 194.409 161.149 194.409C163.169 194.409 164.089 196.173 164.089 198.142C164.089 200.111 163.169 201.849 161.149 201.849ZM171.608 203.205C173.5 203.205 174.139 202.028 174.471 201.491H174.65V203H176.108V189.909H174.599V194.741H174.471C174.139 194.23 173.551 193.054 171.633 193.054C169.153 193.054 167.44 195.023 167.44 198.116C167.44 201.236 169.153 203.205 171.608 203.205ZM171.812 201.849C169.92 201.849 168.949 200.188 168.949 198.091C168.949 196.02 169.895 194.409 171.812 194.409C173.653 194.409 174.625 195.892 174.625 198.091C174.625 200.315 173.627 201.849 171.812 201.849ZM185.267 198.986C185.267 200.827 183.861 201.67 182.736 201.67C181.483 201.67 180.588 200.75 180.588 199.318V193.182H179.08V199.42C179.08 201.926 180.409 203.128 182.25 203.128C183.733 203.128 184.705 202.335 185.165 201.338H185.267V203H186.776V193.182H185.267V198.986ZM193.528 203.205C195.701 203.205 197.133 201.875 197.388 200.136H195.88C195.599 201.21 194.704 201.849 193.528 201.849C191.738 201.849 190.587 200.366 190.587 198.091C190.587 195.866 191.763 194.409 193.528 194.409C194.857 194.409 195.65 195.227 195.88 196.122H197.388C197.133 194.281 195.573 193.054 193.502 193.054C190.843 193.054 189.079 195.151 189.079 198.142C189.079 201.082 190.766 203.205 193.528 203.205ZM203.863 193.182H201.767V190.83H200.258V193.182H198.775V194.46H200.258V200.597C200.258 202.31 201.639 203.128 202.917 203.128C203.48 203.128 203.838 203.026 204.042 202.949L203.736 201.594C203.608 201.619 203.403 201.67 203.071 201.67C202.406 201.67 201.767 201.466 201.767 200.188V194.46H203.863V193.182ZM207.232 203.102C207.865 203.102 208.383 202.585 208.383 201.952C208.383 201.319 207.865 200.801 207.232 200.801C206.599 200.801 206.081 201.319 206.081 201.952C206.081 202.585 206.599 203.102 207.232 203.102Z" fill="white"/>
<g filter="url(#filter0_dd)">
<rect x="40" y="304" width="448" height="184" rx="24" fill="white"/>
</g>
<line x1="58" y1="322" x2="58" y2="470" stroke="#F0F3F7" stroke-width="4" stroke-linecap="round"/>
<path d="M81.5852 339H83.1705V333.145H90.1506V339H91.7358V325.909H90.1506V331.739H83.1705V325.909H81.5852V339ZM94.7049 339H96.2134V329.182H94.7049V339ZM95.4719 327.545C96.06 327.545 96.5458 327.085 96.5458 326.523C96.5458 325.96 96.06 325.5 95.4719 325.5C94.8839 325.5 94.3981 325.96 94.3981 326.523C94.3981 327.085 94.8839 327.545 95.4719 327.545ZM100.971 325.909H99.2321L99.3599 335.318H100.843L100.971 325.909ZM100.101 339.102C100.734 339.102 101.252 338.585 101.252 337.952C101.252 337.319 100.734 336.801 100.101 336.801C99.4686 336.801 98.9508 337.319 98.9508 337.952C98.9508 338.585 99.4686 339.102 100.101 339.102ZM110.838 325.909H109.253V339H110.838V325.909ZM115.142 325.909H113.71V327.085C113.71 328.031 113.25 328.849 112.713 329.616L113.531 330.281C114.554 329.463 115.142 328.108 115.142 327.06V325.909ZM116.748 339H118.256V332.864C118.256 331.425 119.305 330.409 120.481 330.409C121.625 330.409 122.424 331.157 122.424 332.276V339H123.958V332.608C123.958 331.342 124.751 330.409 126.131 330.409C127.205 330.409 128.126 330.978 128.126 332.429V339H129.634V332.429C129.634 330.121 128.394 329.054 126.643 329.054C125.237 329.054 124.207 329.7 123.702 330.716H123.6C123.114 329.668 122.258 329.054 120.967 329.054C119.688 329.054 118.742 329.668 118.333 330.716H118.205V329.182H116.748V339ZM137.455 339H138.963V329.182H137.455V339ZM138.222 327.545C138.81 327.545 139.296 327.085 139.296 326.523C139.296 325.96 138.81 325.5 138.222 325.5C137.634 325.5 137.148 325.96 137.148 326.523C137.148 327.085 137.634 327.545 138.222 327.545ZM143.235 333.094C143.235 331.381 144.296 330.409 145.741 330.409C147.14 330.409 147.991 331.323 147.991 332.864V339H149.499V332.761C149.499 330.256 148.163 329.054 146.175 329.054C144.692 329.054 143.772 329.719 143.312 330.716H143.184V329.182H141.726V339H143.235V333.094ZM156.526 329.182H154.429V326.83H152.92V329.182H151.438V330.46H152.92V336.597C152.92 338.31 154.301 339.128 155.58 339.128C156.142 339.128 156.5 339.026 156.705 338.949L156.398 337.594C156.27 337.619 156.065 337.67 155.733 337.67C155.068 337.67 154.429 337.466 154.429 336.188V330.46H156.526V329.182ZM162.806 339.205C164.8 339.205 166.257 338.207 166.718 336.724L165.26 336.315C164.877 337.338 163.988 337.849 162.806 337.849C161.035 337.849 159.814 336.705 159.744 334.602H166.871V333.963C166.871 330.307 164.698 329.054 162.652 329.054C159.993 329.054 158.229 331.151 158.229 334.168C158.229 337.185 159.968 339.205 162.806 339.205ZM159.744 333.298C159.846 331.771 160.926 330.409 162.652 330.409C164.289 330.409 165.337 331.636 165.337 333.298H159.744ZM169.166 339H170.674V332.787C170.674 331.457 171.723 330.486 173.154 330.486C173.557 330.486 173.973 330.562 174.075 330.588V329.054C173.902 329.041 173.506 329.028 173.282 329.028C172.106 329.028 171.083 329.693 170.725 330.665H170.623V329.182H169.166V339ZM179.681 339.205C181.675 339.205 183.132 338.207 183.593 336.724L182.135 336.315C181.752 337.338 180.863 337.849 179.681 337.849C177.91 337.849 176.689 336.705 176.619 334.602H183.746V333.963C183.746 330.307 181.573 329.054 179.527 329.054C176.868 329.054 175.104 331.151 175.104 334.168C175.104 337.185 176.843 339.205 179.681 339.205ZM176.619 333.298C176.721 331.771 177.801 330.409 179.527 330.409C181.164 330.409 182.212 331.636 182.212 333.298H176.619ZM192.995 331.381C192.522 329.987 191.461 329.054 189.518 329.054C187.447 329.054 185.913 330.23 185.913 331.892C185.913 333.247 186.718 334.155 188.521 334.577L190.157 334.96C191.148 335.19 191.615 335.663 191.615 336.341C191.615 337.185 190.72 337.875 189.314 337.875C188.08 337.875 187.306 337.344 187.038 336.29L185.606 336.648C185.958 338.316 187.332 339.205 189.339 339.205C191.621 339.205 193.174 337.958 193.174 336.264C193.174 334.896 192.318 334.033 190.566 333.605L189.109 333.247C187.946 332.96 187.422 332.57 187.422 331.815C187.422 330.972 188.316 330.358 189.518 330.358C190.835 330.358 191.378 331.087 191.64 331.764L192.995 331.381ZM199.715 329.182H197.618V326.83H196.11V329.182H194.627V330.46H196.11V336.597C196.11 338.31 197.491 339.128 198.769 339.128C199.331 339.128 199.689 339.026 199.894 338.949L199.587 337.594C199.459 337.619 199.255 337.67 198.922 337.67C198.258 337.67 197.618 337.466 197.618 336.188V330.46H199.715V329.182ZM205.995 339.205C207.99 339.205 209.447 338.207 209.907 336.724L208.45 336.315C208.066 337.338 207.178 337.849 205.995 337.849C204.225 337.849 203.004 336.705 202.933 334.602H210.061V333.963C210.061 330.307 207.887 329.054 205.842 329.054C203.183 329.054 201.419 331.151 201.419 334.168C201.419 337.185 203.157 339.205 205.995 339.205ZM202.933 333.298C203.036 331.771 204.116 330.409 205.842 330.409C207.478 330.409 208.526 331.636 208.526 333.298H202.933ZM216.063 339.205C217.955 339.205 218.594 338.028 218.926 337.491H219.105V339H220.563V325.909H219.054V330.741H218.926C218.594 330.23 218.006 329.054 216.088 329.054C213.608 329.054 211.895 331.023 211.895 334.116C211.895 337.236 213.608 339.205 216.063 339.205ZM216.267 337.849C214.375 337.849 213.404 336.188 213.404 334.091C213.404 332.02 214.35 330.409 216.267 330.409C218.108 330.409 219.08 331.892 219.08 334.091C219.08 336.315 218.083 337.849 216.267 337.849ZM228.597 339H230.106V329.182H228.597V339ZM229.365 327.545C229.953 327.545 230.438 327.085 230.438 326.523C230.438 325.96 229.953 325.5 229.365 325.5C228.776 325.5 228.291 325.96 228.291 326.523C228.291 327.085 228.776 327.545 229.365 327.545ZM234.377 333.094C234.377 331.381 235.439 330.409 236.883 330.409C238.283 330.409 239.133 331.323 239.133 332.864V339H240.642V332.761C240.642 330.256 239.306 329.054 237.318 329.054C235.835 329.054 234.914 329.719 234.454 330.716H234.326V329.182H232.869V339H234.377V333.094ZM249.969 325.909H248.461V339H249.969V325.909ZM256.849 339.205C258.843 339.205 260.3 338.207 260.761 336.724L259.303 336.315C258.92 337.338 258.031 337.849 256.849 337.849C255.078 337.849 253.857 336.705 253.787 334.602H260.914V333.963C260.914 330.307 258.741 329.054 256.695 329.054C254.036 329.054 252.272 331.151 252.272 334.168C252.272 337.185 254.011 339.205 256.849 339.205ZM253.787 333.298C253.889 331.771 254.969 330.409 256.695 330.409C258.332 330.409 259.38 331.636 259.38 333.298H253.787ZM266.098 339.23C267.811 339.23 268.706 338.31 269.013 337.67H269.089V339H270.598V332.531C270.598 329.412 268.22 329.054 266.967 329.054C265.484 329.054 263.797 329.565 263.03 331.355L264.462 331.866C264.794 331.151 265.58 330.384 267.018 330.384C268.406 330.384 269.089 331.119 269.089 332.378V332.429C269.089 333.158 268.348 333.094 266.558 333.324C264.737 333.56 262.749 333.963 262.749 336.213C262.749 338.131 264.232 339.23 266.098 339.23ZM266.328 337.875C265.126 337.875 264.257 337.338 264.257 336.29C264.257 335.139 265.305 334.781 266.482 334.628C267.121 334.551 268.834 334.372 269.089 334.065V335.446C269.089 336.673 268.118 337.875 266.328 337.875ZM273.351 339H274.86V332.787C274.86 331.457 275.908 330.486 277.34 330.486C277.743 330.486 278.158 330.562 278.26 330.588V329.054C278.088 329.041 277.692 329.028 277.468 329.028C276.292 329.028 275.269 329.693 274.911 330.665H274.809V329.182H273.351V339ZM281.557 333.094C281.557 331.381 282.618 330.409 284.063 330.409C285.463 330.409 286.313 331.323 286.313 332.864V339H287.821V332.761C287.821 330.256 286.485 329.054 284.498 329.054C283.015 329.054 282.094 329.719 281.634 330.716H281.506V329.182H280.049V339H281.557V333.094ZM290.578 339H292.086V329.182H290.578V339ZM291.345 327.545C291.933 327.545 292.419 327.085 292.419 326.523C292.419 325.96 291.933 325.5 291.345 325.5C290.757 325.5 290.271 325.96 290.271 326.523C290.271 327.085 290.757 327.545 291.345 327.545ZM296.358 333.094C296.358 331.381 297.419 330.409 298.864 330.409C300.263 330.409 301.114 331.323 301.114 332.864V339H302.622V332.761C302.622 330.256 301.286 329.054 299.298 329.054C297.815 329.054 296.895 329.719 296.435 330.716H296.307V329.182H294.849V339H296.358V333.094ZM309.342 342.886C311.694 342.886 313.586 341.812 313.586 339.281V329.182H312.129V330.741H311.975C311.643 330.23 311.029 329.054 309.112 329.054C306.632 329.054 304.919 331.023 304.919 334.04C304.919 337.108 306.708 338.847 309.086 338.847C311.004 338.847 311.617 337.722 311.95 337.185H312.078V339.179C312.078 340.815 310.927 341.557 309.342 341.557C307.558 341.557 306.932 340.617 306.529 340.074L305.328 340.918C305.941 341.947 307.149 342.886 309.342 342.886ZM309.291 337.491C307.399 337.491 306.427 336.06 306.427 334.014C306.427 332.02 307.373 330.409 309.291 330.409C311.132 330.409 312.103 331.892 312.103 334.014C312.103 336.188 311.106 337.491 309.291 337.491ZM321.41 339H322.919V332.864C322.919 331.425 323.967 330.409 325.143 330.409C326.287 330.409 327.086 331.157 327.086 332.276V339H328.62V332.608C328.62 331.342 329.413 330.409 330.794 330.409C331.867 330.409 332.788 330.978 332.788 332.429V339H334.296V332.429C334.296 330.121 333.056 329.054 331.305 329.054C329.899 329.054 328.869 329.7 328.365 330.716H328.262C327.776 329.668 326.92 329.054 325.629 329.054C324.35 329.054 323.404 329.668 322.995 330.716H322.867V329.182H321.41V339ZM341.043 339.205C343.702 339.205 345.492 337.185 345.492 334.142C345.492 331.074 343.702 329.054 341.043 329.054C338.384 329.054 336.594 331.074 336.594 334.142C336.594 337.185 338.384 339.205 341.043 339.205ZM341.043 337.849C339.023 337.849 338.103 336.111 338.103 334.142C338.103 332.173 339.023 330.409 341.043 330.409C343.063 330.409 343.983 332.173 343.983 334.142C343.983 336.111 343.063 337.849 341.043 337.849ZM347.795 339H349.303V332.787C349.303 331.457 350.352 330.486 351.783 330.486C352.186 330.486 352.602 330.562 352.704 330.588V329.054C352.531 329.041 352.135 329.028 351.911 329.028C350.735 329.028 349.712 329.693 349.354 330.665H349.252V329.182H347.795V339ZM358.31 339.205C360.304 339.205 361.761 338.207 362.222 336.724L360.764 336.315C360.381 337.338 359.492 337.849 358.31 337.849C356.539 337.849 355.318 336.705 355.248 334.602H362.375V333.963C362.375 330.307 360.202 329.054 358.156 329.054C355.497 329.054 353.733 331.151 353.733 334.168C353.733 337.185 355.472 339.205 358.31 339.205ZM355.248 333.298C355.35 331.771 356.43 330.409 358.156 330.409C359.793 330.409 360.841 331.636 360.841 333.298H355.248ZM372.621 339.23C374.335 339.23 375.229 338.31 375.536 337.67H375.613V339H377.121V332.531C377.121 329.412 374.744 329.054 373.491 329.054C372.008 329.054 370.32 329.565 369.553 331.355L370.985 331.866C371.317 331.151 372.104 330.384 373.542 330.384C374.929 330.384 375.613 331.119 375.613 332.378V332.429C375.613 333.158 374.871 333.094 373.082 333.324C371.26 333.56 369.272 333.963 369.272 336.213C369.272 338.131 370.755 339.23 372.621 339.23ZM372.852 337.875C371.65 337.875 370.781 337.338 370.781 336.29C370.781 335.139 371.829 334.781 373.005 334.628C373.644 334.551 375.357 334.372 375.613 334.065V335.446C375.613 336.673 374.641 337.875 372.852 337.875ZM380.079 339H381.537V337.491H381.716C382.048 338.028 382.687 339.205 384.579 339.205C387.034 339.205 388.747 337.236 388.747 334.116C388.747 331.023 387.034 329.054 384.554 329.054C382.636 329.054 382.048 330.23 381.716 330.741H381.588V325.909H380.079V339ZM381.562 334.091C381.562 331.892 382.534 330.409 384.375 330.409C386.292 330.409 387.238 332.02 387.238 334.091C387.238 336.188 386.267 337.849 384.375 337.849C382.559 337.849 381.562 336.315 381.562 334.091ZM395.043 339.205C397.702 339.205 399.492 337.185 399.492 334.142C399.492 331.074 397.702 329.054 395.043 329.054C392.384 329.054 390.594 331.074 390.594 334.142C390.594 337.185 392.384 339.205 395.043 339.205ZM395.043 337.849C393.023 337.849 392.103 336.111 392.103 334.142C392.103 332.173 393.023 330.409 395.043 330.409C397.063 330.409 397.983 332.173 397.983 334.142C397.983 336.111 397.063 337.849 395.043 337.849ZM407.982 334.986C407.982 336.827 406.576 337.67 405.451 337.67C404.198 337.67 403.303 336.75 403.303 335.318V329.182H401.795V335.42C401.795 337.926 403.124 339.128 404.965 339.128C406.448 339.128 407.42 338.335 407.88 337.338H407.982V339H409.491V329.182H407.982V334.986ZM416.524 329.182H414.427V326.83H412.919V329.182H411.436V330.46H412.919V336.597C412.919 338.31 414.299 339.128 415.578 339.128C416.14 339.128 416.498 339.026 416.703 338.949L416.396 337.594C416.268 337.619 416.063 337.67 415.731 337.67C415.066 337.67 414.427 337.466 414.427 336.188V330.46H416.524V329.182ZM82.3523 374.682C83.7138 374.682 84.6726 373.96 85.2415 372.432L89.4219 361.207L87.7727 361.182L85.0625 369.006H84.9602L82.25 361.182H80.6136L84.2443 371.051L83.9631 371.818C83.4134 373.314 82.7358 373.455 81.6364 373.173L81.2528 374.503C81.4062 374.58 81.8409 374.682 82.3523 374.682ZM95.0549 371.205C97.714 371.205 99.5037 369.185 99.5037 366.142C99.5037 363.074 97.714 361.054 95.0549 361.054C92.3958 361.054 90.606 363.074 90.606 366.142C90.606 369.185 92.3958 371.205 95.0549 371.205ZM95.0549 369.849C93.035 369.849 92.1145 368.111 92.1145 366.142C92.1145 364.173 93.035 362.409 95.0549 362.409C97.0748 362.409 97.9952 364.173 97.9952 366.142C97.9952 368.111 97.0748 369.849 95.0549 369.849ZM107.994 366.986C107.994 368.827 106.588 369.67 105.463 369.67C104.21 369.67 103.315 368.75 103.315 367.318V361.182H101.806V367.42C101.806 369.926 103.136 371.128 104.977 371.128C106.46 371.128 107.431 370.335 107.892 369.338H107.994V371H109.502V361.182H107.994V366.986ZM112.265 371H113.774V364.787C113.774 363.457 114.822 362.486 116.254 362.486C116.657 362.486 117.072 362.562 117.175 362.588V361.054C117.002 361.041 116.606 361.028 116.382 361.028C115.206 361.028 114.183 361.693 113.825 362.665H113.723V361.182H112.265V371ZM124.025 374.682H125.534V369.491H125.662C125.994 370.028 126.633 371.205 128.525 371.205C130.98 371.205 132.693 369.236 132.693 366.116C132.693 363.023 130.98 361.054 128.5 361.054C126.582 361.054 125.994 362.23 125.662 362.741H125.483V361.182H124.025V374.682ZM125.508 366.091C125.508 363.892 126.48 362.409 128.321 362.409C130.238 362.409 131.184 364.02 131.184 366.091C131.184 368.188 130.213 369.849 128.321 369.849C126.505 369.849 125.508 368.315 125.508 366.091ZM136.502 365.094C136.502 363.381 137.596 362.409 139.085 362.409C140.504 362.409 141.36 363.304 141.36 364.864V371H142.869V364.761C142.869 362.237 141.527 361.054 139.52 361.054C137.973 361.054 137.091 361.7 136.63 362.716H136.502V357.909H134.994V371H136.502V365.094ZM149.617 371.205C152.276 371.205 154.066 369.185 154.066 366.142C154.066 363.074 152.276 361.054 149.617 361.054C146.958 361.054 145.169 363.074 145.169 366.142C145.169 369.185 146.958 371.205 149.617 371.205ZM149.617 369.849C147.597 369.849 146.677 368.111 146.677 366.142C146.677 364.173 147.597 362.409 149.617 362.409C151.637 362.409 152.558 364.173 152.558 366.142C152.558 368.111 151.637 369.849 149.617 369.849ZM157.877 365.094C157.877 363.381 158.939 362.409 160.383 362.409C161.783 362.409 162.633 363.323 162.633 364.864V371H164.142V364.761C164.142 362.256 162.806 361.054 160.818 361.054C159.335 361.054 158.414 361.719 157.954 362.716H157.826V361.182H156.369V371H157.877V365.094ZM171.015 371.205C173.009 371.205 174.466 370.207 174.927 368.724L173.469 368.315C173.086 369.338 172.197 369.849 171.015 369.849C169.244 369.849 168.023 368.705 167.953 366.602H175.08V365.963C175.08 362.307 172.907 361.054 170.861 361.054C168.202 361.054 166.438 363.151 166.438 366.168C166.438 369.185 168.177 371.205 171.015 371.205ZM167.953 365.298C168.055 363.771 169.135 362.409 170.861 362.409C172.498 362.409 173.546 363.636 173.546 365.298H167.953ZM182.437 374.682H183.946V369.491H184.074C184.406 370.028 185.045 371.205 186.937 371.205C189.392 371.205 191.105 369.236 191.105 366.116C191.105 363.023 189.392 361.054 186.912 361.054C184.994 361.054 184.406 362.23 184.074 362.741H183.895V361.182H182.437V374.682ZM183.92 366.091C183.92 363.892 184.892 362.409 186.733 362.409C188.65 362.409 189.596 364.02 189.596 366.091C189.596 368.188 188.625 369.849 186.733 369.849C184.917 369.849 183.92 368.315 183.92 366.091ZM193.406 371H194.915V364.787C194.915 363.457 195.963 362.486 197.395 362.486C197.797 362.486 198.213 362.562 198.315 362.588V361.054C198.143 361.041 197.746 361.028 197.523 361.028C196.346 361.028 195.324 361.693 194.966 362.665H194.863V361.182H193.406V371ZM203.793 371.205C206.452 371.205 208.242 369.185 208.242 366.142C208.242 363.074 206.452 361.054 203.793 361.054C201.134 361.054 199.344 363.074 199.344 366.142C199.344 369.185 201.134 371.205 203.793 371.205ZM203.793 369.849C201.773 369.849 200.853 368.111 200.853 366.142C200.853 364.173 201.773 362.409 203.793 362.409C205.813 362.409 206.733 364.173 206.733 366.142C206.733 368.111 205.813 369.849 203.793 369.849ZM214.252 371.205C216.144 371.205 216.783 370.028 217.116 369.491H217.295V371H218.752V357.909H217.244V362.741H217.116C216.783 362.23 216.195 361.054 214.278 361.054C211.798 361.054 210.085 363.023 210.085 366.116C210.085 369.236 211.798 371.205 214.252 371.205ZM214.457 369.849C212.565 369.849 211.593 368.188 211.593 366.091C211.593 364.02 212.539 362.409 214.457 362.409C216.298 362.409 217.269 363.892 217.269 366.091C217.269 368.315 216.272 369.849 214.457 369.849ZM227.912 366.986C227.912 368.827 226.506 369.67 225.381 369.67C224.128 369.67 223.233 368.75 223.233 367.318V361.182H221.724V367.42C221.724 369.926 223.054 371.128 224.895 371.128C226.378 371.128 227.349 370.335 227.81 369.338H227.912V371H229.42V361.182H227.912V366.986ZM236.172 371.205C238.345 371.205 239.777 369.875 240.033 368.136H238.524C238.243 369.21 237.348 369.849 236.172 369.849C234.382 369.849 233.232 368.366 233.232 366.091C233.232 363.866 234.408 362.409 236.172 362.409C237.502 362.409 238.294 363.227 238.524 364.122H240.033C239.777 362.281 238.218 361.054 236.146 361.054C233.487 361.054 231.723 363.151 231.723 366.142C231.723 369.082 233.411 371.205 236.172 371.205ZM246.508 361.182H244.411V358.83H242.903V361.182H241.42V362.46H242.903V368.597C242.903 370.31 244.284 371.128 245.562 371.128C246.124 371.128 246.482 371.026 246.687 370.949L246.38 369.594C246.252 369.619 246.048 369.67 245.715 369.67C245.051 369.67 244.411 369.466 244.411 368.188V362.46H246.508V361.182ZM260.794 363.381C260.321 361.987 259.26 361.054 257.317 361.054C255.246 361.054 253.712 362.23 253.712 363.892C253.712 365.247 254.517 366.155 256.32 366.577L257.956 366.96C258.947 367.19 259.414 367.663 259.414 368.341C259.414 369.185 258.519 369.875 257.112 369.875C255.879 369.875 255.105 369.344 254.837 368.29L253.405 368.648C253.757 370.316 255.131 371.205 257.138 371.205C259.42 371.205 260.973 369.958 260.973 368.264C260.973 366.896 260.117 366.033 258.365 365.605L256.908 365.247C255.744 364.96 255.22 364.57 255.22 363.815C255.22 362.972 256.115 362.358 257.317 362.358C258.634 362.358 259.177 363.087 259.439 363.764L260.794 363.381ZM269.431 366.986C269.431 368.827 268.025 369.67 266.9 369.67C265.647 369.67 264.752 368.75 264.752 367.318V361.182H263.244V367.42C263.244 369.926 264.574 371.128 266.414 371.128C267.897 371.128 268.869 370.335 269.329 369.338H269.431V371H270.94V361.182H269.431V366.986ZM273.703 371H275.211V361.182H273.703V371ZM274.47 359.545C275.058 359.545 275.544 359.085 275.544 358.523C275.544 357.96 275.058 357.5 274.47 357.5C273.882 357.5 273.396 357.96 273.396 358.523C273.396 359.085 273.882 359.545 274.47 359.545ZM282.244 361.182H280.148V358.83H278.639V361.182H277.156V362.46H278.639V368.597C278.639 370.31 280.02 371.128 281.298 371.128C281.861 371.128 282.219 371.026 282.423 370.949L282.116 369.594C281.989 369.619 281.784 369.67 281.452 369.67C280.787 369.67 280.148 369.466 280.148 368.188V362.46H282.244V361.182ZM288.525 371.205C290.519 371.205 291.976 370.207 292.436 368.724L290.979 368.315C290.596 369.338 289.707 369.849 288.525 369.849C286.754 369.849 285.533 368.705 285.463 366.602H292.59V365.963C292.59 362.307 290.417 361.054 288.371 361.054C285.712 361.054 283.948 363.151 283.948 366.168C283.948 369.185 285.686 371.205 288.525 371.205ZM285.463 365.298C285.565 363.771 286.645 362.409 288.371 362.409C290.007 362.409 291.056 363.636 291.056 365.298H285.463ZM295.984 371.102C296.617 371.102 297.135 370.585 297.135 369.952C297.135 369.319 296.617 368.801 295.984 368.801C295.351 368.801 294.833 369.319 294.833 369.952C294.833 370.585 295.351 371.102 295.984 371.102ZM315.643 362C315.157 359.315 313.009 357.73 310.376 357.73C307.026 357.73 304.597 360.312 304.597 364.455C304.597 368.597 307.026 371.179 310.376 371.179C313.009 371.179 315.157 369.594 315.643 366.909H314.058C313.674 368.724 312.114 369.696 310.376 369.696C307.998 369.696 306.131 367.855 306.131 364.455C306.131 361.054 307.998 359.213 310.376 359.213C312.114 359.213 313.674 360.185 314.058 362H315.643ZM320.889 371.23C322.602 371.23 323.497 370.31 323.804 369.67H323.881V371H325.389V364.531C325.389 361.412 323.011 361.054 321.758 361.054C320.275 361.054 318.588 361.565 317.821 363.355L319.253 363.866C319.585 363.151 320.371 362.384 321.809 362.384C323.197 362.384 323.881 363.119 323.881 364.378V364.429C323.881 365.158 323.139 365.094 321.349 365.324C319.528 365.56 317.54 365.963 317.54 368.213C317.54 370.131 319.023 371.23 320.889 371.23ZM321.119 369.875C319.917 369.875 319.048 369.338 319.048 368.29C319.048 367.139 320.096 366.781 321.273 366.628C321.912 366.551 323.625 366.372 323.881 366.065V367.446C323.881 368.673 322.909 369.875 321.119 369.875ZM329.651 365.094C329.651 363.381 330.712 362.409 332.157 362.409C333.556 362.409 334.407 363.323 334.407 364.864V371H335.915V364.761C335.915 362.256 334.579 361.054 332.591 361.054C331.108 361.054 330.188 361.719 329.728 362.716H329.6V361.182H328.142V371H329.651V365.094ZM345.524 357.909H343.939V371H345.524V357.909ZM360.515 363.381C360.042 361.987 358.981 361.054 357.038 361.054C354.967 361.054 353.433 362.23 353.433 363.892C353.433 365.247 354.238 366.155 356.04 366.577L357.677 366.96C358.668 367.19 359.134 367.663 359.134 368.341C359.134 369.185 358.239 369.875 356.833 369.875C355.599 369.875 354.826 369.344 354.558 368.29L353.126 368.648C353.477 370.316 354.852 371.205 356.859 371.205C359.141 371.205 360.694 369.958 360.694 368.264C360.694 366.896 359.837 366.033 358.086 365.605L356.629 365.247C355.465 364.96 354.941 364.57 354.941 363.815C354.941 362.972 355.836 362.358 357.038 362.358C358.354 362.358 358.898 363.087 359.16 363.764L360.515 363.381ZM367.081 371.205C369.075 371.205 370.533 370.207 370.993 368.724L369.536 368.315C369.152 369.338 368.264 369.849 367.081 369.849C365.311 369.849 364.09 368.705 364.019 366.602H371.146V365.963C371.146 362.307 368.973 361.054 366.928 361.054C364.269 361.054 362.504 363.151 362.504 366.168C362.504 369.185 364.243 371.205 367.081 371.205ZM364.019 365.298C364.122 363.771 365.202 362.409 366.928 362.409C368.564 362.409 369.612 363.636 369.612 365.298H364.019ZM377.711 361.182H375.615V358.83H374.106V361.182H372.623V362.46H374.106V368.597C374.106 370.31 375.487 371.128 376.765 371.128C377.328 371.128 377.686 371.026 377.89 370.949L377.583 369.594C377.455 369.619 377.251 369.67 376.919 369.67C376.254 369.67 375.615 369.466 375.615 368.188V362.46H377.711V361.182ZM391.23 366.986C391.23 368.827 389.824 369.67 388.699 369.67C387.446 369.67 386.551 368.75 386.551 367.318V361.182H385.043V367.42C385.043 369.926 386.372 371.128 388.213 371.128C389.696 371.128 390.668 370.335 391.128 369.338H391.23V371H392.739V361.182H391.23V366.986ZM395.502 374.682H397.01V369.491H397.138C397.471 370.028 398.11 371.205 400.002 371.205C402.456 371.205 404.169 369.236 404.169 366.116C404.169 363.023 402.456 361.054 399.976 361.054C398.059 361.054 397.471 362.23 397.138 362.741H396.959V361.182H395.502V374.682ZM396.985 366.091C396.985 363.892 397.956 362.409 399.797 362.409C401.715 362.409 402.661 364.02 402.661 366.091C402.661 368.188 401.689 369.849 399.797 369.849C397.982 369.849 396.985 368.315 396.985 366.091ZM414.422 371.23C416.135 371.23 417.03 370.31 417.337 369.67H417.414V371H418.922V364.531C418.922 361.412 416.544 361.054 415.292 361.054C413.809 361.054 412.121 361.565 411.354 363.355L412.786 363.866C413.118 363.151 413.904 362.384 415.343 362.384C416.73 362.384 417.414 363.119 417.414 364.378V364.429C417.414 365.158 416.672 365.094 414.882 365.324C413.061 365.56 411.073 365.963 411.073 368.213C411.073 370.131 412.556 371.23 414.422 371.23ZM414.652 369.875C413.451 369.875 412.581 369.338 412.581 368.29C412.581 367.139 413.63 366.781 414.806 366.628C415.445 366.551 417.158 366.372 417.414 366.065V367.446C417.414 368.673 416.442 369.875 414.652 369.875ZM85.0881 403.205C86.9801 403.205 87.6193 402.028 87.9517 401.491H88.1307V403H89.5881V389.909H88.0795V394.741H87.9517C87.6193 394.23 87.0312 393.054 85.1136 393.054C82.6335 393.054 80.9205 395.023 80.9205 398.116C80.9205 401.236 82.6335 403.205 85.0881 403.205ZM85.2926 401.849C83.4006 401.849 82.429 400.188 82.429 398.091C82.429 396.02 83.375 394.409 85.2926 394.409C87.1335 394.409 88.1051 395.892 88.1051 398.091C88.1051 400.315 87.108 401.849 85.2926 401.849ZM96.6768 403.205C98.6712 403.205 100.129 402.207 100.589 400.724L99.1314 400.315C98.7479 401.338 97.8594 401.849 96.6768 401.849C94.9062 401.849 93.6854 400.705 93.6151 398.602H100.742V397.963C100.742 394.307 98.5689 393.054 96.5234 393.054C93.8643 393.054 92.1001 395.151 92.1001 398.168C92.1001 401.185 93.8388 403.205 96.6768 403.205ZM93.6151 397.298C93.7173 395.771 94.7976 394.409 96.5234 394.409C98.1598 394.409 99.2081 395.636 99.2081 397.298H93.6151ZM103.037 403H104.545V396.864C104.545 395.425 105.594 394.409 106.77 394.409C107.914 394.409 108.713 395.157 108.713 396.276V403H110.247V396.608C110.247 395.342 111.04 394.409 112.42 394.409C113.494 394.409 114.415 394.978 114.415 396.429V403H115.923V396.429C115.923 394.121 114.683 393.054 112.932 393.054C111.526 393.054 110.496 393.7 109.991 394.716H109.889C109.403 393.668 108.547 393.054 107.256 393.054C105.977 393.054 105.031 393.668 104.622 394.716H104.494V393.182H103.037V403ZM122.67 403.205C125.329 403.205 127.119 401.185 127.119 398.142C127.119 395.074 125.329 393.054 122.67 393.054C120.011 393.054 118.221 395.074 118.221 398.142C118.221 401.185 120.011 403.205 122.67 403.205ZM122.67 401.849C120.65 401.849 119.73 400.111 119.73 398.142C119.73 396.173 120.65 394.409 122.67 394.409C124.69 394.409 125.61 396.173 125.61 398.142C125.61 400.111 124.69 401.849 122.67 401.849ZM136.709 403H138.192L140.339 395.457H140.493L142.64 403H144.123L147.115 393.182H145.53L143.407 400.673H143.305L141.234 393.182H139.623L137.527 400.699H137.425L135.302 393.182H133.717L136.709 403ZM149.109 403H150.618V393.182H149.109V403ZM149.876 391.545C150.464 391.545 150.95 391.085 150.95 390.523C150.95 389.96 150.464 389.5 149.876 389.5C149.288 389.5 148.802 389.96 148.802 390.523C148.802 391.085 149.288 391.545 149.876 391.545ZM157.651 393.182H155.554V390.83H154.045V393.182H152.562V394.46H154.045V400.597C154.045 402.31 155.426 403.128 156.705 403.128C157.267 403.128 157.625 403.026 157.83 402.949L157.523 401.594C157.395 401.619 157.19 401.67 156.858 401.67C156.193 401.67 155.554 401.466 155.554 400.188V394.46H157.651V393.182ZM161.639 397.094C161.639 395.381 162.732 394.409 164.222 394.409C165.641 394.409 166.497 395.304 166.497 396.864V403H168.006V396.761C168.006 394.237 166.663 393.054 164.656 393.054C163.109 393.054 162.227 393.7 161.767 394.716H161.639V389.909H160.131V403H161.639V397.094ZM178.717 403.23C180.43 403.23 181.325 402.31 181.632 401.67H181.709V403H183.217V396.531C183.217 393.412 180.839 393.054 179.586 393.054C178.104 393.054 176.416 393.565 175.649 395.355L177.081 395.866C177.413 395.151 178.199 394.384 179.638 394.384C181.025 394.384 181.709 395.119 181.709 396.378V396.429C181.709 397.158 180.967 397.094 179.177 397.324C177.356 397.56 175.368 397.963 175.368 400.213C175.368 402.131 176.851 403.23 178.717 403.23ZM178.947 401.875C177.746 401.875 176.876 401.338 176.876 400.29C176.876 399.139 177.925 398.781 179.101 398.628C179.74 398.551 181.453 398.372 181.709 398.065V399.446C181.709 400.673 180.737 401.875 178.947 401.875ZM191.033 403H192.542V396.864C192.542 395.425 193.59 394.409 194.766 394.409C195.91 394.409 196.709 395.157 196.709 396.276V403H198.243V396.608C198.243 395.342 199.036 394.409 200.417 394.409C201.49 394.409 202.411 394.978 202.411 396.429V403H203.919V396.429C203.919 394.121 202.679 393.054 200.928 393.054C199.522 393.054 198.493 393.7 197.988 394.716H197.885C197.4 393.668 196.543 393.054 195.252 393.054C193.973 393.054 193.027 393.668 192.618 394.716H192.49V393.182H191.033V403ZM210.794 403.205C212.788 403.205 214.246 402.207 214.706 400.724L213.249 400.315C212.865 401.338 211.977 401.849 210.794 401.849C209.023 401.849 207.803 400.705 207.732 398.602H214.859V397.963C214.859 394.307 212.686 393.054 210.641 393.054C207.982 393.054 206.217 395.151 206.217 398.168C206.217 401.185 207.956 403.205 210.794 403.205ZM207.732 397.298C207.835 395.771 208.915 394.409 210.641 394.409C212.277 394.409 213.325 395.636 213.325 397.298H207.732ZM217.154 403H218.663V396.864C218.663 395.425 219.711 394.409 220.887 394.409C222.031 394.409 222.83 395.157 222.83 396.276V403H224.364V396.608C224.364 395.342 225.157 394.409 226.538 394.409C227.612 394.409 228.532 394.978 228.532 396.429V403H230.04V396.429C230.04 394.121 228.8 393.054 227.049 393.054C225.643 393.054 224.614 393.7 224.109 394.716H224.006C223.521 393.668 222.664 393.054 221.373 393.054C220.094 393.054 219.148 393.668 218.739 394.716H218.612V393.182H217.154V403ZM233.003 403H234.461V401.491H234.64C234.972 402.028 235.611 403.205 237.503 403.205C239.958 403.205 241.671 401.236 241.671 398.116C241.671 395.023 239.958 393.054 237.478 393.054C235.56 393.054 234.972 394.23 234.64 394.741H234.512V389.909H233.003V403ZM234.486 398.091C234.486 395.892 235.458 394.409 237.299 394.409C239.216 394.409 240.162 396.02 240.162 398.091C240.162 400.188 239.191 401.849 237.299 401.849C235.483 401.849 234.486 400.315 234.486 398.091ZM248.095 403.205C250.089 403.205 251.547 402.207 252.007 400.724L250.549 400.315C250.166 401.338 249.277 401.849 248.095 401.849C246.324 401.849 245.103 400.705 245.033 398.602H252.16V397.963C252.16 394.307 249.987 393.054 247.941 393.054C245.282 393.054 243.518 395.151 243.518 398.168C243.518 401.185 245.257 403.205 248.095 403.205ZM245.033 397.298C245.135 395.771 246.216 394.409 247.941 394.409C249.578 394.409 250.626 395.636 250.626 397.298H245.033ZM254.455 403H255.963V396.787C255.963 395.457 257.012 394.486 258.444 394.486C258.846 394.486 259.262 394.562 259.364 394.588V393.054C259.191 393.041 258.795 393.028 258.571 393.028C257.395 393.028 256.373 393.693 256.015 394.665H255.912V393.182H254.455V403ZM270.203 403.205C272.862 403.205 274.652 401.185 274.652 398.142C274.652 395.074 272.862 393.054 270.203 393.054C267.544 393.054 265.754 395.074 265.754 398.142C265.754 401.185 267.544 403.205 270.203 403.205ZM270.203 401.849C268.183 401.849 267.263 400.111 267.263 398.142C267.263 396.173 268.183 394.409 270.203 394.409C272.223 394.409 273.144 396.173 273.144 398.142C273.144 400.111 272.223 401.849 270.203 401.849ZM281.327 393.182H279.128V392.185C279.128 391.213 279.537 390.702 280.534 390.702C280.969 390.702 281.225 390.804 281.378 390.855L281.813 389.551C281.583 389.449 281.123 389.295 280.381 389.295C278.975 389.295 277.62 390.139 277.62 391.827V393.182H276.034V394.46H277.62V403H279.128V394.46H281.327V393.182ZM289.475 406.682C290.837 406.682 291.796 405.96 292.365 404.432L296.545 393.207L294.896 393.182L292.186 401.006H292.083L289.373 393.182H287.737L291.367 403.051L291.086 403.818C290.536 405.314 289.859 405.455 288.759 405.173L288.376 406.503C288.529 406.58 288.964 406.682 289.475 406.682ZM302.178 403.205C304.837 403.205 306.627 401.185 306.627 398.142C306.627 395.074 304.837 393.054 302.178 393.054C299.519 393.054 297.729 395.074 297.729 398.142C297.729 401.185 299.519 403.205 302.178 403.205ZM302.178 401.849C300.158 401.849 299.238 400.111 299.238 398.142C299.238 396.173 300.158 394.409 302.178 394.409C304.198 394.409 305.118 396.173 305.118 398.142C305.118 400.111 304.198 401.849 302.178 401.849ZM315.117 398.986C315.117 400.827 313.711 401.67 312.586 401.67C311.333 401.67 310.438 400.75 310.438 399.318V393.182H308.93V399.42C308.93 401.926 310.259 403.128 312.1 403.128C313.583 403.128 314.555 402.335 315.015 401.338H315.117V403H316.626V393.182H315.117V398.986ZM319.388 403H320.897V396.787C320.897 395.457 321.945 394.486 323.377 394.486C323.78 394.486 324.195 394.562 324.298 394.588V393.054C324.125 393.041 323.729 393.028 323.505 393.028C322.329 393.028 321.306 393.693 320.948 394.665H320.846V393.182H319.388V403ZM335.418 393.182H333.322V390.83H331.813V393.182H330.33V394.46H331.813V400.597C331.813 402.31 333.194 403.128 334.472 403.128C335.035 403.128 335.393 403.026 335.597 402.949L335.29 401.594C335.162 401.619 334.958 401.67 334.626 401.67C333.961 401.67 333.322 401.466 333.322 400.188V394.46H335.418V393.182ZM341.698 403.205C343.693 403.205 345.15 402.207 345.61 400.724L344.153 400.315C343.769 401.338 342.881 401.849 341.698 401.849C339.928 401.849 338.707 400.705 338.637 398.602H345.764V397.963C345.764 394.307 343.59 393.054 341.545 393.054C338.886 393.054 337.122 395.151 337.122 398.168C337.122 401.185 338.86 403.205 341.698 403.205ZM338.637 397.298C338.739 395.771 339.819 394.409 341.545 394.409C343.181 394.409 344.23 395.636 344.23 397.298H338.637ZM350.948 403.23C352.661 403.23 353.556 402.31 353.862 401.67H353.939V403H355.448V396.531C355.448 393.412 353.07 393.054 351.817 393.054C350.334 393.054 348.646 393.565 347.879 395.355L349.311 395.866C349.644 395.151 350.43 394.384 351.868 394.384C353.255 394.384 353.939 395.119 353.939 396.378V396.429C353.939 397.158 353.198 397.094 351.408 397.324C349.586 397.56 347.598 397.963 347.598 400.213C347.598 402.131 349.081 403.23 350.948 403.23ZM351.178 401.875C349.976 401.875 349.107 401.338 349.107 400.29C349.107 399.139 350.155 398.781 351.331 398.628C351.97 398.551 353.683 398.372 353.939 398.065V399.446C353.939 400.673 352.968 401.875 351.178 401.875ZM358.201 403H359.71V396.864C359.71 395.425 360.758 394.409 361.934 394.409C363.078 394.409 363.877 395.157 363.877 396.276V403H365.411V396.608C365.411 395.342 366.204 394.409 367.585 394.409C368.658 394.409 369.579 394.978 369.579 396.429V403H371.087V396.429C371.087 394.121 369.847 393.054 368.096 393.054C366.69 393.054 365.661 393.7 365.156 394.716H365.053C364.567 393.668 363.711 393.054 362.42 393.054C361.141 393.054 360.195 393.668 359.786 394.716H359.658V393.182H358.201V403ZM375.814 399.318H377.348V399.241C377.374 397.656 377.783 396.966 378.908 396.263C380.033 395.579 380.698 394.594 380.698 393.182C380.698 391.188 379.24 389.73 376.99 389.73C374.919 389.73 373.277 391.009 373.181 393.182H374.792C374.887 391.673 375.942 391.06 376.99 391.06C378.192 391.06 379.164 391.852 379.164 393.105C379.164 394.121 378.582 394.85 377.834 395.304C376.581 396.065 375.833 396.806 375.814 399.241V399.318ZM376.632 403.102C377.265 403.102 377.783 402.585 377.783 401.952C377.783 401.319 377.265 400.801 376.632 400.801C376 400.801 375.482 401.319 375.482 401.952C375.482 402.585 376 403.102 376.632 403.102Z" fill="black"/>
<defs>
<filter id="filter0_dd" x="37" y="302" width="454" height="190" filterUnits="userSpaceOnUse" color-interpolation-filters="sRGB">
<feFlood flood-opacity="0" result="BackgroundImageFix"/>
<feColorMatrix in="SourceAlpha" type="matrix" values="0 0 0 0 0 0 0 0 0 0 0 0 0 0 0 0 0 0 127 0"/>
<feOffset dy="1"/>
<feGaussianBlur stdDeviation="1.5"/>
<feColorMatrix type="matrix" values="0 0 0 0 0.290196 0 0 0 0 0.290196 0 0 0 0 0.545098 0 0 0 0.1 0"/>
<feBlend mode="normal" in2="BackgroundImageFix" result="effect1_dropShadow"/>
<feColorMatrix in="SourceAlpha" type="matrix" values="0 0 0 0 0 0 0 0 0 0 0 0 0 0 0 0 0 0 127 0"/>
<feOffset dy="1"/>
<feGaussianBlur stdDeviation="1"/>
<feColorMatrix type="matrix" values="0 0 0 0 0.290196 0 0 0 0 0.290196 0 0 0 0 0.545098 0 0 0 0.06 0"/>
<feBlend mode="normal" in2="effect1_dropShadow" result="effect2_dropShadow"/>
<feBlend mode="normal" in="SourceGraphic" in2="effect2_dropShadow" result="shape"/>
</filter>
</defs>
</svg>
