<svg width="90" height="38" viewBox="0 0 90 38" fill="none" xmlns="http://www.w3.org/2000/svg">
<path d="M79.8972 14.7327C80.648 11.7664 82.5853 10.6986 84.1477 10.6986C85.8674 10.6986 87.5484 11.7071 87.7654 14.7327H79.8972ZM84.8791 26.1432C87.1525 26.1432 88.7149 25.3522 89.8809 24.4425L89.5255 23.9283C88.4381 24.7392 87.1132 25.3127 85.4129 25.3127C82.3284 25.3127 79.5999 23.434 79.5999 17.8771C79.5999 16.8092 79.6791 15.8599 79.7582 15.4842H90C89.3478 11.4698 86.8369 10.0064 84.1477 10.0064C81.0239 10.0064 76.9904 12.775 76.9904 17.9759C76.9904 23.5131 80.9846 26.1432 84.8791 26.1432ZM66.7885 25.8862H72.1464V25.3324C70.6631 24.9765 70.6238 24.5019 70.6238 20.4874V14.8712L72.3042 13.0321C72.8584 12.3992 73.1153 12.2015 73.6092 12.2015C74.3018 12.2015 74.7957 12.8343 75.6262 12.8343C76.3975 12.8343 76.8321 12.2015 76.8321 11.3116C76.8321 10.6195 76.3377 10.1448 75.4679 10.1448C74.3212 10.1448 73.649 10.7776 72.3042 12.241L70.6238 14.0604V10.0064L66.7487 12.0828V12.6563C68.1328 12.775 68.1328 12.8738 68.1328 17.1849V20.4874C68.1328 24.5019 68.093 24.9765 66.7885 25.3324V25.8862ZM55.3603 14.7327C56.1116 11.7664 58.0494 10.6986 59.6113 10.6986C61.331 10.6986 63.0114 11.7071 63.229 14.7327H55.3603ZM60.3427 26.1432C62.6166 26.1432 64.1785 25.3522 65.3451 24.4425L64.9891 23.9283C63.9017 24.7392 62.5768 25.3127 60.8765 25.3127C57.792 25.3127 55.0637 23.434 55.0637 17.8771C55.0637 16.8092 55.1428 15.8599 55.2219 15.4842H65.4636C64.8108 11.4698 62.2999 10.0064 59.6113 10.0064C56.4872 10.0064 52.4539 12.775 52.4539 17.9759C52.4539 23.5131 56.4477 26.1432 60.3427 26.1432ZM32.1683 14.4163C33.0976 14.4163 33.8093 13.7044 33.8093 12.775C33.8093 11.8653 33.0976 11.1534 32.1683 11.1534C31.2588 11.1534 30.5668 11.8653 30.5668 12.775C30.5668 13.7044 31.2588 14.4163 32.1683 14.4163ZM32.1683 26.2025C33.0976 26.2025 33.8093 25.5302 33.8093 24.6008C33.8093 23.6713 33.0976 22.9792 32.1683 22.9792C31.2588 22.9792 30.5668 23.6713 30.5668 24.6008C30.5668 25.5302 31.2588 26.2025 32.1683 26.2025ZM21.1753 25.5104C18.6643 25.5104 16.4499 23.5329 16.4499 18.1737C16.4499 12.8343 18.6643 10.6788 21.1753 10.6788C23.7258 10.6788 25.96 12.8343 25.96 18.1737C25.96 23.5329 23.7258 25.5104 21.1753 25.5104ZM21.1753 26.163C24.4969 26.163 28.6094 23.3351 28.6094 18.1737C28.6094 13.0123 24.4969 10.0064 21.1753 10.0064C17.8933 10.0064 13.7807 13.0123 13.7807 18.1737C13.7807 23.3351 17.8933 26.163 21.1753 26.163ZM7.69113 26.1037C10.0242 26.1037 11.7047 25.2138 12.7328 23.9086L12.3968 23.4933C11.4279 24.5612 10.0242 25.2731 8.22497 25.2731C4.88356 25.2731 2.59007 23.1769 2.59007 17.8375C2.59007 12.6761 5.04174 10.7381 7.79001 10.7381C9.01584 10.7381 9.82646 11.1929 10.0242 11.984C10.1428 12.4981 10.3405 13.4671 11.3489 13.4671C12.1595 13.4671 12.6538 12.9332 12.6538 12.1027C12.6538 10.6986 10.2219 10.0459 7.75042 10.0459C4.15202 10.0459 0 13.1111 0 18.0155C0 23.078 3.65774 26.1037 7.69113 26.1037ZM35.9644 25.8862H41.2434V25.3324C39.8198 24.9765 39.7803 24.5019 39.7803 20.4874V14.4361L40.8876 13.4276C42.8647 11.6082 44.051 11.0545 45.1187 11.0545C46.4631 11.0545 47.2737 11.8455 47.2737 13.9616V20.4874C47.2737 24.5019 47.2144 24.9765 45.7909 25.3324V25.8862H51.0896V25.3324C49.7649 24.9765 49.7649 24.5019 49.7649 20.4874V14.0999C49.7649 11.2325 48.3018 10.0855 45.8502 10.0855C44.2883 10.0855 42.7658 10.8765 40.8876 12.6365L39.7803 13.6451V0L35.9446 1.97755V2.51149C37.2891 2.57082 37.2891 2.6697 37.2891 6.56544V20.4874C37.2891 24.5019 37.2496 24.9765 35.9644 25.3324V25.8862Z" fill="white"/>
</svg>
