<svg width="83" height="21" viewBox="0 0 83 21" fill="none" xmlns="http://www.w3.org/2000/svg">
<path d="M59.3342 7.70005C58.1213 7.70005 57.2529 8.11354 56.8303 8.89917L56.6006 9.32184V7.9068H54.625V16.5441H56.7062V11.4077C56.7062 10.181 57.3724 9.47346 58.5439 9.47346C59.7155 9.47346 60.2898 10.158 60.2898 11.3525V16.5441H62.371V10.9804C62.3572 8.92673 61.227 7.70005 59.3342 7.70005ZM49.2543 7.70005C46.8009 7.70005 45.2756 9.22996 45.2756 11.6925V12.9054C45.2756 15.2761 46.8147 16.7462 49.2864 16.7462C50.9404 16.7462 52.1027 16.1398 52.8332 14.9085L51.5422 14.1688C51.2797 14.5217 50.9399 14.8099 50.549 15.0113C50.158 15.2128 49.7261 15.3222 49.2864 15.3312C48.0322 15.3312 47.2879 14.5594 47.2879 13.2638V12.9192H53.0951V11.4766C53.0951 9.18401 51.5836 7.70005 49.2543 7.70005ZM51.2022 11.5087H47.2879V11.302C47.2879 9.87776 47.9862 9.09672 49.2543 9.09672C50.5223 9.09672 51.2022 9.86857 51.2022 11.1642V11.5087ZM82.9995 6.48715V4.8332H75.8094V6.48715H78.3316V14.8947H75.8094V16.5487H82.9995V14.8947H80.4772V6.48715H82.9995ZM28.4788 4.5943C25.2674 4.5943 23.2734 6.59742 23.2734 9.81803V11.5593C23.2734 14.7753 25.2674 16.783 28.4788 16.783C31.6902 16.783 33.6841 14.7799 33.6841 11.5593V9.81803C33.6887 6.59742 31.6902 4.5943 28.4788 4.5943ZM31.5432 11.6787C31.5432 13.8197 30.4268 15.0464 28.4834 15.0464C26.54 15.0464 25.4236 13.8197 25.4236 11.6787V9.69858C25.4236 7.55763 26.54 6.33095 28.4834 6.33095C30.4268 6.33095 31.5432 7.55763 31.5432 9.69858V11.6787ZM40.2218 7.70005C39.7335 7.67625 39.2469 7.77422 38.8058 7.98513C38.3648 8.19605 37.983 8.5133 37.695 8.90836L37.4699 9.25293V7.9068H35.4943V19.5166H37.5755V15.3128L37.796 15.6436C38.0836 16.012 38.4561 16.3053 38.8818 16.4981C39.3075 16.691 39.7736 16.7777 40.2402 16.7508C42.032 16.7508 43.8422 15.5793 43.8422 12.9605V11.4904C43.8376 9.60669 42.7166 7.70005 40.2172 7.70005H40.2218ZM41.7609 12.8549C41.7609 14.2332 40.9477 15.1107 39.643 15.1107C38.4255 15.1107 37.5755 14.1918 37.5755 12.887V11.6098C37.5755 10.2821 38.4347 9.354 39.6613 9.354C40.9569 9.354 41.7655 10.2177 41.7655 11.6098L41.7609 12.8549ZM68.1001 4.8332L63.9009 16.5441H66.0005L66.8045 14.0356H71.6285V14.0586L72.4325 16.5441H74.5459L70.3467 4.8332H68.1001ZM67.3375 12.3817L69.2165 6.45959L71.091 12.3817H67.3375Z" fill="#fff"/>
<path d="M19.9543 10.4171C19.7395 9.60014 19.3187 8.85193 18.7322 8.24399C18.976 7.56882 19.0678 6.84817 19.0011 6.13344C18.9344 5.41871 18.7108 4.7275 18.3463 4.10911C17.7924 3.1806 16.9573 2.45254 15.9619 2.03044C14.9666 1.60834 13.8627 1.51412 12.8102 1.76142C12.2195 1.07351 11.4546 0.557189 10.5957 0.266588C9.7368 -0.0240122 8.81555 -0.0781875 7.92852 0.109742C7.0415 0.297672 6.22136 0.720784 5.55412 1.33472C4.88687 1.94865 4.39708 2.7308 4.1361 3.59914C3.42077 3.72447 2.74126 4.00387 2.14468 4.41799C1.5481 4.8321 1.04872 5.37102 0.681181 5.99737C0.135731 6.92524 -0.0916793 8.0059 0.0335497 9.07491C0.158779 10.1439 0.629792 11.1428 1.37492 11.9194C1.13112 12.5946 1.0393 13.3153 1.10601 14.03C1.17271 14.7447 1.39631 15.4359 1.76084 16.0543C2.31115 16.9861 3.14603 17.7167 4.14264 18.1385C5.13925 18.5603 6.24494 18.6511 7.29699 18.3974C7.88587 19.0868 8.64937 19.6051 9.50745 19.8979C10.3655 20.1908 11.2866 20.2474 12.1741 20.0618C13.0616 19.8762 13.8828 19.4553 14.5516 18.8432C15.2205 18.2311 15.7123 17.4503 15.9756 16.5827C16.691 16.4573 17.3705 16.1779 17.9671 15.7638C18.5636 15.3497 19.063 14.8108 19.4306 14.1844C19.7647 13.6231 19.9831 13.0007 20.0731 12.3537C20.163 11.7067 20.1227 11.0482 19.9543 10.4171ZM16.1916 15.1355C16.1884 15.0814 16.171 15.0292 16.1411 14.984C16.1113 14.9388 16.07 14.9023 16.0216 14.8782V10.1966C16.0426 10.0995 16.0315 9.99821 15.9901 9.90793C15.9487 9.81764 15.8791 9.74321 15.7919 9.69579L11.1976 7.10001L12.8561 6.15817L16.7429 8.36804C17.1776 8.61278 17.559 8.94215 17.8643 9.33669C18.1697 9.73123 18.393 10.183 18.5209 10.6652C18.6494 11.1385 18.6818 11.6327 18.6163 12.1188C18.5508 12.6048 18.3887 13.0729 18.1396 13.4953C17.7006 14.2518 17.0118 14.8318 16.1916 15.1355V15.1355ZM3.91557 5.02797C3.91874 5.08262 3.93664 5.1354 3.96738 5.18069C3.99812 5.22599 4.04054 5.26212 4.09016 5.28525V9.96686C4.06287 10.0635 4.07047 10.1666 4.11164 10.2582C4.1528 10.3498 4.2249 10.4239 4.31528 10.4676L8.90959 13.0634L7.25104 14.0053L3.34588 11.7908C2.91112 11.546 2.5298 11.2167 2.22442 10.8221C1.91905 10.4276 1.69581 9.97588 1.56788 9.49364C1.43941 9.02033 1.40696 8.52609 1.47245 8.04005C1.53794 7.554 1.70005 7.08598 1.94921 6.66355C2.39358 5.90548 3.08925 5.32684 3.91557 5.02797V5.02797ZM17.5653 7.35269C17.4674 7.30296 17.3549 7.28992 17.2483 7.31594L13.1593 4.99122C13.0724 4.9421 12.9743 4.91629 12.8745 4.91629C12.7747 4.91629 12.6765 4.9421 12.5896 4.99122L7.931 7.65132V5.72171L11.8913 3.51185C12.7685 3.01252 13.8065 2.87718 14.7824 3.1349C15.7583 3.39261 16.5942 4.02283 17.1104 4.89014C17.5478 5.63501 17.7088 6.51012 17.5653 7.36188V7.35269ZM10.0536 7.78456L12.1761 8.98827V11.2073L10.0536 12.3789L7.93559 11.1752V8.96989L10.0536 7.78456ZM11.2389 2.56083L7.08105 4.88555C6.99124 4.93085 6.91878 5.00438 6.87479 5.09485C6.8308 5.18531 6.81772 5.28771 6.83756 5.38633V10.5411L5.16523 9.62228V5.30363C5.16783 5.27306 5.16783 5.24232 5.16523 5.21175C5.1736 4.48933 5.38653 3.78408 5.77934 3.17773C6.17215 2.57139 6.72875 2.08878 7.38463 1.78584C8.04051 1.48291 8.76882 1.37205 9.48513 1.46611C10.2014 1.56018 10.8764 1.85532 11.4319 2.31733C11.3412 2.37363 11.273 2.45972 11.2389 2.56083V2.56083ZM2.54188 12.8015C2.60311 12.833 2.67063 12.8502 2.73943 12.8521C2.77908 12.8573 2.81924 12.8573 2.85888 12.8521L6.94782 15.1768C7.03457 15.2264 7.13276 15.2524 7.23267 15.2524C7.33258 15.2524 7.43076 15.2264 7.51751 15.1768L12.1807 12.5259V14.4555L8.21585 16.6516C7.33867 17.1509 6.30063 17.2862 5.32474 17.0285C4.34885 16.7708 3.51298 16.1406 2.99671 15.2733C2.55937 14.5284 2.39834 13.6533 2.54188 12.8015ZM8.86824 17.6026L13.0307 15.2825C13.1205 15.2362 13.1927 15.1617 13.2358 15.0703C13.279 14.9789 13.2909 14.8759 13.2696 14.7771V9.62228L14.9373 10.5411V14.8598C14.9347 14.8904 14.9347 14.9211 14.9373 14.9517C14.9282 15.6733 14.7151 16.3775 14.3225 16.9831C13.9299 17.5886 13.374 18.0706 12.7189 18.3734C12.0639 18.6761 11.3365 18.7873 10.6209 18.694C9.90534 18.6007 9.23079 18.3067 8.67528 17.8461C8.76592 17.7898 8.83415 17.7037 8.86824 17.6026Z" fill="#fff"/>
</svg>
